<svg width="102" height="106" viewBox="0 0 102 106" fill="none" xmlns="http://www.w3.org/2000/svg">
<path d="M44 4V10" stroke="#0360B2" stroke-width="1.5" stroke-miterlimit="10" stroke-linecap="round" stroke-linejoin="round"/>
<path d="M60 4V10" stroke="#0360B2" stroke-width="1.5" stroke-miterlimit="10" stroke-linecap="round" stroke-linejoin="round"/>
<path d="M35 18.1797H69" stroke="#7DE2B7" stroke-width="1.5" stroke-miterlimit="10" stroke-linecap="round" stroke-linejoin="round"/>
<path d="M70 17V34C70 40 67 44 60 44H44C37 44 34 40 34 34V17C34 11 37 7 44 7H60C67 7 70 11 70 17Z" stroke="#0360B2" stroke-width="1.5" stroke-miterlimit="10" stroke-linecap="round" stroke-linejoin="round"/>
<path d="M44.5886 27.4004H44.6066" stroke="#7DE2B7" stroke-width="2" stroke-linecap="round" stroke-linejoin="round"/>
<path d="M44.5886 33.4004H44.6066" stroke="#7DE2B7" stroke-width="2" stroke-linecap="round" stroke-linejoin="round"/>
<path d="M0.674531 85.28L4.35453 84H5.95453V98H4.11453V86L1.13453 86.88L0.674531 85.28ZM16.3234 92.7H9.02344V91.02H16.3234V92.7ZM27.5764 98H18.5364V96.48L23.4764 91.44C24.7964 90.12 25.4564 88.9867 25.4564 88.04C25.4564 87.2667 25.2164 86.66 24.7364 86.22C24.2697 85.7667 23.6831 85.54 22.9764 85.54C21.6564 85.54 20.6964 86.1667 20.0964 87.42L18.5364 86.5C18.9631 85.6067 19.5631 84.9267 20.3364 84.46C21.1097 83.98 21.9831 83.74 22.9564 83.74C24.1431 83.74 25.1631 84.1267 26.0164 84.9C26.8831 85.6867 27.3164 86.7267 27.3164 88.02C27.3164 89.4333 26.4831 90.9733 24.8164 92.64L21.2364 96.2H27.5764V98ZM45.4833 87.74C46.6166 87.74 47.5233 88.1067 48.2033 88.84C48.8966 89.5733 49.2433 90.5533 49.2433 91.78V98H47.5033V91.84C47.5033 91.08 47.3033 90.4867 46.9033 90.06C46.5166 89.62 45.9833 89.4 45.3033 89.4C44.5299 89.4 43.9233 89.66 43.4833 90.18C43.0566 90.6867 42.8433 91.44 42.8433 92.44V98H41.1033V91.84C41.1033 91.08 40.9099 90.4867 40.5233 90.06C40.1499 89.62 39.6366 89.4 38.9833 89.4C38.2233 89.4 37.6033 89.6667 37.1233 90.2C36.6566 90.72 36.4233 91.4667 36.4233 92.44V98H34.6833V88H36.4233V89.34C37.1033 88.2733 38.0966 87.74 39.4033 87.74C40.7499 87.74 41.7299 88.3067 42.3433 89.44C43.0366 88.3067 44.0833 87.74 45.4833 87.74ZM60.0959 96.74C59.0826 97.7533 57.8359 98.26 56.3559 98.26C54.8759 98.26 53.6293 97.7533 52.6159 96.74C51.6026 95.7267 51.0959 94.48 51.0959 93C51.0959 91.52 51.6026 90.2733 52.6159 89.26C53.6293 88.2467 54.8759 87.74 56.3559 87.74C57.8359 87.74 59.0826 88.2467 60.0959 89.26C61.1226 90.2867 61.6359 91.5333 61.6359 93C61.6359 94.4667 61.1226 95.7133 60.0959 96.74ZM56.3559 96.56C57.3559 96.56 58.1959 96.22 58.8759 95.54C59.5559 94.86 59.8959 94.0133 59.8959 93C59.8959 91.9867 59.5559 91.14 58.8759 90.46C58.1959 89.78 57.3559 89.44 56.3559 89.44C55.3693 89.44 54.5359 89.78 53.8559 90.46C53.1759 91.14 52.8359 91.9867 52.8359 93C52.8359 94.0133 53.1759 94.86 53.8559 95.54C54.5359 96.22 55.3693 96.56 56.3559 96.56ZM68.6672 87.74C69.8405 87.74 70.7805 88.1133 71.4872 88.86C72.1939 89.5933 72.5472 90.5933 72.5472 91.86V98H70.8072V91.96C70.8072 91.16 70.5872 90.5333 70.1472 90.08C69.7072 89.6267 69.1005 89.4 68.3272 89.4C67.4339 89.4 66.7272 89.68 66.2072 90.24C65.6872 90.7867 65.4272 91.6067 65.4272 92.7V98H63.6872V88H65.4272V89.44C66.1205 88.3067 67.2005 87.74 68.6672 87.74ZM80.4163 88V89.68H77.7563V95.1C77.7563 95.5933 77.8496 95.9467 78.0363 96.16C78.2363 96.36 78.5363 96.4667 78.9362 96.48C79.3362 96.48 79.8296 96.4667 80.4163 96.44V98C78.8829 98.2 77.7629 98.0733 77.0563 97.62C76.3629 97.1667 76.0163 96.3267 76.0163 95.1V89.68H74.0363V88H76.0163V85.72L77.7563 85.2V88H80.4163ZM87.4563 87.74C88.6296 87.74 89.5696 88.1133 90.2763 88.86C90.9829 89.5933 91.3363 90.5933 91.3363 91.86V98H89.5963V91.96C89.5963 91.16 89.3763 90.5333 88.9363 90.08C88.4963 89.6267 87.8896 89.4 87.1163 89.4C86.2229 89.4 85.5163 89.68 84.9963 90.24C84.4763 90.7867 84.2163 91.6067 84.2163 92.7V98H82.4762V84H84.2163V89.44C84.9096 88.3067 85.9896 87.74 87.4563 87.74ZM95.2653 90.7C95.2653 91.34 95.9253 91.84 97.2453 92.2C97.7386 92.3067 98.152 92.42 98.4853 92.54C98.832 92.6467 99.2053 92.8133 99.6053 93.04C100.019 93.2667 100.332 93.5667 100.545 93.94C100.759 94.3133 100.865 94.7533 100.865 95.26C100.865 96.1667 100.512 96.8933 99.8053 97.44C99.0986 97.9867 98.2053 98.26 97.1253 98.26C96.1653 98.26 95.332 98.0533 94.6253 97.64C93.932 97.2133 93.4386 96.64 93.1453 95.92L94.6453 95.06C94.8053 95.54 95.1053 95.92 95.5453 96.2C95.9853 96.48 96.512 96.62 97.1253 96.62C97.7253 96.62 98.2053 96.5067 98.5653 96.28C98.9253 96.0533 99.1053 95.7133 99.1053 95.26C99.1053 94.58 98.4453 94.0867 97.1253 93.78C96.6853 93.66 96.352 93.5667 96.1253 93.5C95.8986 93.4333 95.5853 93.3133 95.1853 93.14C94.7986 92.9667 94.5053 92.7867 94.3053 92.6C94.1053 92.4 93.9186 92.14 93.7453 91.82C93.5853 91.4867 93.5053 91.12 93.5053 90.72C93.5053 89.8533 93.8386 89.14 94.5053 88.58C95.1853 88.02 96.032 87.74 97.0453 87.74C97.8586 87.74 98.5786 87.9267 99.2053 88.3C99.8453 88.66 100.325 89.1667 100.645 89.82L99.1853 90.64C98.8253 89.7867 98.112 89.36 97.0453 89.36C96.5386 89.36 96.112 89.48 95.7653 89.72C95.432 89.96 95.2653 90.2867 95.2653 90.7Z" fill="#111714"/>
</svg>
