<svg width="59" height="106" viewBox="0 0 59 106" fill="none" xmlns="http://www.w3.org/2000/svg">
<path d="M32 38H20C12 38 10 36 10 28V20C10 12 12 10 20 10H32C40 10 42 12 42 20V28C42 36 40 38 32 38Z" stroke="#0360B2" stroke-width="1.5" stroke-linecap="round" stroke-linejoin="round"/>
<path d="M47 19C50 19 50 20 50 22V26C50 28 50 29 47 29" stroke="#7DE2B7" stroke-width="1.5" stroke-linecap="round" stroke-linejoin="round"/>
<path d="M18.7598 20C19.4198 22.62 19.4198 25.38 18.7598 28" stroke="#7DE2B7" stroke-width="1.5" stroke-linecap="round" stroke-linejoin="round"/>
<path d="M10.4738 94.26C10.4738 95.3667 10.1138 96.2667 9.39383 96.96C8.67383 97.6533 7.74049 98.0733 6.59383 98.22V100H5.33383V98.24C4.25383 98.16 3.32716 97.86 2.55383 97.34C1.78049 96.82 1.22049 96.12 0.873828 95.24L2.47383 94.32C2.94049 95.56 3.89383 96.26 5.33383 96.42V91.58C4.2405 91.1933 3.37383 90.7533 2.73383 90.26C1.94716 89.6467 1.55383 88.7533 1.55383 87.58C1.55383 86.5 1.91383 85.62 2.63383 84.94C3.36716 84.2467 4.26716 83.8533 5.33383 83.76V82H6.59383V83.78C8.28716 84.0067 9.48716 84.9 10.1938 86.46L8.63383 87.34C8.24716 86.3667 7.56716 85.7867 6.59383 85.6V90.2C7.19383 90.4133 7.6805 90.6133 8.05383 90.8C8.45383 91 8.84716 91.2467 9.23383 91.54C10.0605 92.14 10.4738 93.0467 10.4738 94.26ZM3.39383 87.58C3.39383 88.0733 3.5405 88.4867 3.83383 88.82C4.1405 89.14 4.6405 89.44 5.33383 89.72V85.58C4.73383 85.66 4.2605 85.88 3.91383 86.24C3.56716 86.5867 3.39383 87.0333 3.39383 87.58ZM6.59383 92.04V96.38C7.2205 96.2867 7.71383 96.0533 8.07383 95.68C8.43383 95.3067 8.61383 94.84 8.61383 94.28C8.61383 93.7467 8.45383 93.32 8.13383 93C7.82716 92.6667 7.31383 92.3467 6.59383 92.04ZM11.4499 85.28L15.1299 84H16.7299V98H14.8899V86L11.9099 86.88L11.4499 85.28ZM23.1388 92.84L28.0788 98H25.9188L21.3588 93.26V98H19.6188V84H21.3588V92.42L25.6788 88H27.9188L23.1388 92.84ZM36.552 92.7H29.252V91.02H36.552V92.7ZM47.4049 85.64L44.3649 89.74C45.4583 89.94 46.3383 90.4067 47.0049 91.14C47.6716 91.8733 48.0049 92.78 48.0049 93.86C48.0049 95.2333 47.5383 96.3067 46.6049 97.08C45.6583 97.8667 44.5249 98.26 43.2049 98.26C42.1116 98.26 41.1583 98.0133 40.3449 97.52C39.5316 97.0267 38.9516 96.3267 38.6049 95.42L40.1649 94.5C40.5783 95.7933 41.5916 96.44 43.2049 96.44C44.0849 96.44 44.7916 96.2133 45.3249 95.76C45.8716 95.2933 46.1449 94.66 46.1449 93.86C46.1449 93.06 45.8716 92.4267 45.3249 91.96C44.7916 91.4933 44.0849 91.26 43.2049 91.26H42.7249L41.9849 90.12L45.2249 85.74H39.0049V84H47.4049V85.64ZM53.588 92.84L58.528 98H56.368L51.808 93.26V98H50.068V84H51.808V92.42L56.128 88H58.368L53.588 92.84Z" fill="#111714"/>
</svg>
