<svg width="106" height="106" viewBox="0 0 106 106" fill="none" xmlns="http://www.w3.org/2000/svg">
<path d="M46 4V10" stroke="#0360B2" stroke-width="1.5" stroke-miterlimit="10" stroke-linecap="round" stroke-linejoin="round"/>
<path d="M62 4V10" stroke="#0360B2" stroke-width="1.5" stroke-miterlimit="10" stroke-linecap="round" stroke-linejoin="round"/>
<path d="M37 18.1797H71" stroke="#7DE2B7" stroke-width="1.5" stroke-miterlimit="10" stroke-linecap="round" stroke-linejoin="round"/>
<path d="M72 17V34C72 40 69 44 62 44H46C39 44 36 40 36 34V17C36 11 39 7 46 7H62C69 7 72 11 72 17Z" stroke="#0360B2" stroke-width="1.5" stroke-miterlimit="10" stroke-linecap="round" stroke-linejoin="round"/>
<path d="M53.991 27.4004H54.0089" stroke="#7DE2B7" stroke-width="2" stroke-linecap="round" stroke-linejoin="round"/>
<path d="M53.991 33.4004H54.0089" stroke="#7DE2B7" stroke-width="2" stroke-linecap="round" stroke-linejoin="round"/>
<path d="M46.5886 27.4004H46.6066" stroke="#7DE2B7" stroke-width="2" stroke-linecap="round" stroke-linejoin="round"/>
<path d="M46.5886 33.4004H46.6066" stroke="#7DE2B7" stroke-width="2" stroke-linecap="round" stroke-linejoin="round"/>
<path d="M9.9182 98H0.878203V96.48L5.8182 91.44C7.1382 90.12 7.7982 88.9867 7.7982 88.04C7.7982 87.2667 7.5582 86.66 7.0782 86.22C6.61154 85.7667 6.02487 85.54 5.3182 85.54C3.9982 85.54 3.0382 86.1667 2.4382 87.42L0.878203 86.5C1.30487 85.6067 1.90487 84.9267 2.6782 84.46C3.45154 83.98 4.32487 83.74 5.2982 83.74C6.48487 83.74 7.50487 84.1267 8.3582 84.9C9.22487 85.6867 9.6582 86.7267 9.6582 88.02C9.6582 89.4333 8.82487 90.9733 7.1582 92.64L3.5782 96.2H9.9182V98ZM19.5051 92.7H12.2051V91.02H19.5051V92.7ZM30.478 93.6H32.178V95.34H30.478V98H28.618V95.34H21.478V93.6L26.498 84H28.498L23.478 93.6H28.618V89.64H30.478V93.6ZM49.7196 87.74C50.8529 87.74 51.7596 88.1067 52.4396 88.84C53.1329 89.5733 53.4796 90.5533 53.4796 91.78V98H51.7396V91.84C51.7396 91.08 51.5396 90.4867 51.1396 90.06C50.7529 89.62 50.2196 89.4 49.5396 89.4C48.7663 89.4 48.1596 89.66 47.7196 90.18C47.2929 90.6867 47.0796 91.44 47.0796 92.44V98H45.3396V91.84C45.3396 91.08 45.1463 90.4867 44.7596 90.06C44.3863 89.62 43.8729 89.4 43.2196 89.4C42.4596 89.4 41.8396 89.6667 41.3596 90.2C40.8929 90.72 40.6596 91.4667 40.6596 92.44V98H38.9196V88H40.6596V89.34C41.3396 88.2733 42.3329 87.74 43.6396 87.74C44.9863 87.74 45.9663 88.3067 46.5796 89.44C47.2729 88.3067 48.3196 87.74 49.7196 87.74ZM64.3323 96.74C63.3189 97.7533 62.0723 98.26 60.5923 98.26C59.1123 98.26 57.8656 97.7533 56.8523 96.74C55.8389 95.7267 55.3323 94.48 55.3323 93C55.3323 91.52 55.8389 90.2733 56.8523 89.26C57.8656 88.2467 59.1123 87.74 60.5923 87.74C62.0723 87.74 63.3189 88.2467 64.3323 89.26C65.3589 90.2867 65.8723 91.5333 65.8723 93C65.8723 94.4667 65.3589 95.7133 64.3323 96.74ZM60.5923 96.56C61.5923 96.56 62.4323 96.22 63.1123 95.54C63.7923 94.86 64.1323 94.0133 64.1323 93C64.1323 91.9867 63.7923 91.14 63.1123 90.46C62.4323 89.78 61.5923 89.44 60.5923 89.44C59.6056 89.44 58.7723 89.78 58.0923 90.46C57.4123 91.14 57.0723 91.9867 57.0723 93C57.0723 94.0133 57.4123 94.86 58.0923 95.54C58.7723 96.22 59.6056 96.56 60.5923 96.56ZM72.9035 87.74C74.0768 87.74 75.0168 88.1133 75.7235 88.86C76.4302 89.5933 76.7835 90.5933 76.7835 91.86V98H75.0435V91.96C75.0435 91.16 74.8235 90.5333 74.3835 90.08C73.9435 89.6267 73.3368 89.4 72.5635 89.4C71.6702 89.4 70.9635 89.68 70.4435 90.24C69.9235 90.7867 69.6635 91.6067 69.6635 92.7V98H67.9235V88H69.6635V89.44C70.3568 88.3067 71.4368 87.74 72.9035 87.74ZM84.6526 88V89.68H81.9926V95.1C81.9926 95.5933 82.0859 95.9467 82.2726 96.16C82.4726 96.36 82.7726 96.4667 83.1726 96.48C83.5726 96.48 84.0659 96.4667 84.6526 96.44V98C83.1192 98.2 81.9992 98.0733 81.2926 97.62C80.5992 97.1667 80.2526 96.3267 80.2526 95.1V89.68H78.2726V88H80.2526V85.72L81.9926 85.2V88H84.6526ZM91.6926 87.74C92.8659 87.74 93.8059 88.1133 94.5126 88.86C95.2192 89.5933 95.5726 90.5933 95.5726 91.86V98H93.8326V91.96C93.8326 91.16 93.6126 90.5333 93.1726 90.08C92.7326 89.6267 92.1259 89.4 91.3526 89.4C90.4592 89.4 89.7526 89.68 89.2326 90.24C88.7126 90.7867 88.4526 91.6067 88.4526 92.7V98H86.7126V84H88.4526V89.44C89.1459 88.3067 90.2259 87.74 91.6926 87.74ZM99.5016 90.7C99.5016 91.34 100.162 91.84 101.482 92.2C101.975 92.3067 102.388 92.42 102.722 92.54C103.068 92.6467 103.442 92.8133 103.842 93.04C104.255 93.2667 104.568 93.5667 104.782 93.94C104.995 94.3133 105.102 94.7533 105.102 95.26C105.102 96.1667 104.748 96.8933 104.042 97.44C103.335 97.9867 102.442 98.26 101.362 98.26C100.402 98.26 99.5683 98.0533 98.8616 97.64C98.1683 97.2133 97.675 96.64 97.3816 95.92L98.8816 95.06C99.0416 95.54 99.3416 95.92 99.7816 96.2C100.222 96.48 100.748 96.62 101.362 96.62C101.962 96.62 102.442 96.5067 102.802 96.28C103.162 96.0533 103.342 95.7133 103.342 95.26C103.342 94.58 102.682 94.0867 101.362 93.78C100.922 93.66 100.588 93.5667 100.362 93.5C100.135 93.4333 99.8216 93.3133 99.4216 93.14C99.035 92.9667 98.7416 92.7867 98.5416 92.6C98.3416 92.4 98.155 92.14 97.9816 91.82C97.8216 91.4867 97.7416 91.12 97.7416 90.72C97.7416 89.8533 98.075 89.14 98.7416 88.58C99.4216 88.02 100.268 87.74 101.282 87.74C102.095 87.74 102.815 87.9267 103.442 88.3C104.082 88.66 104.562 89.1667 104.882 89.82L103.422 90.64C103.062 89.7867 102.348 89.36 101.282 89.36C100.775 89.36 100.348 89.48 100.002 89.72C99.6683 89.96 99.5016 90.2867 99.5016 90.7Z" fill="#111714"/>
</svg>
