<svg width="63" height="106" viewBox="0 0 63 106" fill="none" xmlns="http://www.w3.org/2000/svg">
<path d="M49 19C52 19 52 20 52 22V26C52 28 52 29 49 29" stroke="#7DE2B7" stroke-width="1.5" stroke-linecap="round" stroke-linejoin="round"/>
<path d="M20.7598 20C21.4198 22.62 21.4198 25.38 20.7598 28" stroke="#7DE2B7" stroke-width="1.5" stroke-linecap="round" stroke-linejoin="round"/>
<path d="M27.7598 20C28.4198 22.62 28.4198 25.38 27.7598 28" stroke="#7DE2B7" stroke-width="1.5" stroke-linecap="round" stroke-linejoin="round"/>
<path d="M34 38H22C14 38 12 36 12 28V20C12 12 14 10 22 10H34C42 10 44 12 44 20V28C44 36 42 38 34 38Z" stroke="#0360B2" stroke-width="1.5" stroke-linecap="round" stroke-linejoin="round"/>
<path d="M10.6574 94.26C10.6574 95.3667 10.2974 96.2667 9.57742 96.96C8.85742 97.6533 7.92409 98.0733 6.77742 98.22V100H5.51742V98.24C4.43742 98.16 3.51076 97.86 2.73742 97.34C1.96409 96.82 1.40409 96.12 1.05742 95.24L2.65742 94.32C3.12409 95.56 4.07742 96.26 5.51742 96.42V91.58C4.42409 91.1933 3.55742 90.7533 2.91742 90.26C2.13076 89.6467 1.73742 88.7533 1.73742 87.58C1.73742 86.5 2.09742 85.62 2.81742 84.94C3.55076 84.2467 4.45076 83.8533 5.51742 83.76V82H6.77742V83.78C8.47076 84.0067 9.67076 84.9 10.3774 86.46L8.81742 87.34C8.43076 86.3667 7.75076 85.7867 6.77742 85.6V90.2C7.37742 90.4133 7.86409 90.6133 8.23742 90.8C8.63742 91 9.03076 91.2467 9.41742 91.54C10.2441 92.14 10.6574 93.0467 10.6574 94.26ZM3.57742 87.58C3.57742 88.0733 3.72409 88.4867 4.01742 88.82C4.32409 89.14 4.82409 89.44 5.51742 89.72V85.58C4.91742 85.66 4.44409 85.88 4.09742 86.24C3.75076 86.5867 3.57742 87.0333 3.57742 87.58ZM6.77742 92.04V96.38C7.40409 96.2867 7.89742 96.0533 8.25742 95.68C8.61742 95.3067 8.79742 94.84 8.79742 94.28C8.79742 93.7467 8.63742 93.32 8.31742 93C8.01076 92.6667 7.49742 92.3467 6.77742 92.04ZM20.7135 85.64L17.6735 89.74C18.7668 89.94 19.6468 90.4067 20.3135 91.14C20.9802 91.8733 21.3135 92.78 21.3135 93.86C21.3135 95.2333 20.8468 96.3067 19.9135 97.08C18.9668 97.8667 17.8335 98.26 16.5135 98.26C15.4202 98.26 14.4668 98.0133 13.6535 97.52C12.8402 97.0267 12.2602 96.3267 11.9135 95.42L13.4735 94.5C13.8868 95.7933 14.9002 96.44 16.5135 96.44C17.3935 96.44 18.1002 96.2133 18.6335 95.76C19.1802 95.2933 19.4535 94.66 19.4535 93.86C19.4535 93.06 19.1802 92.4267 18.6335 91.96C18.1002 91.4933 17.3935 91.26 16.5135 91.26H16.0335L15.2935 90.12L18.5335 85.74H12.3135V84H20.7135V85.64ZM26.8966 92.84L31.8366 98H29.6766L25.1166 93.26V98H23.3766V84H25.1166V92.42L29.4366 88H31.6766L26.8966 92.84ZM40.3098 92.7H33.0098V91.02H40.3098V92.7ZM47.1827 88.84C48.5827 88.84 49.7361 89.28 50.6427 90.16C51.5494 91.0267 52.0027 92.1533 52.0027 93.54C52.0027 94.9267 51.5494 96.06 50.6427 96.94C49.7361 97.82 48.5827 98.26 47.1827 98.26C45.7561 98.26 44.5961 97.82 43.7027 96.94C42.8094 96.06 42.3627 94.9267 42.3627 93.54C42.3627 92.4467 42.6427 91.5133 43.2027 90.74L47.7027 84H49.8227L46.5227 88.88C46.9227 88.8533 47.1427 88.84 47.1827 88.84ZM47.1827 90.62C46.2894 90.62 45.5694 90.8867 45.0227 91.42C44.4761 91.9533 44.2027 92.66 44.2027 93.54C44.2027 94.42 44.4761 95.1333 45.0227 95.68C45.5827 96.2133 46.3027 96.48 47.1827 96.48C48.0627 96.48 48.7761 96.2133 49.3227 95.68C49.8827 95.1333 50.1627 94.42 50.1627 93.54C50.1627 92.66 49.8827 91.9533 49.3227 91.42C48.7761 90.8867 48.0627 90.62 47.1827 90.62ZM57.4045 92.84L62.3445 98H60.1845L55.6245 93.26V98H53.8845V84H55.6245V92.42L59.9445 88H62.1845L57.4045 92.84Z" fill="#111714"/>
</svg>
