<svg width="48" height="48" viewBox="0 0 48 48" fill="none" xmlns="http://www.w3.org/2000/svg">
<path d="M41 19C44 19 44 20 44 22V26C44 28 44 29 41 29" stroke="#7DE2B7" stroke-width="1.5" stroke-linecap="round" stroke-linejoin="round"/>
<path d="M12.7598 20C13.4198 22.62 13.4198 25.38 12.7598 28" stroke="#7DE2B7" stroke-width="1.5" stroke-linecap="round" stroke-linejoin="round"/>
<path d="M19.7598 20C20.4198 22.62 20.4198 25.38 19.7598 28" stroke="#7DE2B7" stroke-width="1.5" stroke-linecap="round" stroke-linejoin="round"/>
<path d="M26 38H14C6 38 4 36 4 28V20C4 12 6 10 14 10H26C34 10 36 12 36 20V28C36 36 34 38 26 38Z" stroke="#0360B2" stroke-width="1.5" stroke-linecap="round" stroke-linejoin="round"/>
</svg>
