<svg width="106" height="106" viewBox="0 0 106 106" fill="none" xmlns="http://www.w3.org/2000/svg">
<path d="M45 4V10" stroke="white" stroke-width="1.5" stroke-miterlimit="10" stroke-linecap="round" stroke-linejoin="round"/>
<path d="M61 4V10" stroke="white" stroke-width="1.5" stroke-miterlimit="10" stroke-linecap="round" stroke-linejoin="round"/>
<path d="M36 18.1797H70" stroke="white" stroke-width="1.5" stroke-miterlimit="10" stroke-linecap="round" stroke-linejoin="round"/>
<path d="M71 17V34C71 40 68 44 61 44H45C38 44 35 40 35 34V17C35 11 38 7 45 7H61C68 7 71 11 71 17Z" stroke="white" stroke-width="1.5" stroke-miterlimit="10" stroke-linecap="round" stroke-linejoin="round"/>
<path d="M60.3894 27.4004H60.4074" stroke="white" stroke-width="2" stroke-linecap="round" stroke-linejoin="round"/>
<path d="M60.3894 33.4004H60.4074" stroke="white" stroke-width="2" stroke-linecap="round" stroke-linejoin="round"/>
<path d="M52.991 27.4004H53.0089" stroke="white" stroke-width="2" stroke-linecap="round" stroke-linejoin="round"/>
<path d="M52.991 33.4004H53.0089" stroke="white" stroke-width="2" stroke-linecap="round" stroke-linejoin="round"/>
<path d="M45.5886 27.4004H45.6066" stroke="white" stroke-width="2" stroke-linecap="round" stroke-linejoin="round"/>
<path d="M45.5886 33.4004H45.6066" stroke="white" stroke-width="2" stroke-linecap="round" stroke-linejoin="round"/>
<path d="M9.53078 93.6H11.2308V95.34H9.53078V98H7.67078V95.34H0.530781V93.6L5.55078 84H7.55078L2.53078 93.6H7.67078V89.64H9.53078V93.6ZM20.4523 92.7H13.1523V91.02H20.4523V92.7ZM27.3253 88.84C28.7253 88.84 29.8786 89.28 30.7853 90.16C31.692 91.0267 32.1453 92.1533 32.1453 93.54C32.1453 94.9267 31.692 96.06 30.7853 96.94C29.8786 97.82 28.7253 98.26 27.3253 98.26C25.8986 98.26 24.7386 97.82 23.8453 96.94C22.952 96.06 22.5053 94.9267 22.5053 93.54C22.5053 92.4467 22.7853 91.5133 23.3453 90.74L27.8453 84H29.9653L26.6653 88.88C27.0653 88.8533 27.2853 88.84 27.3253 88.84ZM27.3253 90.62C26.432 90.62 25.712 90.8867 25.1653 91.42C24.6186 91.9533 24.3453 92.66 24.3453 93.54C24.3453 94.42 24.6186 95.1333 25.1653 95.68C25.7253 96.2133 26.4453 96.48 27.3253 96.48C28.2053 96.48 28.9186 96.2133 29.4653 95.68C30.0253 95.1333 30.3053 94.42 30.3053 93.54C30.3053 92.66 30.0253 91.9533 29.4653 91.42C28.9186 90.8867 28.2053 90.62 27.3253 90.62ZM49.827 87.74C50.9604 87.74 51.867 88.1067 52.547 88.84C53.2404 89.5733 53.587 90.5533 53.587 91.78V98H51.847V91.84C51.847 91.08 51.647 90.4867 51.247 90.06C50.8604 89.62 50.327 89.4 49.647 89.4C48.8737 89.4 48.267 89.66 47.827 90.18C47.4004 90.6867 47.187 91.44 47.187 92.44V98H45.447V91.84C45.447 91.08 45.2537 90.4867 44.867 90.06C44.4937 89.62 43.9804 89.4 43.327 89.4C42.567 89.4 41.947 89.6667 41.467 90.2C41.0004 90.72 40.767 91.4667 40.767 92.44V98H39.027V88H40.767V89.34C41.447 88.2733 42.4404 87.74 43.747 87.74C45.0937 87.74 46.0737 88.3067 46.687 89.44C47.3804 88.3067 48.427 87.74 49.827 87.74ZM64.4397 96.74C63.4264 97.7533 62.1797 98.26 60.6997 98.26C59.2197 98.26 57.973 97.7533 56.9597 96.74C55.9464 95.7267 55.4397 94.48 55.4397 93C55.4397 91.52 55.9464 90.2733 56.9597 89.26C57.973 88.2467 59.2197 87.74 60.6997 87.74C62.1797 87.74 63.4264 88.2467 64.4397 89.26C65.4664 90.2867 65.9797 91.5333 65.9797 93C65.9797 94.4667 65.4664 95.7133 64.4397 96.74ZM60.6997 96.56C61.6997 96.56 62.5397 96.22 63.2197 95.54C63.8997 94.86 64.2397 94.0133 64.2397 93C64.2397 91.9867 63.8997 91.14 63.2197 90.46C62.5397 89.78 61.6997 89.44 60.6997 89.44C59.713 89.44 58.8797 89.78 58.1997 90.46C57.5197 91.14 57.1797 91.9867 57.1797 93C57.1797 94.0133 57.5197 94.86 58.1997 95.54C58.8797 96.22 59.713 96.56 60.6997 96.56ZM73.0109 87.74C74.1843 87.74 75.1243 88.1133 75.8309 88.86C76.5376 89.5933 76.8909 90.5933 76.8909 91.86V98H75.1509V91.96C75.1509 91.16 74.9309 90.5333 74.4909 90.08C74.0509 89.6267 73.4443 89.4 72.6709 89.4C71.7776 89.4 71.0709 89.68 70.5509 90.24C70.0309 90.7867 69.7709 91.6067 69.7709 92.7V98H68.0309V88H69.7709V89.44C70.4643 88.3067 71.5443 87.74 73.0109 87.74ZM84.76 88V89.68H82.1V95.1C82.1 95.5933 82.1933 95.9467 82.38 96.16C82.58 96.36 82.88 96.4667 83.28 96.48C83.68 96.48 84.1733 96.4667 84.76 96.44V98C83.2267 98.2 82.1067 98.0733 81.4 97.62C80.7067 97.1667 80.36 96.3267 80.36 95.1V89.68H78.38V88H80.36V85.72L82.1 85.2V88H84.76ZM91.8 87.74C92.9733 87.74 93.9133 88.1133 94.62 88.86C95.3267 89.5933 95.68 90.5933 95.68 91.86V98H93.94V91.96C93.94 91.16 93.72 90.5333 93.28 90.08C92.84 89.6267 92.2333 89.4 91.46 89.4C90.5667 89.4 89.86 89.68 89.34 90.24C88.82 90.7867 88.56 91.6067 88.56 92.7V98H86.82V84H88.56V89.44C89.2533 88.3067 90.3333 87.74 91.8 87.74ZM99.6091 90.7C99.6091 91.34 100.269 91.84 101.589 92.2C102.082 92.3067 102.496 92.42 102.829 92.54C103.176 92.6467 103.549 92.8133 103.949 93.04C104.362 93.2667 104.676 93.5667 104.889 93.94C105.102 94.3133 105.209 94.7533 105.209 95.26C105.209 96.1667 104.856 96.8933 104.149 97.44C103.442 97.9867 102.549 98.26 101.469 98.26C100.509 98.26 99.6757 98.0533 98.9691 97.64C98.2757 97.2133 97.7824 96.64 97.4891 95.92L98.9891 95.06C99.1491 95.54 99.4491 95.92 99.8891 96.2C100.329 96.48 100.856 96.62 101.469 96.62C102.069 96.62 102.549 96.5067 102.909 96.28C103.269 96.0533 103.449 95.7133 103.449 95.26C103.449 94.58 102.789 94.0867 101.469 93.78C101.029 93.66 100.696 93.5667 100.469 93.5C100.242 93.4333 99.9291 93.3133 99.5291 93.14C99.1424 92.9667 98.8491 92.7867 98.6491 92.6C98.4491 92.4 98.2624 92.14 98.0891 91.82C97.9291 91.4867 97.8491 91.12 97.8491 90.72C97.8491 89.8533 98.1824 89.14 98.8491 88.58C99.5291 88.02 100.376 87.74 101.389 87.74C102.202 87.74 102.922 87.9267 103.549 88.3C104.189 88.66 104.669 89.1667 104.989 89.82L103.529 90.64C103.169 89.7867 102.456 89.36 101.389 89.36C100.882 89.36 100.456 89.48 100.109 89.72C99.7757 89.96 99.6091 90.2867 99.6091 90.7Z" fill="white"/>
</svg>
