<svg width="72" height="106" viewBox="0 0 72 106" fill="none" xmlns="http://www.w3.org/2000/svg">
<path d="M54 19C57 19 57 20 57 22V26C57 28 57 29 54 29" stroke="#7DE2B7" stroke-width="1.5" stroke-linecap="round" stroke-linejoin="round"/>
<path d="M25.7598 20C26.4198 22.62 26.4198 25.38 25.7598 28" stroke="#7DE2B7" stroke-width="1.5" stroke-linecap="round" stroke-linejoin="round"/>
<path d="M32.7598 20C33.4198 22.62 33.4198 25.38 32.7598 28" stroke="#7DE2B7" stroke-width="1.5" stroke-linecap="round" stroke-linejoin="round"/>
<path d="M39.7598 20C40.4198 22.62 40.4198 25.38 39.7598 28" stroke="#7DE2B7" stroke-width="1.5" stroke-linecap="round" stroke-linejoin="round"/>
<path d="M39 38H27C19 38 17 36 17 28V20C17 12 19 10 27 10H39C47 10 49 12 49 20V28C49 36 47 38 39 38Z" stroke="#0360B2" stroke-width="1.5" stroke-linecap="round" stroke-linejoin="round"/>
<path d="M10.6457 94.26C10.6457 95.3667 10.2857 96.2667 9.5657 96.96C8.8457 97.6533 7.91237 98.0733 6.7657 98.22V100H5.5057V98.24C4.4257 98.16 3.49904 97.86 2.7257 97.34C1.95237 96.82 1.39237 96.12 1.0457 95.24L2.6457 94.32C3.11237 95.56 4.0657 96.26 5.5057 96.42V91.58C4.41237 91.1933 3.5457 90.7533 2.9057 90.26C2.11904 89.6467 1.7257 88.7533 1.7257 87.58C1.7257 86.5 2.0857 85.62 2.8057 84.94C3.53904 84.2467 4.43904 83.8533 5.5057 83.76V82H6.7657V83.78C8.45904 84.0067 9.65904 84.9 10.3657 86.46L8.8057 87.34C8.41904 86.3667 7.73904 85.7867 6.7657 85.6V90.2C7.3657 90.4133 7.85237 90.6133 8.2257 90.8C8.6257 91 9.01904 91.2467 9.4057 91.54C10.2324 92.14 10.6457 93.0467 10.6457 94.26ZM3.5657 87.58C3.5657 88.0733 3.71237 88.4867 4.0057 88.82C4.31237 89.14 4.81237 89.44 5.5057 89.72V85.58C4.9057 85.66 4.43237 85.88 4.0857 86.24C3.73904 86.5867 3.5657 87.0333 3.5657 87.58ZM6.7657 92.04V96.38C7.39237 96.2867 7.8857 96.0533 8.2457 95.68C8.6057 95.3067 8.7857 94.84 8.7857 94.28C8.7857 93.7467 8.6257 93.32 8.3057 93C7.99904 92.6667 7.4857 92.3467 6.7657 92.04ZM16.7218 88.84C18.1218 88.84 19.2751 89.28 20.1818 90.16C21.0885 91.0267 21.5418 92.1533 21.5418 93.54C21.5418 94.9267 21.0885 96.06 20.1818 96.94C19.2751 97.82 18.1218 98.26 16.7218 98.26C15.2951 98.26 14.1351 97.82 13.2418 96.94C12.3485 96.06 11.9018 94.9267 11.9018 93.54C11.9018 92.4467 12.1818 91.5133 12.7418 90.74L17.2418 84H19.3618L16.0618 88.88C16.4618 88.8533 16.6818 88.84 16.7218 88.84ZM16.7218 90.62C15.8285 90.62 15.1085 90.8867 14.5618 91.42C14.0151 91.9533 13.7418 92.66 13.7418 93.54C13.7418 94.42 14.0151 95.1333 14.5618 95.68C15.1218 96.2133 15.8418 96.48 16.7218 96.48C17.6018 96.48 18.3151 96.2133 18.8618 95.68C19.4218 95.1333 19.7018 94.42 19.7018 93.54C19.7018 92.66 19.4218 91.9533 18.8618 91.42C18.3151 90.8867 17.6018 90.62 16.7218 90.62ZM26.9435 92.84L31.8835 98H29.7235L25.1635 93.26V98H23.4235V84H25.1635V92.42L29.4835 88H31.7235L26.9435 92.84ZM40.3566 92.7H33.0566V91.02H40.3566V92.7ZM42.1296 85.28L45.8096 84H47.4096V98H45.5696V86L42.5896 86.88L42.1296 85.28ZM59.2585 96.28C58.3252 97.6 56.9985 98.26 55.2785 98.26C53.5585 98.26 52.2318 97.6 51.2985 96.28C50.3518 94.9467 49.8785 93.1867 49.8785 91C49.8785 88.8133 50.3518 87.0533 51.2985 85.72C52.2318 84.4 53.5585 83.74 55.2785 83.74C56.9985 83.74 58.3252 84.4 59.2585 85.72C60.2052 87.0533 60.6785 88.8133 60.6785 91C60.6785 93.1867 60.2052 94.9467 59.2585 96.28ZM51.7385 91C51.7385 92.7333 52.0452 94.0733 52.6585 95.02C53.2718 95.9667 54.1452 96.44 55.2785 96.44C56.4118 96.44 57.2852 95.9667 57.8985 95.02C58.5252 94.0733 58.8385 92.7333 58.8385 91C58.8385 89.2667 58.5252 87.9267 57.8985 86.98C57.2852 86.02 56.4118 85.54 55.2785 85.54C54.1452 85.54 53.2718 86.0133 52.6585 86.96C52.0452 87.9067 51.7385 89.2533 51.7385 91ZM66.4162 92.84L71.3562 98H69.1962L64.6362 93.26V98H62.8962V84H64.6362V92.42L68.9562 88H71.1962L66.4162 92.84Z" fill="#111714"/>
</svg>
