<svg width="64" height="64" viewBox="0 0 64 64" fill="none" xmlns="http://www.w3.org/2000/svg">
<path d="M12.5 3H51.5C57.299 3 62 7.701 62 13.5V50.5C62 56.299 57.299 61 51.5 61H12.5C6.701 61 2 56.299 2 50.5V13.5C2 7.701 6.701 3 12.5 3Z" fill="#371351"/>
<path d="M27.1976 39H18.2501L15.9401 45.67C15.9134 45.89 15.7742 46 15.5226 46H11.3226C11.0426 46 10.9451 45.8625 11.0301 45.5875L19.1351 21.515C19.3639 20.782 19.4769 20.0179 19.4701 19.25C19.4538 19.1283 19.5393 19.0163 19.6612 19C19.6807 18.9974 19.7006 18.9974 19.7201 19H25.6001C25.7701 19 25.8676 19.07 25.8951 19.205L34.9651 45.63C35.0501 45.88 34.9801 46 34.7551 46H30.0526C29.8746 46.0106 29.7081 45.9115 29.6326 45.75L27.1976 39ZM19.2501 34.5H26.2201C26.0526 34.1325 22.9176 24.0175 22.6926 23.165H22.6526L19.2501 34.5Z" fill="#D7A2FE"/>
<path d="M48.385 37.1225H40.9775C41.0059 38.8541 41.4916 40.2209 42.435 41.2225C43.3784 42.2241 44.795 42.7241 46.685 42.7225C48.2688 42.7507 49.8409 42.4468 51.3 41.83C51.4625 41.7225 51.55 41.775 51.55 41.9925V44.955C51.548 45.1478 51.4554 45.3284 51.3 45.4425C49.7666 46.1475 47.8775 46.5 45.6325 46.5C42.3159 46.5 39.8809 45.5459 38.3275 43.6375C36.7741 41.7291 35.9984 39.3409 36 36.4725C36 33.4909 36.8091 31 38.4275 29C40.0459 27 42.2591 26 45.0675 26C47.7341 26 49.7241 26.825 51.0375 28.475C52.3444 30.1243 53.038 32.1761 53 34.28C53.025 35.0685 52.9706 35.8575 52.8375 36.635C52.8256 36.8084 52.6883 36.9467 52.515 36.96C51.8134 37.0684 50.4366 37.1225 48.385 37.1225ZM40.9775 34H46.3225C47.4891 34 48.15 33.9725 48.305 33.9175C48.3386 33.7302 48.352 33.54 48.345 33.35C48.3569 32.3729 48.0746 31.4148 47.535 30.6C46.995 29.7884 46.1184 29.3825 44.905 29.3825C43.7184 29.3825 42.8016 29.815 42.155 30.68C41.4665 31.6583 41.0593 32.8065 40.9775 34Z" fill="#D7A2FE"/>
</svg>
