<svg width="84" height="84" viewBox="0 0 84 84" fill="none" xmlns="http://www.w3.org/2000/svg">
<path d="M16.4062 3.9375H67.5938C75.2049 3.9375 81.375 10.1076 81.375 17.7188V66.2812C81.375 73.8924 75.2049 80.0625 67.5938 80.0625H16.4062C8.79506 80.0625 2.625 73.8924 2.625 66.2812V17.7188C2.625 10.1076 8.79506 3.9375 16.4062 3.9375Z" fill="#371351"/>
<path d="M35.6967 51.1872H23.9531L20.9212 59.9415C20.8863 60.2303 20.7035 60.3747 20.3732 60.3747H14.8607C14.4932 60.3747 14.3653 60.1942 14.4768 59.8332L25.1146 28.2381C25.415 27.276 25.5634 26.2731 25.5543 25.2653C25.533 25.1055 25.6452 24.9585 25.8052 24.9372C25.8308 24.9337 25.8569 24.9337 25.8825 24.9372H33.6C33.8231 24.9372 33.9511 25.029 33.9872 25.2062L45.8915 59.889C46.0031 60.2172 45.9112 60.3747 45.6159 60.3747H39.4439C39.2102 60.3886 38.9917 60.2585 38.8926 60.0465L35.6967 51.1872ZM25.2656 45.2809H34.4137C34.1939 44.7986 30.0792 31.5226 29.7839 30.4037H29.7314L25.2656 45.2809Z" fill="#D7A2FE"/>
<path d="M63.5053 48.7233H53.783C53.8202 50.996 54.4578 52.7899 55.6959 54.1045C56.9341 55.4192 58.7934 56.0754 61.2741 56.0733C63.3527 56.1104 65.4162 55.7114 67.3313 54.9019C67.5445 54.7608 67.6594 54.8297 67.6594 55.1152V59.0034C67.6568 59.2564 67.5352 59.4935 67.3313 59.6433C65.3187 60.5686 62.8392 61.0312 59.8927 61.0312C55.5396 61.0312 52.3437 59.779 50.3048 57.2742C48.266 54.7695 47.2479 51.6349 47.25 47.8702C47.25 43.9568 48.312 40.6875 50.4361 38.0625C52.5602 35.4375 55.4651 34.125 59.1511 34.125C62.651 34.125 65.2629 35.2078 66.9867 37.3734C68.702 39.5381 69.6124 42.2312 69.5625 44.9925C69.5953 46.0274 69.524 47.063 69.3492 48.0834C69.3336 48.311 69.1533 48.4926 68.9259 48.51C68.0051 48.6522 66.1981 48.7233 63.5053 48.7233ZM53.783 44.625H60.7983C62.3295 44.625 63.1969 44.5889 63.4003 44.5167C63.4445 44.271 63.462 44.0212 63.4528 43.7719C63.4684 42.4894 63.0979 41.2319 62.3897 40.1625C61.6809 39.0972 60.5304 38.5645 58.9378 38.5645C57.3804 38.5645 56.1771 39.1322 55.3284 40.2675C54.4248 41.5515 53.8903 43.0585 53.783 44.625Z" fill="#D7A2FE"/>
</svg>
