<svg width="152" height="110" viewBox="0 0 152 110" fill="none" xmlns="http://www.w3.org/2000/svg">
<path d="M56.5 3H95.5C101.299 3 106 7.701 106 13.5V50.5C106 56.299 101.299 61 95.5 61H56.5C50.701 61 46 56.299 46 50.5V13.5C46 7.701 50.701 3 56.5 3Z" fill="#371351"/>
<path d="M71.1976 39H62.2501L59.9401 45.67C59.9134 45.89 59.7742 46 59.5226 46H55.3226C55.0426 46 54.9451 45.8625 55.0301 45.5875L63.1351 21.515C63.3639 20.782 63.4769 20.0179 63.4701 19.25C63.4538 19.1283 63.5393 19.0163 63.6612 19C63.6807 18.9974 63.7006 18.9974 63.7201 19H69.6001C69.7701 19 69.8676 19.07 69.8951 19.205L78.9651 45.63C79.0501 45.88 78.9801 46 78.7551 46H74.0526C73.8746 46.0106 73.7081 45.9115 73.6326 45.75L71.1976 39ZM63.2501 34.5H70.2201C70.0526 34.1325 66.9176 24.0175 66.6926 23.165H66.6526L63.2501 34.5Z" fill="#D7A2FE"/>
<path d="M92.385 37.1225H84.9775C85.0059 38.8541 85.4916 40.2209 86.435 41.2225C87.3784 42.2241 88.795 42.7241 90.685 42.7225C92.2688 42.7507 93.8409 42.4468 95.3 41.83C95.4625 41.7225 95.55 41.775 95.55 41.9925V44.955C95.548 45.1478 95.4554 45.3284 95.3 45.4425C93.7666 46.1475 91.8775 46.5 89.6325 46.5C86.3159 46.5 83.8809 45.5459 82.3275 43.6375C80.7741 41.7291 79.9984 39.3409 80 36.4725C80 33.4909 80.8091 31 82.4275 29C84.0459 27 86.2591 26 89.0675 26C91.7341 26 93.7241 26.825 95.0375 28.475C96.3444 30.1243 97.038 32.1761 97 34.28C97.025 35.0685 96.9706 35.8575 96.8375 36.635C96.8256 36.8084 96.6883 36.9467 96.515 36.96C95.8134 37.0684 94.4366 37.1225 92.385 37.1225ZM84.9775 34H90.3225C91.4891 34 92.15 33.9725 92.305 33.9175C92.3386 33.7302 92.352 33.54 92.345 33.35C92.3569 32.3729 92.0746 31.4148 91.535 30.6C90.995 29.7884 90.1184 29.3825 88.905 29.3825C87.7184 29.3825 86.8016 29.815 86.155 30.68C85.4665 31.6583 85.0593 32.8065 84.9775 34Z" fill="#D7A2FE"/>
<path d="M19.7672 105L25.4732 92.4H27.2552L32.9792 105H31.0892L25.9952 93.408H26.7152L21.6212 105H19.7672ZM22.1972 101.85L22.6832 100.41H29.7752L30.2972 101.85H22.1972ZM34.8588 105V94.614C34.8588 93.678 35.1288 92.934 35.6688 92.382C36.2208 91.818 37.0008 91.536 38.0088 91.536C38.3808 91.536 38.7348 91.584 39.0708 91.68C39.4188 91.764 39.7128 91.902 39.9528 92.094L39.4308 93.408C39.2508 93.264 39.0468 93.156 38.8188 93.084C38.5908 93 38.3508 92.958 38.0988 92.958C37.5948 92.958 37.2108 93.102 36.9468 93.39C36.6828 93.666 36.5508 94.08 36.5508 94.632V95.91L36.5868 96.702V105H34.8588ZM33.2388 96.882V95.46H39.3228V96.882H33.2388ZM44.2285 105.108C43.2685 105.108 42.5245 104.85 41.9965 104.334C41.4685 103.818 41.2045 103.08 41.2045 102.12V93.372H42.9325V102.048C42.9325 102.564 43.0585 102.96 43.3105 103.236C43.5745 103.512 43.9465 103.65 44.4265 103.65C44.9665 103.65 45.4165 103.5 45.7765 103.2L46.3165 104.442C46.0525 104.67 45.7345 104.838 45.3625 104.946C45.0025 105.054 44.6245 105.108 44.2285 105.108ZM39.5845 96.882V95.46H45.6685V96.882H39.5845ZM52.3372 105.108C51.3172 105.108 50.4172 104.898 49.6372 104.478C48.8692 104.058 48.2692 103.482 47.8372 102.75C47.4172 102.018 47.2072 101.178 47.2072 100.23C47.2072 99.282 47.4112 98.442 47.8192 97.71C48.2392 96.978 48.8092 96.408 49.5292 96C50.2612 95.58 51.0832 95.37 51.9952 95.37C52.9192 95.37 53.7352 95.574 54.4432 95.982C55.1512 96.39 55.7032 96.966 56.0992 97.71C56.5072 98.442 56.7112 99.3 56.7112 100.284C56.7112 100.356 56.7052 100.44 56.6932 100.536C56.6932 100.632 56.6872 100.722 56.6752 100.806H48.5572V99.564H55.7752L55.0732 99.996C55.0852 99.384 54.9592 98.838 54.6952 98.358C54.4312 97.878 54.0652 97.506 53.5972 97.242C53.1412 96.966 52.6072 96.828 51.9952 96.828C51.3952 96.828 50.8612 96.966 50.3932 97.242C49.9252 97.506 49.5592 97.884 49.2952 98.376C49.0312 98.856 48.8992 99.408 48.8992 100.032V100.32C48.8992 100.956 49.0432 101.526 49.3312 102.03C49.6312 102.522 50.0452 102.906 50.5732 103.182C51.1012 103.458 51.7072 103.596 52.3912 103.596C52.9552 103.596 53.4652 103.5 53.9212 103.308C54.3892 103.116 54.7972 102.828 55.1452 102.444L56.0992 103.56C55.6672 104.064 55.1272 104.448 54.4792 104.712C53.8432 104.976 53.1292 105.108 52.3372 105.108ZM59.1107 105V95.46H60.7667V98.052L60.6047 97.404C60.8687 96.744 61.3127 96.24 61.9367 95.892C62.5607 95.544 63.3287 95.37 64.2407 95.37V97.044C64.1687 97.032 64.0967 97.026 64.0247 97.026C63.9647 97.026 63.9047 97.026 63.8447 97.026C62.9207 97.026 62.1887 97.302 61.6487 97.854C61.1087 98.406 60.8387 99.204 60.8387 100.248V105H59.1107ZM73.2175 97.836H79.6975V99.366H73.2175V97.836ZM73.3795 103.434H80.7235V105H71.5795V92.4H80.4715V93.966H73.3795V103.434ZM83.638 105V94.614C83.638 93.678 83.908 92.934 84.448 92.382C85 91.818 85.78 91.536 86.788 91.536C87.16 91.536 87.514 91.584 87.85 91.68C88.198 91.764 88.492 91.902 88.732 92.094L88.21 93.408C88.03 93.264 87.826 93.156 87.598 93.084C87.37 93 87.13 92.958 86.878 92.958C86.374 92.958 85.99 93.102 85.726 93.39C85.462 93.666 85.33 94.08 85.33 94.632V95.91L85.366 96.702V105H83.638ZM82.018 96.882V95.46H88.102V96.882H82.018ZM90.0013 105V94.614C90.0013 93.678 90.2713 92.934 90.8113 92.382C91.3633 91.818 92.1433 91.536 93.1513 91.536C93.5233 91.536 93.8773 91.584 94.2133 91.68C94.5613 91.764 94.8553 91.902 95.0953 92.094L94.5733 93.408C94.3933 93.264 94.1893 93.156 93.9613 93.084C93.7333 93 93.4933 92.958 93.2413 92.958C92.7373 92.958 92.3533 93.102 92.0893 93.39C91.8253 93.666 91.6933 94.08 91.6933 94.632V95.91L91.7293 96.702V105H90.0013ZM88.3813 96.882V95.46H94.4653V96.882H88.3813ZM100.202 105.108C99.1824 105.108 98.2824 104.898 97.5024 104.478C96.7344 104.058 96.1344 103.482 95.7024 102.75C95.2824 102.018 95.0724 101.178 95.0724 100.23C95.0724 99.282 95.2764 98.442 95.6844 97.71C96.1044 96.978 96.6744 96.408 97.3944 96C98.1264 95.58 98.9484 95.37 99.8604 95.37C100.784 95.37 101.6 95.574 102.308 95.982C103.016 96.39 103.568 96.966 103.964 97.71C104.372 98.442 104.576 99.3 104.576 100.284C104.576 100.356 104.57 100.44 104.558 100.536C104.558 100.632 104.552 100.722 104.54 100.806H96.4224V99.564H103.64L102.938 99.996C102.95 99.384 102.824 98.838 102.56 98.358C102.296 97.878 101.93 97.506 101.462 97.242C101.006 96.966 100.472 96.828 99.8604 96.828C99.2604 96.828 98.7264 96.966 98.2584 97.242C97.7904 97.506 97.4244 97.884 97.1604 98.376C96.8964 98.856 96.7644 99.408 96.7644 100.032V100.32C96.7644 100.956 96.9084 101.526 97.1964 102.03C97.4964 102.522 97.9104 102.906 98.4384 103.182C98.9664 103.458 99.5724 103.596 100.256 103.596C100.82 103.596 101.33 103.5 101.786 103.308C102.254 103.116 102.662 102.828 103.01 102.444L103.964 103.56C103.532 104.064 102.992 104.448 102.344 104.712C101.708 104.976 100.994 105.108 100.202 105.108ZM111.134 105.108C110.162 105.108 109.292 104.898 108.524 104.478C107.768 104.058 107.174 103.482 106.742 102.75C106.31 102.018 106.094 101.178 106.094 100.23C106.094 99.282 106.31 98.442 106.742 97.71C107.174 96.978 107.768 96.408 108.524 96C109.292 95.58 110.162 95.37 111.134 95.37C111.998 95.37 112.766 95.544 113.438 95.892C114.122 96.228 114.65 96.732 115.022 97.404L113.708 98.25C113.396 97.782 113.012 97.44 112.556 97.224C112.112 96.996 111.632 96.882 111.116 96.882C110.492 96.882 109.934 97.02 109.442 97.296C108.95 97.572 108.56 97.962 108.272 98.466C107.984 98.958 107.84 99.546 107.84 100.23C107.84 100.914 107.984 101.508 108.272 102.012C108.56 102.516 108.95 102.906 109.442 103.182C109.934 103.458 110.492 103.596 111.116 103.596C111.632 103.596 112.112 103.488 112.556 103.272C113.012 103.044 113.396 102.696 113.708 102.228L115.022 103.056C114.65 103.716 114.122 104.226 113.438 104.586C112.766 104.934 111.998 105.108 111.134 105.108ZM120.658 105.108C119.698 105.108 118.954 104.85 118.426 104.334C117.898 103.818 117.634 103.08 117.634 102.12V93.372H119.362V102.048C119.362 102.564 119.488 102.96 119.74 103.236C120.004 103.512 120.376 103.65 120.856 103.65C121.396 103.65 121.846 103.5 122.206 103.2L122.746 104.442C122.482 104.67 122.164 104.838 121.792 104.946C121.432 105.054 121.054 105.108 120.658 105.108ZM116.014 96.882V95.46H122.098V96.882H116.014ZM127.571 105.108C126.779 105.108 126.023 105 125.303 104.784C124.595 104.568 124.037 104.304 123.629 103.992L124.349 102.624C124.757 102.9 125.261 103.134 125.861 103.326C126.461 103.518 127.073 103.614 127.697 103.614C128.501 103.614 129.077 103.5 129.425 103.272C129.785 103.044 129.965 102.726 129.965 102.318C129.965 102.018 129.857 101.784 129.641 101.616C129.425 101.448 129.137 101.322 128.777 101.238C128.429 101.154 128.039 101.082 127.607 101.022C127.175 100.95 126.743 100.866 126.311 100.77C125.879 100.662 125.483 100.518 125.123 100.338C124.763 100.146 124.475 99.888 124.259 99.564C124.043 99.228 123.935 98.784 123.935 98.232C123.935 97.656 124.097 97.152 124.421 96.72C124.745 96.288 125.201 95.958 125.789 95.73C126.389 95.49 127.097 95.37 127.913 95.37C128.537 95.37 129.167 95.448 129.803 95.604C130.451 95.748 130.979 95.958 131.387 96.234L130.649 97.602C130.217 97.314 129.767 97.116 129.299 97.008C128.831 96.9 128.363 96.846 127.895 96.846C127.139 96.846 126.575 96.972 126.203 97.224C125.831 97.464 125.645 97.776 125.645 98.16C125.645 98.484 125.753 98.736 125.969 98.916C126.197 99.084 126.485 99.216 126.833 99.312C127.193 99.408 127.589 99.492 128.021 99.564C128.453 99.624 128.885 99.708 129.317 99.816C129.749 99.912 130.139 100.05 130.487 100.23C130.847 100.41 131.135 100.662 131.351 100.986C131.579 101.31 131.693 101.742 131.693 102.282C131.693 102.858 131.525 103.356 131.189 103.776C130.853 104.196 130.379 104.526 129.767 104.766C129.155 104.994 128.423 105.108 127.571 105.108Z" fill="white"/>
</svg>
