<svg width="40" height="40" viewBox="0 0 40 40" fill="none" xmlns="http://www.w3.org/2000/svg">
<rect x="0.5" y="0.5" width="39" height="39" stroke="#273039"/>
<path d="M15.8172 14C16.3944 14 16.9273 14.0444 17.4158 14.1776C17.9042 14.2664 18.3039 14.4441 18.6591 14.6661C19.0144 14.8881 19.2808 15.199 19.4584 15.5986C19.636 15.9983 19.7249 16.4867 19.7249 17.0196C19.7249 17.6413 19.5916 18.1741 19.2808 18.5738C19.0144 18.9734 18.5703 19.3287 18.0374 19.5951C18.7923 19.8172 19.3696 20.2168 19.7249 20.7497C20.0801 21.2825 20.3021 21.9486 20.3021 22.7035C20.3021 23.3252 20.1689 23.8581 19.9469 24.3021C19.7249 24.7462 19.3696 25.1458 18.97 25.4123C18.5703 25.6787 18.0818 25.9007 17.549 26.034C17.0161 26.1672 16.4832 26.256 15.9504 26.256H10V14H15.8172ZM15.4619 18.9734C15.9504 18.9734 16.35 18.8402 16.6609 18.6182C16.9717 18.3962 17.1049 17.9965 17.1049 17.5081C17.1049 17.2416 17.0605 16.9752 16.9717 16.7976C16.8829 16.6199 16.7497 16.4867 16.572 16.3535C16.3944 16.2647 16.2168 16.1759 15.9948 16.1315C15.7727 16.0871 15.5507 16.0871 15.2843 16.0871H12.7087V18.9734H15.4619ZM15.5951 24.2133C15.8616 24.2133 16.128 24.1689 16.35 24.1245C16.572 24.0801 16.7941 23.9913 16.9717 23.8581C17.1493 23.7249 17.2825 23.5916 17.4158 23.3696C17.5046 23.1476 17.5934 22.8811 17.5934 22.5703C17.5934 21.9486 17.4158 21.5046 17.0605 21.1937C16.7053 20.9273 16.2168 20.7941 15.6395 20.7941H12.7087V24.2133H15.5951ZM24.1654 24.1689C24.5207 24.5242 25.0535 24.7018 25.764 24.7018C26.2525 24.7018 26.6966 24.5686 27.0518 24.3465C27.407 24.0801 27.6291 23.8137 27.7179 23.5472H29.8938C29.5385 24.613 29.0057 25.3679 28.2952 25.8563C27.5847 26.3004 26.741 26.5668 25.7196 26.5668C25.0091 26.5668 24.3875 26.4336 23.8102 26.2116C23.2329 25.9895 22.7889 25.6787 22.3892 25.2346C21.9895 24.835 21.6787 24.3465 21.5011 23.7693C21.2791 23.192 21.1902 22.5703 21.1902 21.8598C21.1902 21.1937 21.2791 20.572 21.5011 19.9948C21.7231 19.4175 22.034 18.929 22.4336 18.485C22.8333 18.0853 23.3217 17.7301 23.8546 17.5081C24.4319 17.286 25.0091 17.1528 25.7196 17.1528C26.4745 17.1528 27.1406 17.286 27.7179 17.5969C28.2952 17.9077 28.7392 18.263 29.0945 18.7958C29.4497 19.2843 29.7161 19.8616 29.8938 20.4832C29.9826 21.1049 30.027 21.7266 29.9826 22.4371H23.5437C23.5437 23.1476 23.8102 23.8137 24.1654 24.1689ZM26.963 19.5063C26.6521 19.1955 26.1637 19.0178 25.5864 19.0178C25.1868 19.0178 24.8759 19.1067 24.6095 19.2399C24.3431 19.3731 24.1654 19.5507 23.9878 19.7283C23.8102 19.906 23.7214 20.128 23.677 20.35C23.6326 20.572 23.5882 20.7497 23.5882 20.9273H27.5847C27.4959 20.2612 27.2738 19.8172 26.963 19.5063ZM23.0553 14.8437H28.0287V16.0427H23.0553V14.8437Z" fill="white"/>
</svg>
