<svg width="73" height="24" viewBox="0 0 73 24" fill="none" xmlns="http://www.w3.org/2000/svg">
<path d="M15.0898 19.9201L8.56984 13.4001C7.79984 12.6301 7.79984 11.3701 8.56984 10.6001L15.0898 4.08008" stroke="#1A9D63" stroke-width="1.5" stroke-miterlimit="10" stroke-linecap="round" stroke-linejoin="round"/>
<path d="M33.824 18V6.8H38.656C39.904 6.8 40.8693 7.05067 41.552 7.552C42.2453 8.05333 42.592 8.76267 42.592 9.68C42.592 10.288 42.448 10.8 42.16 11.216C41.8827 11.632 41.4987 11.9467 41.008 12.16C40.528 12.3733 40 12.48 39.424 12.48L39.696 12.096C40.4107 12.096 41.024 12.208 41.536 12.432C42.0587 12.6453 42.464 12.9707 42.752 13.408C43.04 13.8347 43.184 14.368 43.184 15.008C43.184 15.9573 42.832 16.6933 42.128 17.216C41.4347 17.7387 40.384 18 38.976 18H33.824ZM35.008 17.024H38.96C39.9413 17.024 40.6933 16.8587 41.216 16.528C41.7387 16.1867 42 15.648 42 14.912C42 14.1867 41.7387 13.6587 41.216 13.328C40.6933 12.9867 39.9413 12.816 38.96 12.816H34.88V11.84H38.576C39.472 11.84 40.1653 11.6693 40.656 11.328C41.1573 10.9867 41.408 10.48 41.408 9.808C41.408 9.12533 41.1573 8.61867 40.656 8.288C40.1653 7.94667 39.472 7.776 38.576 7.776H35.008V17.024ZM51.2305 18V16.144L51.1825 15.84V12.736C51.1825 12.0213 50.9798 11.472 50.5745 11.088C50.1798 10.704 49.5878 10.512 48.7985 10.512C48.2545 10.512 47.7372 10.6027 47.2465 10.784C46.7558 10.9653 46.3398 11.2053 45.9985 11.504L45.4865 10.656C45.9132 10.2933 46.4252 10.016 47.0225 9.824C47.6198 9.62133 48.2492 9.52 48.9105 9.52C49.9985 9.52 50.8358 9.792 51.4225 10.336C52.0198 10.8693 52.3185 11.6853 52.3185 12.784V18H51.2305ZM48.3345 18.08C47.7052 18.08 47.1558 17.9787 46.6865 17.776C46.2278 17.5627 45.8758 17.2747 45.6305 16.912C45.3852 16.5387 45.2625 16.112 45.2625 15.632C45.2625 15.1947 45.3638 14.8 45.5665 14.448C45.7798 14.0853 46.1212 13.7973 46.5905 13.584C47.0705 13.36 47.7105 13.248 48.5105 13.248H51.4065V14.096H48.5425C47.7318 14.096 47.1665 14.24 46.8465 14.528C46.5372 14.816 46.3825 15.1733 46.3825 15.6C46.3825 16.08 46.5692 16.464 46.9425 16.752C47.3158 17.04 47.8385 17.184 48.5105 17.184C49.1505 17.184 49.6998 17.04 50.1585 16.752C50.6278 16.4533 50.9692 16.0267 51.1825 15.472L51.4385 16.256C51.2252 16.8107 50.8518 17.2533 50.3185 17.584C49.7958 17.9147 49.1345 18.08 48.3345 18.08ZM59.212 18.08C58.38 18.08 57.6333 17.8987 56.972 17.536C56.3213 17.1627 55.8093 16.656 55.436 16.016C55.0627 15.3653 54.876 14.624 54.876 13.792C54.876 12.9493 55.0627 12.208 55.436 11.568C55.8093 10.928 56.3213 10.4267 56.972 10.064C57.6333 9.70133 58.38 9.52 59.212 9.52C59.9267 9.52 60.572 9.65867 61.148 9.936C61.724 10.2133 62.1773 10.6293 62.508 11.184L61.66 11.76C61.372 11.3333 61.0147 11.0187 60.588 10.816C60.1613 10.6133 59.6973 10.512 59.196 10.512C58.5987 10.512 58.06 10.6507 57.58 10.928C57.1 11.1947 56.7213 11.5733 56.444 12.064C56.1667 12.5547 56.028 13.1307 56.028 13.792C56.028 14.4533 56.1667 15.0293 56.444 15.52C56.7213 16.0107 57.1 16.3947 57.58 16.672C58.06 16.9387 58.5987 17.072 59.196 17.072C59.6973 17.072 60.1613 16.9707 60.588 16.768C61.0147 16.5653 61.372 16.256 61.66 15.84L62.508 16.416C62.1773 16.96 61.724 17.376 61.148 17.664C60.572 17.9413 59.9267 18.08 59.212 18.08ZM65.8306 15.824L65.8626 14.368L71.0946 9.6H72.4866L68.7906 13.136L68.1506 13.68L65.8306 15.824ZM64.9346 18V6.128H66.0706V18H64.9346ZM71.4466 18L67.9426 13.632L68.6786 12.752L72.8386 18H71.4466Z" fill="#1A9D63"/>
</svg>
