<svg width="40" height="40" viewBox="0 0 40 40" fill="none" xmlns="http://www.w3.org/2000/svg">
<rect width="40" height="40" fill="#1157FF"/>
<path d="M15.8172 13.75C16.3944 13.75 16.9273 13.7944 17.4158 13.9276C17.9042 14.0164 18.3039 14.1941 18.6591 14.4161C19.0144 14.6381 19.2808 14.949 19.4584 15.3486C19.636 15.7483 19.7249 16.2367 19.7249 16.7696C19.7249 17.3913 19.5916 17.9241 19.2808 18.3238C19.0144 18.7234 18.5703 19.0787 18.0374 19.3451C18.7923 19.5672 19.3696 19.9668 19.7249 20.4997C20.0801 21.0325 20.3021 21.6986 20.3021 22.4535C20.3021 23.0752 20.1689 23.6081 19.9469 24.0521C19.7249 24.4962 19.3696 24.8958 18.97 25.1623C18.5703 25.4287 18.0818 25.6507 17.549 25.784C17.0161 25.9172 16.4832 26.006 15.9504 26.006H10V13.75H15.8172ZM15.4619 18.7234C15.9504 18.7234 16.35 18.5902 16.6609 18.3682C16.9717 18.1462 17.1049 17.7465 17.1049 17.2581C17.1049 16.9916 17.0605 16.7252 16.9717 16.5476C16.8829 16.3699 16.7497 16.2367 16.572 16.1035C16.3944 16.0147 16.2168 15.9259 15.9948 15.8815C15.7727 15.8371 15.5507 15.8371 15.2843 15.8371H12.7087V18.7234H15.4619ZM15.5951 23.9633C15.8616 23.9633 16.128 23.9189 16.35 23.8745C16.572 23.8301 16.7941 23.7413 16.9717 23.6081C17.1493 23.4749 17.2825 23.3416 17.4158 23.1196C17.5046 22.8976 17.5934 22.6311 17.5934 22.3203C17.5934 21.6986 17.4158 21.2546 17.0605 20.9437C16.7053 20.6773 16.2168 20.5441 15.6395 20.5441H12.7087V23.9633H15.5951ZM24.1654 23.9189C24.5207 24.2742 25.0535 24.4518 25.764 24.4518C26.2525 24.4518 26.6966 24.3186 27.0518 24.0965C27.407 23.8301 27.6291 23.5637 27.7179 23.2972H29.8938C29.5385 24.363 29.0057 25.1179 28.2952 25.6063C27.5847 26.0504 26.741 26.3168 25.7196 26.3168C25.0091 26.3168 24.3875 26.1836 23.8102 25.9616C23.2329 25.7395 22.7889 25.4287 22.3892 24.9846C21.9895 24.585 21.6787 24.0965 21.5011 23.5193C21.2791 22.942 21.1902 22.3203 21.1902 21.6098C21.1902 20.9437 21.2791 20.322 21.5011 19.7448C21.7231 19.1675 22.034 18.679 22.4336 18.235C22.8333 17.8353 23.3217 17.4801 23.8546 17.2581C24.4319 17.036 25.0091 16.9028 25.7196 16.9028C26.4745 16.9028 27.1406 17.036 27.7179 17.3469C28.2952 17.6577 28.7392 18.013 29.0945 18.5458C29.4497 19.0343 29.7161 19.6116 29.8938 20.2332C29.9826 20.8549 30.027 21.4766 29.9826 22.1871H23.5437C23.5437 22.8976 23.8102 23.5637 24.1654 23.9189ZM26.963 19.2563C26.6521 18.9455 26.1637 18.7678 25.5864 18.7678C25.1868 18.7678 24.8759 18.8567 24.6095 18.9899C24.3431 19.1231 24.1654 19.3007 23.9878 19.4783C23.8102 19.656 23.7214 19.878 23.677 20.1C23.6326 20.322 23.5882 20.4997 23.5882 20.6773H27.5847C27.4959 20.0112 27.2738 19.5672 26.963 19.2563ZM23.0553 14.5937H28.0287V15.7927H23.0553V14.5937Z" fill="white"/>
</svg>
