<svg width="40" height="40" viewBox="0 0 40 40" fill="none" xmlns="http://www.w3.org/2000/svg">
<rect x="0.5" y="0.5" width="39" height="39" stroke="#273039"/>
<path d="M15.8172 14C16.3944 14 16.9273 14.0424 17.4158 14.1696C17.9042 14.2544 18.3039 14.424 18.6591 14.636C19.0144 14.8481 19.2808 15.1449 19.4584 15.5265C19.636 15.9081 19.7249 16.3746 19.7249 16.8834C19.7249 17.477 19.5916 17.9859 19.2808 18.3675C19.0144 18.7491 18.5703 19.0883 18.0374 19.3428C18.7923 19.5548 19.3696 19.9364 19.7249 20.4452C20.0801 20.9541 20.3021 21.5901 20.3021 22.311C20.3021 22.9046 20.1689 23.4134 19.9469 23.8375C19.7249 24.2615 19.3696 24.6431 18.97 24.8975C18.5703 25.1519 18.0818 25.364 17.549 25.4912C17.0161 25.6184 16.4832 25.7032 15.9504 25.7032H10V14H15.8172ZM15.4619 18.7491C15.9504 18.7491 16.35 18.6219 16.6609 18.4099C16.9717 18.1979 17.1049 17.8163 17.1049 17.3498C17.1049 17.0954 17.0605 16.841 16.9717 16.6714C16.8829 16.5018 16.7497 16.3746 16.572 16.2473C16.3944 16.1625 16.2168 16.0777 15.9948 16.0353C15.7727 15.9929 15.5507 15.9929 15.2843 15.9929H12.7087V18.7491H15.4619ZM15.5951 23.7527C15.8616 23.7527 16.128 23.7102 16.35 23.6678C16.572 23.6254 16.7941 23.5406 16.9717 23.4134C17.1493 23.2862 17.2825 23.159 17.4158 22.947C17.5046 22.735 17.5934 22.4806 17.5934 22.1837C17.5934 21.5901 17.4158 21.1661 17.0605 20.8693C16.7053 20.6148 16.2168 20.4876 15.6395 20.4876H12.7087V23.7527H15.5951ZM24.1654 23.7102C24.5207 24.0495 25.0535 24.2191 25.764 24.2191C26.2525 24.2191 26.6966 24.0919 27.0518 23.8799C27.407 23.6254 27.6291 23.371 27.7179 23.1166H29.8938C29.5385 24.1343 29.0057 24.8551 28.2952 25.3216C27.5847 25.7456 26.741 26 25.7196 26C25.0091 26 24.3875 25.8728 23.8102 25.6608C23.2329 25.4488 22.7889 25.1519 22.3892 24.7279C21.9895 24.3463 21.6787 23.8799 21.5011 23.3286C21.2791 22.7774 21.1902 22.1837 21.1902 21.5053C21.1902 20.8693 21.2791 20.2756 21.5011 19.7244C21.7231 19.1731 22.034 18.7067 22.4336 18.2827C22.8333 17.9011 23.3217 17.5618 23.8546 17.3498C24.4319 17.1378 25.0091 17.0106 25.7196 17.0106C26.4745 17.0106 27.1406 17.1378 27.7179 17.4346C28.2952 17.7314 28.7392 18.0707 29.0945 18.5795C29.4497 19.0459 29.7161 19.5972 29.8938 20.1908C29.9826 20.7845 30.027 21.3781 29.9826 22.0565H23.5437C23.5437 22.735 23.8102 23.371 24.1654 23.7102ZM26.963 19.258C26.6521 18.9611 26.1637 18.7915 25.5864 18.7915C25.1868 18.7915 24.8759 18.8763 24.6095 19.0035C24.3431 19.1307 24.1654 19.3004 23.9878 19.47C23.8102 19.6396 23.7214 19.8516 23.677 20.0636C23.6326 20.2756 23.5882 20.4452 23.5882 20.6148H27.5847C27.4959 19.9788 27.2738 19.5548 26.963 19.258ZM23.0553 14.8057H28.0287V15.9505H23.0553V14.8057Z" fill="white"/>
</svg>
