<svg width="96" height="95" viewBox="0 0 96 95" fill="none" xmlns="http://www.w3.org/2000/svg">
<path d="M42.1165 22.2506C43.7631 16.8637 51.3892 16.8637 53.0357 22.2506L55.8429 31.4347C56.0965 32.2644 56.5358 33.0253 57.1275 33.6597L63.6776 40.6829C67.5195 44.8023 63.7065 51.4067 58.218 50.1392L48.8607 47.9782C48.0155 47.783 47.1368 47.783 46.2915 47.9782L36.9343 50.1392C31.4458 51.4067 27.6327 44.8023 31.4747 40.6829L38.0247 33.6597C38.6164 33.0253 39.0558 32.2644 39.3093 31.4347L42.1165 22.2506Z" fill="#EC5F5F"/>
<path d="M59.204 30.9782L47.5763 51.1181L35.9485 30.9782L59.204 30.9782Z" stroke="white" stroke-width="0.84577"/>
<path d="M14.6323 63.7871H21.9847C23.3994 63.7871 24.5069 64.1372 25.3072 64.8374C26.1074 65.5377 26.5076 66.5523 26.5076 67.8813C26.5076 68.5529 26.3504 69.1674 26.036 69.7247C25.7216 70.2678 25.2929 70.6893 24.7499 70.9894C25.493 71.2609 26.0503 71.6754 26.4218 72.2327C26.7934 72.7757 26.9792 73.4902 26.9792 74.3762C26.9792 75.2765 26.7719 76.0625 26.3575 76.7341C25.9574 77.3915 25.4001 77.8988 24.6856 78.2561C23.9853 78.599 23.2065 78.7705 22.3491 78.7705H14.6323V63.7871ZM21.3631 69.8748C21.9347 69.8748 22.3848 69.7319 22.7135 69.4461C23.0422 69.1603 23.2065 68.703 23.2065 68.0742C23.2065 67.3883 23.0422 66.9167 22.7135 66.6595C22.3991 66.4022 21.9132 66.2736 21.2559 66.2736H17.8905V69.8748H21.3631ZM21.556 76.284C22.2562 76.284 22.7849 76.1482 23.1422 75.8767C23.5137 75.5909 23.6995 75.0979 23.6995 74.3977C23.6995 73.6832 23.5066 73.1687 23.1208 72.8543C22.7492 72.5399 22.1919 72.3827 21.4488 72.3827H17.8905V76.284H21.556ZM34.9346 79.092C32.9625 79.092 31.412 78.6205 30.2831 77.6773C29.1541 76.7198 28.5897 75.3837 28.5897 73.6689C28.5897 71.9683 29.0898 70.625 30.0901 69.639C31.1048 68.653 32.5481 68.1599 34.4201 68.1599C35.6491 68.1599 36.6923 68.3886 37.5497 68.8459C38.4071 69.3032 39.0573 69.9391 39.5003 70.7536C39.9433 71.5539 40.1648 72.4613 40.1648 73.4759V74.7835H31.6764C31.905 76.0982 33.134 76.7556 35.3633 76.7556C36.0206 76.7556 36.6994 76.6984 37.3996 76.5841C38.0999 76.4698 38.7072 76.3126 39.2217 76.1125V78.3847C38.7215 78.599 38.0784 78.7705 37.2925 78.8991C36.5065 79.0277 35.7205 79.092 34.9346 79.092ZM37.0996 72.6828C37.0567 71.9969 36.7995 71.4682 36.3279 71.0966C35.8563 70.7108 35.2061 70.5178 34.3772 70.5178C33.5627 70.5178 32.9196 70.7108 32.448 71.0966C31.9765 71.4824 31.7192 72.0112 31.6764 72.6828H37.0996ZM47.9355 79.092C46.6923 79.092 45.5991 78.8705 44.6559 78.4275C43.727 77.9702 43.0054 77.3343 42.4909 76.5198C41.9907 75.6909 41.7407 74.7263 41.7407 73.626C41.7407 72.5542 41.9907 71.6039 42.4909 70.7751C43.0054 69.9462 43.727 69.3032 44.6559 68.8459C45.5991 68.3886 46.6923 68.1599 47.9355 68.1599C49.1645 68.1599 50.2434 68.3886 51.1723 68.8459C52.1154 69.3032 52.8371 69.9462 53.3373 70.7751C53.8517 71.6039 54.1089 72.5542 54.1089 73.626C54.1089 74.7263 53.8517 75.6909 53.3373 76.5198C52.8371 77.3343 52.1226 77.9702 51.1937 78.4275C50.2648 78.8705 49.1788 79.092 47.9355 79.092ZM47.9355 76.5627C48.8072 76.5627 49.5003 76.2983 50.0148 75.7695C50.5292 75.2265 50.7864 74.512 50.7864 73.626C50.7864 72.7114 50.5292 71.9969 50.0148 71.4824C49.5146 70.9537 48.8215 70.6893 47.9355 70.6893C47.0495 70.6893 46.3493 70.9537 45.8348 71.4824C45.3204 71.9969 45.0632 72.7114 45.0632 73.626C45.0632 74.512 45.3204 75.2265 45.8348 75.7695C46.3636 76.2983 47.0638 76.5627 47.9355 76.5627ZM61.3587 79.092C60.1154 79.092 59.0222 78.8705 58.079 78.4275C57.1502 77.9702 56.4285 77.3343 55.914 76.5198C55.4139 75.6909 55.1638 74.7263 55.1638 73.626C55.1638 72.5542 55.4139 71.6039 55.914 70.7751C56.4285 69.9462 57.1502 69.3032 58.079 68.8459C59.0222 68.3886 60.1154 68.1599 61.3587 68.1599C62.5876 68.1599 63.6666 68.3886 64.5954 68.8459C65.5386 69.3032 66.2602 69.9462 66.7604 70.7751C67.2749 71.6039 67.5321 72.5542 67.5321 73.626C67.5321 74.7263 67.2749 75.6909 66.7604 76.5198C66.2602 77.3343 65.5457 77.9702 64.6169 78.4275C63.688 78.8705 62.6019 79.092 61.3587 79.092ZM61.3587 76.5627C62.2304 76.5627 62.9235 76.2983 63.4379 75.7695C63.9524 75.2265 64.2096 74.512 64.2096 73.626C64.2096 72.7114 63.9524 71.9969 63.4379 71.4824C62.9377 70.9537 62.2447 70.6893 61.3587 70.6893C60.4727 70.6893 59.7724 70.9537 59.258 71.4824C58.7435 71.9969 58.4863 72.7114 58.4863 73.626C58.4863 74.512 58.7435 75.2265 59.258 75.7695C59.7867 76.2983 60.487 76.5627 61.3587 76.5627ZM69.5599 68.4815H72.6895V69.7462C73.1611 69.2174 73.7184 68.8244 74.3615 68.5672C75.0188 68.2957 75.7048 68.1599 76.4193 68.1599C77.8197 68.1599 78.8629 68.5386 79.5489 69.296C80.2491 70.0391 80.5992 71.0466 80.5992 72.3184V78.7705H77.3624V72.6828C77.3624 71.3538 76.7479 70.6893 75.519 70.6893C74.9759 70.6893 74.4686 70.8251 73.9971 71.0966C73.5255 71.3538 73.1253 71.7397 72.7967 72.2541V78.7705H69.5599V68.4815Z" fill="#EC5F5F"/>
</svg>
