<svg width="232" height="164" viewBox="0 0 232 164" fill="none" xmlns="http://www.w3.org/2000/svg">
<path opacity="0.4" d="M217.859 4.94238H195.32V164H217.859C225.438 164 231.582 157.856 231.582 150.277V18.6652C231.582 11.0863 225.438 4.94238 217.859 4.94238Z" fill="#0021C6"/>
<path d="M212.762 0H13.7228C6.1439 0 0 6.14393 0 13.7228V145.186C0 152.765 6.14389 158.908 13.7228 158.908H212.762C220.341 158.908 226.485 152.765 226.485 145.186V13.7228C226.485 6.1439 220.341 0 212.762 0Z" fill="white"/>
<path d="M111.239 40.8351H71.1426C70.5448 40.8351 69.9715 40.5976 69.5488 40.1749C69.1261 39.7522 68.8887 39.1789 68.8887 38.5811C68.8887 37.9833 69.1261 37.41 69.5488 36.9873C69.9715 36.5646 70.5448 36.3271 71.1426 36.3271H111.239C111.837 36.3271 112.411 36.5646 112.833 36.9873C113.256 37.41 113.493 37.9833 113.493 38.5811C113.493 39.1789 113.256 39.7522 112.833 40.1749C112.411 40.5976 111.837 40.8351 111.239 40.8351Z" fill="#95FC57"/>
<path d="M111.239 93.1095H71.1426C70.5448 93.1095 69.9715 92.872 69.5488 92.4493C69.1261 92.0266 68.8887 91.4533 68.8887 90.8555C68.8887 90.2577 69.1261 89.6844 69.5488 89.2617C69.9715 88.839 70.5448 88.6016 71.1426 88.6016H111.239C111.837 88.6016 112.411 88.839 112.833 89.2617C113.256 89.6844 113.493 90.2577 113.493 90.8555C113.493 91.4533 113.256 92.0266 112.833 92.4493C112.411 92.872 111.837 93.1095 111.239 93.1095Z" fill="#95FC57"/>
<path d="M111.239 102.579H71.1426C70.5448 102.579 69.9715 102.342 69.5488 101.919C69.1261 101.496 68.8887 100.923 68.8887 100.325C68.8887 99.7275 69.1261 99.1542 69.5488 98.7315C69.9715 98.3088 70.5448 98.0713 71.1426 98.0713H111.239C111.837 98.0713 112.411 98.3088 112.833 98.7315C113.256 99.1542 113.493 99.7275 113.493 100.325C113.493 100.923 113.256 101.496 112.833 101.919C112.411 102.342 111.837 102.579 111.239 102.579Z" fill="#95FC57"/>
<path d="M161.064 40.8351H120.967C120.37 40.8351 119.796 40.5976 119.374 40.1749C118.951 39.7522 118.713 39.1789 118.713 38.5811C118.713 37.9833 118.951 37.41 119.374 36.9873C119.796 36.5646 120.37 36.3271 120.967 36.3271H161.064C161.662 36.3271 162.235 36.5646 162.658 36.9873C163.081 37.41 163.318 37.9833 163.318 38.5811C163.318 39.1789 163.081 39.7522 162.658 40.1749C162.235 40.5976 161.662 40.8351 161.064 40.8351Z" fill="#3593FF"/>
<path d="M161.064 93.1095H120.967C120.37 93.1095 119.796 92.872 119.374 92.4493C118.951 92.0266 118.713 91.4533 118.713 90.8555C118.713 90.2577 118.951 89.6844 119.374 89.2617C119.796 88.839 120.37 88.6016 120.967 88.6016H161.064C161.662 88.6016 162.235 88.839 162.658 89.2617C163.081 89.6844 163.318 90.2577 163.318 90.8555C163.318 91.4533 163.081 92.0266 162.658 92.4493C162.235 92.872 161.662 93.1095 161.064 93.1095Z" fill="#3593FF"/>
<path d="M161.064 102.579H120.967C120.37 102.579 119.796 102.342 119.374 101.919C118.951 101.496 118.713 100.923 118.713 100.325C118.713 99.7275 118.951 99.1542 119.374 98.7315C119.796 98.3088 120.37 98.0713 120.967 98.0713H161.064C161.662 98.0713 162.235 98.3088 162.658 98.7315C163.081 99.1542 163.318 99.7275 163.318 100.325C163.318 100.923 163.081 101.496 162.658 101.919C162.235 102.342 161.662 102.579 161.064 102.579Z" fill="#3593FF"/>
<path d="M161.064 49.3741H91.3096C90.7118 49.3741 90.1385 49.1367 89.7158 48.714C89.2931 48.2913 89.0557 47.718 89.0557 47.1202C89.0557 46.5224 89.2931 45.9491 89.7158 45.5264C90.1385 45.1037 90.7118 44.8662 91.3096 44.8662H161.064C161.662 44.8662 162.235 45.1037 162.658 45.5264C163.08 45.9491 163.318 46.5224 163.318 47.1202C163.318 47.718 163.08 48.2913 162.658 48.714C162.235 49.1367 161.662 49.3741 161.064 49.3741Z" fill="#3593FF"/>
<path d="M111.239 32.173H71.1423C70.545 32.1722 69.9724 31.9344 69.5503 31.5118C69.1282 31.0892 68.8911 30.5163 68.8911 29.919C68.8911 29.3217 69.1282 28.7488 69.5503 28.3262C69.9724 27.9036 70.545 27.6658 71.1423 27.665H111.239C111.535 27.6647 111.829 27.7227 112.103 27.8358C112.376 27.9489 112.625 28.1149 112.835 28.3242C113.044 28.5336 113.211 28.7822 113.324 29.0558C113.437 29.3294 113.496 29.6228 113.496 29.919C113.496 30.2152 113.437 30.5086 113.324 30.7822C113.211 31.0558 113.044 31.3044 112.835 31.5138C112.625 31.7231 112.376 31.8891 112.103 32.0022C111.829 32.1153 111.535 32.1733 111.239 32.173Z" fill="#CCCCCC"/>
<path d="M111.239 84.4493H71.1423C70.545 84.4486 69.9724 84.2108 69.5503 83.7882C69.1282 83.3656 68.8911 82.7927 68.8911 82.1954C68.8911 81.5981 69.1282 81.0252 69.5503 80.6026C69.9724 80.1799 70.545 79.9421 71.1423 79.9414H111.239C111.535 79.941 111.829 79.9991 112.103 80.1122C112.376 80.2253 112.625 80.3913 112.835 80.6006C113.044 80.8099 113.211 81.0585 113.324 81.3322C113.437 81.6058 113.496 81.8991 113.496 82.1954C113.496 82.4916 113.437 82.7849 113.324 83.0586C113.211 83.3322 113.044 83.5808 112.835 83.7901C112.625 83.9995 112.376 84.1655 112.103 84.2786C111.829 84.3917 111.535 84.4497 111.239 84.4493Z" fill="#95FC57"/>
<path d="M133.305 32.2921H121.916C121.318 32.2921 120.745 32.0546 120.322 31.6319C119.9 31.2092 119.662 30.6359 119.662 30.0381C119.662 29.4404 119.9 28.867 120.322 28.4443C120.745 28.0216 121.318 27.7842 121.916 27.7842H133.305C133.902 27.7842 134.476 28.0216 134.898 28.4443C135.321 28.867 135.558 29.4404 135.558 30.0381C135.558 30.6359 135.321 31.2092 134.898 31.6319C134.476 32.0546 133.902 32.2921 133.305 32.2921Z" fill="#95FC57"/>
<path d="M133.305 84.5675H121.916C121.318 84.5675 120.745 84.33 120.322 83.9073C119.9 83.4846 119.662 82.9113 119.662 82.3135C119.662 81.7157 119.9 81.1424 120.322 80.7197C120.745 80.297 121.318 80.0596 121.916 80.0596H133.305C133.902 80.0596 134.476 80.297 134.898 80.7197C135.321 81.1424 135.558 81.7157 135.558 82.3135C135.558 82.9113 135.321 83.4846 134.898 83.9073C134.476 84.33 133.902 84.5675 133.305 84.5675Z" fill="#CCCCCC"/>
<path d="M82.5307 49.3741H71.1423C70.545 49.3734 69.9724 49.1356 69.5503 48.713C69.1282 48.2904 68.8911 47.7175 68.8911 47.1202C68.8911 46.5229 69.1282 45.95 69.5503 45.5274C69.9724 45.1047 70.545 44.8669 71.1423 44.8662H82.5307C82.827 44.8658 83.1204 44.9239 83.3942 45.037C83.6679 45.1501 83.9167 45.3161 84.1263 45.5254C84.3359 45.7347 84.5022 45.9833 84.6157 46.257C84.7291 46.5306 84.7875 46.8239 84.7875 47.1202C84.7875 47.4164 84.7291 47.7097 84.6157 47.9834C84.5022 48.257 84.3359 48.5056 84.1263 48.7149C83.9167 48.9243 83.6679 49.0903 83.3942 49.2034C83.1204 49.3165 82.827 49.3745 82.5307 49.3741Z" fill="#CCCCCC"/>
<path d="M111.239 120.815H71.1426C70.5448 120.815 69.9715 120.577 69.5488 120.154C69.1261 119.732 68.8887 119.158 68.8887 118.561C68.8887 117.963 69.1261 117.39 69.5488 116.967C69.9715 116.544 70.5448 116.307 71.1426 116.307H111.239C111.535 116.307 111.829 116.365 112.102 116.478C112.375 116.591 112.624 116.758 112.833 116.967C113.043 117.176 113.209 117.425 113.322 117.698C113.435 117.972 113.493 118.265 113.493 118.561C113.493 118.857 113.435 119.15 113.322 119.423C113.209 119.697 113.043 119.945 112.833 120.154C112.624 120.364 112.375 120.53 112.102 120.643C111.829 120.756 111.535 120.815 111.239 120.815Z" fill="#CCCCCC"/>
<path d="M111.578 62.1102H71.481C70.8832 62.1102 70.3099 62.3477 69.8872 62.7704C69.4645 63.1931 69.2271 63.7664 69.2271 64.3642C69.2271 64.962 69.4645 65.5353 69.8872 65.958C70.3099 66.3807 70.8832 66.6182 71.481 66.6182H111.578C111.874 66.6182 112.167 66.5599 112.44 66.4466C112.714 66.3333 112.962 66.1673 113.172 65.958C113.381 65.7487 113.547 65.5002 113.66 65.2268C113.773 64.9533 113.832 64.6602 113.832 64.3642C113.832 64.0682 113.773 63.7751 113.66 63.5016C113.547 63.2282 113.381 62.9797 113.172 62.7704C112.962 62.5611 112.714 62.3951 112.44 62.2818C112.167 62.1685 111.874 62.1102 111.578 62.1102Z" fill="#3593FF"/>
<path d="M161.064 120.815H120.967C120.37 120.815 119.796 120.577 119.374 120.154C118.951 119.732 118.713 119.158 118.713 118.561C118.713 117.963 118.951 117.39 119.374 116.967C119.796 116.544 120.37 116.307 120.967 116.307H161.064C161.36 116.307 161.653 116.365 161.927 116.478C162.2 116.591 162.449 116.758 162.658 116.967C162.867 117.176 163.033 117.425 163.147 117.698C163.26 117.972 163.318 118.265 163.318 118.561C163.318 118.857 163.26 119.15 163.147 119.423C163.033 119.697 162.867 119.945 162.658 120.154C162.449 120.364 162.2 120.53 161.927 120.643C161.653 120.756 161.36 120.815 161.064 120.815Z" fill="#95FC57"/>
<path d="M161.064 129.356H91.3096C90.7118 129.356 90.1385 129.118 89.7158 128.695C89.2931 128.273 89.0557 127.699 89.0557 127.102C89.0557 126.504 89.2931 125.931 89.7158 125.508C90.1385 125.085 90.7118 124.848 91.3096 124.848H161.064C161.36 124.847 161.653 124.905 161.927 125.018C162.201 125.132 162.45 125.298 162.659 125.507C162.869 125.716 163.035 125.965 163.149 126.238C163.262 126.512 163.321 126.805 163.321 127.102C163.321 127.398 163.262 127.691 163.149 127.965C163.035 128.238 162.869 128.487 162.659 128.696C162.45 128.906 162.201 129.072 161.927 129.185C161.653 129.298 161.36 129.356 161.064 129.356Z" fill="#3593FF"/>
<path d="M161.401 53.5702H91.647C91.0492 53.5702 90.4759 53.8077 90.0532 54.2304C89.6305 54.6531 89.3931 55.2264 89.3931 55.8242C89.3931 56.422 89.6305 56.9953 90.0532 57.418C90.4759 57.8407 91.0492 58.0781 91.647 58.0781H161.401C161.697 58.0785 161.991 58.0205 162.265 57.9073C162.538 57.7942 162.787 57.6283 162.997 57.4189C163.206 57.2096 163.373 56.961 163.486 56.6874C163.6 56.4137 163.658 56.1204 163.658 55.8242C163.658 55.5279 163.6 55.2346 163.486 54.961C163.373 54.6873 163.206 54.4387 162.997 54.2294C162.787 54.02 162.538 53.8541 162.265 53.741C161.991 53.6279 161.697 53.5698 161.401 53.5702Z" fill="#95FC57"/>
<path d="M111.239 112.156H71.1426C70.5448 112.156 69.9715 111.919 69.5488 111.496C69.1261 111.073 68.8887 110.5 68.8887 109.902C68.8887 109.305 69.1261 108.731 69.5488 108.309C69.9715 107.886 70.5448 107.648 71.1426 107.648H111.239C111.837 107.648 112.411 107.886 112.833 108.309C113.256 108.731 113.493 109.305 113.493 109.902C113.493 110.5 113.256 111.073 112.833 111.496C112.411 111.919 111.837 112.156 111.239 112.156Z" fill="#3593FF"/>
<path d="M111.578 70.7704H71.481C70.8832 70.7704 70.3099 71.0079 69.8872 71.4306C69.4645 71.8533 69.2271 72.4266 69.2271 73.0244C69.2271 73.6221 69.4645 74.1954 69.8872 74.6181C70.3099 75.0408 70.8832 75.2783 71.481 75.2783H111.578C112.176 75.2783 112.749 75.0408 113.172 74.6181C113.594 74.1954 113.832 73.6221 113.832 73.0244C113.832 72.4266 113.594 71.8533 113.172 71.4306C112.749 71.0079 112.176 70.7704 111.578 70.7704Z" fill="#CCCCCC"/>
<path d="M133.305 112.273H121.916C121.318 112.273 120.745 112.035 120.322 111.612C119.9 111.19 119.662 110.616 119.662 110.019C119.662 109.421 119.9 108.848 120.322 108.425C120.745 108.002 121.318 107.765 121.916 107.765H133.305C133.902 107.765 134.476 108.002 134.898 108.425C135.321 108.848 135.558 109.421 135.558 110.019C135.558 110.616 135.321 111.19 134.898 111.612C134.476 112.035 133.902 112.273 133.305 112.273Z" fill="#CCCCCC"/>
<path d="M133.642 70.6512H122.253C121.656 70.6512 121.082 70.8887 120.66 71.3114C120.237 71.7341 120 72.3074 120 72.9052C120 73.503 120.237 74.0763 120.66 74.499C121.082 74.9217 121.656 75.1592 122.253 75.1592H133.642C134.24 75.1592 134.813 74.9217 135.236 74.499C135.658 74.0763 135.896 73.503 135.896 72.9052C135.896 72.3074 135.658 71.7341 135.236 71.3114C134.813 70.8887 134.24 70.6512 133.642 70.6512Z" fill="#3593FF"/>
<path d="M82.5311 129.356H71.1426C70.5448 129.356 69.9715 129.118 69.5488 128.695C69.1261 128.273 68.8887 127.699 68.8887 127.102C68.8887 126.504 69.1261 125.931 69.5488 125.508C69.9715 125.085 70.5448 124.848 71.1426 124.848H82.5311C82.8273 124.847 83.1207 124.905 83.3945 125.018C83.6683 125.132 83.9171 125.298 84.1267 125.507C84.3362 125.716 84.5025 125.965 84.616 126.238C84.7294 126.512 84.7878 126.805 84.7878 127.102C84.7878 127.398 84.7294 127.691 84.616 127.965C84.5025 128.238 84.3362 128.487 84.1267 128.696C83.9171 128.906 83.6683 129.072 83.3945 129.185C83.1207 129.298 82.8273 129.356 82.5311 129.356Z" fill="#95FC57"/>
<path d="M82.8694 53.5702H71.481C70.8832 53.5702 70.3099 53.8077 69.8872 54.2304C69.4645 54.6531 69.2271 55.2264 69.2271 55.8242C69.2271 56.422 69.4645 56.9953 69.8872 57.418C70.3099 57.8407 70.8832 58.0781 71.481 58.0781H82.8694C83.1657 58.0785 83.4591 58.0205 83.7329 57.9073C84.0066 57.7942 84.2554 57.6283 84.465 57.4189C84.6746 57.2096 84.8409 56.961 84.9544 56.6874C85.0678 56.4137 85.1262 56.1204 85.1262 55.8242C85.1262 55.5279 85.0678 55.2346 84.9544 54.961C84.8409 54.6873 84.6746 54.4387 84.465 54.2294C84.2554 54.02 84.0066 53.8541 83.7329 53.741C83.4591 53.6279 83.1657 53.5698 82.8694 53.5702Z" fill="#3593FF"/>
<path d="M214.406 0H12.079C5.40795 0 0 5.40795 0 12.079H226.485C226.485 5.40795 221.077 0 214.406 0Z" fill="#00112E"/>
<path d="M13.6109 57.2207L13.0854 58.5202L14.6958 60.9605L16.6209 59.6894L15.0106 57.249L13.6109 57.2207ZM14.091 57.9489C14.056 57.9719 14.015 57.984 13.9731 57.9837C13.9313 57.9834 13.8904 57.9706 13.8558 57.9471C13.8211 57.9236 13.7942 57.8903 13.7785 57.8515C13.7627 57.8127 13.7588 57.7701 13.7673 57.7291C13.7758 57.6881 13.7962 57.6505 13.8261 57.6211C13.8559 57.5917 13.8938 57.5718 13.9349 57.5639C13.976 57.5561 14.0186 57.5606 14.0572 57.5769C14.0957 57.5932 14.1286 57.6206 14.1516 57.6556C14.167 57.6788 14.1776 57.7048 14.1829 57.7321C14.1881 57.7594 14.1879 57.7875 14.1823 57.8148C14.1767 57.8421 14.1657 57.8679 14.1501 57.8909C14.1344 57.9139 14.1143 57.9336 14.091 57.9489Z" fill="#454A61"/>
<path d="M14.1979 72.0928H13.5405V74.2444H14.1979V72.0928Z" fill="#454A61"/>
<path d="M15.1837 70.5352H14.5264V74.2438H15.1837V70.5352Z" fill="#454A61"/>
<path d="M16.1671 71.2402H15.5098V74.2446H16.1671V71.2402Z" fill="#454A61"/>
<path d="M17.1231 88.0221V87.1603H16.3977C16.3649 87.0408 16.3176 86.9257 16.2568 86.8178L16.7692 86.3082C16.6059 86.0685 16.3991 85.8616 16.1594 85.6984L15.6498 86.2114C15.5428 86.1503 15.4287 86.1027 15.3101 86.0698V85.3445C15.0252 85.2901 14.7326 85.2901 14.4477 85.3445V86.0698C14.329 86.1026 14.2149 86.1502 14.108 86.2114L13.5984 85.6984L12.988 86.3082L13.501 86.8178C13.4402 86.9257 13.3928 87.0408 13.36 87.1603H12.6262C12.5719 87.445 12.5719 87.7374 12.6262 88.0221H13.351C13.384 88.1406 13.4313 88.2547 13.492 88.3618L12.979 88.8714L13.5888 89.4863L14.0984 88.9733C14.2053 89.0345 14.3194 89.082 14.4381 89.1149V89.8402C14.723 89.8946 15.0156 89.8946 15.3004 89.8402V89.1166C15.4191 89.0836 15.5332 89.0361 15.6402 88.975L16.1497 89.488L16.7596 88.8782L16.2471 88.3686C16.3078 88.2615 16.3551 88.1474 16.3881 88.0289L17.1231 88.0221ZM14.8741 88.4547C14.7033 88.4547 14.5363 88.404 14.3944 88.3092C14.2524 88.2143 14.1417 88.0794 14.0763 87.9217C14.011 87.7639 13.9939 87.5903 14.0272 87.4228C14.0605 87.2553 14.1427 87.1014 14.2635 86.9806C14.3843 86.8599 14.5381 86.7776 14.7056 86.7443C14.8731 86.711 15.0467 86.7281 15.2045 86.7935C15.3623 86.8588 15.4971 86.9695 15.592 87.1115C15.6869 87.2535 15.7375 87.4204 15.7375 87.5912C15.7376 87.7046 15.7153 87.8169 15.672 87.9217C15.6286 88.0265 15.565 88.1217 15.4848 88.2019C15.4046 88.2821 15.3094 88.3457 15.2046 88.3891C15.0998 88.4325 14.9875 88.4548 14.8741 88.4547Z" fill="#454A61"/>
<path d="M14.7625 99.376H12.6369C12.5368 99.376 12.4407 99.4158 12.3699 99.4866C12.2991 99.5574 12.2593 99.6535 12.2593 99.7537V100.898C12.2592 100.948 12.2689 100.997 12.2879 101.043C12.3068 101.088 12.3346 101.13 12.3697 101.165C12.4048 101.2 12.4465 101.228 12.4923 101.247C12.5382 101.266 12.5873 101.276 12.6369 101.276H13.9862L14.5666 102.087L14.5337 101.276H14.7602C14.8604 101.276 14.9565 101.236 15.0273 101.165C15.0981 101.094 15.1379 100.998 15.1379 100.898V99.7537C15.1379 99.6539 15.0984 99.5582 15.0281 99.4874C14.9577 99.4166 14.8623 99.3766 14.7625 99.376Z" fill="#454A61"/>
<path d="M17.0739 98.4297H14.9494C14.8999 98.4296 14.8508 98.4393 14.805 98.4582C14.7591 98.4772 14.7175 98.5049 14.6824 98.5399C14.6473 98.575 14.6195 98.6166 14.6005 98.6624C14.5815 98.7081 14.5718 98.7572 14.5718 98.8068V99.1765H14.7643C14.9182 99.1767 15.0657 99.2379 15.1745 99.3467C15.2833 99.4555 15.3445 99.603 15.3447 99.7569V100.332H16.0575L16.0264 101.104L16.5779 100.332H17.075C17.1752 100.332 17.2712 100.292 17.342 100.222C17.4129 100.151 17.4527 100.055 17.4527 99.9545V98.8096C17.453 98.7597 17.4434 98.7103 17.4245 98.6641C17.4055 98.618 17.3777 98.576 17.3425 98.5407C17.3072 98.5054 17.2654 98.4774 17.2193 98.4583C17.1732 98.4393 17.1237 98.4295 17.0739 98.4297Z" fill="#454A61"/>
<path d="M24.3004 13.5961C25.3515 9.11395 22.5701 4.62839 18.088 3.57728C13.6059 2.52617 9.12032 5.30756 8.06921 9.78968C7.01811 14.2718 9.79949 18.7574 14.2816 19.8085C18.7637 20.8596 23.2493 18.0782 24.3004 13.5961Z" fill="#0021C6"/>
<path d="M16.1851 13.5767C15.4944 13.5767 14.8319 13.3023 14.3434 12.8138C13.855 12.3254 13.5806 11.6629 13.5806 10.9721V9.03621C13.5806 8.34544 13.855 7.68296 14.3434 7.1945C14.8319 6.70605 15.4944 6.43164 16.1851 6.43164C16.8759 6.43164 17.5384 6.70605 18.0269 7.1945C18.5153 7.68296 18.7897 8.34544 18.7897 9.03621V10.9721C18.7897 11.6629 18.5153 12.3254 18.0269 12.8138C17.5384 13.3023 16.8759 13.5767 16.1851 13.5767Z" fill="white"/>
<path d="M19.1398 10.8796C19.4459 10.8796 19.6941 10.5211 19.6941 10.0789C19.6941 9.63677 19.4459 9.27832 19.1398 9.27832C18.8336 9.27832 18.5854 9.63677 18.5854 10.0789C18.5854 10.5211 18.8336 10.8796 19.1398 10.8796Z" fill="white"/>
<path d="M13.3214 10.8796C13.6276 10.8796 13.8757 10.5211 13.8757 10.0789C13.8757 9.63677 13.6276 9.27832 13.3214 9.27832C13.0153 9.27832 12.7671 9.63677 12.7671 10.0789C12.7671 10.5211 13.0153 10.8796 13.3214 10.8796Z" fill="white"/>
<path d="M17.6592 11.9092H14.7109V15.405H17.6592V11.9092Z" fill="white"/>
<path d="M20.1234 17.8973H12.2593C12.2593 16.9963 12.6172 16.1321 13.2543 15.495C13.8914 14.8579 14.7555 14.5 15.6565 14.5H16.725C17.626 14.5 18.4901 14.8579 19.1272 15.495C19.7643 16.1321 20.1223 16.9963 20.1223 17.8973H20.1234Z" fill="#454A61"/>
<path d="M18.9385 9.16407V10.5151H18.8474C18.7296 10.5151 18.6166 10.4683 18.5333 10.3851C18.4499 10.3018 18.4031 10.1889 18.4029 10.0711V9.41263C18.4023 9.01503 18.2439 8.63394 17.9624 8.35311C17.6809 8.07228 17.2995 7.9147 16.9019 7.915H15.4648C15.0676 7.915 14.6867 8.07279 14.4058 8.35365C14.125 8.63451 13.9672 9.01544 13.9672 9.41263V10.0711C13.9672 10.1889 13.9204 10.3018 13.8372 10.385C13.7539 10.4683 13.641 10.5151 13.5233 10.5151H13.4321V9.07121C13.4317 8.67894 13.5152 8.29111 13.6768 7.93371C13.8385 7.57631 14.0747 7.25759 14.3696 6.9989C14.6645 6.74021 15.0112 6.54753 15.3866 6.43376C15.762 6.31999 16.1574 6.28776 16.5463 6.33923C17.2189 6.44186 17.8317 6.78443 18.2714 7.30366C18.7111 7.8229 18.9481 8.48372 18.9385 9.16407Z" fill="#454A61"/>
</svg>
