<svg width="105" height="28" viewBox="0 0 105 28" fill="none" xmlns="http://www.w3.org/2000/svg">
<path d="M1.8657 22.7021V6.96735H9.55327C11.5314 6.96735 13.0149 7.34199 14.004 8.09126C15.008 8.84054 15.51 9.82959 15.51 11.0584C15.51 11.8826 15.3077 12.6019 14.9031 13.2163C14.4985 13.8157 13.944 14.2803 13.2397 14.61C12.5354 14.9396 11.7262 15.1045 10.8121 15.1045L11.2391 14.1829C12.2282 14.1829 13.1048 14.3477 13.8691 14.6774C14.6334 14.9921 15.2253 15.4641 15.6449 16.0935C16.0795 16.7229 16.2968 17.4947 16.2968 18.4088C16.2968 19.7575 15.7648 20.814 14.7008 21.5782C13.6368 22.3275 12.0708 22.7021 10.0028 22.7021H1.8657ZM5.4847 19.9598H9.7331C10.6772 19.9598 11.389 19.8099 11.8685 19.5102C12.3631 19.1955 12.6103 18.701 12.6103 18.0267C12.6103 17.3673 12.3631 16.8803 11.8685 16.5656C11.389 16.2359 10.6772 16.0711 9.7331 16.0711H5.21496V13.4186H9.1037C9.98785 13.4186 10.6622 13.2688 11.1267 12.9691C11.6063 12.6544 11.8461 12.1823 11.8461 11.5529C11.8461 10.9385 11.6063 10.4815 11.1267 10.1817C10.6622 9.86705 9.98785 9.7097 9.1037 9.7097H5.4847V19.9598ZM22.6356 22.7021V16.2734L23.4673 18.4762L16.544 6.96735H20.4103L25.7152 15.8013H23.4898L28.8172 6.96735H32.3912L25.4679 18.4762L26.2771 16.2734V22.7021H22.6356ZM40.832 22.9719C39.5882 22.9719 38.4418 22.7771 37.3928 22.3875C36.3588 21.9828 35.4522 21.4134 34.6729 20.6791C33.9087 19.9448 33.3092 19.0831 32.8747 18.0941C32.4551 17.1051 32.2453 16.0186 32.2453 14.8347C32.2453 13.6509 32.4551 12.5644 32.8747 11.5754C33.3092 10.5864 33.9162 9.72469 34.6954 8.9904C35.4747 8.25611 36.3888 7.69415 37.4378 7.30452C38.4867 6.89992 39.6406 6.69761 40.8994 6.69761C42.2931 6.69761 43.5444 6.92989 44.6533 7.39444C45.7772 7.85899 46.7213 8.53334 47.4855 9.41748L45.1478 11.5754C44.5784 10.976 43.9565 10.5339 43.2821 10.2492C42.6078 9.94947 41.8735 9.79962 41.0792 9.79962C40.315 9.79962 39.6181 9.9195 38.9888 10.1593C38.3594 10.399 37.8124 10.7437 37.3478 11.1933C36.8983 11.6428 36.5461 12.1748 36.2914 12.7892C36.0516 13.4036 35.9317 14.0855 35.9317 14.8347C35.9317 15.569 36.0516 16.2434 36.2914 16.8578C36.5461 17.4722 36.8983 18.0117 37.3478 18.4762C37.8124 18.9258 38.3519 19.2705 38.9663 19.5102C39.5957 19.75 40.285 19.8699 41.0343 19.8699C41.7536 19.8699 42.4504 19.7575 43.1248 19.5327C43.8141 19.2929 44.4809 18.8958 45.1253 18.3414L47.1933 20.9713C46.3392 21.6157 45.3426 22.1102 44.2037 22.4549C43.0798 22.7996 41.9559 22.9719 40.832 22.9719ZM43.8665 20.4993V14.5875H47.1933V20.9713L43.8665 20.4993ZM58.1736 22.9719C56.9298 22.9719 55.7834 22.7771 54.7344 22.3875C53.7004 21.9828 52.7938 21.4134 52.0146 20.6791C51.2503 19.9448 50.6509 19.0831 50.2163 18.0941C49.7967 17.1051 49.5869 16.0186 49.5869 14.8347C49.5869 13.6509 49.7967 12.5644 50.2163 11.5754C50.6509 10.5864 51.2578 9.72469 52.037 8.9904C52.8163 8.25611 53.7304 7.69415 54.7794 7.30452C55.8284 6.89992 56.9823 6.69761 58.2411 6.69761C59.6347 6.69761 60.886 6.92989 61.9949 7.39444C63.1188 7.85899 64.0629 8.53334 64.8272 9.41748L62.4894 11.5754C61.92 10.976 61.2981 10.5339 60.6237 10.2492C59.9494 9.94947 59.2151 9.79962 58.4209 9.79962C57.6566 9.79962 56.9598 9.9195 56.3304 10.1593C55.701 10.399 55.154 10.7437 54.6895 11.1933C54.2399 11.6428 53.8878 12.1748 53.633 12.7892C53.3932 13.4036 53.2733 14.0855 53.2733 14.8347C53.2733 15.569 53.3932 16.2434 53.633 16.8578C53.8878 17.4722 54.2399 18.0117 54.6895 18.4762C55.154 18.9258 55.6935 19.2705 56.3079 19.5102C56.9373 19.75 57.6266 19.8699 58.3759 19.8699C59.0952 19.8699 59.7921 19.7575 60.4664 19.5327C61.1557 19.2929 61.8226 18.8958 62.467 18.3414L64.535 20.9713C63.6808 21.6157 62.6843 22.1102 61.5454 22.4549C60.4214 22.7996 59.2975 22.9719 58.1736 22.9719ZM61.2082 20.4993V14.5875H64.535V20.9713L61.2082 20.4993ZM67.9176 22.7021V6.96735H71.5591V22.7021H67.9176ZM78.5526 22.7021V9.93448H73.5175V6.96735H87.2293V9.93448H82.1941V22.7021H78.5526Z" fill="#0E100E"/>
<path d="M96.3915 22.3835C94.8083 22.3835 93.4491 22.0887 92.3137 21.4991C91.8464 21.2499 91.4238 20.9495 91.0459 20.5977L91.8138 18.926L93.461 18.6853C93.6369 18.8599 93.8302 19.0091 94.0407 19.1328C94.6804 19.4993 95.464 19.6826 96.3915 19.6826C97.3509 19.6826 98.1425 19.4993 98.7662 19.1328C99.4058 18.7504 99.8856 18.1528 100.205 17.3402C100.525 16.5275 100.685 15.4519 100.685 14.1134C100.685 12.7749 100.525 11.7073 100.205 10.9105C100.113 10.6761 100.008 10.4603 99.8887 10.263L101.564 10.0037L102.362 8.32694C102.644 8.68005 102.892 9.07117 103.108 9.5003C103.731 10.7113 104.043 12.257 104.043 14.1373C104.043 16.8462 103.38 18.9018 102.052 20.304C100.741 21.6904 98.8541 22.3835 96.3915 22.3835Z" fill="#4CAF45"/>
<path d="M101.908 7.81831C101.493 7.40505 101.022 7.05743 100.493 6.77547C99.3578 6.16995 97.9906 5.86719 96.3915 5.86719C93.9608 5.86719 92.0818 6.56831 90.7545 7.97057C89.4432 9.35689 88.7876 11.4125 88.7876 14.1373C88.7876 16.0017 89.0914 17.5473 89.6991 18.7743C89.9478 19.27 90.2407 19.7149 90.5779 20.1092L91.3838 18.3547L93.0058 18.1177C92.8613 17.8925 92.7346 17.6412 92.6255 17.3641C92.3057 16.5514 92.1458 15.4758 92.1458 14.1373C92.1458 12.7988 92.3057 11.7312 92.6255 10.9344C92.9453 10.1218 93.4171 9.53217 94.0407 9.16567C94.6804 8.78324 95.464 8.59202 96.3915 8.59202C97.3509 8.59202 98.1425 8.77527 98.7662 9.14177C99.0242 9.2896 99.2562 9.47372 99.4621 9.69413L101.138 9.43468L101.908 7.81831Z" fill="#4CAF45"/>
<path d="M101.908 7.81831C101.493 7.40505 101.022 7.05743 100.493 6.77547C99.3578 6.16995 97.9906 5.86719 96.3915 5.86719C93.9608 5.86719 92.0818 6.56831 90.7545 7.97057C89.4432 9.35689 88.7876 11.4125 88.7876 14.1373C88.7876 16.0017 89.0914 17.5473 89.6991 18.7743C89.9478 19.27 90.2407 19.7149 90.5779 20.1092L91.3838 18.3547L93.0058 18.1177C92.8613 17.8925 92.7346 17.6412 92.6255 17.3641C92.3057 16.5514 92.1458 15.4758 92.1458 14.1373C92.1458 12.7988 92.3057 11.7312 92.6255 10.9344C92.9453 10.1218 93.4171 9.53217 94.0407 9.16567C94.6804 8.78324 95.464 8.59202 96.3915 8.59202C97.3509 8.59202 98.1425 8.77527 98.7662 9.14177C99.0242 9.2896 99.2562 9.47371 99.4621 9.69413L101.138 9.43468L101.908 7.81831Z" fill="#0E100E"/>
</svg>
