<svg width="48" height="48" viewBox="0 0 48 48" fill="none" xmlns="http://www.w3.org/2000/svg">
<path d="M33.92 12.3398C37.92 15.1198 40.68 19.5398 41.24 24.6398" stroke="white" stroke-width="1.5" stroke-linecap="round" stroke-linejoin="round"/>
<path d="M6.97998 24.7395C7.49998 19.6595 10.22 15.2395 14.18 12.4395" stroke="white" stroke-width="1.5" stroke-linecap="round" stroke-linejoin="round"/>
<path d="M16.38 41.8809C18.7 43.0609 21.34 43.7209 24.12 43.7209C26.8 43.7209 29.32 43.1209 31.58 42.0209" stroke="white" stroke-width="1.5" stroke-linecap="round" stroke-linejoin="round"/>
<path d="M24.12 15.3993C27.1907 15.3993 29.68 12.91 29.68 9.8393C29.68 6.76859 27.1907 4.2793 24.12 4.2793C21.0493 4.2793 18.56 6.76859 18.56 9.8393C18.56 12.91 21.0493 15.3993 24.12 15.3993Z" stroke="white" stroke-width="1.5" stroke-linecap="round" stroke-linejoin="round"/>
<path d="M9.65998 39.8407C12.7307 39.8407 15.22 37.3514 15.22 34.2807C15.22 31.21 12.7307 28.7207 9.65998 28.7207C6.58927 28.7207 4.09998 31.21 4.09998 34.2807C4.09998 37.3514 6.58927 39.8407 9.65998 39.8407Z" stroke="white" stroke-width="1.5" stroke-linecap="round" stroke-linejoin="round"/>
<path d="M38.34 39.8407C41.4107 39.8407 43.9 37.3514 43.9 34.2807C43.9 31.21 41.4107 28.7207 38.34 28.7207C35.2693 28.7207 32.78 31.21 32.78 34.2807C32.78 37.3514 35.2693 39.8407 38.34 39.8407Z" stroke="white" stroke-width="1.5" stroke-linecap="round" stroke-linejoin="round"/>
</svg>
