<svg width="184" height="106" viewBox="0 0 184 106" fill="none" xmlns="http://www.w3.org/2000/svg">
<path d="M102.92 12.3398C106.92 15.1198 109.68 19.5398 110.24 24.6398" stroke="#7DE2B7" stroke-width="1.5" stroke-linecap="round" stroke-linejoin="round"/>
<path d="M75.98 24.7395C76.5 19.6595 79.22 15.2395 83.18 12.4395" stroke="#7DE2B7" stroke-width="1.5" stroke-linecap="round" stroke-linejoin="round"/>
<path d="M85.38 41.8809C87.7 43.0609 90.34 43.7209 93.12 43.7209C95.8 43.7209 98.32 43.1209 100.58 42.0209" stroke="#7DE2B7" stroke-width="1.5" stroke-linecap="round" stroke-linejoin="round"/>
<path d="M93.12 15.3993C96.1907 15.3993 98.68 12.91 98.68 9.8393C98.68 6.76859 96.1907 4.2793 93.12 4.2793C90.0493 4.2793 87.56 6.76859 87.56 9.8393C87.56 12.91 90.0493 15.3993 93.12 15.3993Z" stroke="#0360B2" stroke-width="1.5" stroke-linecap="round" stroke-linejoin="round"/>
<path d="M78.66 39.8407C81.7307 39.8407 84.22 37.3514 84.22 34.2807C84.22 31.21 81.7307 28.7207 78.66 28.7207C75.5893 28.7207 73.1 31.21 73.1 34.2807C73.1 37.3514 75.5893 39.8407 78.66 39.8407Z" stroke="#0360B2" stroke-width="1.5" stroke-linecap="round" stroke-linejoin="round"/>
<path d="M107.34 39.8407C110.411 39.8407 112.9 37.3514 112.9 34.2807C112.9 31.21 110.411 28.7207 107.34 28.7207C104.269 28.7207 101.78 31.21 101.78 34.2807C101.78 37.3514 104.269 39.8407 107.34 39.8407Z" stroke="#0360B2" stroke-width="1.5" stroke-linecap="round" stroke-linejoin="round"/>
<path d="M8.37102 98.26C6.23768 98.26 4.48435 97.56 3.11102 96.16C1.73768 94.7733 1.05102 93.0533 1.05102 91C1.05102 88.9467 1.73768 87.2267 3.11102 85.84C4.48435 84.44 6.23768 83.74 8.37102 83.74C9.63768 83.74 10.811 84.0467 11.891 84.66C12.971 85.2733 13.811 86.1 14.411 87.14L12.791 88.08C12.391 87.3067 11.791 86.6933 10.991 86.24C10.2043 85.7733 9.33102 85.54 8.37102 85.54C6.74435 85.54 5.42435 86.06 4.41102 87.1C3.39768 88.1267 2.89102 89.4267 2.89102 91C2.89102 92.56 3.39768 93.8533 4.41102 94.88C5.42435 95.92 6.74435 96.44 8.37102 96.44C9.33102 96.44 10.2043 96.2133 10.991 95.76C11.791 95.2933 12.391 94.68 12.791 93.92L14.411 94.84C13.8243 95.88 12.991 96.7133 11.911 97.34C10.8443 97.9533 9.66435 98.26 8.37102 98.26ZM24.7385 96.74C23.7252 97.7533 22.4785 98.26 20.9985 98.26C19.5185 98.26 18.2718 97.7533 17.2585 96.74C16.2452 95.7267 15.7385 94.48 15.7385 93C15.7385 91.52 16.2452 90.2733 17.2585 89.26C18.2718 88.2467 19.5185 87.74 20.9985 87.74C22.4785 87.74 23.7252 88.2467 24.7385 89.26C25.7652 90.2867 26.2785 91.5333 26.2785 93C26.2785 94.4667 25.7652 95.7133 24.7385 96.74ZM20.9985 96.56C21.9985 96.56 22.8385 96.22 23.5185 95.54C24.1985 94.86 24.5385 94.0133 24.5385 93C24.5385 91.9867 24.1985 91.14 23.5185 90.46C22.8385 89.78 21.9985 89.44 20.9985 89.44C20.0118 89.44 19.1785 89.78 18.4985 90.46C17.8185 91.14 17.4785 91.9867 17.4785 93C17.4785 94.0133 17.8185 94.86 18.4985 95.54C19.1785 96.22 20.0118 96.56 20.9985 96.56ZM39.1298 87.74C40.2631 87.74 41.1698 88.1067 41.8498 88.84C42.5431 89.5733 42.8898 90.5533 42.8898 91.78V98H41.1498V91.84C41.1498 91.08 40.9498 90.4867 40.5498 90.06C40.1631 89.62 39.6298 89.4 38.9498 89.4C38.1764 89.4 37.5698 89.66 37.1298 90.18C36.7031 90.6867 36.4898 91.44 36.4898 92.44V98H34.7498V91.84C34.7498 91.08 34.5564 90.4867 34.1698 90.06C33.7964 89.62 33.2831 89.4 32.6298 89.4C31.8698 89.4 31.2498 89.6667 30.7698 90.2C30.3031 90.72 30.0698 91.4667 30.0698 92.44V98H28.3298V88H30.0698V89.34C30.7498 88.2733 31.7431 87.74 33.0498 87.74C34.3964 87.74 35.3764 88.3067 35.9898 89.44C36.6831 88.3067 37.7298 87.74 39.1298 87.74ZM50.8224 87.74C52.2224 87.74 53.4158 88.2533 54.4024 89.28C55.3891 90.3067 55.8824 91.5467 55.8824 93C55.8824 94.4667 55.3891 95.7133 54.4024 96.74C53.4291 97.7533 52.2358 98.26 50.8224 98.26C49.1691 98.26 47.9091 97.6 47.0424 96.28V102H45.3024V88H47.0424V89.72C47.9091 88.4 49.1691 87.74 50.8224 87.74ZM50.6024 96.58C51.6024 96.58 52.4424 96.24 53.1224 95.56C53.8024 94.8533 54.1424 94 54.1424 93C54.1424 91.9867 53.8024 91.14 53.1224 90.46C52.4424 89.7667 51.6024 89.42 50.6024 89.42C49.5891 89.42 48.7424 89.7667 48.0624 90.46C47.3824 91.14 47.0424 91.9867 47.0424 93C47.0424 94 47.3824 94.8533 48.0624 95.56C48.7424 96.24 49.5891 96.58 50.6024 96.58ZM59.6987 98H57.9587V83.4H59.6987V98ZM71.9532 93.8H63.5732C63.7465 94.68 64.1532 95.3733 64.7932 95.88C65.4332 96.3733 66.2332 96.62 67.1932 96.62C68.5132 96.62 69.4732 96.1333 70.0732 95.16L71.5532 96C70.5665 97.5067 69.0999 98.26 67.1532 98.26C65.5799 98.26 64.2865 97.7667 63.2732 96.78C62.2865 95.7667 61.7932 94.5067 61.7932 93C61.7932 91.48 62.2799 90.2267 63.2532 89.24C64.2265 88.24 65.4865 87.74 67.0332 87.74C68.4999 87.74 69.6932 88.26 70.6132 89.3C71.5465 90.3133 72.0132 91.5533 72.0132 93.02C72.0132 93.2733 71.9932 93.5333 71.9532 93.8ZM67.0332 89.38C66.1132 89.38 65.3399 89.64 64.7132 90.16C64.0999 90.68 63.7199 91.3867 63.5732 92.28H70.2532C70.1065 91.36 69.7399 90.6467 69.1532 90.14C68.5665 89.6333 67.8599 89.38 67.0332 89.38ZM78.4046 92.84L82.2246 98H80.1846L77.3846 94.22L74.5646 98H72.5246L76.3646 92.86L72.7446 88H74.8046L77.3846 91.48L79.9646 88H82.0046L78.4046 92.84ZM97.2776 96.74C96.2642 97.7533 95.0176 98.26 93.5376 98.26C92.0576 98.26 90.8109 97.7533 89.7976 96.74C88.7842 95.7267 88.2776 94.48 88.2776 93C88.2776 91.52 88.7842 90.2733 89.7976 89.26C90.8109 88.2467 92.0576 87.74 93.5376 87.74C95.0176 87.74 96.2642 88.2467 97.2776 89.26C98.3042 90.2867 98.8176 91.5333 98.8176 93C98.8176 94.4667 98.3042 95.7133 97.2776 96.74ZM93.5376 96.56C94.5376 96.56 95.3776 96.22 96.0576 95.54C96.7376 94.86 97.0776 94.0133 97.0776 93C97.0776 91.9867 96.7376 91.14 96.0576 90.46C95.3776 89.78 94.5376 89.44 93.5376 89.44C92.5509 89.44 91.7176 89.78 91.0376 90.46C90.3576 91.14 90.0176 91.9867 90.0176 93C90.0176 94.0133 90.3576 94.86 91.0376 95.54C91.7176 96.22 92.5509 96.56 93.5376 96.56ZM105.638 83.74V85.42C103.878 85.2733 102.998 86.0333 102.998 87.7V88H105.638V89.68H102.998V98H101.258V89.68H99.6577V88H101.258V87.7C101.258 86.34 101.638 85.32 102.398 84.64C103.158 83.9467 104.238 83.6467 105.638 83.74ZM113.463 90.7C113.463 91.34 114.123 91.84 115.443 92.2C115.936 92.3067 116.349 92.42 116.683 92.54C117.029 92.6467 117.403 92.8133 117.803 93.04C118.216 93.2667 118.529 93.5667 118.743 93.94C118.956 94.3133 119.063 94.7533 119.063 95.26C119.063 96.1667 118.709 96.8933 118.003 97.44C117.296 97.9867 116.403 98.26 115.323 98.26C114.363 98.26 113.529 98.0533 112.823 97.64C112.129 97.2133 111.636 96.64 111.343 95.92L112.843 95.06C113.003 95.54 113.303 95.92 113.743 96.2C114.183 96.48 114.709 96.62 115.323 96.62C115.923 96.62 116.403 96.5067 116.763 96.28C117.123 96.0533 117.303 95.7133 117.303 95.26C117.303 94.58 116.643 94.0867 115.323 93.78C114.883 93.66 114.549 93.5667 114.323 93.5C114.096 93.4333 113.783 93.3133 113.383 93.14C112.996 92.9667 112.703 92.7867 112.503 92.6C112.303 92.4 112.116 92.14 111.943 91.82C111.783 91.4867 111.703 91.12 111.703 90.72C111.703 89.8533 112.036 89.14 112.703 88.58C113.383 88.02 114.229 87.74 115.243 87.74C116.056 87.74 116.776 87.9267 117.403 88.3C118.043 88.66 118.523 89.1667 118.843 89.82L117.383 90.64C117.023 89.7867 116.309 89.36 115.243 89.36C114.736 89.36 114.309 89.48 113.963 89.72C113.629 89.96 113.463 90.2867 113.463 90.7ZM130.449 93.8H122.069C122.243 94.68 122.649 95.3733 123.289 95.88C123.929 96.3733 124.729 96.62 125.689 96.62C127.009 96.62 127.969 96.1333 128.569 95.16L130.049 96C129.063 97.5067 127.596 98.26 125.649 98.26C124.076 98.26 122.783 97.7667 121.769 96.78C120.783 95.7667 120.289 94.5067 120.289 93C120.289 91.48 120.776 90.2267 121.749 89.24C122.723 88.24 123.983 87.74 125.529 87.74C126.996 87.74 128.189 88.26 129.109 89.3C130.043 90.3133 130.509 91.5533 130.509 93.02C130.509 93.2733 130.489 93.5333 130.449 93.8ZM125.529 89.38C124.609 89.38 123.836 89.64 123.209 90.16C122.596 90.68 122.216 91.3867 122.069 92.28H128.749C128.603 91.36 128.236 90.6467 127.649 90.14C127.063 89.6333 126.356 89.38 125.529 89.38ZM134.249 88V89.68C134.823 88.44 135.863 87.82 137.369 87.82V89.64C136.516 89.6 135.783 89.8267 135.169 90.32C134.556 90.8133 134.249 91.6067 134.249 92.7V98H132.509V88H134.249ZM142.932 96.14L146.072 88H147.952L143.952 98H141.912L137.912 88H139.792L142.932 96.14ZM150.304 86.18C149.97 86.18 149.69 86.0667 149.464 85.84C149.237 85.6133 149.124 85.34 149.124 85.02C149.124 84.7 149.237 84.4267 149.464 84.2C149.69 83.96 149.97 83.84 150.304 83.84C150.624 83.84 150.897 83.96 151.124 84.2C151.35 84.4267 151.464 84.7 151.464 85.02C151.464 85.34 151.35 85.6133 151.124 85.84C150.897 86.0667 150.624 86.18 150.304 86.18ZM151.164 98H149.424V88H151.164V98ZM158.518 98.26C157.011 98.26 155.758 97.76 154.758 96.76C153.758 95.7467 153.258 94.4933 153.258 93C153.258 91.5067 153.758 90.26 154.758 89.26C155.758 88.2467 157.011 87.74 158.518 87.74C159.505 87.74 160.391 87.98 161.178 88.46C161.965 88.9267 162.551 89.56 162.938 90.36L161.478 91.2C161.225 90.6667 160.831 90.24 160.298 89.92C159.778 89.6 159.185 89.44 158.518 89.44C157.518 89.44 156.678 89.78 155.998 90.46C155.331 91.1533 154.998 92 154.998 93C154.998 93.9867 155.331 94.8267 155.998 95.52C156.678 96.2 157.518 96.54 158.518 96.54C159.185 96.54 159.785 96.3867 160.318 96.08C160.851 95.76 161.258 95.3333 161.538 94.8L163.018 95.66C162.578 96.46 161.958 97.0933 161.158 97.56C160.358 98.0267 159.478 98.26 158.518 98.26ZM174.199 93.8H165.819C165.993 94.68 166.399 95.3733 167.039 95.88C167.679 96.3733 168.479 96.62 169.439 96.62C170.759 96.62 171.719 96.1333 172.319 95.16L173.799 96C172.813 97.5067 171.346 98.26 169.399 98.26C167.826 98.26 166.533 97.7667 165.519 96.78C164.533 95.7667 164.039 94.5067 164.039 93C164.039 91.48 164.526 90.2267 165.499 89.24C166.473 88.24 167.733 87.74 169.279 87.74C170.746 87.74 171.939 88.26 172.859 89.3C173.793 90.3133 174.259 91.5533 174.259 93.02C174.259 93.2733 174.239 93.5333 174.199 93.8ZM169.279 89.38C168.359 89.38 167.586 89.64 166.959 90.16C166.346 90.68 165.966 91.3867 165.819 92.28H172.499C172.353 91.36 171.986 90.6467 171.399 90.14C170.813 89.6333 170.106 89.38 169.279 89.38ZM177.369 90.7C177.369 91.34 178.029 91.84 179.349 92.2C179.842 92.3067 180.255 92.42 180.589 92.54C180.935 92.6467 181.309 92.8133 181.709 93.04C182.122 93.2667 182.435 93.5667 182.649 93.94C182.862 94.3133 182.969 94.7533 182.969 95.26C182.969 96.1667 182.615 96.8933 181.909 97.44C181.202 97.9867 180.309 98.26 179.229 98.26C178.269 98.26 177.435 98.0533 176.729 97.64C176.035 97.2133 175.542 96.64 175.249 95.92L176.749 95.06C176.909 95.54 177.209 95.92 177.649 96.2C178.089 96.48 178.615 96.62 179.229 96.62C179.829 96.62 180.309 96.5067 180.669 96.28C181.029 96.0533 181.209 95.7133 181.209 95.26C181.209 94.58 180.549 94.0867 179.229 93.78C178.789 93.66 178.455 93.5667 178.229 93.5C178.002 93.4333 177.689 93.3133 177.289 93.14C176.902 92.9667 176.609 92.7867 176.409 92.6C176.209 92.4 176.022 92.14 175.849 91.82C175.689 91.4867 175.609 91.12 175.609 90.72C175.609 89.8533 175.942 89.14 176.609 88.58C177.289 88.02 178.135 87.74 179.149 87.74C179.962 87.74 180.682 87.9267 181.309 88.3C181.949 88.66 182.429 89.1667 182.749 89.82L181.289 90.64C180.929 89.7867 180.215 89.36 179.149 89.36C178.642 89.36 178.215 89.48 177.869 89.72C177.535 89.96 177.369 90.2867 177.369 90.7Z" fill="#111714"/>
</svg>
