<svg width="48" height="48" viewBox="0 0 48 48" fill="none" xmlns="http://www.w3.org/2000/svg">
<path d="M33.9199 12.3398C37.9199 15.1198 40.6799 19.5398 41.2399 24.6398" stroke="#7DE2B7" stroke-width="1.5" stroke-linecap="round" stroke-linejoin="round"/>
<path d="M6.97998 24.7395C7.49998 19.6595 10.22 15.2395 14.18 12.4395" stroke="#7DE2B7" stroke-width="1.5" stroke-linecap="round" stroke-linejoin="round"/>
<path d="M16.3799 41.8809C18.6999 43.0609 21.3399 43.7209 24.1199 43.7209C26.7999 43.7209 29.3199 43.1209 31.5799 42.0209" stroke="#7DE2B7" stroke-width="1.5" stroke-linecap="round" stroke-linejoin="round"/>
<path d="M24.1201 15.3993C27.1908 15.3993 29.6801 12.91 29.6801 9.8393C29.6801 6.76859 27.1908 4.2793 24.1201 4.2793C21.0494 4.2793 18.5601 6.76859 18.5601 9.8393C18.5601 12.91 21.0494 15.3993 24.1201 15.3993Z" stroke="#0360B2" stroke-width="1.5" stroke-linecap="round" stroke-linejoin="round"/>
<path d="M9.6601 39.8407C12.7308 39.8407 15.2201 37.3514 15.2201 34.2807C15.2201 31.21 12.7308 28.7207 9.6601 28.7207C6.58939 28.7207 4.1001 31.21 4.1001 34.2807C4.1001 37.3514 6.58939 39.8407 9.6601 39.8407Z" stroke="#0360B2" stroke-width="1.5" stroke-linecap="round" stroke-linejoin="round"/>
<path d="M38.34 39.8407C41.4107 39.8407 43.9 37.3514 43.9 34.2807C43.9 31.21 41.4107 28.7207 38.34 28.7207C35.2693 28.7207 32.78 31.21 32.78 34.2807C32.78 37.3514 35.2693 39.8407 38.34 39.8407Z" stroke="#0360B2" stroke-width="1.5" stroke-linecap="round" stroke-linejoin="round"/>
</svg>
