<svg width="152" height="110" viewBox="0 0 152 110" fill="none" xmlns="http://www.w3.org/2000/svg">
<path d="M48 0L53.1 57.6L76 64L98.892 57.604L104 0H48Z" fill="#2196F3"/>
<path d="M93.0955 18.8354L92.4515 26.0714L90.5075 47.7634L75.9995 51.7754L75.9875 51.7794L61.4875 47.7634L60.4755 36.4194H67.5795L68.1075 42.3034L75.9915 44.4314L75.9955 44.4274L83.8915 42.2994L84.9675 32.4954L60.1355 32.5634L59.4315 25.8594L85.5635 25.5514L86.0915 18.3754L58.7315 18.4514L58.2715 11.7754H75.9995H93.7275L93.0955 18.8354Z" fill="#FAFAFA"/>
<path d="M65.8668 105.144C64.6068 105.144 63.4668 104.868 62.4468 104.316C61.4388 103.752 60.6468 102.984 60.0708 102.012C59.4948 101.028 59.2068 99.924 59.2068 98.7C59.2068 97.476 59.4948 96.378 60.0708 95.406C60.6468 94.422 61.4448 93.654 62.4648 93.102C63.4848 92.538 64.6248 92.256 65.8848 92.256C66.8688 92.256 67.7688 92.424 68.5848 92.76C69.4008 93.084 70.0968 93.57 70.6728 94.218L69.5028 95.352C68.5548 94.356 67.3728 93.858 65.9568 93.858C65.0208 93.858 64.1748 94.068 63.4188 94.488C62.6628 94.908 62.0688 95.49 61.6368 96.234C61.2168 96.966 61.0068 97.788 61.0068 98.7C61.0068 99.612 61.2168 100.44 61.6368 101.184C62.0688 101.916 62.6628 102.492 63.4188 102.912C64.1748 103.332 65.0208 103.542 65.9568 103.542C67.3608 103.542 68.5428 103.038 69.5028 102.03L70.6728 103.164C70.0968 103.812 69.3948 104.304 68.5668 104.64C67.7508 104.976 66.8508 105.144 65.8668 105.144ZM76.8599 105.144C75.9119 105.144 74.9939 105 74.1059 104.712C73.2299 104.412 72.5399 104.028 72.0359 103.56L72.7019 102.156C73.1819 102.588 73.7939 102.942 74.5379 103.218C75.2939 103.482 76.0679 103.614 76.8599 103.614C77.9039 103.614 78.6839 103.44 79.1999 103.092C79.7159 102.732 79.9739 102.258 79.9739 101.67C79.9739 101.238 79.8299 100.89 79.5419 100.626C79.2659 100.35 78.9179 100.14 78.4979 99.996C78.0899 99.852 77.5079 99.69 76.7519 99.51C75.8039 99.282 75.0359 99.054 74.4479 98.826C73.8719 98.598 73.3739 98.25 72.9539 97.782C72.5459 97.302 72.3419 96.66 72.3419 95.856C72.3419 95.184 72.5159 94.578 72.8639 94.038C73.2239 93.498 73.7639 93.066 74.4839 92.742C75.2039 92.418 76.0979 92.256 77.1659 92.256C77.9099 92.256 78.6419 92.352 79.3619 92.544C80.0819 92.736 80.6999 93.012 81.2159 93.372L80.6219 94.812C80.0939 94.476 79.5299 94.224 78.9299 94.056C78.3299 93.876 77.7419 93.786 77.1659 93.786C76.1459 93.786 75.3779 93.972 74.8619 94.344C74.3579 94.716 74.1059 95.196 74.1059 95.784C74.1059 96.216 74.2499 96.57 74.5379 96.846C74.8259 97.11 75.1799 97.32 75.5999 97.476C76.0319 97.62 76.6139 97.776 77.3459 97.944C78.2939 98.172 79.0559 98.4 79.6319 98.628C80.2079 98.856 80.6999 99.204 81.1079 99.672C81.5279 100.14 81.7379 100.77 81.7379 101.562C81.7379 102.222 81.5579 102.828 81.1979 103.38C80.8379 103.92 80.2919 104.352 79.5599 104.676C78.8279 104.988 77.9279 105.144 76.8599 105.144ZM88.0395 105.144C87.0915 105.144 86.1735 105 85.2855 104.712C84.4095 104.412 83.7195 104.028 83.2155 103.56L83.8815 102.156C84.3615 102.588 84.9735 102.942 85.7175 103.218C86.4735 103.482 87.2475 103.614 88.0395 103.614C89.0835 103.614 89.8635 103.44 90.3795 103.092C90.8955 102.732 91.1535 102.258 91.1535 101.67C91.1535 101.238 91.0095 100.89 90.7215 100.626C90.4455 100.35 90.0975 100.14 89.6775 99.996C89.2695 99.852 88.6875 99.69 87.9315 99.51C86.9835 99.282 86.2155 99.054 85.6275 98.826C85.0515 98.598 84.5535 98.25 84.1335 97.782C83.7255 97.302 83.5215 96.66 83.5215 95.856C83.5215 95.184 83.6955 94.578 84.0435 94.038C84.4035 93.498 84.9435 93.066 85.6635 92.742C86.3835 92.418 87.2775 92.256 88.3455 92.256C89.0895 92.256 89.8215 92.352 90.5415 92.544C91.2615 92.736 91.8795 93.012 92.3955 93.372L91.8015 94.812C91.2735 94.476 90.7095 94.224 90.1095 94.056C89.5095 93.876 88.9215 93.786 88.3455 93.786C87.3255 93.786 86.5575 93.972 86.0415 94.344C85.5375 94.716 85.2855 95.196 85.2855 95.784C85.2855 96.216 85.4295 96.57 85.7175 96.846C86.0055 97.11 86.3595 97.32 86.7795 97.476C87.2115 97.62 87.7935 97.776 88.5255 97.944C89.4735 98.172 90.2355 98.4 90.8115 98.628C91.3875 98.856 91.8795 99.204 92.2875 99.672C92.7075 100.14 92.9175 100.77 92.9175 101.562C92.9175 102.222 92.7375 102.828 92.3775 103.38C92.0175 103.92 91.4715 104.352 90.7395 104.676C90.0075 104.988 89.1075 105.144 88.0395 105.144Z" fill="white"/>
</svg>
