<svg width="64" height="106" viewBox="0 0 64 106" fill="none" xmlns="http://www.w3.org/2000/svg">
<g clip-path="url(#clip0_813_1998)">
<path d="M36.4795 28.9405C36.4795 23.7205 32.2395 19.4805 27.0195 19.4805" stroke="white" stroke-width="1.5" stroke-linecap="round" stroke-linejoin="round"/>
<path d="M51.6191 7.87976C48.5391 15.5598 40.8191 25.9998 34.3591 31.1798L30.4191 34.3398C29.9191 34.6998 29.4191 35.0198 28.8591 35.2398C28.8591 34.8798 28.8391 34.4798 28.7791 34.0998C28.5591 32.4198 27.7991 30.8598 26.4591 29.5198C25.0991 28.1598 23.4391 27.3598 21.7391 27.1398C21.3391 27.1198 20.9391 27.0798 20.5391 27.1198C20.7591 26.4998 21.0991 25.9198 21.5191 25.4398L24.6391 21.4998C29.7991 15.0398 40.2791 7.27975 47.9391 4.21975C49.1191 3.77975 50.2591 4.09975 50.9791 4.83975C51.7391 5.57975 52.0991 6.71976 51.6191 7.87976Z" stroke="white" stroke-width="1.5" stroke-linecap="round" stroke-linejoin="round"/>
<path d="M30.4996 7.69922L23.0996 15.0992" stroke="white" stroke-width="1.5" stroke-linecap="round"/>
<path d="M48.2403 25.4609L42.3203 31.3609" stroke="white" stroke-width="1.5" stroke-linecap="round"/>
<path d="M28.8605 35.2416C28.8605 37.4416 28.0205 39.5416 26.4405 41.1416C25.2205 42.3616 23.5605 43.2016 21.5805 43.4616L16.6605 44.0016C13.9805 44.3016 11.6805 42.0216 12.0005 39.3016L12.5405 34.3816C13.0205 30.0016 16.6805 27.2016 20.5605 27.1216C20.9605 27.1016 21.3805 27.1216 21.7605 27.1416C23.4605 27.3616 25.1205 28.1416 26.4805 29.5216C27.8205 30.8616 28.5805 32.4216 28.8005 34.1016C28.8205 34.4816 28.8605 34.8616 28.8605 35.2416Z" stroke="white" stroke-width="1.5" stroke-linecap="round" stroke-linejoin="round"/>
<path d="M48.2395 25.4609L49.7195 26.9209C52.6995 29.9009 52.6995 32.8409 49.7195 35.8209L43.7995 41.7409C40.8595 44.6809 37.8795 44.6809 34.9395 41.7409" stroke="white" stroke-width="1.5" stroke-linecap="round"/>
<path d="M14.2206 21.0211C11.2806 18.0411 11.2806 15.1011 14.2206 12.1211L20.1406 6.20109C23.0806 3.26109 26.0606 3.26109 29.0006 6.20109L30.4806 7.68109" stroke="white" stroke-width="1.5" stroke-linecap="round"/>
</g>
<path d="M1.98633 84H7.44633C9.33966 84 10.9197 84.68 12.1863 86.04C13.453 87.3867 14.0863 89.04 14.0863 91C14.0863 92.9467 13.453 94.6067 12.1863 95.98C10.9197 97.3267 9.33966 98 7.44633 98H1.98633V84ZM3.84633 96.24H7.44633C8.873 96.24 10.0397 95.74 10.9463 94.74C11.853 93.7267 12.3063 92.48 12.3063 91C12.3063 89.52 11.853 88.2733 10.9463 87.26C10.0397 86.26 8.873 85.76 7.44633 85.76H3.84633V96.24ZM25.7618 93.8H17.3818C17.5551 94.68 17.9618 95.3733 18.6018 95.88C19.2418 96.3733 20.0418 96.62 21.0018 96.62C22.3218 96.62 23.2818 96.1333 23.8818 95.16L25.3618 96C24.3751 97.5067 22.9085 98.26 20.9618 98.26C19.3885 98.26 18.0951 97.7667 17.0818 96.78C16.0951 95.7667 15.6018 94.5067 15.6018 93C15.6018 91.48 16.0885 90.2267 17.0618 89.24C18.0351 88.24 19.2951 87.74 20.8418 87.74C22.3085 87.74 23.5018 88.26 24.4218 89.3C25.3551 90.3133 25.8218 91.5533 25.8218 93.02C25.8218 93.2733 25.8018 93.5333 25.7618 93.8ZM20.8418 89.38C19.9218 89.38 19.1485 89.64 18.5218 90.16C17.9085 90.68 17.5285 91.3867 17.3818 92.28H24.0618C23.9151 91.36 23.5485 90.6467 22.9618 90.14C22.3751 89.6333 21.6685 89.38 20.8418 89.38ZM28.9313 90.7C28.9313 91.34 29.5913 91.84 30.9113 92.2C31.4047 92.3067 31.818 92.42 32.1513 92.54C32.498 92.6467 32.8713 92.8133 33.2713 93.04C33.6847 93.2667 33.998 93.5667 34.2113 93.94C34.4247 94.3133 34.5313 94.7533 34.5313 95.26C34.5313 96.1667 34.178 96.8933 33.4713 97.44C32.7647 97.9867 31.8713 98.26 30.7913 98.26C29.8313 98.26 28.998 98.0533 28.2913 97.64C27.598 97.2133 27.1047 96.64 26.8113 95.92L28.3113 95.06C28.4713 95.54 28.7713 95.92 29.2113 96.2C29.6513 96.48 30.178 96.62 30.7913 96.62C31.3913 96.62 31.8713 96.5067 32.2313 96.28C32.5913 96.0533 32.7713 95.7133 32.7713 95.26C32.7713 94.58 32.1113 94.0867 30.7913 93.78C30.3513 93.66 30.018 93.5667 29.7913 93.5C29.5647 93.4333 29.2513 93.3133 28.8513 93.14C28.4647 92.9667 28.1713 92.7867 27.9713 92.6C27.7713 92.4 27.5847 92.14 27.4113 91.82C27.2513 91.4867 27.1713 91.12 27.1713 90.72C27.1713 89.8533 27.5047 89.14 28.1713 88.58C28.8513 88.02 29.698 87.74 30.7113 87.74C31.5247 87.74 32.2447 87.9267 32.8713 88.3C33.5113 88.66 33.9913 89.1667 34.3113 89.82L32.8513 90.64C32.4913 89.7867 31.778 89.36 30.7113 89.36C30.2047 89.36 29.778 89.48 29.4313 89.72C29.098 89.96 28.9313 90.2867 28.9313 90.7ZM37.3738 86.18C37.0405 86.18 36.7605 86.0667 36.5338 85.84C36.3072 85.6133 36.1938 85.34 36.1938 85.02C36.1938 84.7 36.3072 84.4267 36.5338 84.2C36.7605 83.96 37.0405 83.84 37.3738 83.84C37.6938 83.84 37.9672 83.96 38.1938 84.2C38.4205 84.4267 38.5338 84.7 38.5338 85.02C38.5338 85.34 38.4205 85.6133 38.1938 85.84C37.9672 86.0667 37.6938 86.18 37.3738 86.18ZM38.2338 98H36.4938V88H38.2338V98ZM49.1884 89.72V88H50.9084V97.58C50.9084 99.06 50.4084 100.207 49.4084 101.02C48.395 101.847 47.195 102.26 45.8084 102.26C44.6884 102.26 43.7217 102.047 42.9084 101.62C42.095 101.207 41.4817 100.607 41.0684 99.82L42.5884 98.96C43.135 100.08 44.2217 100.64 45.8484 100.64C46.8884 100.64 47.7017 100.367 48.2884 99.82C48.8884 99.2733 49.1884 98.5267 49.1884 97.58V96.16C48.3084 97.4933 47.055 98.16 45.4284 98.16C43.9884 98.16 42.7817 97.6533 41.8084 96.64C40.8217 95.6133 40.3284 94.38 40.3284 92.94C40.3284 91.5 40.8217 90.2733 41.8084 89.26C42.7817 88.2467 43.9884 87.74 45.4284 87.74C47.0684 87.74 48.3217 88.4 49.1884 89.72ZM49.1884 92.94C49.1884 91.94 48.8484 91.1 48.1684 90.42C47.4884 89.74 46.6417 89.4 45.6284 89.4C44.615 89.4 43.7684 89.74 43.0884 90.42C42.4084 91.1 42.0684 91.94 42.0684 92.94C42.0684 93.9533 42.4084 94.8 43.0884 95.48C43.7684 96.16 44.615 96.5 45.6284 96.5C46.6417 96.5 47.4884 96.16 48.1684 95.48C48.8484 94.8 49.1884 93.9533 49.1884 92.94ZM58.5246 87.74C59.6979 87.74 60.6379 88.1133 61.3446 88.86C62.0513 89.5933 62.4046 90.5933 62.4046 91.86V98H60.6646V91.96C60.6646 91.16 60.4446 90.5333 60.0046 90.08C59.5646 89.6267 58.9579 89.4 58.1846 89.4C57.2913 89.4 56.5846 89.68 56.0646 90.24C55.5446 90.7867 55.2846 91.6067 55.2846 92.7V98H53.5446V88H55.2846V89.44C55.9779 88.3067 57.0579 87.74 58.5246 87.74Z" fill="white"/>
<defs>
<clipPath id="clip0_813_1998">
<rect width="48" height="48" fill="white" transform="translate(8)"/>
</clipPath>
</defs>
</svg>
