<svg width="132" height="33" viewBox="0 0 132 33" fill="none" xmlns="http://www.w3.org/2000/svg">
<path d="M2.06016 23.7705V8.42892H8.76662C10.4323 8.42892 11.8934 8.75036 13.1499 9.39325C14.4065 10.0361 15.3854 10.9274 16.0868 12.0671C16.7881 13.2067 17.1387 14.5509 17.1387 16.0997C17.1387 17.6339 16.7881 18.9781 16.0868 20.1324C15.3854 21.272 14.4065 22.1633 13.1499 22.8062C11.8934 23.4491 10.4323 23.7705 8.76662 23.7705H2.06016ZM4.90931 21.3597H8.63512C9.78939 21.3597 10.7829 21.1405 11.6158 20.7022C12.4632 20.2639 13.1134 19.6502 13.5663 18.8612C14.0339 18.0722 14.2677 17.1517 14.2677 16.0997C14.2677 15.0331 14.0339 14.1126 13.5663 13.3382C13.1134 12.5492 12.4632 11.9356 11.6158 11.4972C10.7829 11.0589 9.78939 10.8397 8.63512 10.8397H4.90931V21.3597ZM20.3423 23.7705V12.0671H23.0819V23.7705H20.3423ZM21.7231 10.1384C21.2117 10.1384 20.788 9.97769 20.4519 9.65625C20.1305 9.3348 19.9697 8.94761 19.9697 8.49467C19.9697 8.02712 20.1305 7.63992 20.4519 7.33309C20.788 7.01165 21.2117 6.85093 21.7231 6.85093C22.2345 6.85093 22.6509 7.00434 22.9723 7.31118C23.3084 7.6034 23.4764 7.97598 23.4764 8.42892C23.4764 8.91108 23.3157 9.32019 22.9942 9.65625C22.6728 9.97769 22.2491 10.1384 21.7231 10.1384ZM34.3265 23.7705V21.4035L34.173 20.8994V16.7572C34.173 15.9536 33.932 15.3326 33.4498 14.8943C32.9676 14.4414 32.2371 14.2149 31.2581 14.2149C30.6006 14.2149 29.9505 14.3172 29.3076 14.5217C28.6793 14.7263 28.146 15.0112 27.7077 15.3765L26.6337 13.3821C27.262 12.8999 28.0072 12.5419 28.8692 12.3082C29.7459 12.0598 30.6518 11.9356 31.5869 11.9356C33.2818 11.9356 34.5895 12.3447 35.51 13.1629C36.4451 13.9665 36.9126 15.2157 36.9126 16.9106V23.7705H34.3265ZM30.6445 23.9239C29.7678 23.9239 29.0007 23.7778 28.3432 23.4856C27.6857 23.1788 27.1744 22.7623 26.8091 22.2363C26.4584 21.6957 26.2831 21.0894 26.2831 20.4173C26.2831 19.7598 26.4365 19.168 26.7433 18.642C27.0648 18.116 27.5835 17.6996 28.2994 17.3928C29.0153 17.086 29.9651 16.9325 31.1486 16.9325H34.5456V18.7516H31.3458C30.4107 18.7516 29.7824 18.905 29.461 19.2119C29.1395 19.5041 28.9788 19.8694 28.9788 20.3077C28.9788 20.8045 29.1761 21.199 29.5706 21.4912C29.9651 21.7834 30.513 21.9295 31.2143 21.9295C31.8864 21.9295 32.4855 21.7761 33.0115 21.4693C33.5521 21.1624 33.9393 20.7095 34.173 20.1104L34.6333 21.7542C34.3703 22.4409 33.8954 22.9742 33.2087 23.3541C32.5366 23.734 31.6819 23.9239 30.6445 23.9239ZM40.8668 23.7705V7.50842H43.6064V23.7705H40.8668Z" fill="#0E100E"/>
<path d="M48.1445 23.7705V8.42892H49.9417L56.8235 20.0228H55.8591L62.6533 8.42892H64.4504L64.4723 23.7705H62.3683L62.3464 11.7383H62.8505L56.8015 21.9076H55.7934L49.7006 11.7383H50.2485V23.7705H48.1445ZM74.1831 23.902C73.0142 23.902 71.9768 23.6463 71.0709 23.1349C70.165 22.6235 69.4491 21.9222 68.9231 21.0309C68.3971 20.1251 68.1341 19.1023 68.1341 17.9626C68.1341 16.8083 68.3971 15.7856 68.9231 14.8943C69.4491 14.003 70.165 13.309 71.0709 12.8122C71.9768 12.3008 73.0142 12.0452 74.1831 12.0452C75.3374 12.0452 76.3674 12.3008 77.2733 12.8122C78.1938 13.309 78.9097 14.003 79.4211 14.8943C79.9471 15.771 80.2101 16.7937 80.2101 17.9626C80.2101 19.1169 79.9471 20.1397 79.4211 21.0309C78.9097 21.9222 78.1938 22.6235 77.2733 23.1349C76.3674 23.6463 75.3374 23.902 74.1831 23.902ZM74.1831 22.061C74.9282 22.061 75.593 21.893 76.1775 21.5569C76.7765 21.2209 77.2441 20.746 77.5801 20.1324C77.9162 19.5041 78.0842 18.7808 78.0842 17.9626C78.0842 17.1298 77.9162 16.4139 77.5801 15.8148C77.2441 15.2011 76.7765 14.7263 76.1775 14.3902C75.593 14.0542 74.9282 13.8861 74.1831 13.8861C73.4379 13.8861 72.7731 14.0542 72.1887 14.3902C71.6042 14.7263 71.1367 15.2011 70.786 15.8148C70.4353 16.4139 70.26 17.1298 70.26 17.9626C70.26 18.7808 70.4353 19.5041 70.786 20.1324C71.1367 20.746 71.6042 21.2209 72.1887 21.5569C72.7731 21.893 73.4379 22.061 74.1831 22.061ZM86.2836 23.7705L81.1989 12.1547H83.3906L87.9054 22.6747H86.8534L91.4559 12.1547H93.5161L88.4314 23.7705H86.2836ZM95.918 23.7705V12.1547H98.022V23.7705H95.918ZM96.97 9.91925C96.5609 9.91925 96.2175 9.78775 95.9399 9.52475C95.6769 9.26175 95.5454 8.94031 95.5454 8.56042C95.5454 8.16592 95.6769 7.83717 95.9399 7.57417C96.2175 7.31118 96.5609 7.17968 96.97 7.17968C97.3791 7.17968 97.7151 7.31118 97.9781 7.57417C98.2557 7.82256 98.3945 8.1367 98.3945 8.51659C98.3945 8.91108 98.263 9.24714 98 9.52475C97.737 9.78775 97.3937 9.91925 96.97 9.91925ZM108.68 12.0452C109.63 12.0452 110.462 12.2278 111.178 12.5931C111.909 12.9583 112.479 13.5136 112.888 14.2587C113.297 15.0039 113.502 15.9463 113.502 17.086V23.7705H111.398V17.327C111.398 16.202 111.12 15.3546 110.565 14.7847C110.024 14.2149 109.257 13.93 108.263 13.93C107.518 13.93 106.868 14.0761 106.313 14.3683C105.758 14.6605 105.327 15.0916 105.02 15.6614C104.728 16.2312 104.582 16.9398 104.582 17.7873V23.7705H102.478V12.1547H104.494V15.2888L104.165 14.456C104.545 13.6962 105.129 13.1045 105.918 12.6807C106.707 12.257 107.628 12.0452 108.68 12.0452ZM122.918 28.1538C121.852 28.1538 120.814 28.0004 119.806 27.6936C118.813 27.4014 118.002 26.9776 117.373 26.4224L118.382 24.8006C118.922 25.2681 119.587 25.6334 120.376 25.8964C121.165 26.174 121.991 26.3128 122.853 26.3128C124.226 26.3128 125.234 25.9914 125.877 25.3485C126.52 24.7056 126.841 23.7267 126.841 22.4117V19.957L127.061 17.6558L126.951 15.3326V12.1547H128.945V22.1925C128.945 24.2381 128.434 25.743 127.411 26.7073C126.388 27.6717 124.891 28.1538 122.918 28.1538ZM122.655 23.2883C121.53 23.2883 120.522 23.0546 119.631 22.587C118.754 22.1048 118.053 21.44 117.527 20.5926C117.015 19.7452 116.76 18.7662 116.76 17.6558C116.76 16.5307 117.015 15.5518 117.527 14.719C118.053 13.8715 118.754 13.214 119.631 12.7465C120.522 12.2789 121.53 12.0452 122.655 12.0452C123.649 12.0452 124.555 12.2497 125.373 12.6588C126.191 13.0533 126.841 13.667 127.324 14.4998C127.82 15.3326 128.069 16.3846 128.069 17.6558C128.069 18.9123 127.82 19.957 127.324 20.7899C126.841 21.6227 126.191 22.251 125.373 22.6747C124.555 23.0838 123.649 23.2883 122.655 23.2883ZM122.896 21.4474C123.671 21.4474 124.357 21.2866 124.957 20.9652C125.556 20.6437 126.023 20.1981 126.359 19.6283C126.71 19.0584 126.885 18.401 126.885 17.6558C126.885 16.9106 126.71 16.2531 126.359 15.6833C126.023 15.1135 125.556 14.6751 124.957 14.3683C124.357 14.0469 123.671 13.8861 122.896 13.8861C122.122 13.8861 121.428 14.0469 120.814 14.3683C120.215 14.6751 119.74 15.1135 119.39 15.6833C119.054 16.2531 118.886 16.9106 118.886 17.6558C118.886 18.401 119.054 19.0584 119.39 19.6283C119.74 20.1981 120.215 20.6437 120.814 20.9652C121.428 21.2866 122.122 21.4474 122.896 21.4474Z" fill="#48CFAD"/>
<path d="M1.95557 31.0899L129.933 29.9199V31.0899L1.95557 32.2598V31.0899Z" fill="url(#paint0_linear_742_2151)"/>
<defs>
<linearGradient id="paint0_linear_742_2151" x1="1.36852" y1="31.2854" x2="129.933" y2="31.089" gradientUnits="userSpaceOnUse">
<stop stop-color="#48CFAD"/>
<stop offset="1" stop-color="#48CFAD" stop-opacity="0"/>
</linearGradient>
</defs>
</svg>
