<svg width="44" height="64" viewBox="0 0 44 64" fill="none" xmlns="http://www.w3.org/2000/svg">
<path d="M22.075 31.9996C22.075 26.1086 26.8506 21.333 32.7416 21.333C38.6326 21.333 43.4082 26.1088 43.4082 31.9996C43.4082 37.8908 38.6325 42.6663 32.7416 42.6663C26.8505 42.6663 22.075 37.8906 22.075 31.9996Z" fill="#00BCFF"/>
<path d="M0.741577 53.3338C0.741577 47.4428 5.5172 42.6671 11.4082 42.6671L17.0926 39.666L22.0748 42.6671V53.3338C22.0748 59.2249 17.2992 64.0004 11.4082 64.0004C5.5172 64.0004 0.741577 59.2248 0.741577 53.3338Z" fill="#00CF7F"/>
<path d="M22.0749 0L16.2706 10.0837L22.0749 21.3333H32.5919C38.483 21.3333 43.2585 16.5576 43.2585 10.6666C43.2585 4.77563 38.4829 0 32.5919 0H22.0749Z" fill="#FF7361"/>
<path d="M0.591797 10.6666C0.591797 16.5576 5.36742 21.3333 11.2584 21.3333L16.9168 23.5187L22.0747 21.3333V0H11.2583C5.36742 0 0.591797 4.77563 0.591797 10.6666Z" fill="#FF4D12"/>
<path d="M0.741577 31.9998C0.741577 37.8909 5.5172 42.6664 11.4082 42.6664H22.0748V21.333H11.4082C5.5172 21.333 0.741577 26.1088 0.741577 31.9998Z" fill="#B659FF"/>
</svg>
