<svg width="152" height="110" viewBox="0 0 152 110" fill="none" xmlns="http://www.w3.org/2000/svg">
<path d="M76.075 31.9996C76.075 26.1086 80.8506 21.333 86.7416 21.333C92.6326 21.333 97.4082 26.1088 97.4082 31.9996C97.4082 37.8908 92.6325 42.6663 86.7416 42.6663C80.8505 42.6663 76.075 37.8906 76.075 31.9996Z" fill="#00BCFF"/>
<path d="M54.7416 53.3338C54.7416 47.4428 59.5172 42.6671 65.4082 42.6671L71.0926 39.666L76.0748 42.6671V53.3338C76.0748 59.2249 71.2992 64.0004 65.4082 64.0004C59.5172 64.0004 54.7416 59.2248 54.7416 53.3338Z" fill="#00CF7F"/>
<path d="M76.0749 0L70.2706 10.0837L76.0749 21.3333H86.5919C92.483 21.3333 97.2585 16.5576 97.2585 10.6666C97.2585 4.77563 92.4829 0 86.5919 0H76.0749Z" fill="#FF7361"/>
<path d="M54.5918 10.6666C54.5918 16.5576 59.3674 21.3333 65.2584 21.3333L70.9168 23.5187L76.0747 21.3333V0H65.2583C59.3674 0 54.5918 4.77563 54.5918 10.6666Z" fill="#FF4D12"/>
<path d="M54.7416 31.9998C54.7416 37.8909 59.5172 42.6664 65.4082 42.6664H76.0748V21.333H65.4082C59.5172 21.333 54.7416 26.1088 54.7416 31.9998Z" fill="#B659FF"/>
<path d="M50.1809 98.358H56.6789V99.906H50.1809V98.358ZM50.3609 105H48.5609V92.4H57.4529V93.966H50.3609V105ZM59.7347 105V95.46H61.4627V105H59.7347ZM60.5987 93.624C60.2627 93.624 59.9807 93.516 59.7527 93.3C59.5367 93.084 59.4287 92.82 59.4287 92.508C59.4287 92.184 59.5367 91.914 59.7527 91.698C59.9807 91.482 60.2627 91.374 60.5987 91.374C60.9347 91.374 61.2107 91.482 61.4267 91.698C61.6547 91.902 61.7687 92.16 61.7687 92.472C61.7687 92.796 61.6607 93.072 61.4447 93.3C61.2287 93.516 60.9467 93.624 60.5987 93.624ZM68.938 108.6C68.062 108.6 67.21 108.474 66.382 108.222C65.566 107.982 64.9 107.634 64.384 107.178L65.212 105.846C65.656 106.23 66.202 106.53 66.85 106.746C67.498 106.974 68.176 107.088 68.884 107.088C70.012 107.088 70.84 106.824 71.368 106.296C71.896 105.768 72.16 104.964 72.16 103.884V101.868L72.34 99.978L72.25 98.07V95.46H73.888V103.704C73.888 105.384 73.468 106.62 72.628 107.412C71.788 108.204 70.558 108.6 68.938 108.6ZM68.722 104.604C67.798 104.604 66.97 104.412 66.238 104.028C65.518 103.632 64.942 103.086 64.51 102.39C64.09 101.694 63.88 100.89 63.88 99.978C63.88 99.054 64.09 98.25 64.51 97.566C64.942 96.87 65.518 96.33 66.238 95.946C66.97 95.562 67.798 95.37 68.722 95.37C69.538 95.37 70.282 95.538 70.954 95.874C71.626 96.198 72.16 96.702 72.556 97.386C72.964 98.07 73.168 98.934 73.168 99.978C73.168 101.01 72.964 101.868 72.556 102.552C72.16 103.236 71.626 103.752 70.954 104.1C70.282 104.436 69.538 104.604 68.722 104.604ZM68.92 103.092C69.556 103.092 70.12 102.96 70.612 102.696C71.104 102.432 71.488 102.066 71.764 101.598C72.052 101.13 72.196 100.59 72.196 99.978C72.196 99.366 72.052 98.826 71.764 98.358C71.488 97.89 71.104 97.53 70.612 97.278C70.12 97.014 69.556 96.882 68.92 96.882C68.284 96.882 67.714 97.014 67.21 97.278C66.718 97.53 66.328 97.89 66.04 98.358C65.764 98.826 65.626 99.366 65.626 99.978C65.626 100.59 65.764 101.13 66.04 101.598C66.328 102.066 66.718 102.432 67.21 102.696C67.714 102.96 68.284 103.092 68.92 103.092ZM89.1238 95.37C89.8918 95.37 90.5698 95.52 91.1578 95.82C91.7458 96.12 92.2018 96.576 92.5258 97.188C92.8618 97.8 93.0298 98.574 93.0298 99.51V105H91.3018V99.708C91.3018 98.784 91.0858 98.088 90.6538 97.62C90.2218 97.152 89.6158 96.918 88.8358 96.918C88.2598 96.918 87.7558 97.038 87.3238 97.278C86.8918 97.518 86.5558 97.872 86.3158 98.34C86.0878 98.808 85.9738 99.39 85.9738 100.086V105H84.2458V99.708C84.2458 98.784 84.0298 98.088 83.5978 97.62C83.1778 97.152 82.5718 96.918 81.7798 96.918C81.2158 96.918 80.7178 97.038 80.2858 97.278C79.8538 97.518 79.5178 97.872 79.2778 98.34C79.0378 98.808 78.9178 99.39 78.9178 100.086V105H77.1898V95.46H78.8458V97.998L78.5758 97.35C78.8758 96.726 79.3378 96.24 79.9618 95.892C80.5858 95.544 81.3118 95.37 82.1398 95.37C83.0518 95.37 83.8378 95.598 84.4978 96.054C85.1578 96.498 85.5898 97.176 85.7938 98.088L85.0918 97.8C85.3798 97.068 85.8838 96.48 86.6038 96.036C87.3238 95.592 88.1638 95.37 89.1238 95.37ZM102.131 105V102.984L102.041 102.606V99.168C102.041 98.436 101.825 97.872 101.393 97.476C100.973 97.068 100.337 96.864 99.4853 96.864C98.9213 96.864 98.3693 96.96 97.8293 97.152C97.2893 97.332 96.8333 97.578 96.4613 97.89L95.7413 96.594C96.2333 96.198 96.8213 95.898 97.5053 95.694C98.2013 95.478 98.9273 95.37 99.6833 95.37C100.991 95.37 101.999 95.688 102.707 96.324C103.415 96.96 103.769 97.932 103.769 99.24V105H102.131ZM98.9993 105.108C98.2913 105.108 97.6673 104.988 97.1273 104.748C96.5993 104.508 96.1913 104.178 95.9033 103.758C95.6153 103.326 95.4713 102.84 95.4713 102.3C95.4713 101.784 95.5913 101.316 95.8313 100.896C96.0833 100.476 96.4853 100.14 97.0373 99.888C97.6013 99.636 98.3573 99.51 99.3053 99.51H102.329V100.752H99.3773C98.5133 100.752 97.9313 100.896 97.6313 101.184C97.3313 101.472 97.1813 101.82 97.1813 102.228C97.1813 102.696 97.3673 103.074 97.7393 103.362C98.1113 103.638 98.6273 103.776 99.2873 103.776C99.9353 103.776 100.499 103.632 100.979 103.344C101.471 103.056 101.825 102.636 102.041 102.084L102.383 103.272C102.155 103.836 101.753 104.286 101.177 104.622C100.601 104.946 99.8753 105.108 98.9993 105.108Z" fill="white"/>
</svg>
