<svg width="58" height="84" viewBox="0 0 58 84" fill="none" xmlns="http://www.w3.org/2000/svg">
<path d="M29.0983 41.9999C29.0983 34.268 35.3663 28 43.0982 28C50.8302 28 57.0982 34.2682 57.0982 41.9999C57.0982 49.732 50.83 55.9999 43.0982 55.9999C35.3661 55.9999 29.0983 49.7319 29.0983 41.9999Z" fill="#00BCFF"/>
<path d="M1.09814 70.0004C1.09814 62.2685 7.36615 56.0005 15.0981 56.0005L22.5588 52.0615L29.098 56.0005V70.0004C29.098 77.7325 22.83 84.0004 15.0981 84.0004C7.36615 84.0004 1.09814 77.7324 1.09814 70.0004Z" fill="#00CF7F"/>
<path d="M29.0982 0L21.4801 13.2349L29.0982 27.9999H42.9017C50.6338 27.9999 56.9017 21.7319 56.9017 13.9999C56.9017 6.26801 50.6337 0 42.9017 0H29.0982Z" fill="#FF7361"/>
<path d="M0.901611 13.9999C0.901611 21.7319 7.16962 27.9999 14.9016 27.9999L22.3282 30.8684L29.0979 27.9999V0H14.9014C7.16962 0 0.901611 6.26801 0.901611 13.9999Z" fill="#FF4D12"/>
<path d="M1.09814 42.0001C1.09814 49.7322 7.36615 56.0001 15.0981 56.0001H29.098V28H15.0981C7.36615 28 1.09814 34.2682 1.09814 42.0001Z" fill="#B659FF"/>
</svg>
