<svg width="56" height="64" viewBox="0 0 56 64" fill="none" xmlns="http://www.w3.org/2000/svg">
<path d="M0.0295204 2.11866L4.18325 55.2581C4.2456 56.0561 4.78573 56.7365 5.54876 56.9785L27.4058 63.9082C27.7923 64.0307 28.2073 64.0307 28.5938 63.9082L50.4508 56.9785C51.2138 56.7365 51.7539 56.0561 51.8163 55.2581L55.97 2.11866C56.0594 0.976185 55.1564 0 54.0106 0H1.98911C0.843254 0 -0.0596659 0.976185 0.0295204 2.11866ZM45.3181 18.606H18.2474L19.0644 26.1397H44.7293L43.0504 47.6171L27.9998 52.3888L12.9493 47.6171L12.0722 36.3964H19.9719V41.9004L28.2109 44.1116L36.4008 41.9004L37.0361 33.1287H11.8167L10.1424 11.7076H45.8572L45.3181 18.606Z" fill="#FC490B"/>
</svg>
