<svg width="152" height="110" viewBox="0 0 152 110" fill="none" xmlns="http://www.w3.org/2000/svg">
<g clip-path="url(#clip0_322_294)">
<path d="M48.0295 2.11866L52.1832 55.2581C52.2456 56.0561 52.7857 56.7365 53.5488 56.9785L75.4058 63.9082C75.7923 64.0307 76.2073 64.0307 76.5938 63.9082L98.4508 56.9785C99.2138 56.7365 99.7539 56.0561 99.8163 55.2581L103.97 2.11866C104.059 0.976185 103.156 0 102.011 0H49.9891C48.8433 0 47.9403 0.976185 48.0295 2.11866ZM93.3181 18.606H66.2474L67.0644 26.1397H92.7293L91.0504 47.6171L75.9998 52.3888L60.9493 47.6171L60.0722 36.3964H67.9719V41.9004L76.2109 44.1116L84.4008 41.9004L85.0361 33.1287H59.8167L58.1424 11.7076H93.8572L93.3181 18.606Z" fill="#FC490B"/>
</g>
<path d="M62.2006 92.4V105H60.4006V99.384H53.1646V105H51.3646V92.4H53.1646V97.818H60.4006V92.4H62.2006ZM68.474 93.966H64.154V92.4H74.576V93.966H70.256V105H68.474V93.966ZM88.2185 105L88.2005 95.82L83.6465 103.47H82.8185L78.2645 95.874V105H76.5365V92.4H78.0125L83.2685 101.256L88.4525 92.4H89.9285L89.9465 105H88.2185ZM93.7279 92.4H95.5279V103.434H102.35V105H93.7279V92.4Z" fill="white"/>
<defs>
<clipPath id="clip0_322_294">
<rect width="64" height="64" fill="white" transform="translate(44)"/>
</clipPath>
</defs>
</svg>
