<svg width="84" height="82" viewBox="0 0 84 82" fill="none" xmlns="http://www.w3.org/2000/svg">
<path d="M14.8751 0.0498047H69.1251C77.3501 0.0498047 84 6.69975 84 14.9249V67.0749C84 75.2999 77.3501 81.95 69.1249 81.95H14.8751C6.64995 81.9498 0 75.2999 0 67.0748V14.9249C0 6.69975 6.64995 0.0498047 14.8751 0.0498047Z" fill="#390000"/>
<path d="M40.705 49.1898H27.685L25.0251 57.4147C24.955 57.7297 24.6751 57.9397 24.3601 57.9048H17.7801C17.395 57.9048 17.29 57.6948 17.395 57.2748L28.665 24.8298C28.77 24.4798 28.875 24.0948 29.0149 23.6748C29.1549 22.9398 29.2249 22.1698 29.2249 21.3997C29.19 21.2246 29.3299 21.0498 29.505 21.0146H29.61H38.5699C38.85 21.0146 38.9899 21.1196 39.0249 21.2947L51.7999 57.3447C51.9049 57.7297 51.7999 57.9046 51.45 57.9046H44.1349C43.89 57.9395 43.6449 57.7646 43.575 57.5195L40.705 49.1898ZM29.715 42.0847H38.605L34.125 27.4897L29.715 42.0847Z" fill="#FF9A00"/>
<path d="M59.43 27.0001C58.275 27.035 57.1549 26.5801 56.3149 25.775C55.5098 24.9001 55.0899 23.7451 55.125 22.555C55.09 21.365 55.545 20.245 56.385 19.4399C57.225 18.6348 58.345 18.2148 59.5 18.2148C60.865 18.2148 61.915 18.6348 62.685 19.4399C63.4549 20.2799 63.8749 21.4 63.84 22.555C63.8749 23.7449 63.4549 24.8999 62.6149 25.775C61.81 26.615 60.6199 27.07 59.43 27.0001Z" fill="#FF9A00"/>
<path d="M55.51 57.3796V30.4295C55.51 30.0796 55.65 29.9395 55.965 29.9395H62.895C63.21 29.9395 63.3499 30.1145 63.3499 30.4295V57.3796C63.3499 57.7646 63.21 57.9395 62.895 57.9395H56.035C55.6849 57.9395 55.51 57.7295 55.51 57.3796Z" fill="#FF9A00"/>
</svg>
