<svg width="64" height="64" viewBox="0 0 64 64" fill="none" xmlns="http://www.w3.org/2000/svg">
<path d="M11.3334 0.799805H52.6668C58.9334 0.799805 64 5.86643 64 12.1332V51.8666C64 58.1332 58.9334 63.1999 52.6666 63.1999H11.3334C5.06663 63.1998 0 58.1332 0 51.8664V12.1332C0 5.86643 5.06663 0.799805 11.3334 0.799805Z" fill="#390000"/>
<path d="M31.0133 38.2402H21.0933L19.0667 44.5068C19.0133 44.7468 18.8001 44.9068 18.5601 44.8802H13.5467C13.2533 44.8802 13.1733 44.7202 13.2533 44.4002L21.84 19.6802C21.92 19.4136 22 19.1202 22.1066 18.8002C22.2132 18.2402 22.2666 17.6536 22.2666 17.0668C22.24 16.9334 22.3466 16.8002 22.48 16.7734H22.56H29.3866C29.6 16.7734 29.7066 16.8534 29.7332 16.9868L39.4666 44.4534C39.5466 44.7468 39.4666 44.8801 39.2 44.8801H33.6266C33.44 44.9067 33.2532 44.7734 33.2 44.5867L31.0133 38.2402ZM22.64 32.8268H29.4133L26 21.7068L22.64 32.8268Z" fill="#FF9A00"/>
<path d="M45.28 21.3331C44.4 21.3598 43.5466 21.0131 42.9066 20.3998C42.2932 19.7331 41.9732 18.8531 42 17.9464C41.9733 17.0398 42.32 16.1864 42.96 15.573C43.6 14.9596 44.4533 14.6396 45.3333 14.6396C46.3733 14.6396 47.1733 14.9596 47.76 15.573C48.3466 16.213 48.6666 17.0664 48.64 17.9464C48.6666 18.853 48.3466 19.733 47.7066 20.3998C47.0933 21.0398 46.1866 21.3864 45.28 21.3331Z" fill="#FF9A00"/>
<path d="M42.2933 44.48V23.9466C42.2933 23.68 42.4 23.5732 42.64 23.5732H47.92C48.16 23.5732 48.2666 23.7066 48.2666 23.9466V44.48C48.2666 44.7734 48.16 44.9066 47.92 44.9066H42.6933C42.4266 44.9066 42.2933 44.7466 42.2933 44.48Z" fill="#FF9A00"/>
</svg>
