<svg width="152" height="110" viewBox="0 0 152 110" fill="none" xmlns="http://www.w3.org/2000/svg">
<g clip-path="url(#clip0_450_1379)">
<path d="M55.3334 0.799805H96.6668C102.933 0.799805 108 5.86643 108 12.1332V51.8666C108 58.1332 102.933 63.1999 96.6666 63.1999H55.3334C49.0666 63.1998 44 58.1332 44 51.8664V12.1332C44 5.86643 49.0666 0.799805 55.3334 0.799805Z" fill="#390000"/>
<path d="M75.0133 38.2402H65.0933L63.0667 44.5068C63.0133 44.7468 62.8001 44.9068 62.5601 44.8802H57.5467C57.2533 44.8802 57.1733 44.7202 57.2533 44.4002L65.84 19.6802C65.92 19.4136 66 19.1202 66.1066 18.8002C66.2132 18.2402 66.2666 17.6536 66.2666 17.0668C66.24 16.9334 66.3466 16.8002 66.48 16.7734H66.56H73.3866C73.6 16.7734 73.7066 16.8534 73.7332 16.9868L83.4666 44.4534C83.5466 44.7468 83.4666 44.8801 83.2 44.8801H77.6266C77.44 44.9067 77.2532 44.7734 77.2 44.5867L75.0133 38.2402ZM66.64 32.8268H73.4133L70 21.7068L66.64 32.8268Z" fill="#FF9A00"/>
<path d="M89.28 21.3331C88.4 21.3598 87.5466 21.0131 86.9066 20.3998C86.2932 19.7331 85.9732 18.8531 86 17.9464C85.9733 17.0398 86.32 16.1864 86.96 15.573C87.6 14.9596 88.4533 14.6396 89.3333 14.6396C90.3733 14.6396 91.1733 14.9596 91.76 15.573C92.3466 16.213 92.6666 17.0664 92.64 17.9464C92.6666 18.853 92.3466 19.733 91.7066 20.3998C91.0933 21.0398 90.1866 21.3864 89.28 21.3331Z" fill="#FF9A00"/>
<path d="M86.2933 44.48V23.9466C86.2933 23.68 86.4 23.5732 86.64 23.5732H91.92C92.16 23.5732 92.2666 23.7066 92.2666 23.9466V44.48C92.2666 44.7734 92.16 44.9066 91.92 44.9066H86.6933C86.4266 44.9066 86.2933 44.7466 86.2933 44.48Z" fill="#FF9A00"/>
</g>
<path d="M34.1205 105V92.4H35.9205V105H34.1205ZM39.4407 105V91.644H41.1687V105H39.4407ZM44.4681 105V91.644H46.1961V105H44.4681ZM53.5094 105.108C52.6934 105.108 51.9734 104.958 51.3494 104.658C50.7374 104.358 50.2574 103.902 49.9094 103.29C49.5734 102.666 49.4054 101.886 49.4054 100.95V95.46H51.1334V100.752C51.1334 101.688 51.3554 102.39 51.7994 102.858C52.2554 103.326 52.8914 103.56 53.7074 103.56C54.3074 103.56 54.8294 103.44 55.2734 103.2C55.7174 102.948 56.0594 102.588 56.2994 102.12C56.5394 101.64 56.6594 101.064 56.6594 100.392V95.46H58.3874V105H56.7494V102.426L57.0194 103.11C56.7074 103.746 56.2394 104.238 55.6154 104.586C54.9914 104.934 54.2894 105.108 53.5094 105.108ZM64.4131 105.108C63.6211 105.108 62.8651 105 62.1451 104.784C61.4371 104.568 60.8791 104.304 60.4711 103.992L61.1911 102.624C61.5991 102.9 62.1031 103.134 62.7031 103.326C63.3031 103.518 63.9151 103.614 64.5391 103.614C65.3431 103.614 65.9191 103.5 66.2671 103.272C66.6271 103.044 66.8071 102.726 66.8071 102.318C66.8071 102.018 66.6991 101.784 66.4831 101.616C66.2671 101.448 65.9791 101.322 65.6191 101.238C65.2711 101.154 64.8811 101.082 64.4491 101.022C64.0171 100.95 63.5851 100.866 63.1531 100.77C62.7211 100.662 62.3251 100.518 61.9651 100.338C61.6051 100.146 61.3171 99.888 61.1011 99.564C60.8851 99.228 60.7771 98.784 60.7771 98.232C60.7771 97.656 60.9391 97.152 61.2631 96.72C61.5871 96.288 62.0431 95.958 62.6311 95.73C63.2311 95.49 63.9391 95.37 64.7551 95.37C65.3791 95.37 66.0091 95.448 66.6451 95.604C67.2931 95.748 67.8211 95.958 68.2291 96.234L67.4911 97.602C67.0591 97.314 66.6091 97.116 66.1411 97.008C65.6731 96.9 65.2051 96.846 64.7371 96.846C63.9811 96.846 63.4171 96.972 63.0451 97.224C62.6731 97.464 62.4871 97.776 62.4871 98.16C62.4871 98.484 62.5951 98.736 62.8111 98.916C63.0391 99.084 63.3271 99.216 63.6751 99.312C64.0351 99.408 64.4311 99.492 64.8631 99.564C65.2951 99.624 65.7271 99.708 66.1591 99.816C66.5911 99.912 66.9811 100.05 67.3291 100.23C67.6891 100.41 67.9771 100.662 68.1931 100.986C68.4211 101.31 68.5351 101.742 68.5351 102.282C68.5351 102.858 68.3671 103.356 68.0311 103.776C67.6951 104.196 67.2211 104.526 66.6091 104.766C65.9971 104.994 65.2651 105.108 64.4131 105.108ZM73.9706 105.108C73.0106 105.108 72.2666 104.85 71.7386 104.334C71.2106 103.818 70.9466 103.08 70.9466 102.12V93.372H72.6746V102.048C72.6746 102.564 72.8006 102.96 73.0526 103.236C73.3166 103.512 73.6886 103.65 74.1686 103.65C74.7086 103.65 75.1586 103.5 75.5186 103.2L76.0586 104.442C75.7946 104.67 75.4766 104.838 75.1046 104.946C74.7446 105.054 74.3666 105.108 73.9706 105.108ZM69.3266 96.882V95.46H75.4106V96.882H69.3266ZM78.1478 105V95.46H79.8038V98.052L79.6418 97.404C79.9058 96.744 80.3498 96.24 80.9738 95.892C81.5978 95.544 82.3658 95.37 83.2778 95.37V97.044C83.2058 97.032 83.1338 97.026 83.0618 97.026C83.0018 97.026 82.9418 97.026 82.8818 97.026C81.9578 97.026 81.2258 97.302 80.6858 97.854C80.1458 98.406 79.8758 99.204 79.8758 100.248V105H78.1478ZM90.6264 105V102.984L90.5364 102.606V99.168C90.5364 98.436 90.3204 97.872 89.8884 97.476C89.4684 97.068 88.8324 96.864 87.9804 96.864C87.4164 96.864 86.8644 96.96 86.3244 97.152C85.7844 97.332 85.3284 97.578 84.9564 97.89L84.2364 96.594C84.7284 96.198 85.3164 95.898 86.0004 95.694C86.6964 95.478 87.4224 95.37 88.1784 95.37C89.4864 95.37 90.4944 95.688 91.2024 96.324C91.9104 96.96 92.2644 97.932 92.2644 99.24V105H90.6264ZM87.4944 105.108C86.7864 105.108 86.1624 104.988 85.6224 104.748C85.0944 104.508 84.6864 104.178 84.3984 103.758C84.1104 103.326 83.9664 102.84 83.9664 102.3C83.9664 101.784 84.0864 101.316 84.3264 100.896C84.5784 100.476 84.9804 100.14 85.5324 99.888C86.0964 99.636 86.8524 99.51 87.8004 99.51H90.8244V100.752H87.8724C87.0084 100.752 86.4264 100.896 86.1264 101.184C85.8264 101.472 85.6764 101.82 85.6764 102.228C85.6764 102.696 85.8624 103.074 86.2344 103.362C86.6064 103.638 87.1224 103.776 87.7824 103.776C88.4304 103.776 88.9944 103.632 89.4744 103.344C89.9664 103.056 90.3204 102.636 90.5364 102.084L90.8784 103.272C90.6504 103.836 90.2484 104.286 89.6724 104.622C89.0964 104.946 88.3704 105.108 87.4944 105.108ZM98.7382 105.108C97.7782 105.108 97.0342 104.85 96.5062 104.334C95.9782 103.818 95.7142 103.08 95.7142 102.12V93.372H97.4422V102.048C97.4422 102.564 97.5682 102.96 97.8202 103.236C98.0842 103.512 98.4562 103.65 98.9362 103.65C99.4762 103.65 99.9262 103.5 100.286 103.2L100.826 104.442C100.562 104.67 100.244 104.838 99.8722 104.946C99.5122 105.054 99.1342 105.108 98.7382 105.108ZM94.0942 96.882V95.46H100.178V96.882H94.0942ZM106.685 105.108C105.725 105.108 104.873 104.898 104.129 104.478C103.385 104.058 102.797 103.482 102.365 102.75C101.933 102.006 101.717 101.166 101.717 100.23C101.717 99.282 101.933 98.442 102.365 97.71C102.797 96.978 103.385 96.408 104.129 96C104.873 95.58 105.725 95.37 106.685 95.37C107.633 95.37 108.479 95.58 109.223 96C109.979 96.408 110.567 96.978 110.987 97.71C111.419 98.43 111.635 99.27 111.635 100.23C111.635 101.178 111.419 102.018 110.987 102.75C110.567 103.482 109.979 104.058 109.223 104.478C108.479 104.898 107.633 105.108 106.685 105.108ZM106.685 103.596C107.297 103.596 107.843 103.458 108.323 103.182C108.815 102.906 109.199 102.516 109.475 102.012C109.751 101.496 109.889 100.902 109.889 100.23C109.889 99.546 109.751 98.958 109.475 98.466C109.199 97.962 108.815 97.572 108.323 97.296C107.843 97.02 107.297 96.882 106.685 96.882C106.073 96.882 105.527 97.02 105.047 97.296C104.567 97.572 104.183 97.962 103.895 98.466C103.607 98.958 103.463 99.546 103.463 100.23C103.463 100.902 103.607 101.496 103.895 102.012C104.183 102.516 104.567 102.906 105.047 103.182C105.527 103.458 106.073 103.596 106.685 103.596ZM114.025 105V95.46H115.681V98.052L115.519 97.404C115.783 96.744 116.227 96.24 116.851 95.892C117.475 95.544 118.243 95.37 119.155 95.37V97.044C119.083 97.032 119.011 97.026 118.939 97.026C118.879 97.026 118.819 97.026 118.759 97.026C117.835 97.026 117.103 97.302 116.563 97.854C116.023 98.406 115.753 99.204 115.753 100.248V105H114.025Z" fill="white"/>
<defs>
<clipPath id="clip0_450_1379">
<rect width="64" height="64" fill="white" transform="translate(44)"/>
</clipPath>
</defs>
</svg>
