<svg width="84" height="82" viewBox="0 0 84 82" fill="none" xmlns="http://www.w3.org/2000/svg">
<path d="M14.8751 0.0498047H69.1251C77.3501 0.0498047 84 6.69975 84 14.9249V67.0749C84 75.2999 77.3501 81.95 69.1249 81.95H14.8751C6.64995 81.9498 0 75.2999 0 67.0748V14.9249C0 6.69975 6.64995 0.0498047 14.8751 0.0498047Z" fill="#54001A"/>
<path d="M30.52 21.47V57.38C30.52 57.7651 30.345 57.94 30.03 57.94H23.17C22.855 57.94 22.7151 57.7649 22.7151 57.38V21.47C22.7151 21.155 22.8901 21.0151 23.2051 21.0151H30.0301C30.2401 20.9801 30.4501 21.1201 30.4851 21.365C30.52 21.4 30.52 21.4351 30.52 21.47Z" fill="#FF3068"/>
<path d="M50.6801 58.5003C48.0901 58.5353 45.5002 58.0103 43.1551 56.9253C40.9501 55.9103 39.1301 54.2303 37.8701 52.1654C36.5752 50.0304 35.9452 47.3703 35.9452 44.1854C35.9102 41.5953 36.5752 39.0404 37.8701 36.8004C39.2002 34.5254 41.1251 32.6354 43.4351 31.3754C45.8851 30.0104 48.825 29.3454 52.29 29.3454C52.4651 29.3454 52.7101 29.3454 53.0251 29.3804C53.34 29.4153 53.69 29.4153 54.11 29.4504V18.3905C54.11 18.1455 54.215 18.0054 54.4599 18.0054H61.565C61.74 17.9705 61.88 18.1104 61.9149 18.2504V18.3204V51.6404C61.9149 52.2704 61.9499 52.9704 61.985 53.7404C62.055 54.4754 62.09 55.1754 62.1249 55.7703C62.1249 56.0153 62.0199 56.2253 61.775 56.3303C59.955 57.1002 58.0299 57.6603 56.07 58.0103C54.32 58.3253 52.5001 58.5003 50.6801 58.5003ZM54.11 51.5003V36.1002C53.795 36.0302 53.48 35.9603 53.165 35.9252C52.7799 35.8902 52.395 35.8551 52.01 35.8551C50.645 35.8551 49.28 36.1352 48.0549 36.7652C46.865 37.3602 45.8499 38.2352 45.08 39.3552C44.3101 40.4753 43.925 41.9802 43.925 43.8002C43.89 45.0252 44.1 46.2501 44.52 47.4051C44.87 48.3501 45.395 49.1901 46.095 49.8902C46.76 50.5202 47.5651 51.0102 48.4751 51.2901C49.4201 51.6051 50.4001 51.745 51.3802 51.745C51.9052 51.745 52.3952 51.7101 52.8502 51.675C53.3051 51.7103 53.7251 51.6402 54.11 51.5003Z" fill="#FF3068"/>
</svg>
