<svg width="152" height="110" viewBox="0 0 152 110" fill="none" xmlns="http://www.w3.org/2000/svg">
<g clip-path="url(#clip0_450_1419)">
<path d="M55.3334 0.799805H96.6668C102.933 0.799805 108 5.86643 108 12.1332V51.8666C108 58.1332 102.933 63.1999 96.6666 63.1999H55.3334C49.0666 63.1998 44 58.1332 44 51.8664V12.1332C44 5.86643 49.0666 0.799805 55.3334 0.799805Z" fill="#54001A"/>
<path d="M67.2533 17.1192V44.4792C67.2533 44.7726 67.1199 44.9058 66.8799 44.9058H61.6533C61.4133 44.9058 61.3066 44.7725 61.3066 44.4792V17.1192C61.3066 16.8792 61.44 16.7726 61.68 16.7726H66.88C67.04 16.746 67.2 16.8526 67.2266 17.0392C67.2533 17.0659 67.2533 17.0926 67.2533 17.1192Z" fill="#FF3068"/>
<path d="M82.6134 45.333C80.64 45.3596 78.6667 44.9596 76.88 44.133C75.2 43.3596 73.8134 42.0796 72.8534 40.5063C71.8667 38.8797 71.3867 36.853 71.3867 34.4263C71.3601 32.453 71.8667 30.5063 72.8534 28.7997C73.8667 27.0663 75.3334 25.6263 77.0934 24.6663C78.96 23.6263 81.2 23.1197 83.84 23.1197C83.9734 23.1197 84.16 23.1197 84.4 23.1463C84.64 23.173 84.9066 23.173 85.2266 23.1997V14.7731C85.2266 14.5865 85.3066 14.4797 85.4932 14.4797H90.9066C91.04 14.4531 91.1466 14.5597 91.1732 14.6663V14.7197V40.1063C91.1732 40.5863 91.1999 41.1197 91.2266 41.7063C91.28 42.2663 91.3066 42.7997 91.3332 43.253C91.3332 43.4396 91.2532 43.5996 91.0666 43.6796C89.68 44.2662 88.2132 44.693 86.72 44.9596C85.3866 45.1996 84 45.333 82.6134 45.333ZM85.2266 39.9996V28.2662C84.9866 28.2128 84.7466 28.1596 84.5066 28.1328C84.2132 28.1062 83.92 28.0795 83.6266 28.0795C82.5866 28.0795 81.5466 28.2928 80.6132 28.7728C79.7066 29.2262 78.9332 29.8928 78.3466 30.7462C77.76 31.5996 77.4666 32.7462 77.4666 34.1328C77.44 35.0662 77.6 35.9995 77.92 36.8795C78.1866 37.5995 78.5866 38.2395 79.12 38.7728C79.6266 39.2528 80.24 39.6262 80.9334 39.8395C81.6534 40.0795 82.4 40.1861 83.1467 40.1861C83.5467 40.1861 83.9201 40.1595 84.2667 40.1327C84.6134 40.1596 84.9334 40.1062 85.2266 39.9996Z" fill="#FF3068"/>
</g>
<path d="M37.9701 105V92.4H39.7701V105H37.9701ZM48.3843 95.37C49.1643 95.37 49.8483 95.52 50.4363 95.82C51.0363 96.12 51.5043 96.576 51.8403 97.188C52.1763 97.8 52.3443 98.574 52.3443 99.51V105H50.6163V99.708C50.6163 98.784 50.3883 98.088 49.9323 97.62C49.4883 97.152 48.8583 96.918 48.0423 96.918C47.4303 96.918 46.8963 97.038 46.4403 97.278C45.9843 97.518 45.6303 97.872 45.3783 98.34C45.1383 98.808 45.0183 99.39 45.0183 100.086V105H43.2903V95.46H44.9463V98.034L44.6763 97.35C44.9883 96.726 45.4683 96.24 46.1163 95.892C46.7643 95.544 47.5203 95.37 48.3843 95.37ZM59.4843 105.108C58.5603 105.108 57.7323 104.904 57.0003 104.496C56.2803 104.088 55.7103 103.518 55.2903 102.786C54.8703 102.054 54.6603 101.202 54.6603 100.23C54.6603 99.258 54.8703 98.412 55.2903 97.692C55.7103 96.96 56.2803 96.39 57.0003 95.982C57.7323 95.574 58.5603 95.37 59.4843 95.37C60.2883 95.37 61.0143 95.55 61.6623 95.91C62.3103 96.27 62.8263 96.81 63.2103 97.53C63.6063 98.25 63.8043 99.15 63.8043 100.23C63.8043 101.31 63.6123 102.21 63.2283 102.93C62.8563 103.65 62.3463 104.196 61.6983 104.568C61.0503 104.928 60.3123 105.108 59.4843 105.108ZM59.6283 103.596C60.2283 103.596 60.7683 103.458 61.2483 103.182C61.7403 102.906 62.1243 102.516 62.4003 102.012C62.6883 101.496 62.8323 100.902 62.8323 100.23C62.8323 99.546 62.6883 98.958 62.4003 98.466C62.1243 97.962 61.7403 97.572 61.2483 97.296C60.7683 97.02 60.2283 96.882 59.6283 96.882C59.0163 96.882 58.4703 97.02 57.9903 97.296C57.5103 97.572 57.1263 97.962 56.8383 98.466C56.5503 98.958 56.4063 99.546 56.4063 100.23C56.4063 100.902 56.5503 101.496 56.8383 102.012C57.1263 102.516 57.5103 102.906 57.9903 103.182C58.4703 103.458 59.0163 103.596 59.6283 103.596ZM62.8863 105V102.426L62.9943 100.212L62.8143 97.998V91.644H64.5423V105H62.8863ZM72.0598 105.108C71.0398 105.108 70.1398 104.898 69.3598 104.478C68.5918 104.058 67.9918 103.482 67.5598 102.75C67.1398 102.018 66.9298 101.178 66.9298 100.23C66.9298 99.282 67.1338 98.442 67.5418 97.71C67.9618 96.978 68.5318 96.408 69.2518 96C69.9838 95.58 70.8058 95.37 71.7178 95.37C72.6418 95.37 73.4578 95.574 74.1658 95.982C74.8738 96.39 75.4258 96.966 75.8218 97.71C76.2298 98.442 76.4338 99.3 76.4338 100.284C76.4338 100.356 76.4278 100.44 76.4158 100.536C76.4158 100.632 76.4098 100.722 76.3978 100.806H68.2798V99.564H75.4978L74.7958 99.996C74.8078 99.384 74.6818 98.838 74.4178 98.358C74.1538 97.878 73.7878 97.506 73.3198 97.242C72.8638 96.966 72.3298 96.828 71.7178 96.828C71.1178 96.828 70.5838 96.966 70.1158 97.242C69.6478 97.506 69.2818 97.884 69.0178 98.376C68.7538 98.856 68.6218 99.408 68.6218 100.032V100.32C68.6218 100.956 68.7658 101.526 69.0538 102.03C69.3538 102.522 69.7678 102.906 70.2958 103.182C70.8238 103.458 71.4298 103.596 72.1138 103.596C72.6778 103.596 73.1878 103.5 73.6438 103.308C74.1118 103.116 74.5198 102.828 74.8678 102.444L75.8218 103.56C75.3898 104.064 74.8498 104.448 74.2018 104.712C73.5658 104.976 72.8518 105.108 72.0598 105.108ZM81.5693 105.108C80.7773 105.108 80.0213 105 79.3013 104.784C78.5933 104.568 78.0353 104.304 77.6273 103.992L78.3473 102.624C78.7553 102.9 79.2593 103.134 79.8593 103.326C80.4593 103.518 81.0713 103.614 81.6953 103.614C82.4993 103.614 83.0753 103.5 83.4233 103.272C83.7833 103.044 83.9633 102.726 83.9633 102.318C83.9633 102.018 83.8553 101.784 83.6393 101.616C83.4233 101.448 83.1353 101.322 82.7753 101.238C82.4273 101.154 82.0373 101.082 81.6053 101.022C81.1733 100.95 80.7413 100.866 80.3093 100.77C79.8773 100.662 79.4813 100.518 79.1213 100.338C78.7613 100.146 78.4733 99.888 78.2573 99.564C78.0413 99.228 77.9333 98.784 77.9333 98.232C77.9333 97.656 78.0953 97.152 78.4193 96.72C78.7433 96.288 79.1993 95.958 79.7873 95.73C80.3873 95.49 81.0953 95.37 81.9113 95.37C82.5353 95.37 83.1653 95.448 83.8013 95.604C84.4493 95.748 84.9773 95.958 85.3853 96.234L84.6473 97.602C84.2153 97.314 83.7653 97.116 83.2973 97.008C82.8293 96.9 82.3613 96.846 81.8933 96.846C81.1373 96.846 80.5733 96.972 80.2013 97.224C79.8293 97.464 79.6433 97.776 79.6433 98.16C79.6433 98.484 79.7513 98.736 79.9673 98.916C80.1953 99.084 80.4833 99.216 80.8313 99.312C81.1913 99.408 81.5873 99.492 82.0193 99.564C82.4513 99.624 82.8833 99.708 83.3153 99.816C83.7473 99.912 84.1373 100.05 84.4853 100.23C84.8453 100.41 85.1333 100.662 85.3493 100.986C85.5773 101.31 85.6913 101.742 85.6913 102.282C85.6913 102.858 85.5233 103.356 85.1873 103.776C84.8513 104.196 84.3773 104.526 83.7653 104.766C83.1533 104.994 82.4213 105.108 81.5693 105.108ZM87.8509 105V95.46H89.5789V105H87.8509ZM88.7149 93.624C88.3789 93.624 88.0969 93.516 87.8689 93.3C87.6529 93.084 87.5449 92.82 87.5449 92.508C87.5449 92.184 87.6529 91.914 87.8689 91.698C88.0969 91.482 88.3789 91.374 88.7149 91.374C89.0509 91.374 89.3269 91.482 89.5429 91.698C89.7709 91.902 89.8849 92.16 89.8849 92.472C89.8849 92.796 89.7769 93.072 89.5609 93.3C89.3449 93.516 89.0629 93.624 88.7149 93.624ZM97.0542 108.6C96.1782 108.6 95.3262 108.474 94.4982 108.222C93.6822 107.982 93.0162 107.634 92.5002 107.178L93.3282 105.846C93.7722 106.23 94.3182 106.53 94.9662 106.746C95.6142 106.974 96.2922 107.088 97.0002 107.088C98.1282 107.088 98.9562 106.824 99.4842 106.296C100.012 105.768 100.276 104.964 100.276 103.884V101.868L100.456 99.978L100.366 98.07V95.46H102.004V103.704C102.004 105.384 101.584 106.62 100.744 107.412C99.9042 108.204 98.6742 108.6 97.0542 108.6ZM96.8382 104.604C95.9142 104.604 95.0862 104.412 94.3542 104.028C93.6342 103.632 93.0582 103.086 92.6262 102.39C92.2062 101.694 91.9962 100.89 91.9962 99.978C91.9962 99.054 92.2062 98.25 92.6262 97.566C93.0582 96.87 93.6342 96.33 94.3542 95.946C95.0862 95.562 95.9142 95.37 96.8382 95.37C97.6542 95.37 98.3982 95.538 99.0702 95.874C99.7422 96.198 100.276 96.702 100.672 97.386C101.08 98.07 101.284 98.934 101.284 99.978C101.284 101.01 101.08 101.868 100.672 102.552C100.276 103.236 99.7422 103.752 99.0702 104.1C98.3982 104.436 97.6542 104.604 96.8382 104.604ZM97.0362 103.092C97.6722 103.092 98.2362 102.96 98.7282 102.696C99.2202 102.432 99.6042 102.066 99.8802 101.598C100.168 101.13 100.312 100.59 100.312 99.978C100.312 99.366 100.168 98.826 99.8802 98.358C99.6042 97.89 99.2202 97.53 98.7282 97.278C98.2362 97.014 97.6722 96.882 97.0362 96.882C96.4002 96.882 95.8302 97.014 95.3262 97.278C94.8342 97.53 94.4442 97.89 94.1562 98.358C93.8802 98.826 93.7422 99.366 93.7422 99.978C93.7422 100.59 93.8802 101.13 94.1562 101.598C94.4442 102.066 94.8342 102.432 95.3262 102.696C95.8302 102.96 96.4002 103.092 97.0362 103.092ZM110.4 95.37C111.18 95.37 111.864 95.52 112.452 95.82C113.052 96.12 113.52 96.576 113.856 97.188C114.192 97.8 114.36 98.574 114.36 99.51V105H112.632V99.708C112.632 98.784 112.404 98.088 111.948 97.62C111.504 97.152 110.874 96.918 110.058 96.918C109.446 96.918 108.912 97.038 108.456 97.278C108 97.518 107.646 97.872 107.394 98.34C107.154 98.808 107.034 99.39 107.034 100.086V105H105.306V95.46H106.962V98.034L106.692 97.35C107.004 96.726 107.484 96.24 108.132 95.892C108.78 95.544 109.536 95.37 110.4 95.37Z" fill="white"/>
<defs>
<clipPath id="clip0_450_1419">
<rect width="64" height="64" fill="white" transform="translate(44)"/>
</clipPath>
</defs>
</svg>
