<svg width="64" height="64" viewBox="0 0 64 64" fill="none" xmlns="http://www.w3.org/2000/svg">
<path d="M11.3334 0.799805H52.6668C58.9334 0.799805 64 5.86643 64 12.1332V51.8666C64 58.1332 58.9334 63.1999 52.6666 63.1999H11.3334C5.06663 63.1998 0 58.1332 0 51.8664V12.1332C0 5.86643 5.06663 0.799805 11.3334 0.799805V0.799805Z" fill="#54001A"/>
<path d="M23.2533 17.1192V44.4792C23.2533 44.7726 23.1199 44.9058 22.8799 44.9058H17.6533C17.4133 44.9058 17.3066 44.7725 17.3066 44.4792V17.1192C17.3066 16.8792 17.44 16.7726 17.68 16.7726H22.88C23.04 16.746 23.2 16.8526 23.2266 17.0392C23.2533 17.0659 23.2533 17.0926 23.2533 17.1192Z" fill="#FF3068"/>
<path d="M38.6134 45.333C36.64 45.3596 34.6667 44.9596 32.88 44.133C31.2 43.3596 29.8134 42.0796 28.8534 40.5063C27.8667 38.8797 27.3867 36.853 27.3867 34.4263C27.3601 32.453 27.8667 30.5063 28.8534 28.7997C29.8667 27.0663 31.3334 25.6263 33.0934 24.6663C34.96 23.6263 37.2 23.1197 39.84 23.1197C39.9734 23.1197 40.16 23.1197 40.4 23.1463C40.64 23.173 40.9066 23.173 41.2266 23.1997V14.7731C41.2266 14.5865 41.3066 14.4797 41.4932 14.4797H46.9066C47.04 14.4531 47.1466 14.5597 47.1732 14.6663V14.7197V40.1063C47.1732 40.5863 47.1999 41.1197 47.2266 41.7063C47.28 42.2663 47.3066 42.7997 47.3332 43.253C47.3332 43.4396 47.2532 43.5996 47.0666 43.6796C45.68 44.2662 44.2132 44.693 42.72 44.9596C41.3866 45.1996 40 45.333 38.6134 45.333ZM41.2266 39.9996V28.2662C40.9866 28.2128 40.7466 28.1596 40.5066 28.1328C40.2132 28.1062 39.92 28.0795 39.6266 28.0795C38.5866 28.0795 37.5466 28.2928 36.6132 28.7728C35.7066 29.2262 34.9332 29.8928 34.3466 30.7462C33.76 31.5996 33.4666 32.7462 33.4666 34.1328C33.44 35.0662 33.6 35.9995 33.92 36.8795C34.1866 37.5995 34.5866 38.2395 35.12 38.7728C35.6266 39.2528 36.24 39.6262 36.9334 39.8395C37.6534 40.0795 38.4 40.1861 39.1467 40.1861C39.5467 40.1861 39.9201 40.1595 40.2667 40.1327C40.6134 40.1596 40.9334 40.1062 41.2266 39.9996Z" fill="#FF3068"/>
</svg>
