<svg width="40" height="40" viewBox="0 0 40 40" fill="none" xmlns="http://www.w3.org/2000/svg">
<rect x="0.5" y="0.5" width="39" height="39" stroke="#273039"/>
<path d="M20.375 11.875C23.125 11.875 23.5 11.875 24.625 11.875C25.625 11.875 26.125 12.125 26.5 12.25C27 12.5 27.375 12.625 27.75 13C28.125 13.375 28.375 13.75 28.5 14.25C28.625 14.625 28.75 15.125 28.875 16.125C28.875 17.25 28.875 17.5 28.875 20.375C28.875 23.25 28.875 23.5 28.875 24.625C28.875 25.625 28.625 26.125 28.5 26.5C28.25 27 28.125 27.375 27.75 27.75C27.375 28.125 27 28.375 26.5 28.5C26.125 28.625 25.625 28.75 24.625 28.875C23.5 28.875 23.25 28.875 20.375 28.875C17.5 28.875 17.25 28.875 16.125 28.875C15.125 28.875 14.625 28.625 14.25 28.5C13.75 28.25 13.375 28.125 13 27.75C12.625 27.375 12.375 27 12.25 26.5C12.125 26.125 12 25.625 11.875 24.625C11.875 23.5 11.875 23.25 11.875 20.375C11.875 17.5 11.875 17.25 11.875 16.125C11.875 15.125 12.125 14.625 12.25 14.25C12.5 13.75 12.625 13.375 13 13C13.375 12.625 13.75 12.375 14.25 12.25C14.625 12.125 15.125 12 16.125 11.875C17.25 11.875 17.625 11.875 20.375 11.875ZM20.375 10C17.5 10 17.25 10 16.125 10C15 10 14.25 10.25 13.625 10.5C13 10.75 12.375 11.125 11.75 11.75C11.125 12.375 10.875 12.875 10.5 13.625C10.25 14.25 10.125 15 10 16.125C10 17.25 10 17.625 10 20.375C10 23.25 10 23.5 10 24.625C10 25.75 10.25 26.5 10.5 27.125C10.75 27.75 11.125 28.375 11.75 29C12.375 29.625 12.875 29.875 13.625 30.25C14.25 30.5 15 30.625 16.125 30.75C17.25 30.75 17.625 30.75 20.375 30.75C23.125 30.75 23.5 30.75 24.625 30.75C25.75 30.75 26.5 30.5 27.125 30.25C27.75 30 28.375 29.625 29 29C29.625 28.375 29.875 27.875 30.25 27.125C30.5 26.5 30.625 25.75 30.75 24.625C30.75 23.5 30.75 23.125 30.75 20.375C30.75 17.625 30.75 17.25 30.75 16.125C30.75 15 30.5 14.25 30.25 13.625C30 13 29.625 12.375 29 11.75C28.375 11.125 27.875 10.875 27.125 10.5C26.5 10.25 25.75 10.125 24.625 10C23.5 10 23.25 10 20.375 10Z" fill="white"/>
<path d="M20.375 15C17.375 15 15 17.375 15 20.375C15 23.375 17.375 25.75 20.375 25.75C23.375 25.75 25.75 23.375 25.75 20.375C25.75 17.375 23.375 15 20.375 15ZM20.375 23.875C18.5 23.875 16.875 22.375 16.875 20.375C16.875 18.5 18.375 16.875 20.375 16.875C22.25 16.875 23.875 18.375 23.875 20.375C23.875 22.25 22.25 23.875 20.375 23.875Z" fill="white"/>
<path d="M25.875 16.125C26.5654 16.125 27.125 15.5654 27.125 14.875C27.125 14.1846 26.5654 13.625 25.875 13.625C25.1846 13.625 24.625 14.1846 24.625 14.875C24.625 15.5654 25.1846 16.125 25.875 16.125Z" fill="white"/>
</svg>
