<svg width="152" height="110" viewBox="0 0 152 110" fill="none" xmlns="http://www.w3.org/2000/svg">
<g clip-path="url(#clip0_450_1346)">
<path d="M75.683 11.8587C72.7258 13.9386 69.3741 16.296 67.5782 20.1961C64.459 27.0005 73.961 34.4227 74.3671 34.7353C74.4615 34.8079 74.5745 34.8442 74.6871 34.8442C74.8068 34.8442 74.9265 34.8033 75.0238 34.7218C75.2124 34.5641 75.2659 34.2961 75.1526 34.0778C75.1183 34.0116 71.7075 27.3865 71.8343 22.6338C71.8791 20.9784 74.1958 19.1005 76.6483 17.1124C78.8945 15.2914 81.4408 13.2275 82.9306 10.8131C86.2011 5.49857 82.566 0.272796 82.5289 0.220546C82.3845 0.0177948 82.118 -0.0555805 81.8902 0.0442949C81.6625 0.144795 81.5364 0.390921 81.5884 0.634297C81.5958 0.668922 82.3027 4.12469 80.3357 7.68507C79.5254 9.15633 77.7449 10.4086 75.683 11.8587Z" fill="#DB380E"/>
<path d="M88.1423 14.2025C88.3509 14.0453 88.4122 13.7587 88.2861 13.5299C88.1597 13.3012 87.8847 13.2003 87.6404 13.2931C87.1381 13.4841 75.3384 18.0325 75.3384 23.5281C75.3384 27.3165 76.9566 29.3178 78.1383 30.7793C78.6018 31.3525 79.0019 31.8475 79.1338 32.2701C79.505 33.488 78.6255 35.6893 78.2556 36.4348C78.149 36.649 78.2013 36.9088 78.3826 37.0653C78.4806 37.1499 78.603 37.1929 78.7255 37.1929C78.8298 37.1929 78.9345 37.1619 79.025 37.0989C79.2279 36.9579 83.9834 33.5957 83.1305 29.5448C82.8128 28.005 82.0562 26.88 81.3885 25.8872C80.3543 24.3491 79.6073 23.2381 80.7405 21.1861C82.0683 18.7926 88.0814 14.248 88.1423 14.2025Z" fill="#DB380E"/>
<path d="M57.4274 37.2798C57.2252 37.8854 57.3207 38.4861 57.7033 39.0176C58.9824 40.7935 63.5133 41.7713 70.4619 41.7713C70.4622 41.7713 70.4625 41.7713 70.4627 41.7713C71.4042 41.7713 72.3982 41.7528 73.4164 41.7163C84.5258 41.3186 88.6463 37.8576 88.8163 37.7105C89.0016 37.5501 89.0511 37.2831 88.9359 37.0671C88.8207 36.8512 88.5723 36.7428 88.3349 36.8081C84.4223 37.8764 77.1164 38.2556 72.0489 38.2556C66.3785 38.2556 63.4907 37.8471 62.7837 37.5455C63.1465 37.0474 65.384 36.1579 68.1566 35.6125C68.4216 35.5605 68.6037 35.3157 68.5775 35.047C68.5512 34.7782 68.3255 34.5732 68.0553 34.5732C66.4301 34.5732 58.2794 34.7037 57.4274 37.2798Z" fill="#73A1FB"/>
<path d="M94.6018 33.7148C92.3104 33.7148 90.1375 34.8634 90.046 34.912C89.8341 35.0255 89.7266 35.2685 89.7847 35.502C89.8431 35.7351 90.0527 35.899 90.2931 35.8992C90.3417 35.8992 95.1809 35.9389 95.6191 38.7037C96.0074 41.089 91.0405 44.9538 89.0939 46.2418C88.8836 46.3809 88.802 46.6496 88.8996 46.8821C88.9827 47.08 89.1754 47.2038 89.3831 47.2038C89.4194 47.2038 89.4561 47.2 89.4926 47.1923C89.9546 47.0934 100.793 44.7049 99.6474 38.3942C98.9483 34.5267 96.5175 33.7148 94.6018 33.7148Z" fill="#73A1FB"/>
<path d="M87.1684 45.4696C87.2062 45.2675 87.1221 45.0619 86.9538 44.9437L84.3549 43.1233C84.2282 43.0346 84.0681 43.0067 83.9193 43.0461C83.8922 43.053 81.1744 43.7675 77.2287 44.2056C75.6627 44.3812 73.9086 44.474 72.1559 44.474C68.2111 44.474 65.6319 44.0105 65.2562 43.6705C65.2065 43.575 65.2222 43.5316 65.2311 43.5075C65.2994 43.3177 65.6651 43.0922 65.9009 43.003C66.1612 42.9066 66.3016 42.6238 66.2206 42.3583C66.1399 42.0925 65.866 41.9361 65.5957 42.001C62.9887 42.6301 61.714 43.5098 61.8067 44.6157C61.9715 46.5765 66.513 47.5829 70.3524 47.8489C70.9045 47.8866 71.5016 47.9057 72.1268 47.9057C72.1271 47.9057 72.1274 47.9057 72.1278 47.9057C78.512 47.9057 86.6966 45.9026 86.7783 45.8822C86.9782 45.8335 87.1306 45.6721 87.1684 45.4696Z" fill="#73A1FB"/>
<path d="M67.5754 49.6777C67.7722 49.5497 67.8595 49.3063 67.7896 49.0822C67.72 48.858 67.5104 48.7108 67.2749 48.7139C66.9255 48.7232 63.8562 48.8617 63.6413 50.8158C63.5763 51.3998 63.7436 51.9334 64.1387 52.4016C65.2407 53.7076 68.2155 54.4838 73.2314 54.7746C73.8248 54.8102 74.4275 54.8281 75.0231 54.8281C81.4 54.8281 85.6948 52.8314 85.8747 52.7464C86.0491 52.6639 86.1641 52.4926 86.1743 52.3001C86.1846 52.1076 86.0884 51.9249 85.9239 51.8243L82.6395 49.8193C82.5255 49.7498 82.3892 49.7268 82.2592 49.7534C82.2384 49.7578 80.153 50.1903 77.0059 50.6175C76.4104 50.6985 75.6646 50.7397 74.7896 50.7397C71.6459 50.7397 68.1491 50.226 67.4785 49.8897C67.4687 49.8269 67.4811 49.7472 67.5754 49.6777Z" fill="#73A1FB"/>
<path d="M72.0511 60.8566C86.6579 60.8442 94.4976 58.2465 96.0078 56.6119C96.5425 56.0337 96.6002 55.4862 96.5548 55.1285C96.4426 54.2485 95.641 53.7098 95.5501 53.6513C95.3308 53.5103 95.0366 53.5472 94.8656 53.7444C94.695 53.9417 94.691 54.2299 94.8622 54.427C94.9543 54.5455 95.0076 54.7439 94.7382 55.0135C94.1345 55.5774 88.0451 57.289 77.9061 57.8033C76.5173 57.8754 75.0605 57.9122 73.5766 57.9124C64.4987 57.9124 57.8551 56.6689 56.9829 55.9444C57.3191 55.4614 59.6691 54.6898 62.1682 54.2533C62.4498 54.2042 62.6401 53.9388 62.5965 53.6563C62.5528 53.3739 62.2925 53.1795 62.0078 53.2164C61.9373 53.226 61.6981 53.2403 61.4211 53.2573C57.2976 53.509 52.5324 54.0702 52.2838 56.1948C52.2083 56.8422 52.4007 57.4299 52.8558 57.9414C53.9694 59.1927 57.1703 60.8563 72.0506 60.8563C72.0509 60.8566 72.0509 60.8566 72.0511 60.8566Z" fill="#73A1FB"/>
<path d="M98.8767 57.072C98.6702 56.9765 98.4262 57.0248 98.2722 57.191C98.2509 57.2141 96.0547 59.5105 89.4517 60.859C86.9238 61.3655 82.1788 61.6224 75.3484 61.6224C68.5053 61.6224 61.9936 61.3532 61.9287 61.3504C61.6567 61.3372 61.4241 61.5349 61.3871 61.8027C61.35 62.0702 61.5225 62.3224 61.7851 62.3849C61.8529 62.4009 68.677 63.9997 78.0075 63.9997C82.4827 63.9997 86.8374 63.6363 90.9511 62.919C98.6212 61.5744 99.1582 57.7711 99.1774 57.6099C99.2041 57.3845 99.0829 57.1675 98.8767 57.072Z" fill="#73A1FB"/>
</g>
<path d="M59.3479 105.144C58.6039 105.144 57.9079 104.988 57.2599 104.676C56.6119 104.364 56.0839 103.914 55.6759 103.326L56.7199 102.102C57.0679 102.582 57.4579 102.954 57.8899 103.218C58.3339 103.47 58.8199 103.596 59.3479 103.596C60.7879 103.596 61.5079 102.744 61.5079 101.04V93.966H56.9539V92.4H63.2899V100.95C63.2899 102.354 62.9539 103.404 62.2819 104.1C61.6219 104.796 60.6439 105.144 59.3479 105.144ZM72.6264 105V102.984L72.5364 102.606V99.168C72.5364 98.436 72.3204 97.872 71.8884 97.476C71.4684 97.068 70.8324 96.864 69.9804 96.864C69.4164 96.864 68.8644 96.96 68.3244 97.152C67.7844 97.332 67.3284 97.578 66.9564 97.89L66.2364 96.594C66.7284 96.198 67.3164 95.898 68.0004 95.694C68.6964 95.478 69.4224 95.37 70.1784 95.37C71.4864 95.37 72.4944 95.688 73.2024 96.324C73.9104 96.96 74.2644 97.932 74.2644 99.24V105H72.6264ZM69.4944 105.108C68.7864 105.108 68.1624 104.988 67.6224 104.748C67.0944 104.508 66.6864 104.178 66.3984 103.758C66.1104 103.326 65.9664 102.84 65.9664 102.3C65.9664 101.784 66.0864 101.316 66.3264 100.896C66.5784 100.476 66.9804 100.14 67.5324 99.888C68.0964 99.636 68.8524 99.51 69.8004 99.51H72.8244V100.752H69.8724C69.0084 100.752 68.4264 100.896 68.1264 101.184C67.8264 101.472 67.6764 101.82 67.6764 102.228C67.6764 102.696 67.8624 103.074 68.2344 103.362C68.6064 103.638 69.1224 103.776 69.7824 103.776C70.4304 103.776 70.9944 103.632 71.4744 103.344C71.9664 103.056 72.3204 102.636 72.5364 102.084L72.8784 103.272C72.6504 103.836 72.2484 104.286 71.6724 104.622C71.0964 104.946 70.3704 105.108 69.4944 105.108ZM79.7884 105L75.6124 95.46H77.4124L81.1204 104.1H80.2564L84.0364 95.46H85.7284L81.5524 105H79.7884ZM92.9643 105V102.984L92.8743 102.606V99.168C92.8743 98.436 92.6583 97.872 92.2263 97.476C91.8063 97.068 91.1703 96.864 90.3183 96.864C89.7543 96.864 89.2023 96.96 88.6623 97.152C88.1223 97.332 87.6663 97.578 87.2943 97.89L86.5743 96.594C87.0663 96.198 87.6543 95.898 88.3383 95.694C89.0343 95.478 89.7603 95.37 90.5163 95.37C91.8243 95.37 92.8323 95.688 93.5403 96.324C94.2483 96.96 94.6023 97.932 94.6023 99.24V105H92.9643ZM89.8323 105.108C89.1243 105.108 88.5003 104.988 87.9603 104.748C87.4323 104.508 87.0243 104.178 86.7363 103.758C86.4483 103.326 86.3043 102.84 86.3043 102.3C86.3043 101.784 86.4243 101.316 86.6643 100.896C86.9163 100.476 87.3183 100.14 87.8703 99.888C88.4343 99.636 89.1903 99.51 90.1383 99.51H93.1623V100.752H90.2103C89.3463 100.752 88.7643 100.896 88.4643 101.184C88.1643 101.472 88.0143 101.82 88.0143 102.228C88.0143 102.696 88.2003 103.074 88.5723 103.362C88.9443 103.638 89.4603 103.776 90.1203 103.776C90.7683 103.776 91.3323 103.632 91.8123 103.344C92.3043 103.056 92.6583 102.636 92.8743 102.084L93.2163 103.272C92.9883 103.836 92.5863 104.286 92.0103 104.622C91.4343 104.946 90.7083 105.108 89.8323 105.108Z" fill="white"/>
<defs>
<clipPath id="clip0_450_1346">
<rect width="64" height="64" fill="white" transform="translate(44)"/>
</clipPath>
</defs>
</svg>
