<svg width="84" height="84" viewBox="0 0 84 84" fill="none" xmlns="http://www.w3.org/2000/svg">
<g clip-path="url(#clip0_929_2028)">
<path d="M41.584 15.5646C37.7026 18.2944 33.3036 21.3885 30.9465 26.5074C26.8524 35.4382 39.3239 45.1798 39.8569 45.5901C39.9808 45.6854 40.1291 45.733 40.2769 45.733C40.4339 45.733 40.5911 45.6793 40.7187 45.5724C40.9663 45.3653 41.0365 45.0136 40.8879 44.7271C40.8428 44.6402 36.3661 35.9448 36.5325 29.7068C36.5914 27.5341 39.632 25.0694 42.8509 22.46C45.7991 20.0699 49.1411 17.3611 51.0964 14.1922C55.3889 7.21687 50.618 0.358045 50.5692 0.289466C50.3798 0.0233557 50.03 -0.0729494 49.7309 0.058137C49.4321 0.190044 49.2666 0.513084 49.3348 0.832515C49.3445 0.877961 50.2723 5.41365 47.6906 10.0867C46.6271 12.0177 44.2902 13.6613 41.584 15.5646Z" fill="#DB380E"/>
<path d="M57.9367 18.6409C58.2106 18.4347 58.291 18.0585 58.1254 17.7582C57.9595 17.458 57.5986 17.3256 57.278 17.4473C56.6187 17.698 41.1316 23.6678 41.1316 30.8808C41.1316 35.8531 43.2556 38.4797 44.8064 40.398C45.4148 41.1504 45.94 41.8001 46.113 42.3548C46.6003 43.9532 45.446 46.8424 44.9605 47.8208C44.8206 48.1021 44.8891 48.443 45.1272 48.6484C45.2558 48.7595 45.4164 48.8159 45.5772 48.8159C45.714 48.8159 45.8515 48.7752 45.9703 48.6925C46.2366 48.5074 52.4782 44.0945 51.3588 38.7777C50.9417 36.7568 49.9487 35.2802 49.0724 33.9772C47.715 31.9584 46.7345 30.5002 48.2219 27.8069C49.9646 24.6655 57.8568 18.7006 57.9367 18.6409Z" fill="#DB380E"/>
<path d="M17.6233 48.9292C17.3579 49.7241 17.4832 50.5126 17.9854 51.2102C19.6643 53.5411 25.6111 54.8244 34.731 54.8244C34.7315 54.8244 34.7318 54.8244 34.7322 54.8244C35.9679 54.8244 37.2725 54.8001 38.6088 54.7522C53.1899 54.2303 58.5981 49.6877 58.8212 49.4946C59.0644 49.2841 59.1293 48.9337 58.9782 48.6502C58.827 48.3668 58.501 48.2244 58.1894 48.3102C53.0541 49.7123 43.4651 50.2101 36.814 50.2101C29.3716 50.2101 25.5814 49.6739 24.6534 49.278C25.1296 48.6243 28.0663 47.4568 31.7054 46.741C32.0532 46.6727 32.2922 46.3515 32.2578 45.9987C32.2233 45.646 31.927 45.377 31.5725 45.377C29.4393 45.377 18.7416 45.5482 17.6233 48.9292Z" fill="#73A1FB"/>
<path d="M66.4148 44.251C63.4073 44.251 60.5554 45.7584 60.4353 45.8222C60.1573 45.9712 60.0162 46.2901 60.0924 46.5966C60.1691 46.9026 60.4442 47.1177 60.7597 47.118C60.8235 47.118 67.1749 47.17 67.7501 50.7989C68.2597 53.9296 61.7406 59.0021 59.1857 60.6926C58.9097 60.8752 58.8026 61.2279 58.9307 61.5331C59.0398 61.7928 59.2926 61.9552 59.5653 61.9552C59.6129 61.9552 59.6611 61.9503 59.709 61.9401C60.3154 61.8103 74.5413 58.6754 73.0372 50.3927C72.1196 45.3166 68.9292 44.251 66.4148 44.251Z" fill="#73A1FB"/>
<path d="M56.6587 59.6792C56.7082 59.4139 56.5978 59.1441 56.377 58.989L52.966 56.5998C52.7996 56.4833 52.5894 56.4467 52.3942 56.4984C52.3586 56.5074 48.7915 57.4452 43.6127 58.0202C41.5573 58.2507 39.2552 58.3725 36.9547 58.3725C31.7772 58.3725 28.3919 57.7641 27.8989 57.3179C27.8336 57.1925 27.8543 57.1356 27.8659 57.1039C27.9555 56.8549 28.4356 56.5589 28.745 56.4418C29.0867 56.3153 29.271 55.9442 29.1647 55.5957C29.0587 55.2467 28.6992 55.0415 28.3445 55.1266C24.9228 55.9524 23.2497 57.107 23.3714 58.5585C23.5877 61.132 29.5484 62.4529 34.5876 62.802C35.3123 62.8515 36.096 62.8766 36.9165 62.8766C36.917 62.8766 36.9173 62.8766 36.9178 62.8766C45.2972 62.8766 56.0394 60.2475 56.1467 60.2208C56.409 60.1568 56.609 59.945 56.6587 59.6792Z" fill="#73A1FB"/>
<path d="M30.9428 65.2025C31.2012 65.0345 31.3157 64.7151 31.224 64.4209C31.1326 64.1267 30.8575 63.9335 30.5484 63.9376C30.0898 63.9497 26.0614 64.1315 25.7794 66.6963C25.6941 67.4628 25.9136 68.1632 26.4322 68.7776C27.8786 70.4917 31.783 71.5106 38.3663 71.8922C39.1451 71.9389 39.9362 71.9624 40.718 71.9624C49.0877 71.9624 54.7246 69.3418 54.9607 69.2302C55.1895 69.122 55.3405 68.897 55.3539 68.6444C55.3674 68.3917 55.2412 68.152 55.0253 68.0199L50.7145 65.3884C50.5649 65.2972 50.3859 65.267 50.2153 65.3019C50.1881 65.3077 47.451 65.8753 43.3204 66.4361C42.5388 66.5424 41.56 66.5964 40.4115 66.5964C36.2853 66.5964 31.6958 65.9222 30.8156 65.4807C30.8028 65.3984 30.8191 65.2937 30.9428 65.2025Z" fill="#73A1FB"/>
<path d="M36.8171 79.8744C55.9886 79.8582 66.2781 76.4488 68.2603 74.3033C68.962 73.5444 69.0378 72.8258 68.9783 72.3564C68.831 71.2014 67.7788 70.4943 67.6595 70.4175C67.3718 70.2324 66.9856 70.2808 66.7611 70.5397C66.5372 70.7986 66.5319 71.1769 66.7567 71.4357C66.8776 71.5912 66.9475 71.8516 66.5939 72.2054C65.8015 72.9455 57.8092 75.192 44.5019 75.867C42.679 75.9617 40.767 76.0099 38.8194 76.0102C26.9046 76.0102 18.1848 74.3781 17.0402 73.4272C17.4813 72.7933 20.5657 71.7805 23.8458 71.2076C24.2155 71.1431 24.4652 70.7948 24.4079 70.424C24.3506 70.0534 24.0089 69.7983 23.6353 69.8467C23.5428 69.8593 23.2288 69.878 22.8652 69.9004C17.4531 70.2308 11.1989 70.9673 10.8725 73.7558C10.7734 74.6055 11.0259 75.3769 11.6233 76.0483C13.0849 77.6906 17.2861 79.8741 36.8165 79.8741C36.8168 79.8744 36.8168 79.8744 36.8171 79.8744Z" fill="#73A1FB"/>
<path d="M72.026 74.9075C71.7549 74.7822 71.4347 74.8455 71.2325 75.0637C71.2045 75.094 68.3221 78.108 59.6556 79.878C56.3377 80.5427 50.1099 80.8799 41.145 80.8799C32.1634 80.8799 23.6168 80.5265 23.5317 80.5229C23.1747 80.5055 22.8694 80.765 22.8208 81.1165C22.7721 81.4676 22.9985 81.7986 23.3432 81.8807C23.4321 81.9017 32.3888 84 44.6351 84C50.5087 84 56.2244 83.5231 61.6235 82.5817C71.6906 80.8169 72.3954 75.8251 72.4205 75.6135C72.4556 75.3177 72.2965 75.0328 72.026 74.9075Z" fill="#73A1FB"/>
</g>
<defs>
<clipPath id="clip0_929_2028">
<rect width="84" height="84" fill="white"/>
</clipPath>
</defs>
</svg>
