<svg width="64" height="64" viewBox="0 0 64 64" fill="none" xmlns="http://www.w3.org/2000/svg">
<g clip-path="url(#clip0_450_1347)">
<path d="M31.683 11.8587C28.7258 13.9386 25.3741 16.296 23.5782 20.1961C20.459 27.0005 29.961 34.4227 30.3671 34.7353C30.4615 34.8079 30.5745 34.8442 30.6871 34.8442C30.8068 34.8442 30.9265 34.8033 31.0238 34.7218C31.2124 34.5641 31.2659 34.2961 31.1526 34.0778C31.1183 34.0116 27.7075 27.3865 27.8343 22.6338C27.8791 20.9784 30.1958 19.1005 32.6483 17.1124C34.8945 15.2914 37.4408 13.2275 38.9306 10.8131C42.2011 5.49857 38.566 0.272796 38.5289 0.220546C38.3845 0.0177948 38.118 -0.0555805 37.8902 0.0442949C37.6625 0.144795 37.5364 0.390921 37.5884 0.634297C37.5958 0.668922 38.3027 4.12469 36.3357 7.68507C35.5254 9.15633 33.7449 10.4086 31.683 11.8587Z" fill="#DB380E"/>
<path d="M44.1423 14.2025C44.3509 14.0453 44.4122 13.7587 44.2861 13.5299C44.1597 13.3012 43.8847 13.2003 43.6404 13.2931C43.1381 13.4841 31.3384 18.0325 31.3384 23.5281C31.3384 27.3165 32.9566 29.3178 34.1383 30.7793C34.6018 31.3525 35.0019 31.8475 35.1338 32.2701C35.505 33.488 34.6255 35.6893 34.2556 36.4348C34.149 36.649 34.2013 36.9088 34.3826 37.0653C34.4806 37.1499 34.603 37.1929 34.7255 37.1929C34.8298 37.1929 34.9345 37.1619 35.025 37.0989C35.2279 36.9579 39.9834 33.5957 39.1305 29.5448C38.8128 28.005 38.0562 26.88 37.3885 25.8872C36.3543 24.3491 35.6073 23.2381 36.7405 21.1861C38.0683 18.7926 44.0814 14.248 44.1423 14.2025Z" fill="#DB380E"/>
<path d="M13.4274 37.2798C13.2252 37.8854 13.3207 38.4861 13.7033 39.0176C14.9824 40.7935 19.5133 41.7713 26.4619 41.7713C26.4622 41.7713 26.4625 41.7713 26.4627 41.7713C27.4042 41.7713 28.3982 41.7528 29.4164 41.7163C40.5258 41.3186 44.6463 37.8576 44.8163 37.7105C45.0016 37.5501 45.0511 37.2831 44.9359 37.0671C44.8207 36.8512 44.5723 36.7428 44.3349 36.8081C40.4223 37.8764 33.1164 38.2556 28.0489 38.2556C22.3785 38.2556 19.4907 37.8471 18.7837 37.5455C19.1465 37.0474 21.384 36.1579 24.1566 35.6125C24.4216 35.5605 24.6037 35.3157 24.5775 35.047C24.5512 34.7782 24.3255 34.5732 24.0553 34.5732C22.4301 34.5732 14.2794 34.7037 13.4274 37.2798Z" fill="#73A1FB"/>
<path d="M50.6018 33.7148C48.3104 33.7148 46.1375 34.8634 46.046 34.912C45.8341 35.0255 45.7266 35.2685 45.7847 35.502C45.8431 35.7351 46.0527 35.899 46.2931 35.8992C46.3417 35.8992 51.1809 35.9389 51.6191 38.7037C52.0074 41.089 47.0405 44.9538 45.0939 46.2418C44.8836 46.3809 44.802 46.6496 44.8996 46.8821C44.9827 47.08 45.1754 47.2038 45.3831 47.2038C45.4194 47.2038 45.4561 47.2 45.4926 47.1923C45.9546 47.0934 56.7934 44.7049 55.6474 38.3942C54.9483 34.5267 52.5175 33.7148 50.6018 33.7148Z" fill="#73A1FB"/>
<path d="M43.1684 45.4696C43.2062 45.2675 43.1221 45.0619 42.9538 44.9437L40.3549 43.1233C40.2282 43.0346 40.0681 43.0067 39.9193 43.0461C39.8922 43.053 37.1744 43.7675 33.2287 44.2056C31.6627 44.3812 29.9086 44.474 28.1559 44.474C24.2111 44.474 21.6319 44.0105 21.2562 43.6705C21.2065 43.575 21.2222 43.5316 21.2311 43.5075C21.2994 43.3177 21.6651 43.0922 21.9009 43.003C22.1612 42.9066 22.3016 42.6238 22.2206 42.3583C22.1399 42.0925 21.866 41.9361 21.5957 42.001C18.9887 42.6301 17.714 43.5098 17.8067 44.6157C17.9715 46.5765 22.513 47.5829 26.3524 47.8489C26.9045 47.8866 27.5016 47.9057 28.1268 47.9057C28.1271 47.9057 28.1274 47.9057 28.1278 47.9057C34.512 47.9057 42.6966 45.9026 42.7783 45.8822C42.9782 45.8335 43.1306 45.6721 43.1684 45.4696Z" fill="#73A1FB"/>
<path d="M23.5754 49.6777C23.7722 49.5497 23.8595 49.3063 23.7896 49.0822C23.72 48.858 23.5104 48.7108 23.2749 48.7139C22.9255 48.7232 19.8562 48.8617 19.6413 50.8158C19.5763 51.3998 19.7436 51.9334 20.1387 52.4016C21.2407 53.7076 24.2155 54.4838 29.2314 54.7746C29.8248 54.8102 30.4275 54.8281 31.0231 54.8281C37.4 54.8281 41.6948 52.8314 41.8747 52.7464C42.0491 52.6639 42.1641 52.4926 42.1743 52.3001C42.1846 52.1076 42.0884 51.9249 41.9239 51.8243L38.6395 49.8193C38.5255 49.7498 38.3892 49.7268 38.2592 49.7534C38.2384 49.7578 36.153 50.1903 33.0059 50.6175C32.4104 50.6985 31.6646 50.7397 30.7896 50.7397C27.6459 50.7397 24.1491 50.226 23.4785 49.8897C23.4687 49.8269 23.4811 49.7472 23.5754 49.6777Z" fill="#73A1FB"/>
<path d="M28.0511 60.8566C42.6579 60.8442 50.4976 58.2465 52.0078 56.6119C52.5425 56.0337 52.6002 55.4862 52.5548 55.1285C52.4426 54.2485 51.641 53.7098 51.5501 53.6513C51.3308 53.5103 51.0366 53.5472 50.8656 53.7444C50.695 53.9417 50.691 54.2299 50.8622 54.427C50.9543 54.5455 51.0076 54.7439 50.7382 55.0135C50.1345 55.5774 44.0451 57.289 33.9061 57.8033C32.5173 57.8754 31.0605 57.9122 29.5766 57.9124C20.4987 57.9124 13.8551 56.6689 12.9829 55.9444C13.3191 55.4614 15.6691 54.6898 18.1682 54.2533C18.4498 54.2042 18.6401 53.9388 18.5965 53.6563C18.5528 53.3739 18.2925 53.1795 18.0078 53.2164C17.9373 53.226 17.6981 53.2403 17.4211 53.2573C13.2976 53.509 8.53242 54.0702 8.2838 56.1948C8.2083 56.8422 8.40067 57.4299 8.8558 57.9414C9.96943 59.1927 13.1703 60.8563 28.0506 60.8563C28.0509 60.8566 28.0509 60.8566 28.0511 60.8566Z" fill="#73A1FB"/>
<path d="M54.8767 57.072C54.6702 56.9765 54.4262 57.0248 54.2722 57.191C54.2509 57.2141 52.0547 59.5105 45.4517 60.859C42.9238 61.3655 38.1788 61.6224 31.3484 61.6224C24.5053 61.6224 17.9936 61.3532 17.9287 61.3504C17.6567 61.3372 17.4241 61.5349 17.3871 61.8027C17.35 62.0702 17.5225 62.3224 17.7851 62.3849C17.8529 62.4009 24.677 63.9997 34.0075 63.9997C38.4827 63.9997 42.8374 63.6363 46.9511 62.919C54.6212 61.5744 55.1582 57.7711 55.1774 57.6099C55.2041 57.3845 55.0829 57.1675 54.8767 57.072Z" fill="#73A1FB"/>
</g>
<defs>
<clipPath id="clip0_450_1347">
<rect width="64" height="64" fill="white"/>
</clipPath>
</defs>
</svg>
