<svg width="152" height="110" viewBox="0 0 152 110" fill="none" xmlns="http://www.w3.org/2000/svg">
<path d="M44 64H108V0H44V64Z" fill="#9777A8"/>
<path d="M93.6556 59.5855C88.1792 59.5855 83.7246 55.1297 83.7246 49.6545C83.7246 49.0454 84.2179 48.551 84.8281 48.551C85.4384 48.551 85.9316 49.0454 85.9316 49.6545C85.9316 53.9137 89.3975 57.3786 93.6557 57.3786C97.914 57.3786 101.38 53.9137 101.38 49.6545C101.38 45.3952 97.914 41.9304 93.6557 41.9304C88.1794 41.9304 83.7247 37.4746 83.7247 31.9994C83.7247 26.5241 88.1794 22.0684 93.6557 22.0684C99.1321 22.0684 103.587 26.524 103.587 31.9992C103.587 32.6084 103.093 33.1027 102.483 33.1027C101.873 33.1027 101.38 32.6084 101.38 31.9992C101.38 27.74 97.9139 24.2751 93.6556 24.2751C89.3974 24.2751 85.9315 27.74 85.9315 31.9992C85.9315 36.2585 89.3974 39.7234 93.6556 39.7234C99.132 39.7234 103.587 44.1791 103.587 49.6544C103.587 55.1296 99.1321 59.5855 93.6556 59.5855Z" fill="white"/>
<path d="M70.4828 59.5857C65.0064 59.5857 60.5518 55.13 60.5518 49.6547C60.5518 49.0456 61.045 48.5512 61.6553 48.5512C62.2655 48.5512 62.7588 49.0456 62.7588 49.6547C62.7588 53.914 66.2246 57.3789 70.4829 57.3789C74.7411 57.3789 78.207 53.914 78.207 49.6547V23.1719C78.207 22.5627 78.7003 22.0684 79.3105 22.0684C79.9208 22.0684 80.414 22.5627 80.414 23.1719V49.6546C80.4138 55.13 75.9591 59.5857 70.4828 59.5857Z" fill="white"/>
<path d="M30.1946 105.144C29.4386 105.144 28.7366 104.988 28.0886 104.676C27.4406 104.352 26.9186 103.902 26.5226 103.326L27.5666 102.102C28.2626 103.098 29.1386 103.596 30.1946 103.596C30.9026 103.596 31.4366 103.38 31.7966 102.948C32.1686 102.516 32.3546 101.88 32.3546 101.04V93.966H27.8006V92.4H34.1366V100.95C34.1366 102.342 33.8006 103.392 33.1286 104.1C32.4686 104.796 31.4906 105.144 30.1946 105.144ZM41.0251 95.37C42.3451 95.37 43.3531 95.694 44.0491 96.342C44.7571 96.99 45.1111 97.956 45.1111 99.24V105H43.4731V103.74C43.1851 104.184 42.7711 104.526 42.2311 104.766C41.7031 104.994 41.0731 105.108 40.3411 105.108C39.2731 105.108 38.4151 104.85 37.7671 104.334C37.1311 103.818 36.8131 103.14 36.8131 102.3C36.8131 101.46 37.1191 100.788 37.7311 100.284C38.3431 99.768 39.3151 99.51 40.6471 99.51H43.3831V99.168C43.3831 98.424 43.1671 97.854 42.7351 97.458C42.3031 97.062 41.6671 96.864 40.8271 96.864C40.2631 96.864 39.7111 96.96 39.1711 97.152C38.6311 97.332 38.1751 97.578 37.8031 97.89L37.0831 96.594C37.5751 96.198 38.1631 95.898 38.8471 95.694C39.5311 95.478 40.2571 95.37 41.0251 95.37ZM40.6291 103.776C41.2891 103.776 41.8591 103.632 42.3391 103.344C42.8191 103.044 43.1671 102.624 43.3831 102.084V100.752H40.7191C39.2551 100.752 38.5231 101.244 38.5231 102.228C38.5231 102.708 38.7091 103.086 39.0811 103.362C39.4531 103.638 39.9691 103.776 40.6291 103.776ZM56.5751 95.46L52.3991 105H50.6351L46.4591 95.46H48.2591L51.5351 103.11L54.8831 95.46H56.5751ZM61.363 95.37C62.683 95.37 63.691 95.694 64.387 96.342C65.095 96.99 65.449 97.956 65.449 99.24V105H63.811V103.74C63.523 104.184 63.109 104.526 62.569 104.766C62.041 104.994 61.411 105.108 60.679 105.108C59.611 105.108 58.753 104.85 58.105 104.334C57.469 103.818 57.151 103.14 57.151 102.3C57.151 101.46 57.457 100.788 58.069 100.284C58.681 99.768 59.653 99.51 60.985 99.51H63.721V99.168C63.721 98.424 63.505 97.854 63.073 97.458C62.641 97.062 62.005 96.864 61.165 96.864C60.601 96.864 60.049 96.96 59.509 97.152C58.969 97.332 58.513 97.578 58.141 97.89L57.421 96.594C57.913 96.198 58.501 95.898 59.185 95.694C59.869 95.478 60.595 95.37 61.363 95.37ZM60.967 103.776C61.627 103.776 62.197 103.632 62.677 103.344C63.157 103.044 63.505 102.624 63.721 102.084V100.752H61.057C59.593 100.752 58.861 101.244 58.861 102.228C58.861 102.708 59.047 103.086 59.419 103.362C59.791 103.638 60.307 103.776 60.967 103.776ZM77.4048 105.144C76.4568 105.144 75.5388 105 74.6508 104.712C73.7748 104.412 73.0848 104.028 72.5808 103.56L73.2468 102.156C73.7268 102.588 74.3388 102.942 75.0828 103.218C75.8388 103.482 76.6128 103.614 77.4048 103.614C78.4488 103.614 79.2288 103.44 79.7448 103.092C80.2608 102.732 80.5188 102.258 80.5188 101.67C80.5188 101.238 80.3748 100.89 80.0868 100.626C79.8108 100.35 79.4628 100.14 79.0428 99.996C78.6348 99.852 78.0528 99.69 77.2968 99.51C76.3488 99.282 75.5808 99.054 74.9928 98.826C74.4168 98.598 73.9188 98.25 73.4988 97.782C73.0908 97.302 72.8868 96.66 72.8868 95.856C72.8868 95.184 73.0608 94.578 73.4088 94.038C73.7688 93.498 74.3088 93.066 75.0288 92.742C75.7488 92.418 76.6428 92.256 77.7108 92.256C78.4548 92.256 79.1868 92.352 79.9068 92.544C80.6268 92.736 81.2448 93.012 81.7608 93.372L81.1668 94.812C80.6388 94.476 80.0748 94.224 79.4748 94.056C78.8748 93.876 78.2868 93.786 77.7108 93.786C76.6908 93.786 75.9228 93.972 75.4068 94.344C74.9028 94.716 74.6508 95.196 74.6508 95.784C74.6508 96.216 74.7948 96.57 75.0828 96.846C75.3708 97.11 75.7248 97.32 76.1448 97.476C76.5768 97.62 77.1588 97.776 77.8908 97.944C78.8388 98.172 79.6008 98.4 80.1768 98.628C80.7528 98.856 81.2448 99.204 81.6528 99.672C82.0728 100.14 82.2828 100.77 82.2828 101.562C82.2828 102.222 82.1028 102.828 81.7428 103.38C81.3828 103.92 80.8368 104.352 80.1048 104.676C79.3728 104.988 78.4728 105.144 77.4048 105.144ZM88.8185 105.108C87.8465 105.108 86.9765 104.898 86.2085 104.478C85.4525 104.058 84.8585 103.482 84.4265 102.75C83.9945 102.006 83.7785 101.166 83.7785 100.23C83.7785 99.294 83.9945 98.46 84.4265 97.728C84.8585 96.984 85.4525 96.408 86.2085 96C86.9765 95.58 87.8465 95.37 88.8185 95.37C89.6825 95.37 90.4505 95.544 91.1225 95.892C91.8065 96.24 92.3345 96.744 92.7065 97.404L91.3925 98.25C91.0925 97.794 90.7205 97.452 90.2765 97.224C89.8325 96.996 89.3405 96.882 88.8005 96.882C88.1765 96.882 87.6125 97.02 87.1085 97.296C86.6165 97.572 86.2265 97.968 85.9385 98.484C85.6625 98.988 85.5245 99.57 85.5245 100.23C85.5245 100.902 85.6625 101.496 85.9385 102.012C86.2265 102.516 86.6165 102.906 87.1085 103.182C87.6125 103.458 88.1765 103.596 88.8005 103.596C89.3405 103.596 89.8325 103.482 90.2765 103.254C90.7205 103.026 91.0925 102.684 91.3925 102.228L92.7065 103.056C92.3345 103.716 91.8065 104.226 91.1225 104.586C90.4505 104.934 89.6825 105.108 88.8185 105.108ZM96.5997 97.062C96.8997 96.51 97.3437 96.09 97.9317 95.802C98.5197 95.514 99.2337 95.37 100.074 95.37V97.044C99.9777 97.032 99.8457 97.026 99.6777 97.026C98.7417 97.026 98.0037 97.308 97.4637 97.872C96.9357 98.424 96.6717 99.216 96.6717 100.248V105H94.9437V95.46H96.5997V97.062ZM102.203 95.46H103.931V105H102.203V95.46ZM103.067 93.624C102.731 93.624 102.449 93.516 102.221 93.3C102.005 93.084 101.897 92.82 101.897 92.508C101.897 92.196 102.005 91.932 102.221 91.716C102.449 91.488 102.731 91.374 103.067 91.374C103.403 91.374 103.679 91.482 103.895 91.698C104.123 91.902 104.237 92.16 104.237 92.472C104.237 92.796 104.123 93.072 103.895 93.3C103.679 93.516 103.403 93.624 103.067 93.624ZM112.289 95.37C113.213 95.37 114.041 95.574 114.773 95.982C115.505 96.39 116.075 96.96 116.483 97.692C116.903 98.424 117.113 99.27 117.113 100.23C117.113 101.19 116.903 102.042 116.483 102.786C116.075 103.518 115.505 104.088 114.773 104.496C114.041 104.904 113.213 105.108 112.289 105.108C111.605 105.108 110.975 104.976 110.399 104.712C109.835 104.448 109.355 104.064 108.959 103.56V108.492H107.231V95.46H108.887V96.972C109.271 96.444 109.757 96.048 110.345 95.784C110.933 95.508 111.581 95.37 112.289 95.37ZM112.145 103.596C112.757 103.596 113.303 103.458 113.783 103.182C114.275 102.894 114.659 102.498 114.935 101.994C115.223 101.478 115.367 100.89 115.367 100.23C115.367 99.57 115.223 98.988 114.935 98.484C114.659 97.968 114.275 97.572 113.783 97.296C113.303 97.02 112.757 96.882 112.145 96.882C111.545 96.882 110.999 97.026 110.507 97.314C110.027 97.59 109.643 97.98 109.355 98.484C109.079 98.988 108.941 99.57 108.941 100.23C108.941 100.89 109.079 101.478 109.355 101.994C109.631 102.498 110.015 102.894 110.507 103.182C110.999 103.458 111.545 103.596 112.145 103.596ZM124.864 104.442C124.612 104.658 124.3 104.826 123.928 104.946C123.556 105.054 123.172 105.108 122.776 105.108C121.816 105.108 121.072 104.85 120.544 104.334C120.016 103.818 119.752 103.08 119.752 102.12V96.882H118.132V95.46H119.752V93.372H121.48V95.46H124.216V96.882H121.48V102.048C121.48 102.564 121.606 102.96 121.858 103.236C122.122 103.512 122.494 103.65 122.974 103.65C123.502 103.65 123.952 103.5 124.324 103.2L124.864 104.442Z" fill="white"/>
</svg>
