<svg width="64" height="64" viewBox="0 0 64 64" fill="none" xmlns="http://www.w3.org/2000/svg">
<path d="M0 64H64V0H0V64Z" fill="#9777A8"/>
<path d="M49.6556 59.5855C44.1792 59.5855 39.7246 55.1297 39.7246 49.6545C39.7246 49.0454 40.2179 48.551 40.8281 48.551C41.4384 48.551 41.9316 49.0454 41.9316 49.6545C41.9316 53.9137 45.3975 57.3786 49.6557 57.3786C53.914 57.3786 57.3799 53.9137 57.3799 49.6545C57.3799 45.3952 53.914 41.9304 49.6557 41.9304C44.1794 41.9304 39.7247 37.4746 39.7247 31.9994C39.7247 26.5241 44.1794 22.0684 49.6557 22.0684C55.1321 22.0684 59.5867 26.524 59.5867 31.9992C59.5867 32.6084 59.0935 33.1027 58.4832 33.1027C57.873 33.1027 57.3797 32.6084 57.3797 31.9992C57.3797 27.74 53.9139 24.2751 49.6556 24.2751C45.3974 24.2751 41.9315 27.74 41.9315 31.9992C41.9315 36.2585 45.3974 39.7234 49.6556 39.7234C55.132 39.7234 59.5866 44.1791 59.5866 49.6544C59.5866 55.1296 55.1321 59.5855 49.6556 59.5855Z" fill="white"/>
<path d="M26.4828 59.5857C21.0064 59.5857 16.5518 55.13 16.5518 49.6547C16.5518 49.0456 17.045 48.5512 17.6553 48.5512C18.2655 48.5512 18.7588 49.0456 18.7588 49.6547C18.7588 53.914 22.2246 57.3789 26.4829 57.3789C30.7411 57.3789 34.207 53.914 34.207 49.6547V23.1719C34.207 22.5627 34.7003 22.0684 35.3105 22.0684C35.9208 22.0684 36.414 22.5627 36.414 23.1719V49.6546C36.4138 55.13 31.9591 59.5857 26.4828 59.5857Z" fill="white"/>
</svg>
