<svg width="48" height="106" viewBox="0 0 48 106" fill="none" xmlns="http://www.w3.org/2000/svg">
<path d="M24.9995 44.0007H8.15945C5.83945 44.0007 3.93945 42.1407 3.93945 39.8607V10.1807C3.93945 4.9407 7.83945 2.5607 12.6195 4.9007L21.4995 9.2607C23.4195 10.2007 24.9995 12.7007 24.9995 14.8207V44.0007Z" stroke="#0360B2" stroke-width="1.5" stroke-linecap="round" stroke-linejoin="round"/>
<path d="M43.9395 30.1198V37.6798C43.9395 41.9998 41.9395 43.9998 37.6195 43.9998H24.9995V20.8398L25.9395 21.0398L34.9395 23.0598L38.9995 23.9598C41.6395 24.5398 43.7995 25.8998 43.9195 29.7398C43.9395 29.8598 43.9395 29.9798 43.9395 30.1198Z" stroke="#0360B2" stroke-width="1.5" stroke-linecap="round" stroke-linejoin="round"/>
<path d="M10.9995 18H17.9395" stroke="#7DE2B7" stroke-width="1.5" stroke-linecap="round" stroke-linejoin="round"/>
<path d="M10.9995 26H17.9395" stroke="#7DE2B7" stroke-width="1.5" stroke-linecap="round" stroke-linejoin="round"/>
<path d="M34.9395 23.061V29.501C34.9395 31.981 32.9195 34.001 30.4395 34.001C27.9595 34.001 25.9395 31.981 25.9395 29.501V21.041L34.9395 23.061Z" stroke="#0360B2" stroke-width="1.5" stroke-linecap="round" stroke-linejoin="round"/>
<path d="M43.9195 29.7405C43.7995 32.1005 41.8395 34.0005 39.4395 34.0005C36.9595 34.0005 34.9395 31.9805 34.9395 29.5005V23.0605L38.9995 23.9605C41.6395 24.5405 43.7995 25.9005 43.9195 29.7405Z" stroke="#0360B2" stroke-width="1.5" stroke-linecap="round" stroke-linejoin="round"/>
<path d="M21.4772 84V96.24H27.5172V98H19.6172V84H21.4772Z" fill="#111714"/>
</svg>
