<svg width="120" height="106" viewBox="0 0 120 106" fill="none" xmlns="http://www.w3.org/2000/svg">
<path d="M62 38H50C42 38 40 36 40 28V20C40 12 42 10 50 10H62C70 10 72 12 72 20V28C72 36 70 38 62 38Z" stroke="#0360B2" stroke-width="1.5" stroke-linecap="round" stroke-linejoin="round"/>
<path d="M77 19C80 19 80 20 80 22V26C80 28 80 29 77 29" stroke="#7DE2B7" stroke-width="1.5" stroke-linecap="round" stroke-linejoin="round"/>
<path d="M3.72133 84V96.24H9.76133V98H1.86133V84H3.72133ZM20.6563 93.8H12.2763C12.4497 94.68 12.8563 95.3733 13.4963 95.88C14.1363 96.3733 14.9363 96.62 15.8963 96.62C17.2163 96.62 18.1763 96.1333 18.7763 95.16L20.2563 96C19.2697 97.5067 17.803 98.26 15.8563 98.26C14.283 98.26 12.9897 97.7667 11.9763 96.78C10.9897 95.7667 10.4963 94.5067 10.4963 93C10.4963 91.48 10.983 90.2267 11.9563 89.24C12.9297 88.24 14.1897 87.74 15.7363 87.74C17.203 87.74 18.3963 88.26 19.3163 89.3C20.2497 90.3133 20.7163 91.5533 20.7163 93.02C20.7163 93.2733 20.6963 93.5333 20.6563 93.8ZM15.7363 89.38C14.8163 89.38 14.043 89.64 13.4163 90.16C12.803 90.68 12.423 91.3867 12.2763 92.28H18.9563C18.8097 91.36 18.443 90.6467 17.8563 90.14C17.2697 89.6333 16.563 89.38 15.7363 89.38ZM23.8259 90.7C23.8259 91.34 24.4859 91.84 25.8059 92.2C26.2992 92.3067 26.7125 92.42 27.0459 92.54C27.3925 92.6467 27.7659 92.8133 28.1659 93.04C28.5792 93.2667 28.8925 93.5667 29.1059 93.94C29.3192 94.3133 29.4259 94.7533 29.4259 95.26C29.4259 96.1667 29.0725 96.8933 28.3659 97.44C27.6592 97.9867 26.7659 98.26 25.6859 98.26C24.7259 98.26 23.8925 98.0533 23.1859 97.64C22.4925 97.2133 21.9992 96.64 21.7059 95.92L23.2059 95.06C23.3659 95.54 23.6659 95.92 24.1059 96.2C24.5459 96.48 25.0725 96.62 25.6859 96.62C26.2859 96.62 26.7659 96.5067 27.1259 96.28C27.4859 96.0533 27.6659 95.7133 27.6659 95.26C27.6659 94.58 27.0059 94.0867 25.6859 93.78C25.2459 93.66 24.9125 93.5667 24.6859 93.5C24.4592 93.4333 24.1459 93.3133 23.7459 93.14C23.3592 92.9667 23.0659 92.7867 22.8659 92.6C22.6659 92.4 22.4792 92.14 22.3059 91.82C22.1459 91.4867 22.0659 91.12 22.0659 90.72C22.0659 89.8533 22.3992 89.14 23.0659 88.58C23.7459 88.02 24.5925 87.74 25.6059 87.74C26.4192 87.74 27.1392 87.9267 27.7659 88.3C28.4059 88.66 28.8859 89.1667 29.2059 89.82L27.7459 90.64C27.3859 89.7867 26.6725 89.36 25.6059 89.36C25.0992 89.36 24.6725 89.48 24.3259 89.72C23.9925 89.96 23.8259 90.2867 23.8259 90.7ZM32.361 90.7C32.361 91.34 33.021 91.84 34.341 92.2C34.8343 92.3067 35.2477 92.42 35.581 92.54C35.9277 92.6467 36.301 92.8133 36.701 93.04C37.1143 93.2667 37.4277 93.5667 37.641 93.94C37.8543 94.3133 37.961 94.7533 37.961 95.26C37.961 96.1667 37.6077 96.8933 36.901 97.44C36.1943 97.9867 35.301 98.26 34.221 98.26C33.261 98.26 32.4277 98.0533 31.721 97.64C31.0277 97.2133 30.5343 96.64 30.241 95.92L31.741 95.06C31.901 95.54 32.201 95.92 32.641 96.2C33.081 96.48 33.6077 96.62 34.221 96.62C34.821 96.62 35.301 96.5067 35.661 96.28C36.021 96.0533 36.201 95.7133 36.201 95.26C36.201 94.58 35.541 94.0867 34.221 93.78C33.781 93.66 33.4477 93.5667 33.221 93.5C32.9943 93.4333 32.681 93.3133 32.281 93.14C31.8943 92.9667 31.601 92.7867 31.401 92.6C31.201 92.4 31.0143 92.14 30.841 91.82C30.681 91.4867 30.601 91.12 30.601 90.72C30.601 89.8533 30.9343 89.14 31.601 88.58C32.281 88.02 33.1277 87.74 34.141 87.74C34.9543 87.74 35.6743 87.9267 36.301 88.3C36.941 88.66 37.421 89.1667 37.741 89.82L36.281 90.64C35.921 89.7867 35.2077 89.36 34.141 89.36C33.6343 89.36 33.2077 89.48 32.861 89.72C32.5277 89.96 32.361 90.2867 32.361 90.7ZM50.4612 88V89.68H47.8012V95.1C47.8012 95.5933 47.8945 95.9467 48.0812 96.16C48.2812 96.36 48.5812 96.4667 48.9812 96.48C49.3812 96.48 49.8745 96.4667 50.4612 96.44V98C48.9278 98.2 47.8078 98.0733 47.1012 97.62C46.4078 97.1667 46.0612 96.3267 46.0612 95.1V89.68H44.0812V88H46.0612V85.72L47.8012 85.2V88H50.4612ZM57.5012 87.74C58.6745 87.74 59.6145 88.1133 60.3212 88.86C61.0278 89.5933 61.3812 90.5933 61.3812 91.86V98H59.6412V91.96C59.6412 91.16 59.4212 90.5333 58.9812 90.08C58.5412 89.6267 57.9345 89.4 57.1612 89.4C56.2678 89.4 55.5612 89.68 55.0412 90.24C54.5212 90.7867 54.2612 91.6067 54.2612 92.7V98H52.5212V84H54.2612V89.44C54.9545 88.3067 56.0345 87.74 57.5012 87.74ZM72.0902 89.72V88H73.8302V98H72.0902V96.28C71.2369 97.6 69.9769 98.26 68.3102 98.26C66.8969 98.26 65.7036 97.7533 64.7302 96.74C63.7436 95.7133 63.2502 94.4667 63.2502 93C63.2502 91.5467 63.7436 90.3067 64.7302 89.28C65.7169 88.2533 66.9102 87.74 68.3102 87.74C69.9769 87.74 71.2369 88.4 72.0902 89.72ZM68.5302 96.58C69.5436 96.58 70.3902 96.24 71.0702 95.56C71.7502 94.8533 72.0902 94 72.0902 93C72.0902 91.9867 71.7502 91.14 71.0702 90.46C70.3902 89.7667 69.5436 89.42 68.5302 89.42C67.5302 89.42 66.6902 89.7667 66.0102 90.46C65.3302 91.14 64.9902 91.9867 64.9902 93C64.9902 94 65.3302 94.8533 66.0102 95.56C66.6902 96.24 67.5302 96.58 68.5302 96.58ZM81.4465 87.74C82.6198 87.74 83.5598 88.1133 84.2665 88.86C84.9732 89.5933 85.3265 90.5933 85.3265 91.86V98H83.5865V91.96C83.5865 91.16 83.3665 90.5333 82.9265 90.08C82.4865 89.6267 81.8798 89.4 81.1065 89.4C80.2132 89.4 79.5065 89.68 78.9865 90.24C78.4665 90.7867 78.2065 91.6067 78.2065 92.7V98H76.4665V88H78.2065V89.44C78.8998 88.3067 79.9798 87.74 81.4465 87.74ZM101.736 94.26C101.736 95.3667 101.376 96.2667 100.656 96.96C99.9355 97.6533 99.0022 98.0733 97.8555 98.22V100H96.5955V98.24C95.5155 98.16 94.5889 97.86 93.8155 97.34C93.0422 96.82 92.4822 96.12 92.1355 95.24L93.7355 94.32C94.2022 95.56 95.1555 96.26 96.5955 96.42V91.58C95.5022 91.1933 94.6355 90.7533 93.9955 90.26C93.2089 89.6467 92.8155 88.7533 92.8155 87.58C92.8155 86.5 93.1755 85.62 93.8955 84.94C94.6289 84.2467 95.5289 83.8533 96.5955 83.76V82H97.8555V83.78C99.5489 84.0067 100.749 84.9 101.456 86.46L99.8955 87.34C99.5089 86.3667 98.8289 85.7867 97.8555 85.6V90.2C98.4555 90.4133 98.9422 90.6133 99.3155 90.8C99.7155 91 100.109 91.2467 100.496 91.54C101.322 92.14 101.736 93.0467 101.736 94.26ZM94.6555 87.58C94.6555 88.0733 94.8022 88.4867 95.0955 88.82C95.4022 89.14 95.9022 89.44 96.5955 89.72V85.58C95.9955 85.66 95.5222 85.88 95.1755 86.24C94.8289 86.5867 94.6555 87.0333 94.6555 87.58ZM97.8555 92.04V96.38C98.4822 96.2867 98.9755 96.0533 99.3355 95.68C99.6955 95.3067 99.8755 94.84 99.8755 94.28C99.8755 93.7467 99.7155 93.32 99.3955 93C99.0889 92.6667 98.5755 92.3467 97.8555 92.04ZM102.712 85.28L106.392 84H107.992V98H106.152V86L103.172 86.88L102.712 85.28ZM114.401 92.84L119.341 98H117.181L112.621 93.26V98H110.881V84H112.621V92.42L116.941 88H119.181L114.401 92.84Z" fill="#111714"/>
</svg>
