<svg width="163" height="106" viewBox="0 0 163 106" fill="none" xmlns="http://www.w3.org/2000/svg">
<path d="M74 4V10" stroke="#0360B2" stroke-width="1.5" stroke-miterlimit="10" stroke-linecap="round" stroke-linejoin="round"/>
<path d="M90 4V10" stroke="#0360B2" stroke-width="1.5" stroke-miterlimit="10" stroke-linecap="round" stroke-linejoin="round"/>
<path d="M65 18.1797H99" stroke="#7DE2B7" stroke-width="1.5" stroke-miterlimit="10" stroke-linecap="round" stroke-linejoin="round"/>
<path d="M100 17V34C100 40 97 44 90 44H74C67 44 64 40 64 34V17C64 11 67 7 74 7H90C97 7 100 11 100 17Z" stroke="#0360B2" stroke-width="1.5" stroke-miterlimit="10" stroke-linecap="round" stroke-linejoin="round"/>
<path d="M3.71742 84V96.24H9.75742V98H1.85742V84H3.71742ZM20.6524 93.8H12.2724C12.4458 94.68 12.8524 95.3733 13.4924 95.88C14.1324 96.3733 14.9324 96.62 15.8924 96.62C17.2124 96.62 18.1724 96.1333 18.7724 95.16L20.2524 96C19.2658 97.5067 17.7991 98.26 15.8524 98.26C14.2791 98.26 12.9858 97.7667 11.9724 96.78C10.9858 95.7667 10.4924 94.5067 10.4924 93C10.4924 91.48 10.9791 90.2267 11.9524 89.24C12.9258 88.24 14.1858 87.74 15.7324 87.74C17.1991 87.74 18.3924 88.26 19.3124 89.3C20.2458 90.3133 20.7124 91.5533 20.7124 93.02C20.7124 93.2733 20.6924 93.5333 20.6524 93.8ZM15.7324 89.38C14.8124 89.38 14.0391 89.64 13.4124 90.16C12.7991 90.68 12.4191 91.3867 12.2724 92.28H18.9524C18.8058 91.36 18.4391 90.6467 17.8524 90.14C17.2658 89.6333 16.5591 89.38 15.7324 89.38ZM23.822 90.7C23.822 91.34 24.482 91.84 25.802 92.2C26.2953 92.3067 26.7086 92.42 27.042 92.54C27.3886 92.6467 27.762 92.8133 28.162 93.04C28.5753 93.2667 28.8886 93.5667 29.102 93.94C29.3153 94.3133 29.422 94.7533 29.422 95.26C29.422 96.1667 29.0686 96.8933 28.362 97.44C27.6553 97.9867 26.762 98.26 25.682 98.26C24.722 98.26 23.8886 98.0533 23.182 97.64C22.4886 97.2133 21.9953 96.64 21.702 95.92L23.202 95.06C23.362 95.54 23.662 95.92 24.102 96.2C24.542 96.48 25.0686 96.62 25.682 96.62C26.282 96.62 26.762 96.5067 27.122 96.28C27.482 96.0533 27.662 95.7133 27.662 95.26C27.662 94.58 27.002 94.0867 25.682 93.78C25.242 93.66 24.9086 93.5667 24.682 93.5C24.4553 93.4333 24.142 93.3133 23.742 93.14C23.3553 92.9667 23.062 92.7867 22.862 92.6C22.662 92.4 22.4753 92.14 22.302 91.82C22.142 91.4867 22.062 91.12 22.062 90.72C22.062 89.8533 22.3953 89.14 23.062 88.58C23.742 88.02 24.5886 87.74 25.602 87.74C26.4153 87.74 27.1353 87.9267 27.762 88.3C28.402 88.66 28.882 89.1667 29.202 89.82L27.742 90.64C27.382 89.7867 26.6686 89.36 25.602 89.36C25.0953 89.36 24.6686 89.48 24.322 89.72C23.9886 89.96 23.822 90.2867 23.822 90.7ZM32.3571 90.7C32.3571 91.34 33.0171 91.84 34.3371 92.2C34.8304 92.3067 35.2438 92.42 35.5771 92.54C35.9238 92.6467 36.2971 92.8133 36.6971 93.04C37.1104 93.2667 37.4238 93.5667 37.6371 93.94C37.8504 94.3133 37.9571 94.7533 37.9571 95.26C37.9571 96.1667 37.6038 96.8933 36.8971 97.44C36.1904 97.9867 35.2971 98.26 34.2171 98.26C33.2571 98.26 32.4238 98.0533 31.7171 97.64C31.0238 97.2133 30.5304 96.64 30.2371 95.92L31.7371 95.06C31.8971 95.54 32.1971 95.92 32.6371 96.2C33.0771 96.48 33.6038 96.62 34.2171 96.62C34.8171 96.62 35.2971 96.5067 35.6571 96.28C36.0171 96.0533 36.1971 95.7133 36.1971 95.26C36.1971 94.58 35.5371 94.0867 34.2171 93.78C33.7771 93.66 33.4438 93.5667 33.2171 93.5C32.9904 93.4333 32.6771 93.3133 32.2771 93.14C31.8904 92.9667 31.5971 92.7867 31.3971 92.6C31.1971 92.4 31.0104 92.14 30.8371 91.82C30.6771 91.4867 30.5971 91.12 30.5971 90.72C30.5971 89.8533 30.9304 89.14 31.5971 88.58C32.2771 88.02 33.1238 87.74 34.1371 87.74C34.9504 87.74 35.6704 87.9267 36.2971 88.3C36.9371 88.66 37.4171 89.1667 37.7371 89.82L36.2771 90.64C35.9171 89.7867 35.2038 89.36 34.1371 89.36C33.6304 89.36 33.2038 89.48 32.8571 89.72C32.5238 89.96 32.3571 90.2867 32.3571 90.7ZM50.4573 88V89.68H47.7973V95.1C47.7973 95.5933 47.8906 95.9467 48.0773 96.16C48.2773 96.36 48.5773 96.4667 48.9773 96.48C49.3773 96.48 49.8706 96.4667 50.4573 96.44V98C48.9239 98.2 47.8039 98.0733 47.0973 97.62C46.4039 97.1667 46.0573 96.3267 46.0573 95.1V89.68H44.0773V88H46.0573V85.72L47.7973 85.2V88H50.4573ZM57.4973 87.74C58.6706 87.74 59.6106 88.1133 60.3173 88.86C61.0239 89.5933 61.3773 90.5933 61.3773 91.86V98H59.6373V91.96C59.6373 91.16 59.4173 90.5333 58.9773 90.08C58.5373 89.6267 57.9306 89.4 57.1573 89.4C56.2639 89.4 55.5573 89.68 55.0373 90.24C54.5173 90.7867 54.2573 91.6067 54.2573 92.7V98H52.5173V84H54.2573V89.44C54.9506 88.3067 56.0306 87.74 57.4973 87.74ZM72.0863 89.72V88H73.8263V98H72.0863V96.28C71.233 97.6 69.973 98.26 68.3063 98.26C66.893 98.26 65.6997 97.7533 64.7263 96.74C63.7397 95.7133 63.2463 94.4667 63.2463 93C63.2463 91.5467 63.7397 90.3067 64.7263 89.28C65.713 88.2533 66.9063 87.74 68.3063 87.74C69.973 87.74 71.233 88.4 72.0863 89.72ZM68.5263 96.58C69.5397 96.58 70.3863 96.24 71.0663 95.56C71.7463 94.8533 72.0863 94 72.0863 93C72.0863 91.9867 71.7463 91.14 71.0663 90.46C70.3863 89.7667 69.5397 89.42 68.5263 89.42C67.5263 89.42 66.6863 89.7667 66.0063 90.46C65.3263 91.14 64.9863 91.9867 64.9863 93C64.9863 94 65.3263 94.8533 66.0063 95.56C66.6863 96.24 67.5263 96.58 68.5263 96.58ZM81.4426 87.74C82.6159 87.74 83.5559 88.1133 84.2626 88.86C84.9692 89.5933 85.3226 90.5933 85.3226 91.86V98H83.5826V91.96C83.5826 91.16 83.3626 90.5333 82.9226 90.08C82.4826 89.6267 81.8759 89.4 81.1026 89.4C80.2092 89.4 79.5026 89.68 78.9826 90.24C78.4626 90.7867 78.2026 91.6067 78.2026 92.7V98H76.4626V88H78.2026V89.44C78.8959 88.3067 79.9759 87.74 81.4426 87.74ZM91.7116 85.28L95.3916 84H96.9916V98H95.1516V86L92.1716 86.88L91.7116 85.28ZM115.681 87.74C116.814 87.74 117.721 88.1067 118.401 88.84C119.094 89.5733 119.441 90.5533 119.441 91.78V98H117.701V91.84C117.701 91.08 117.501 90.4867 117.101 90.06C116.714 89.62 116.181 89.4 115.501 89.4C114.727 89.4 114.121 89.66 113.681 90.18C113.254 90.6867 113.041 91.44 113.041 92.44V98H111.301V91.84C111.301 91.08 111.107 90.4867 110.721 90.06C110.347 89.62 109.834 89.4 109.181 89.4C108.421 89.4 107.801 89.6667 107.321 90.2C106.854 90.72 106.621 91.4667 106.621 92.44V98H104.881V88H106.621V89.34C107.301 88.2733 108.294 87.74 109.601 87.74C110.947 87.74 111.927 88.3067 112.541 89.44C113.234 88.3067 114.281 87.74 115.681 87.74ZM130.293 96.74C129.28 97.7533 128.033 98.26 126.553 98.26C125.073 98.26 123.827 97.7533 122.813 96.74C121.8 95.7267 121.293 94.48 121.293 93C121.293 91.52 121.8 90.2733 122.813 89.26C123.827 88.2467 125.073 87.74 126.553 87.74C128.033 87.74 129.28 88.2467 130.293 89.26C131.32 90.2867 131.833 91.5333 131.833 93C131.833 94.4667 131.32 95.7133 130.293 96.74ZM126.553 96.56C127.553 96.56 128.393 96.22 129.073 95.54C129.753 94.86 130.093 94.0133 130.093 93C130.093 91.9867 129.753 91.14 129.073 90.46C128.393 89.78 127.553 89.44 126.553 89.44C125.567 89.44 124.733 89.78 124.053 90.46C123.373 91.14 123.033 91.9867 123.033 93C123.033 94.0133 123.373 94.86 124.053 95.54C124.733 96.22 125.567 96.56 126.553 96.56ZM138.864 87.74C140.038 87.74 140.978 88.1133 141.684 88.86C142.391 89.5933 142.744 90.5933 142.744 91.86V98H141.004V91.96C141.004 91.16 140.784 90.5333 140.344 90.08C139.904 89.6267 139.298 89.4 138.524 89.4C137.631 89.4 136.924 89.68 136.404 90.24C135.884 90.7867 135.624 91.6067 135.624 92.7V98H133.884V88H135.624V89.44C136.318 88.3067 137.398 87.74 138.864 87.74ZM150.614 88V89.68H147.954V95.1C147.954 95.5933 148.047 95.9467 148.234 96.16C148.434 96.36 148.734 96.4667 149.134 96.48C149.534 96.48 150.027 96.4667 150.614 96.44V98C149.08 98.2 147.96 98.0733 147.254 97.62C146.56 97.1667 146.214 96.3267 146.214 95.1V89.68H144.234V88H146.214V85.72L147.954 85.2V88H150.614ZM157.654 87.74C158.827 87.74 159.767 88.1133 160.474 88.86C161.18 89.5933 161.534 90.5933 161.534 91.86V98H159.794V91.96C159.794 91.16 159.574 90.5333 159.134 90.08C158.694 89.6267 158.087 89.4 157.314 89.4C156.42 89.4 155.714 89.68 155.194 90.24C154.674 90.7867 154.414 91.6067 154.414 92.7V98H152.674V84H154.414V89.44C155.107 88.3067 156.187 87.74 157.654 87.74Z" fill="#111714"/>
</svg>
