<svg width="204" height="204" viewBox="0 0 204 204" fill="none" xmlns="http://www.w3.org/2000/svg">
<rect width="204" height="204" fill="#F8FBFF"/>
<path d="M96.378 75.9166C98.0739 70.3683 105.928 70.3683 107.624 75.9166L110.516 85.3759C110.777 86.2304 111.229 87.0142 111.839 87.6676L118.585 94.9012C122.542 99.144 118.615 105.946 112.962 104.641L103.324 102.415C102.454 102.214 101.549 102.214 100.678 102.415L91.0405 104.641C85.3875 105.946 81.4602 99.144 85.4173 94.9011L92.1636 87.6676C92.773 87.0141 93.2255 86.2304 93.4867 85.3759L96.378 75.9166Z" fill="#EC5F5F"/>
<path d="M113.977 84.9051L102.001 105.648L90.025 84.9051H113.977Z" stroke="white" stroke-width="0.871111"/>
<path d="M68.0704 119.009H75.6431C77.1002 119.009 78.2409 119.37 79.0651 120.091C79.8893 120.812 80.3015 121.857 80.3015 123.226C80.3015 123.918 80.1396 124.551 79.8157 125.125C79.4919 125.684 79.0504 126.118 78.4911 126.427C79.2564 126.707 79.8305 127.134 80.2131 127.708C80.5958 128.267 80.7872 129.003 80.7872 129.915C80.7872 130.843 80.5738 131.652 80.1469 132.344C79.7348 133.021 79.1608 133.544 78.4249 133.912C77.7036 134.265 76.9015 134.441 76.0184 134.441H68.0704V119.009ZM75.0028 125.279C75.5915 125.279 76.0552 125.132 76.3937 124.838C76.7322 124.543 76.9015 124.072 76.9015 123.425C76.9015 122.718 76.7322 122.232 76.3937 121.967C76.0699 121.703 75.5695 121.57 74.8924 121.57H71.4262V125.279H75.0028ZM75.2015 131.88C75.9227 131.88 76.4673 131.741 76.8353 131.461C77.2179 131.167 77.4093 130.659 77.4093 129.938C77.4093 129.202 77.2106 128.672 76.8132 128.348C76.4305 128.024 75.8565 127.862 75.0911 127.862H71.4262V131.88H75.2015ZM88.9809 134.773C86.9498 134.773 85.3528 134.287 84.1901 133.315C83.0273 132.329 82.4459 130.953 82.4459 129.187C82.4459 127.435 82.9611 126.052 83.9914 125.036C85.0364 124.021 86.523 123.513 88.4511 123.513C89.7169 123.513 90.7913 123.748 91.6744 124.219C92.5575 124.69 93.2272 125.345 93.6835 126.184C94.1398 127.009 94.3679 127.943 94.3679 128.988V130.335H85.6251C85.8606 131.689 87.1264 132.366 89.4225 132.366C90.0995 132.366 90.7987 132.307 91.5199 132.189C92.2411 132.072 92.8666 131.91 93.3965 131.704V134.044C92.8813 134.265 92.219 134.441 91.4095 134.574C90.6 134.706 89.7905 134.773 88.9809 134.773ZM91.2108 128.171C91.1666 127.465 90.9017 126.92 90.416 126.538C89.9303 126.14 89.2606 125.941 88.4069 125.941C87.568 125.941 86.9056 126.14 86.4199 126.538C85.9342 126.935 85.6693 127.48 85.6251 128.171H91.2108ZM102.371 134.773C101.091 134.773 99.965 134.544 98.9935 134.088C98.0368 133.617 97.2936 132.962 96.7637 132.123C96.2485 131.27 95.991 130.276 95.991 129.143C95.991 128.039 96.2485 127.06 96.7637 126.206C97.2936 125.353 98.0368 124.69 98.9935 124.219C99.965 123.748 101.091 123.513 102.371 123.513C103.637 123.513 104.748 123.748 105.705 124.219C106.677 124.69 107.42 125.353 107.935 126.206C108.465 127.06 108.73 128.039 108.73 129.143C108.73 130.276 108.465 131.27 107.935 132.123C107.42 132.962 106.684 133.617 105.727 134.088C104.771 134.544 103.652 134.773 102.371 134.773ZM102.371 132.167C103.269 132.167 103.983 131.895 104.513 131.351C105.043 130.791 105.308 130.055 105.308 129.143C105.308 128.201 105.043 127.465 104.513 126.935C103.998 126.39 103.284 126.118 102.371 126.118C101.459 126.118 100.738 126.39 100.208 126.935C99.6779 127.465 99.413 128.201 99.413 129.143C99.413 130.055 99.6779 130.791 100.208 131.351C100.752 131.895 101.474 132.167 102.371 132.167ZM116.197 134.773C114.916 134.773 113.79 134.544 112.819 134.088C111.862 133.617 111.119 132.962 110.589 132.123C110.074 131.27 109.816 130.276 109.816 129.143C109.816 128.039 110.074 127.06 110.589 126.206C111.119 125.353 111.862 124.69 112.819 124.219C113.79 123.748 114.916 123.513 116.197 123.513C117.463 123.513 118.574 123.748 119.53 124.219C120.502 124.69 121.245 125.353 121.76 126.206C122.29 127.06 122.555 128.039 122.555 129.143C122.555 130.276 122.29 131.27 121.76 132.123C121.245 132.962 120.509 133.617 119.553 134.088C118.596 134.544 117.477 134.773 116.197 134.773ZM116.197 132.167C117.095 132.167 117.808 131.895 118.338 131.351C118.868 130.791 119.133 130.055 119.133 129.143C119.133 128.201 118.868 127.465 118.338 126.935C117.823 126.39 117.109 126.118 116.197 126.118C115.284 126.118 114.563 126.39 114.033 126.935C113.503 127.465 113.238 128.201 113.238 129.143C113.238 130.055 113.503 130.791 114.033 131.351C114.578 131.895 115.299 132.167 116.197 132.167ZM124.644 123.844H127.867V125.147C128.353 124.602 128.927 124.197 129.589 123.932C130.266 123.653 130.973 123.513 131.709 123.513C133.151 123.513 134.225 123.903 134.932 124.683C135.653 125.448 136.014 126.486 136.014 127.796V134.441H132.68V128.171C132.68 126.803 132.047 126.118 130.781 126.118C130.222 126.118 129.7 126.258 129.214 126.538C128.728 126.803 128.316 127.2 127.977 127.73V134.441H124.644V123.844Z" fill="#EC5F5F"/>
</svg>
