<svg width="204" height="204" viewBox="0 0 204 204" fill="none" xmlns="http://www.w3.org/2000/svg">
<rect width="204" height="204" fill="#F8FBFF"/>
<path d="M65.603 114H61.1121V91.5609H65.603V100.543H74.5693V91.5609H79.0602V114H74.5693V105.034H65.603V114ZM87.823 92.6876C87.823 93.084 87.7448 93.4543 87.5883 93.7986C87.4422 94.1428 87.2388 94.4454 86.978 94.7062C86.7172 94.9565 86.4095 95.1599 86.0548 95.3164C85.7105 95.4625 85.3402 95.5355 84.9438 95.5355C84.5474 95.5355 84.1718 95.4625 83.8172 95.3164C83.4729 95.1599 83.1704 94.9565 82.9096 94.7062C82.6592 94.4454 82.4558 94.1428 82.2993 93.7986C82.1533 93.4543 82.0802 93.084 82.0802 92.6876C82.0802 92.3016 82.1533 91.9365 82.2993 91.5922C82.4558 91.2375 82.6592 90.935 82.9096 90.6846C83.1704 90.4238 83.4729 90.2204 83.8172 90.0744C84.1718 89.9179 84.5474 89.8397 84.9438 89.8397C85.3402 89.8397 85.7105 89.9179 86.0548 90.0744C86.4095 90.2204 86.7172 90.4238 86.978 90.6846C87.2388 90.935 87.4422 91.2375 87.5883 91.5922C87.7448 91.9365 87.823 92.3016 87.823 92.6876ZM87.0876 114H82.7844V97.2411H87.0876V114ZM108.76 107.271C108.76 108.2 108.583 109.071 108.228 109.885C107.873 110.698 107.388 111.413 106.773 112.028C106.168 112.633 105.458 113.113 104.644 113.468C103.831 113.823 102.96 114 102.031 114H90.8118V91.5609H102.031C102.96 91.5609 103.831 91.7383 104.644 92.093C105.458 92.4476 106.168 92.9327 106.773 93.5482C107.388 94.1533 107.873 94.8626 108.228 95.6763C108.583 96.49 108.76 97.3611 108.76 98.2895C108.76 98.7068 108.703 99.1345 108.588 99.5726C108.473 100.011 108.311 100.433 108.103 100.84C107.894 101.247 107.644 101.617 107.352 101.951C107.059 102.285 106.736 102.561 106.381 102.78C106.747 102.979 107.075 103.25 107.367 103.594C107.659 103.928 107.91 104.298 108.118 104.705C108.327 105.112 108.483 105.54 108.588 105.988C108.703 106.426 108.76 106.854 108.76 107.271ZM95.3027 109.509H102.031C102.344 109.509 102.636 109.452 102.908 109.337C103.179 109.222 103.414 109.066 103.612 108.867C103.82 108.659 103.982 108.419 104.097 108.148C104.212 107.876 104.269 107.584 104.269 107.271C104.269 106.958 104.212 106.666 104.097 106.395C103.982 106.124 103.82 105.889 103.612 105.691C103.414 105.482 103.179 105.321 102.908 105.206C102.636 105.091 102.344 105.034 102.031 105.034H95.3027V109.509ZM95.3027 100.543H102.031C102.344 100.543 102.636 100.485 102.908 100.371C103.179 100.256 103.414 100.099 103.612 99.9013C103.82 99.6926 103.982 99.4527 104.097 99.1814C104.212 98.8998 104.269 98.6025 104.269 98.2895C104.269 97.9766 104.212 97.6845 104.097 97.4132C103.982 97.142 103.82 96.9073 103.612 96.7091C103.414 96.5004 103.179 96.3388 102.908 96.224C102.636 96.1092 102.344 96.0519 102.031 96.0519H95.3027V100.543ZM115.739 120.384V116.081L118.117 116.112C118.535 116.112 118.936 116.045 119.322 115.909C119.708 115.773 120.063 115.586 120.386 115.346C120.72 115.106 121.012 114.819 121.263 114.485C121.513 114.162 121.716 113.807 121.873 113.421C121.403 113.619 120.924 113.817 120.433 114.016C119.953 114.214 119.468 114.313 118.978 114.313C117.945 114.313 116.975 114.13 116.067 113.765C115.16 113.4 114.362 112.884 113.673 112.216C112.995 111.538 112.458 110.719 112.062 109.759C111.676 108.789 111.483 107.704 111.483 106.505V97.2411H115.739V106.505C115.739 107.099 115.822 107.621 115.989 108.069C116.167 108.508 116.401 108.878 116.693 109.18C116.985 109.473 117.324 109.692 117.71 109.838C118.107 109.984 118.529 110.057 118.978 110.057C119.416 110.057 119.828 109.958 120.214 109.759C120.611 109.551 120.955 109.28 121.247 108.946C121.539 108.612 121.768 108.236 121.935 107.819C122.102 107.391 122.186 106.953 122.186 106.505V97.2411H126.489V111.888C126.479 113.066 126.249 114.172 125.8 115.205C125.352 116.238 124.736 117.14 123.954 117.912C123.182 118.684 122.28 119.294 121.247 119.743C120.214 120.191 119.108 120.416 117.93 120.416L115.739 120.384ZM136.425 109.9C136.592 109.952 136.759 109.989 136.926 110.01C137.093 110.02 137.26 110.025 137.427 110.025C137.844 110.025 138.246 109.968 138.632 109.853C139.018 109.739 139.378 109.577 139.711 109.368C140.056 109.149 140.358 108.888 140.619 108.586C140.89 108.273 141.109 107.929 141.276 107.553L144.406 110.698C144.009 111.262 143.55 111.768 143.029 112.216C142.518 112.665 141.959 113.045 141.354 113.358C140.76 113.671 140.129 113.906 139.461 114.063C138.804 114.23 138.126 114.313 137.427 114.313C136.248 114.313 135.137 114.094 134.094 113.656C133.061 113.218 132.153 112.607 131.371 111.825C130.599 111.043 129.989 110.114 129.54 109.04C129.092 107.955 128.867 106.765 128.867 105.472C128.867 104.147 129.092 102.937 129.54 101.842C129.989 100.746 130.599 99.8126 131.371 99.0406C132.153 98.2687 133.061 97.6688 134.094 97.2411C135.137 96.8134 136.248 96.5995 137.427 96.5995C138.126 96.5995 138.809 96.683 139.477 96.8499C140.144 97.0168 140.775 97.2568 141.37 97.5697C141.975 97.8827 142.538 98.2687 143.06 98.7277C143.582 99.1762 144.041 99.6822 144.437 100.246L136.425 109.9ZM138.616 101.09C138.418 101.017 138.22 100.971 138.021 100.95C137.834 100.929 137.635 100.918 137.427 100.918C136.843 100.918 136.29 101.028 135.768 101.247C135.257 101.456 134.808 101.758 134.422 102.155C134.047 102.551 133.75 103.031 133.53 103.594C133.311 104.147 133.202 104.773 133.202 105.472C133.202 105.628 133.207 105.806 133.218 106.004C133.238 106.202 133.264 106.406 133.296 106.614C133.338 106.812 133.384 107.005 133.437 107.193C133.489 107.381 133.557 107.548 133.64 107.694L138.616 101.09Z" fill="#35D187"/>
</svg>
