<svg width="204" height="204" viewBox="0 0 204 204" fill="none" xmlns="http://www.w3.org/2000/svg">
<rect width="204" height="204" fill="#F8FBFF"/>
<g clip-path="url(#clip0_735_1914)">
<path d="M64.4927 102C66.4329 99.8998 67.6495 97.3348 67.9354 94.7194C68.2494 91.8473 67.4123 89.2555 65.5784 87.4216C63.7445 85.5878 61.153 84.7507 58.2807 85.0646C55.6653 85.3505 53.1002 86.567 51 88.5072C48.8998 86.567 46.3348 85.3505 43.7193 85.0646C40.8475 84.7508 38.2555 85.5877 36.4217 87.4216C34.5878 89.2555 33.7507 91.8472 34.0646 94.7194C34.3505 97.3347 35.567 99.8998 37.5073 102C35.5671 104.1 34.3505 106.665 34.0646 109.281C33.7507 112.153 34.5877 114.744 36.4216 116.578C38.0031 118.16 40.148 119 42.5505 119C42.9339 119 43.324 118.979 43.7193 118.935C46.3348 118.649 48.8998 117.433 51 115.493C53.1001 117.433 55.6652 118.649 58.2806 118.935C58.6761 118.978 59.0659 119 59.4495 119C61.8517 119 63.9969 118.16 65.5783 116.578C67.4122 114.744 68.2492 112.153 67.9353 109.281C67.6494 106.665 66.4329 104.1 64.4927 102ZM60.351 106.566C62.7103 108.925 64.0147 112 63.9381 114.938C61.0003 115.015 57.9248 113.71 55.5658 111.351C55.2923 111.077 55.0306 110.791 54.7831 110.496C56.1066 108.699 57.699 107.106 59.4967 105.783C59.7917 106.03 60.0776 106.292 60.351 106.566ZM51.8557 111.305C51.3793 112.11 50.7983 112.864 50.1296 113.553C49.6712 112.966 49.1997 112.385 48.7165 111.812C49.2717 111.154 49.7671 110.456 50.1936 109.723C51.0511 108.248 52.0661 106.875 53.214 105.625L54.8596 107.271C53.7232 108.505 52.7139 109.857 51.8557 111.305ZM38.0619 114.938C37.9897 112.171 39.1441 109.281 41.2508 106.983C42.9228 108.479 44.521 110.077 46.0175 111.748C43.7195 113.855 40.8301 115.01 38.0619 114.938ZM41.6944 101.144C43.1427 100.286 44.4949 99.2767 45.729 98.1403L47.3745 99.7859C46.1252 100.934 44.7521 101.949 43.2773 102.807C42.5435 103.234 41.8446 103.729 41.187 104.284C40.6137 103.801 40.0332 103.33 39.4465 102.871C40.1352 102.202 40.8901 101.621 41.6944 101.144ZM41.6492 97.4342C39.2902 95.0751 37.9856 91.9997 38.0617 89.0619C40.9997 88.9853 44.0752 90.2897 46.4344 92.649C46.7078 92.9224 46.9694 93.2083 47.2169 93.5034C45.8935 95.301 44.3011 96.8934 42.5035 98.2168C42.2087 97.9695 41.9228 97.7078 41.6492 97.4342ZM50.1442 92.6945C50.6209 91.8901 51.2022 91.1351 51.8712 90.4465C52.3295 91.0333 52.8009 91.6137 53.284 92.187C52.7293 92.8445 52.2339 93.5434 51.8068 94.2774C50.949 95.7521 49.9339 97.1252 48.7858 98.3745L47.1403 96.7289C48.2768 95.4949 49.286 94.1427 50.1442 92.6945ZM63.9383 89.0618C64.01 91.8298 62.8554 94.7194 60.7486 97.0175C59.0769 95.521 57.479 93.9228 55.9828 92.2508C58.281 90.144 61.1707 88.9896 63.9383 89.0618ZM59.2865 98.3876C58.7877 98.7887 58.2644 99.151 57.7194 99.468C56.0951 100.412 54.5845 101.533 53.2129 102.802L50.1983 99.787C51.467 98.4155 52.5876 96.9051 53.5321 95.2812C53.8497 94.7353 54.2121 94.2117 54.6127 93.7131C56.0849 95.3487 57.6511 96.9151 59.2865 98.3876ZM42.7131 105.613C43.2117 105.212 43.7353 104.85 44.281 104.532C45.905 103.588 47.4155 102.467 48.787 101.198L51.8016 104.213C50.5328 105.585 49.4125 107.095 48.4682 108.719C48.1511 109.264 47.7887 109.788 47.3876 110.287C45.9152 108.651 44.3488 107.085 42.7131 105.613ZM56.271 105.86L54.6254 104.214C55.8747 103.066 57.248 102.051 58.7231 101.193C59.4558 100.767 60.1544 100.272 60.8122 99.7165C61.3854 100.2 61.9658 100.671 62.5525 101.13C61.8641 101.798 61.1095 102.379 60.3055 102.856C58.8573 103.714 57.5051 104.723 56.271 105.86ZM65.9511 94.5024C65.7554 96.2923 65.0298 98.0635 63.871 99.6264C63.3276 99.2036 62.7897 98.7693 62.2581 98.3245C64.068 96.3346 65.267 93.9514 65.7266 91.5153C65.9883 92.4309 66.0674 93.4395 65.9511 94.5024ZM58.4976 87.0488C58.8172 87.0139 59.1318 86.9966 59.4406 86.9966C60.1579 86.9966 60.8426 87.0908 61.4825 87.2735C59.0474 87.7331 56.6653 88.9319 54.676 90.741C54.2313 90.2094 53.7972 89.6715 53.3746 89.1282C54.9372 87.9698 56.708 87.2445 58.4976 87.0488ZM43.5024 87.0488C45.6884 87.2878 47.8468 88.3166 49.6313 89.9605C49.1848 90.5056 48.7812 91.0791 48.427 91.6769C48.4061 91.7122 48.3846 91.7471 48.3635 91.7822C48.1954 91.5966 48.0229 91.4147 47.8458 91.2377C45.7582 89.15 43.1678 87.7735 40.5154 87.2733C41.4311 87.0116 42.4396 86.9326 43.5024 87.0488ZM36.2734 91.5153C36.7738 94.1678 38.1502 96.7581 40.2378 98.8457C40.415 99.0228 40.5969 99.1954 40.7824 99.3634C40.7472 99.3846 40.7122 99.4061 40.677 99.427C40.0792 99.7813 39.5056 100.185 38.9606 100.631C37.3167 98.8467 36.2879 96.6884 36.0489 94.5025C35.9327 93.4395 36.0117 92.431 36.2734 91.5153ZM38.1291 104.375C38.6721 104.798 39.2097 105.231 39.7411 105.676C37.9317 107.666 36.7331 110.048 36.2735 112.484C35.5628 110 36.2236 106.951 38.1291 104.375ZM43.5024 116.951C42.4402 117.067 41.4323 116.988 40.5171 116.727C42.9526 116.267 45.3355 115.068 47.3249 113.259C47.7696 113.79 48.2038 114.328 48.6264 114.871C47.0636 116.03 45.2923 116.755 43.5024 116.951ZM58.4976 116.951C56.3117 116.712 54.1532 115.683 52.3687 114.039C52.8152 113.494 53.2188 112.921 53.5729 112.323C53.5939 112.288 53.6154 112.253 53.6365 112.218C53.8047 112.403 53.9773 112.585 54.1544 112.762C56.2416 114.849 58.831 116.226 61.4829 116.727C60.5677 116.988 59.5597 117.067 58.4976 116.951ZM65.7265 112.484C65.2262 109.831 63.8498 107.242 61.7624 105.154C61.5854 104.977 61.4034 104.804 61.2178 104.636C61.253 104.615 61.2878 104.594 61.3231 104.573C61.9208 104.219 62.4944 103.815 63.0394 103.369C65.5752 106.124 66.5324 109.668 65.7265 112.484Z" fill="#F65425"/>
</g>
<g clip-path="url(#clip1_735_1914)">
<path d="M64.4927 102C66.4329 99.8998 67.6495 97.3348 67.9354 94.7194C68.2494 91.8473 67.4123 89.2555 65.5784 87.4216C63.7445 85.5878 61.153 84.7507 58.2807 85.0646C55.6653 85.3505 53.1002 86.567 51 88.5072C48.8998 86.567 46.3348 85.3505 43.7193 85.0646C40.8475 84.7508 38.2555 85.5877 36.4217 87.4216C34.5878 89.2555 33.7507 91.8472 34.0646 94.7194C34.3505 97.3347 35.567 99.8998 37.5073 102C35.5671 104.1 34.3505 106.665 34.0646 109.281C33.7507 112.153 34.5877 114.744 36.4216 116.578C38.0031 118.16 40.148 119 42.5505 119C42.9339 119 43.324 118.979 43.7193 118.935C46.3348 118.649 48.8998 117.433 51 115.493C53.1001 117.433 55.6652 118.649 58.2806 118.935C58.6761 118.978 59.0659 119 59.4495 119C61.8517 119 63.9969 118.16 65.5783 116.578C67.4122 114.744 68.2492 112.153 67.9353 109.281C67.6494 106.665 66.4329 104.1 64.4927 102ZM60.351 106.566C62.7103 108.925 64.0147 112 63.9381 114.938C61.0003 115.015 57.9248 113.71 55.5658 111.351C55.2923 111.077 55.0306 110.791 54.7831 110.496C56.1066 108.699 57.699 107.106 59.4967 105.783C59.7917 106.03 60.0776 106.292 60.351 106.566ZM51.8557 111.305C51.3793 112.11 50.7983 112.864 50.1296 113.553C49.6712 112.966 49.1997 112.385 48.7165 111.812C49.2717 111.154 49.7671 110.456 50.1936 109.723C51.0511 108.248 52.0661 106.875 53.214 105.625L54.8596 107.271C53.7232 108.505 52.7139 109.857 51.8557 111.305ZM38.0619 114.938C37.9897 112.171 39.1441 109.281 41.2508 106.983C42.9228 108.479 44.521 110.077 46.0175 111.748C43.7195 113.855 40.8301 115.01 38.0619 114.938ZM41.6944 101.144C43.1427 100.286 44.4949 99.2767 45.729 98.1403L47.3745 99.7859C46.1252 100.934 44.7521 101.949 43.2773 102.807C42.5435 103.234 41.8446 103.729 41.187 104.284C40.6137 103.801 40.0332 103.33 39.4465 102.871C40.1352 102.202 40.8901 101.621 41.6944 101.144ZM41.6492 97.4342C39.2902 95.0751 37.9856 91.9997 38.0617 89.0619C40.9997 88.9853 44.0752 90.2897 46.4344 92.649C46.7078 92.9224 46.9694 93.2083 47.2169 93.5034C45.8935 95.301 44.3011 96.8934 42.5035 98.2168C42.2087 97.9695 41.9228 97.7078 41.6492 97.4342ZM50.1442 92.6945C50.6209 91.8901 51.2022 91.1351 51.8712 90.4465C52.3295 91.0333 52.8009 91.6137 53.284 92.187C52.7293 92.8445 52.2339 93.5434 51.8068 94.2774C50.949 95.7521 49.9339 97.1252 48.7858 98.3745L47.1403 96.7289C48.2768 95.4949 49.286 94.1427 50.1442 92.6945ZM63.9383 89.0618C64.01 91.8298 62.8554 94.7194 60.7486 97.0175C59.0769 95.521 57.479 93.9228 55.9828 92.2508C58.281 90.144 61.1707 88.9896 63.9383 89.0618ZM59.2865 98.3876C58.7877 98.7887 58.2644 99.151 57.7194 99.468C56.0951 100.412 54.5845 101.533 53.2129 102.802L50.1983 99.787C51.467 98.4155 52.5876 96.9051 53.5321 95.2812C53.8497 94.7353 54.2121 94.2117 54.6127 93.7131C56.0849 95.3487 57.6511 96.9151 59.2865 98.3876ZM42.7131 105.613C43.2117 105.212 43.7353 104.85 44.281 104.532C45.905 103.588 47.4155 102.467 48.787 101.198L51.8016 104.213C50.5328 105.585 49.4125 107.095 48.4682 108.719C48.1511 109.264 47.7887 109.788 47.3876 110.287C45.9152 108.651 44.3488 107.085 42.7131 105.613ZM56.271 105.86L54.6254 104.214C55.8747 103.066 57.248 102.051 58.7231 101.193C59.4558 100.767 60.1544 100.272 60.8122 99.7165C61.3854 100.2 61.9658 100.671 62.5525 101.13C61.8641 101.798 61.1095 102.379 60.3055 102.856C58.8573 103.714 57.5051 104.723 56.271 105.86ZM65.9511 94.5024C65.7555 96.2923 65.0298 98.0635 63.871 99.6264C63.3276 99.2036 62.7897 98.7693 62.2581 98.3245C64.068 96.3346 65.267 93.9514 65.7266 91.5153C65.9883 92.4309 66.0674 93.4395 65.9511 94.5024ZM58.4976 87.0488C58.8172 87.0139 59.1318 86.9966 59.4406 86.9966C60.1579 86.9966 60.8426 87.0908 61.4825 87.2735C59.0474 87.7331 56.6653 88.9319 54.676 90.741C54.2313 90.2094 53.7972 89.6715 53.3746 89.1282C54.9372 87.9698 56.708 87.2445 58.4976 87.0488ZM43.5024 87.0488C45.6884 87.2878 47.8468 88.3166 49.6313 89.9605C49.1848 90.5056 48.7812 91.0791 48.427 91.6769C48.4061 91.7122 48.3846 91.7471 48.3635 91.7822C48.1954 91.5966 48.0229 91.4147 47.8458 91.2377C45.7582 89.15 43.1678 87.7735 40.5154 87.2733C41.4311 87.0116 42.4396 86.9326 43.5024 87.0488ZM36.2734 91.5153C36.7738 94.1678 38.1502 96.7581 40.2378 98.8457C40.415 99.0228 40.5969 99.1954 40.7824 99.3634C40.7472 99.3846 40.7122 99.4061 40.677 99.427C40.0792 99.7813 39.5056 100.185 38.9606 100.631C37.3167 98.8467 36.2879 96.6884 36.0489 94.5025C35.9327 93.4395 36.0117 92.431 36.2734 91.5153ZM38.1291 104.375C38.6721 104.798 39.2097 105.231 39.7411 105.676C37.9317 107.666 36.7331 110.048 36.2735 112.484C35.5628 110 36.2236 106.951 38.1291 104.375ZM43.5024 116.951C42.4402 117.067 41.4323 116.988 40.5171 116.727C42.9526 116.267 45.3355 115.068 47.3249 113.259C47.7696 113.79 48.2038 114.328 48.6264 114.871C47.0636 116.03 45.2923 116.755 43.5024 116.951ZM58.4976 116.951C56.3117 116.712 54.1532 115.683 52.3687 114.039C52.8152 113.494 53.2188 112.921 53.5729 112.323C53.5939 112.288 53.6154 112.253 53.6365 112.218C53.8047 112.403 53.9773 112.585 54.1544 112.762C56.2416 114.849 58.831 116.226 61.4829 116.727C60.5677 116.988 59.5597 117.067 58.4976 116.951ZM65.7265 112.484C65.2262 109.831 63.8498 107.242 61.7624 105.154C61.5854 104.977 61.4034 104.804 61.2178 104.636C61.253 104.615 61.2878 104.594 61.3231 104.573C61.9209 104.219 62.4944 103.815 63.0394 103.369C65.5752 106.124 66.5324 109.668 65.7265 112.484Z" fill="#F65425"/>
</g>
<path d="M81.9665 108.689V94.7577H87.6984C88.9324 94.7577 89.9872 94.9568 90.8629 95.3548C91.7519 95.7529 92.4352 96.3234 92.9129 97.0664C93.3905 97.8095 93.6294 98.6918 93.6294 99.7135C93.6294 100.735 93.3905 101.617 92.9129 102.36C92.4352 103.104 91.7519 103.674 90.8629 104.072C89.9872 104.47 88.9324 104.669 87.6984 104.669H83.3995L84.5538 103.455V108.689H81.9665ZM84.5538 103.734L83.3995 102.48H87.579C88.7201 102.48 89.5759 102.241 90.1464 101.763C90.7302 101.272 91.0221 100.589 91.0221 99.7135C91.0221 98.8245 90.7302 98.1412 90.1464 97.6635C89.5759 97.1858 88.7201 96.947 87.579 96.947H83.3995L84.5538 95.6733V103.734ZM98.9994 100.549H105.925V102.679H98.9994V100.549ZM99.1985 106.52H107.06V108.689H96.6112V94.7577H106.781V96.9271H99.1985V106.52ZM108.372 108.689L114.641 94.7577H117.189L123.478 108.689H120.771L115.378 96.131H116.413L111.039 108.689H108.372ZM111.258 105.465L111.954 103.435H119.478L120.174 105.465H111.258ZM125.648 108.689V94.7577H127.777L136.514 105.485H135.46V94.7577H138.027V108.689H135.897L127.16 97.962H128.215V108.689H125.648ZM148.149 108.888C146.238 108.888 144.739 108.351 143.651 107.276C142.576 106.202 142.039 104.649 142.039 102.619V94.7577H144.626V102.52C144.626 103.953 144.931 104.994 145.542 105.644C146.165 106.295 147.041 106.62 148.169 106.62C149.297 106.62 150.166 106.295 150.776 105.644C151.386 104.994 151.691 103.953 151.691 102.52V94.7577H154.239V102.619C154.239 104.649 153.695 106.202 152.607 107.276C151.532 108.351 150.046 108.888 148.149 108.888ZM160.834 108.689V96.947H156.217V94.7577H168.039V96.947H163.421V108.689H160.834Z" fill="#F65425"/>
<defs>
<clipPath id="clip0_735_1914">
<rect width="34" height="34" fill="white" transform="translate(34 85)"/>
</clipPath>
<clipPath id="clip1_735_1914">
<rect width="34" height="34" fill="white" transform="translate(34 85)"/>
</clipPath>
</defs>
</svg>
