<svg width="204" height="204" viewBox="0 0 204 204" fill="none" xmlns="http://www.w3.org/2000/svg">
<rect width="204" height="204" fill="#F8FBFF"/>
<path d="M69.5859 110.397L73.4758 92.6641H88.2059L87.1477 97.4552H79.3393L78.996 99.0525H85.7176L84.6307 104.009H77.9092L77.5373 105.606H85.3457L84.3162 110.397H69.5859Z" fill="#121612"/>
<path d="M90.6082 110.397L93.4399 97.4552H88.749L89.8075 92.6641H106.111L105.052 97.4552H100.362L97.5299 110.397H90.6082Z" fill="#121612"/>
<path d="M104.652 110.397L108.542 92.6641H123.272L122.214 97.4552H114.405L114.062 99.0525H120.783L119.697 104.009H112.975L112.603 105.606H120.412L119.382 110.397H104.652Z" fill="#121612"/>
<path d="M131.052 100.677H132.74C133.865 100.677 134.522 100.218 134.713 99.3001C134.732 99.2086 134.746 99.1259 134.756 99.0525C134.766 98.9791 134.771 98.9055 134.771 98.8322C134.771 98.1897 134.332 97.8683 133.455 97.8683H131.653L131.052 100.677ZM121.985 110.397L125.875 92.6641H136.229C138.021 92.6641 139.418 93.1416 140.419 94.0958C141.421 95.0506 141.921 96.2712 141.921 97.7581C141.921 98.2538 141.864 98.768 141.749 99.3001C141.501 100.494 140.991 101.535 140.219 102.426C139.447 103.316 138.479 104.064 137.316 104.67C137.621 104.908 137.812 105.211 137.888 105.578L139.003 110.397H131.796L130.852 106.46C130.776 106.074 130.547 105.881 130.165 105.881H129.88L128.907 110.397H121.985Z" fill="#121612"/>
<path d="M152.189 105.028C153.2 105.028 153.977 104.766 154.52 104.243C155.064 103.72 155.478 102.816 155.764 101.531C155.84 101.182 155.903 100.865 155.95 100.581C155.998 100.296 156.022 100.035 156.022 99.7958C156.022 99.1536 155.85 98.6992 155.507 98.4329C155.164 98.1669 154.573 98.0335 153.734 98.0335C152.723 98.0335 151.946 98.2952 151.402 98.8184C150.859 99.3416 150.444 100.246 150.158 101.531C150.082 101.88 150.025 102.196 149.987 102.481C149.948 102.765 149.929 103.027 149.929 103.265C149.929 103.89 150.101 104.339 150.444 104.615C150.788 104.89 151.369 105.028 152.189 105.028ZM150.931 110.673C149.29 110.673 147.856 110.461 146.626 110.039C145.396 109.617 144.442 108.943 143.766 108.015C143.089 107.089 142.75 105.863 142.75 104.339C142.75 103.513 142.865 102.577 143.094 101.531C143.589 99.2911 144.357 97.5062 145.396 96.1749C146.435 94.844 147.756 93.8804 149.357 93.2836C150.959 92.6874 152.837 92.3887 154.992 92.3887C156.67 92.3887 158.119 92.5952 159.34 93.0082C160.56 93.4213 161.504 94.0868 162.171 95.0046C162.839 95.9227 163.172 97.1343 163.172 98.6394C163.172 99.4839 163.058 100.448 162.829 101.531C162.333 103.752 161.571 105.533 160.541 106.873C159.511 108.213 158.2 109.181 156.608 109.778C155.016 110.375 153.123 110.673 150.931 110.673Z" fill="#121612"/>
<path d="M57.0669 97.1588L57.08 97.1494C57.075 97.153 57.0706 97.156 57.0669 97.1588Z" fill="#63C127"/>
<path d="M65.9991 89.6166L58.7645 94.7608C58.7645 94.7608 57.2875 95.811 57.2872 95.8112C57.533 95.6365 57.7317 95.3946 57.8783 95.1381C57.9963 94.9318 57.8306 94.6731 57.5893 94.6731H54.5567L53.8635 97.7499H54.5608L43.3727 105.706L40.9565 107.424C41.0335 107.354 43.5023 105.112 43.8079 103.721L43.8082 103.72L47.1257 88.5947H61.8331C63.4734 88.5947 64.8622 88.9355 65.9991 89.6166Z" fill="#63C127"/>
<path d="M58.0888 105.44C58.0888 105.514 58.0754 105.588 58.0504 105.662C57.819 106.725 57.0877 107.256 55.8559 107.256H52.3908L53.0837 104.18H56.5485C57.575 104.18 58.0888 104.538 58.0888 105.254V105.44ZM67.5403 99.2497C68.1433 98.4099 68.5733 97.3965 68.8299 96.2104C68.9325 95.7907 68.9839 95.3336 68.9839 94.8391C68.9839 93.5841 68.6038 92.5175 67.8438 91.6396C67.6862 91.4575 67.6732 91.1974 67.8126 91.0022C68.2362 90.409 68.9087 89.7645 68.924 89.75L67.1746 90.9936L59.9124 96.158C59.9798 96.2994 60.0136 96.4651 60.0136 96.6552C60.0136 96.8035 60.0002 96.9274 59.9753 97.0258C59.7442 98.0887 59.0128 98.6199 57.7808 98.6199H56.4502L43.559 107.787L42.3418 113.335H51.852L66.5342 102.895L67.0548 102.525L68.0164 101.841C67.7402 102.037 67.4968 102.153 67.2878 102.217C67.056 102.288 66.8025 102.234 66.6258 102.073C66.2842 101.762 65.8768 101.488 65.4036 101.251C66.2246 100.757 66.9372 100.09 67.5403 99.2497Z" fill="#63C127"/>
<mask id="mask0_735_1896" style="mask-type:alpha" maskUnits="userSpaceOnUse" x="51" y="103" width="19" height="13">
<path d="M51.9136 103.045H69.435V115.503H51.9136V103.045Z" fill="white"/>
</mask>
<g mask="url(#mask0_735_1896)">
<path d="M68.3175 104.305C68.1611 104.525 68.0885 104.79 68.1102 105.056C68.1207 105.185 68.126 105.318 68.126 105.457C68.126 105.679 68.1069 105.92 68.0683 106.179C68.0296 106.439 67.9846 106.704 67.9335 106.976C67.4454 109.225 66.3743 110.992 64.7187 112.277C63.0631 113.561 60.7079 114.204 57.654 114.204H55.1656C54.0433 114.204 51.9771 115.464 51.9131 115.503L53.7399 114.204L67.9151 104.124C67.9151 104.124 67.9154 104.125 67.9154 104.125L69.4345 103.045C69.4191 103.06 68.7408 103.709 68.3175 104.305Z" fill="#63C127"/>
</g>
</svg>
