<svg width="204" height="204" viewBox="0 0 204 204" fill="none" xmlns="http://www.w3.org/2000/svg">
<rect width="204" height="204" fill="#F8FBFF"/>
<path d="M56.6754 101.442C57.7257 101.775 58.5484 102.335 59.1436 103.123C59.7388 103.893 60.0363 104.847 60.0363 105.985C60.0363 107.595 59.4062 108.838 58.1458 109.713C56.903 110.571 55.0825 111 52.6844 111H43.1793V92.6201H52.1592C54.3998 92.6201 56.1153 93.049 57.3056 93.9067C58.5134 94.7644 59.1173 95.9285 59.1173 97.3989C59.1173 98.2916 58.8985 99.0881 58.4609 99.7883C58.0408 100.488 57.4456 101.04 56.6754 101.442ZM47.4067 95.8235V100.156H51.6341C52.6844 100.156 53.4808 99.9721 54.0235 99.6045C54.5661 99.2369 54.8374 98.6942 54.8374 97.9765C54.8374 97.2588 54.5661 96.7249 54.0235 96.3748C53.4808 96.0072 52.6844 95.8235 51.6341 95.8235H47.4067ZM52.3693 107.797C53.4896 107.797 54.3298 107.613 54.89 107.245C55.4676 106.878 55.7564 106.309 55.7564 105.539C55.7564 104.016 54.6274 103.254 52.3693 103.254H47.4067V107.797H52.3693ZM71.6944 104.488V111H67.4408V104.436L60.3252 92.6201H64.8414L69.7514 100.786L74.6615 92.6201H78.8363L71.6944 104.488ZM92.2408 101.521H96.1268V108.978C95.129 109.731 93.9737 110.309 92.6609 110.711C91.348 111.114 90.0264 111.315 88.6961 111.315C86.788 111.315 85.0726 110.912 83.5497 110.107C82.0268 109.285 80.8277 108.155 79.9525 106.72C79.0947 105.267 78.6659 103.631 78.6659 101.81C78.6659 99.9896 79.0947 98.3616 79.9525 96.9262C80.8277 95.4734 82.0355 94.3443 83.5759 93.5391C85.1164 92.7164 86.8493 92.305 88.7748 92.305C90.3853 92.305 91.8469 92.5763 93.1597 93.119C94.4726 93.6616 95.5754 94.4493 96.4681 95.4821L93.7374 98.0028C92.4246 96.6199 90.8404 95.9285 88.9849 95.9285C87.8121 95.9285 86.7705 96.1735 85.8603 96.6637C84.9501 97.1538 84.2411 97.8452 83.7335 98.738C83.2258 99.6307 82.972 100.655 82.972 101.81C82.972 102.948 83.2258 103.963 83.7335 104.856C84.2411 105.749 84.9413 106.449 85.834 106.956C86.7443 107.447 87.7771 107.692 88.9324 107.692C90.1577 107.692 91.2605 107.429 92.2408 106.904V101.521ZM112.498 101.521H116.384V108.978C115.386 109.731 114.231 110.309 112.918 110.711C111.605 111.114 110.283 111.315 108.953 111.315C107.045 111.315 105.329 110.912 103.807 110.107C102.284 109.285 101.085 108.155 100.209 106.72C99.3516 105.267 98.9228 103.631 98.9228 101.81C98.9228 99.9896 99.3516 98.3616 100.209 96.9262C101.085 95.4734 102.292 94.3443 103.833 93.5391C105.373 92.7164 107.106 92.305 109.032 92.305C110.642 92.305 112.104 92.5763 113.417 93.119C114.729 93.6616 115.832 94.4493 116.725 95.4821L113.994 98.0028C112.681 96.6199 111.097 95.9285 109.242 95.9285C108.069 95.9285 107.027 96.1735 106.117 96.6637C105.207 97.1538 104.498 97.8452 103.99 98.738C103.483 99.6307 103.229 100.655 103.229 101.81C103.229 102.948 103.483 103.963 103.99 104.856C104.498 105.749 105.198 106.449 106.091 106.956C107.001 107.447 108.034 107.692 109.189 107.692C110.415 107.692 111.517 107.429 112.498 106.904V101.521ZM120.335 92.6201H124.589V111H120.335V92.6201ZM132.758 96.086H126.876V92.6201H142.893V96.086H137.011V111H132.758V96.086Z" fill="#0E100E"/>
<path d="M153.596 111.418C151.747 111.418 150.159 111.072 148.833 110.381C148.287 110.089 147.793 109.737 147.352 109.325L148.249 107.365L150.173 107.083C150.378 107.287 150.604 107.462 150.85 107.607C151.597 108.037 152.513 108.252 153.596 108.252C154.717 108.252 155.641 108.037 156.37 107.607C157.117 107.159 157.677 106.459 158.051 105.506C158.425 104.553 158.611 103.292 158.611 101.723C158.611 100.154 158.425 98.9027 158.051 97.9687C157.943 97.6939 157.82 97.4409 157.681 97.2097L159.638 96.9056L160.571 94.9401C160.9 95.354 161.19 95.8125 161.441 96.3156C162.17 97.7352 162.534 99.5471 162.534 101.751C162.534 104.927 161.759 107.336 160.209 108.98C158.677 110.605 156.473 111.418 153.596 111.418Z" fill="#4CAF45"/>
<path d="M160.04 94.3439C159.556 93.8594 159.005 93.4519 158.387 93.1214C157.061 92.4116 155.464 92.0566 153.596 92.0566C150.757 92.0566 148.562 92.8785 147.011 94.5223C145.48 96.1475 144.714 98.5571 144.714 101.751C144.714 103.937 145.069 105.749 145.779 107.187C146.069 107.768 146.411 108.29 146.805 108.752L147.746 106.695L149.641 106.417C149.472 106.153 149.324 105.859 149.197 105.534C148.823 104.581 148.637 103.32 148.637 101.751C148.637 100.182 148.823 98.9307 149.197 97.9967C149.571 97.0441 150.122 96.3529 150.85 95.9233C151.597 95.475 152.513 95.2508 153.596 95.2508C154.717 95.2508 155.641 95.4657 156.37 95.8953C156.671 96.0686 156.942 96.2844 157.183 96.5428L159.141 96.2386L160.04 94.3439Z" fill="#4CAF45"/>
<path d="M160.04 94.3439C159.556 93.8594 159.005 93.4519 158.387 93.1214C157.061 92.4116 155.464 92.0566 153.596 92.0566C150.757 92.0566 148.562 92.8785 147.011 94.5223C145.48 96.1475 144.714 98.5571 144.714 101.751C144.714 103.937 145.069 105.749 145.779 107.187C146.069 107.768 146.411 108.29 146.805 108.752L147.746 106.695L149.641 106.417C149.472 106.153 149.324 105.859 149.197 105.534C148.823 104.581 148.637 103.32 148.637 101.751C148.637 100.182 148.823 98.9307 149.197 97.9967C149.571 97.0441 150.122 96.3529 150.85 95.9233C151.597 95.475 152.513 95.2508 153.596 95.2508C154.717 95.2508 155.641 95.4657 156.37 95.8953C156.671 96.0686 156.942 96.2844 157.183 96.5428L159.141 96.2386L160.04 94.3439Z" fill="#0E100E"/>
</svg>
