<svg width="120" height="39" viewBox="0 0 120 39" fill="none" xmlns="http://www.w3.org/2000/svg">
<path d="M0 9.15018C0.123077 9.15451 0.246156 9.02797 0.302494 9.22472C0.419504 9.84617 0.00693593 10.3454 0.123946 10.9669L0.322427 11.0119C0.235753 11.493 0.126545 11.9931 0.0338041 12.5053C0.0626955 13.4466 0.110076 14.3838 0.175948 15.317C0.248754 15.2928 0.315494 15.2815 0.342363 15.3742C0.395234 15.7625 0.325896 16.2999 0.305094 16.8572C0.316362 16.9387 0.328495 17.021 0.338896 17.1025C0.377772 17.1505 0.433672 17.1815 0.49491 17.1892C0.487976 17.4414 0.468907 17.665 0.448106 17.8731C0.839005 20.6068 1.29924 23.3829 1.75428 26.3922C1.93717 27.0284 2.12005 27.6655 2.20412 28.2783C2.28039 29.1866 2.15038 30.3463 2.12785 31.2321C2.82991 31.0961 3.174 33.2551 3.88386 32.8243C3.86913 33.4146 3.84572 34.2978 4.04421 34.3463C4.63966 34.4841 5.32698 34.9383 5.68581 36.5062C5.77249 37.1199 5.5194 38.0664 5.63988 38.2787C5.83056 38.6194 6.05938 37.4831 6.25093 37.8237C6.46588 33.2629 6.20759 28.8711 6.21366 24.2791C5.9025 22.719 5.76555 12.1734 5.90337 9.46567C5.90337 9.38333 5.89816 9.30099 5.8947 9.21952C5.93283 7.74173 5.87997 5.94757 5.61214 4.69773C5.44746 4.12395 5.24638 3.5415 5.05223 2.96425C4.93608 3.23381 4.82081 3.4843 4.70553 3.70098C4.72113 3.10986 4.73587 2.51875 4.60932 2.29166C4.30857 1.03402 3.95754 1.74648 3.48256 2.23012C3.27368 2.57682 2.95212 2.10791 2.7389 2.65309C2.7493 2.26046 2.75363 2.06284 2.7649 1.66848C2.56555 1.62341 2.86631 2.88191 2.54041 2.60802C2.61669 2.22926 2.49448 1.80455 2.50488 1.41192C2.23532 1.548 2.40347 2.77443 2.13825 2.71203C2.07671 2.49968 2.49968 1.60694 2.16858 1.53066C2.10271 1.51593 2.09231 1.90943 2.08711 2.10618C1.9857 0.892742 1.67021 0.227086 1.30705 1.33305C1.31658 0.949081 1.45699 0.405635 1.41192 0L1.40672 0C1.39545 0.202817 1.32698 0.552114 1.32005 0.73933L1.33825 0.0459371C1.29144 0.0823402 1.24637 0.123943 1.20044 0.16728C1.15627 0.338913 1.12984 0.514626 1.12156 0.691657C1.12156 0.539111 1.12936 0.385699 1.1337 0.232286C1.02006 0.354452 0.916297 0.485452 0.823403 0.624052C0.610185 1.16923 0.297291 1.69188 0.289491 1.98657C0.132611 4.3753 0.0216685 6.76924 0 9.15018Z" fill="url(#paint0_linear_69_335)" fill-opacity="0.8"/>
<path d="M8.82227 9.15018C8.94534 9.15451 9.06842 9.02797 9.12563 9.22472C9.24177 9.84617 8.8292 10.3454 8.94621 10.9669L9.14556 11.0119C9.05888 11.493 8.94968 11.9931 8.85607 12.5053C8.88496 13.4466 8.93263 14.3838 8.99908 15.317C9.07189 15.2928 9.13863 15.2815 9.16463 15.3742C9.21837 15.7625 9.14816 16.2999 9.12736 16.8572C9.13949 16.9387 9.15076 17.021 9.16203 17.1025C9.20058 17.1504 9.25619 17.1815 9.31718 17.1892C9.31111 17.4414 9.29204 17.665 9.27037 17.8731C9.66214 20.6068 10.1224 23.3829 10.5765 26.3922C10.7603 27.0284 10.9432 27.6655 11.0273 28.2783C11.1035 29.1866 10.9735 30.3463 10.9501 31.2321C11.653 31.0961 11.9963 33.2551 12.707 32.8243C12.6914 33.4146 12.668 34.2978 12.8673 34.3463C13.4628 34.4841 14.1493 34.9383 14.5081 36.5062C14.5948 37.1199 14.3417 38.0664 14.4622 38.2787C14.6528 38.6194 14.8825 37.4831 15.0689 37.8237C15.2847 33.2629 15.0264 28.8711 15.0316 24.2791C14.7204 22.719 14.5835 12.1734 14.7213 9.46567C14.7213 9.38333 14.7161 9.30099 14.7126 9.21952C14.7516 7.74173 14.6979 5.94757 14.4309 4.69773C14.2654 4.12395 14.0643 3.5415 13.8702 2.96425C13.7549 3.23381 13.6387 3.4843 13.5235 3.70098C13.5382 3.10986 13.5538 2.51875 13.4264 2.29166C13.1265 1.03402 12.7746 1.74648 12.2996 2.23012C12.0907 2.57682 11.7701 2.10791 11.5568 2.65309C11.5664 2.26046 11.5716 2.06284 11.582 1.66848C11.3835 1.62341 11.6834 2.88191 11.3575 2.60802C11.4338 2.22926 11.3124 1.80455 11.3228 1.41192C11.0524 1.548 11.2205 2.77443 10.9553 2.71203C10.8946 2.49968 11.3176 1.60694 10.9865 1.53066C10.9198 1.51593 10.9102 1.90943 10.905 2.10618C10.8028 0.892742 10.4873 0.227086 10.125 1.33305C10.1354 0.949081 10.2758 0.405635 10.2299 0L10.2247 0C10.2134 0.202817 10.1449 0.552114 10.138 0.73933C10.144 0.509643 10.1501 0.278224 10.1562 0.0459371C10.1094 0.0823402 10.0634 0.123943 10.0175 0.16728C9.97319 0.338856 9.94705 0.514614 9.9395 0.691657C9.9395 0.539111 9.9473 0.385699 9.95076 0.232286C9.83741 0.354473 9.73394 0.485473 9.64134 0.624052C9.42725 1.16923 9.11436 1.69188 9.10656 1.98657C8.95575 4.3753 8.8448 6.76924 8.82227 9.15018Z" fill="url(#paint1_linear_69_335)" fill-opacity="0.8"/>
<path d="M28.4338 25.8418V11.9246H36.1081C36.7973 11.9246 37.407 12.0771 37.9372 12.3819C38.4807 12.6868 38.9048 13.1043 39.2096 13.6345C39.5278 14.1646 39.6868 14.781 39.6868 15.4835C39.6868 15.9474 39.5874 16.3914 39.3886 16.8155C39.203 17.2397 38.9446 17.6108 38.6132 17.9289C38.2818 18.2337 37.8975 18.4723 37.4601 18.6446C37.9637 18.7904 38.4078 19.0356 38.7921 19.3803C39.1898 19.7249 39.5012 20.1358 39.7266 20.6129C39.9519 21.0901 40.0646 21.6004 40.0646 22.1438C40.0646 22.8595 39.8989 23.4958 39.5675 24.0524C39.2494 24.6091 38.8054 25.0465 38.2354 25.3646C37.6788 25.6827 37.0359 25.8418 36.3069 25.8418H28.4338ZM30.7997 23.7343H35.6707C36.0683 23.7343 36.4196 23.6482 36.7244 23.4759C37.0293 23.2903 37.2612 23.0451 37.4203 22.7403C37.5926 22.4222 37.6788 22.0908 37.6788 21.7462C37.6788 21.3883 37.5926 21.0636 37.4203 20.772C37.248 20.4671 37.0094 20.2219 36.7046 20.0364C36.3997 19.8508 36.0418 19.758 35.6309 19.758H30.7997V23.7343ZM30.7997 17.75H35.3725C35.7436 17.75 36.075 17.6638 36.3666 17.4915C36.6714 17.3192 36.9034 17.0939 37.0624 16.8155C37.2347 16.5239 37.3209 16.2124 37.3209 15.8811C37.3209 15.5365 37.2414 15.225 37.0823 14.9466C36.9233 14.6683 36.6979 14.443 36.4063 14.2707C36.128 14.0984 35.8033 14.0122 35.4321 14.0122H30.7997V17.75ZM42.2559 25.8418V15.7021L44.5423 15.7021V25.8418H42.2559ZM43.3891 14.2906C42.9915 14.2906 42.6469 14.1448 42.3553 13.8532C42.0637 13.5616 41.9179 13.2169 41.9179 12.8193C41.9179 12.4217 42.0637 12.0771 42.3553 11.7855C42.6469 11.4939 42.9915 11.3481 43.3891 11.3481C43.8 11.3481 44.1446 11.4939 44.423 11.7855C44.7146 12.0771 44.8604 12.4217 44.8604 12.8193C44.8604 13.2169 44.7146 13.5616 44.423 13.8532C44.1446 14.1448 43.8 14.2906 43.3891 14.2906ZM48.8154 29.8778V27.9294H53.9051C54.2498 27.9294 54.5148 27.8233 54.7004 27.6113C54.8992 27.3992 54.9986 27.1341 54.9986 26.816V24.1916H54.9788C54.6872 24.5495 54.3757 24.861 54.0443 25.1261C53.713 25.3779 53.3352 25.5767 52.9111 25.7225C52.5002 25.8551 52.0429 25.9213 51.5392 25.9213C50.6114 25.9213 49.783 25.7026 49.054 25.2652C48.325 24.8278 47.7485 24.2181 47.3243 23.4361C46.9134 22.6408 46.708 21.7329 46.708 20.7123C46.708 19.7182 46.9134 18.8302 47.3243 18.0482C47.7485 17.2529 48.3515 16.6233 49.1335 16.1594C49.9156 15.6955 50.8699 15.4636 51.9965 15.4636C53.0701 15.4636 53.9979 15.6889 54.7799 16.1395C55.5752 16.5902 56.1915 17.2264 56.6289 18.0482C57.0663 18.8567 57.285 19.8044 57.285 20.8913V26.9154C57.285 27.83 57.0199 28.5523 56.4898 29.0825C55.9596 29.6127 55.2372 29.8778 54.3227 29.8778H48.8154ZM51.9766 23.9729C52.5863 23.9729 53.1099 23.8337 53.5473 23.5554C53.9979 23.2638 54.3425 22.8794 54.5811 22.4023C54.833 21.9119 54.9589 21.3684 54.9589 20.772C54.9589 20.1358 54.8396 19.5658 54.601 19.0621C54.3624 18.5585 54.0178 18.1608 53.5672 17.8692C53.1298 17.5644 52.5996 17.412 51.9766 17.412C51.3669 17.412 50.8367 17.5644 50.3861 17.8692C49.9487 18.1608 49.6107 18.5585 49.3721 19.0621C49.1335 19.5526 49.0143 20.1093 49.0143 20.7322C49.0143 21.3287 49.1335 21.8721 49.3721 22.3625C49.6107 22.8529 49.9487 23.2439 50.3861 23.5355C50.8367 23.8271 51.3669 23.9729 51.9766 23.9729ZM65.245 25.8418V23.7542H71.2294C71.6138 23.7542 71.9451 23.6614 72.2235 23.4759C72.5151 23.2903 72.7404 23.0517 72.8994 22.7601C73.0717 22.4553 73.1579 22.1372 73.1579 21.8058C73.1579 21.4479 73.0784 21.1232 72.9193 20.8316C72.7603 20.54 72.5349 20.3081 72.2433 20.1358C71.965 19.9635 71.6403 19.8773 71.2691 19.8773H68.7839C68.0019 19.8773 67.2994 19.7182 66.6765 19.4001C66.0668 19.0688 65.583 18.6115 65.2251 18.0283C64.8672 17.4451 64.6883 16.7559 64.6883 15.9606C64.6883 15.1653 64.8606 14.4695 65.2052 13.873C65.5498 13.2633 66.0204 12.7862 66.6168 12.4416C67.2133 12.0969 67.8893 11.9246 68.6448 11.9246H74.6291V14.0122H68.8635C68.5188 14.0122 68.2074 14.0984 67.929 14.2707C67.6507 14.443 67.432 14.6683 67.2729 14.9466C67.1271 15.225 67.0542 15.5232 67.0542 15.8413C67.0542 16.1727 67.1271 16.4775 67.2729 16.7559C67.432 17.021 67.644 17.2397 67.9091 17.412C68.1875 17.571 68.499 17.6506 68.8436 17.6506H71.3884C72.2367 17.6506 72.9657 17.8162 73.5754 18.1476C74.1984 18.479 74.6755 18.9362 75.0069 19.5194C75.3515 20.1026 75.5238 20.772 75.5238 21.5275C75.5238 22.4155 75.3449 23.1843 74.987 23.8337C74.6424 24.47 74.1652 24.967 73.5555 25.3249C72.9591 25.6695 72.2831 25.8418 71.5276 25.8418H65.245ZM77.6701 25.8418V11.3282H79.9565V16.7161C80.3674 16.2787 80.8445 15.9606 81.388 15.7618C81.9314 15.563 82.4815 15.4636 83.0381 15.4636C83.966 15.4636 84.7546 15.6624 85.4041 16.06C86.0668 16.4444 86.5705 16.9812 86.9151 17.6704C87.2597 18.3464 87.432 19.1218 87.432 19.9966V25.8418H85.1655V20.0165C85.1655 19.4995 85.0396 19.0489 84.7877 18.6645C84.5492 18.2669 84.231 17.962 83.8334 17.75C83.449 17.5246 83.0183 17.412 82.5411 17.412C82.0905 17.412 81.6663 17.518 81.2687 17.7301C80.871 17.9421 80.5529 18.2404 80.3144 18.6248C80.0758 19.0091 79.9565 19.4465 79.9565 19.9369V25.8418H77.6701ZM94.2893 26.0804C93.3217 26.0804 92.4867 25.8418 91.7842 25.3646C91.0817 24.8875 90.5383 24.2513 90.1539 23.456C89.7828 22.6475 89.5972 21.7594 89.5972 20.7919C89.5972 19.7845 89.8093 18.8832 90.2334 18.0879C90.6708 17.2794 91.2872 16.6432 92.0824 16.1793C92.891 15.7021 93.8519 15.4636 94.9653 15.4636C96.0654 15.4636 96.9998 15.7021 97.7686 16.1793C98.5506 16.6432 99.1471 17.2794 99.5579 18.0879C99.9821 18.8832 100.194 19.7713 100.194 20.7521V25.8418H97.9078V23.953H97.868C97.6692 24.3242 97.4107 24.6754 97.0926 25.0068C96.7745 25.3249 96.3835 25.5833 95.9196 25.7822C95.4557 25.981 94.9123 26.0804 94.2893 26.0804ZM94.9056 24.132C95.5021 24.132 96.019 23.9862 96.4564 23.6946C96.9071 23.3897 97.2583 22.9855 97.5101 22.4818C97.762 21.9649 97.8813 21.3883 97.868 20.7521C97.868 20.1159 97.7487 19.5526 97.5101 19.0621C97.2716 18.5585 96.9336 18.1608 96.4962 17.8692C96.0588 17.5644 95.5352 17.412 94.9255 17.412C94.2893 17.412 93.7459 17.5644 93.2952 17.8692C92.8446 18.1608 92.5 18.5585 92.2614 19.0621C92.0228 19.5658 91.9035 20.1358 91.9035 20.772C91.9035 21.3949 92.0228 21.9649 92.2614 22.4818C92.5 22.9855 92.8379 23.3897 93.2753 23.6946C93.726 23.9862 94.2694 24.132 94.9056 24.132ZM102.85 25.8418V18.585C102.85 17.6837 103.102 16.9812 103.606 16.4775C104.123 15.9606 104.832 15.7021 105.733 15.7021L108.179 15.7021V17.6506L106.151 17.6506C105.833 17.6506 105.581 17.7433 105.395 17.9289C105.223 18.1145 105.137 18.3663 105.137 18.6844V25.8418H102.85ZM114.894 25.8418C113.754 25.8418 112.753 25.6297 111.892 25.2056C111.043 24.7682 110.381 24.1717 109.903 23.4162C109.426 22.6475 109.188 21.7661 109.188 20.772C109.188 19.7249 109.4 18.8037 109.824 18.0084C110.248 17.2132 110.831 16.5902 111.573 16.1395C112.316 15.6889 113.171 15.4636 114.138 15.4636C115.225 15.4636 116.12 15.6955 116.822 16.1594C117.525 16.6233 118.042 17.2463 118.373 18.0283C118.718 18.8103 118.89 19.6851 118.89 20.6527C118.89 20.7852 118.883 20.9377 118.87 21.11C118.857 21.2823 118.837 21.4148 118.81 21.5076H111.613C111.693 22.0378 111.885 22.4818 112.19 22.8397C112.495 23.1843 112.879 23.4494 113.343 23.6349C113.807 23.8072 114.324 23.8934 114.894 23.8934H117.617V25.8418H114.894ZM111.593 19.9568H116.604C116.59 19.705 116.551 19.4532 116.484 19.2013C116.431 18.9495 116.338 18.7109 116.206 18.4856C116.087 18.2603 115.928 18.0681 115.729 17.909C115.543 17.7367 115.318 17.6042 115.053 17.5114C114.788 17.4053 114.483 17.3523 114.138 17.3523C113.741 17.3523 113.389 17.4319 113.084 17.5909C112.78 17.7367 112.521 17.9355 112.309 18.1874C112.097 18.4259 111.931 18.7043 111.812 19.0224C111.706 19.3272 111.633 19.6387 111.593 19.9568Z" fill="white"/>
<defs>
<linearGradient id="paint0_linear_69_335" x1="3.16827" y1="0" x2="3.16827" y2="38.3432" gradientUnits="userSpaceOnUse">
<stop offset="0.25" stop-color="#1DBF73"/>
<stop offset="1" stop-color="#0071D7"/>
</linearGradient>
<linearGradient id="paint1_linear_69_335" x1="11.9886" y1="0" x2="11.9886" y2="38.3432" gradientUnits="userSpaceOnUse">
<stop offset="0.25" stop-color="#1DBF73"/>
<stop offset="1" stop-color="#0071D7"/>
</linearGradient>
</defs>
</svg>
