<svg width="204" height="204" viewBox="0 0 204 204" fill="none" xmlns="http://www.w3.org/2000/svg">
<rect width="204" height="204" fill="#F8FBFF"/>
<path d="M40.9557 109V94.4364H47.322C48.9032 94.4364 50.2902 94.7416 51.4831 95.3518C52.6759 95.9621 53.6052 96.8082 54.271 97.8901C54.9367 98.9719 55.2696 100.248 55.2696 101.718C55.2696 103.175 54.9367 104.451 54.271 105.546C53.6052 106.628 52.6759 107.474 51.4831 108.085C50.2902 108.695 48.9032 109 47.322 109H40.9557ZM43.6603 106.711H47.1972C48.293 106.711 49.2361 106.503 50.0267 106.087C50.8312 105.671 51.4484 105.089 51.8784 104.34C52.3222 103.591 52.5441 102.717 52.5441 101.718C52.5441 100.706 52.3222 99.8319 51.8784 99.0968C51.4484 98.3478 50.8312 97.7652 50.0267 97.3491C49.2361 96.933 48.293 96.725 47.1972 96.725H43.6603V106.711ZM58.3107 109V97.8901H60.9114V109H58.3107ZM59.6214 96.0592C59.136 96.0592 58.7338 95.9066 58.4147 95.6015C58.1096 95.2964 57.957 94.9288 57.957 94.4988C57.957 94.055 58.1096 93.6874 58.4147 93.3962C58.7338 93.091 59.136 92.9385 59.6214 92.9385C60.1069 92.9385 60.5022 93.0841 60.8073 93.3754C61.1263 93.6528 61.2859 94.0064 61.2859 94.4364C61.2859 94.8941 61.1333 95.2825 60.8281 95.6015C60.523 95.9066 60.1208 96.0592 59.6214 96.0592ZM71.5857 109V106.753L71.4401 106.275V102.342C71.4401 101.58 71.2112 100.99 70.7535 100.574C70.2958 100.144 69.6023 99.929 68.673 99.929C68.0488 99.929 67.4316 100.026 66.8213 100.22C66.2249 100.414 65.7186 100.685 65.3025 101.032L64.2831 99.1384C64.8795 98.6807 65.5869 98.3408 66.4052 98.1189C67.2374 97.8831 68.0974 97.7652 68.985 97.7652C70.594 97.7652 71.8353 98.1536 72.7092 98.9303C73.5968 99.6932 74.0407 100.879 74.0407 102.488V109H71.5857ZM68.0904 109.146C67.2582 109.146 66.53 109.007 65.9059 108.73C65.2817 108.438 64.7963 108.043 64.4495 107.544C64.1167 107.03 63.9502 106.455 63.9502 105.817C63.9502 105.193 64.0958 104.631 64.3871 104.132C64.6923 103.632 65.1846 103.237 65.8643 102.946C66.5439 102.654 67.4455 102.509 68.5689 102.509H71.7937V104.236H68.7562C67.8685 104.236 67.2721 104.381 66.967 104.673C66.6618 104.95 66.5092 105.297 66.5092 105.713C66.5092 106.184 66.6965 106.559 67.071 106.836C67.4455 107.114 67.9656 107.252 68.6314 107.252C69.2694 107.252 69.8381 107.107 70.3374 106.815C70.8506 106.524 71.2181 106.094 71.4401 105.526L71.877 107.086C71.6273 107.738 71.1765 108.244 70.5246 108.605C69.8866 108.965 69.0752 109.146 68.0904 109.146ZM77.7944 109V93.5626H80.395V109H77.7944Z" fill="#0E100E"/>
<path d="M84.703 109V94.4364H86.409L92.9418 105.442H92.0264L98.476 94.4364H100.182L100.203 109H98.2055L98.1847 97.578H98.6632L92.921 107.232H91.964L86.1801 97.578H86.7003V109H84.703ZM109.421 109.125C108.311 109.125 107.327 108.882 106.467 108.397C105.607 107.911 104.927 107.245 104.428 106.399C103.929 105.539 103.679 104.569 103.679 103.487C103.679 102.391 103.929 101.42 104.428 100.574C104.927 99.7279 105.607 99.069 106.467 98.5974C107.327 98.112 108.311 97.8693 109.421 97.8693C110.517 97.8693 111.495 98.112 112.355 98.5974C113.228 99.069 113.908 99.7279 114.394 100.574C114.893 101.406 115.142 102.377 115.142 103.487C115.142 104.582 114.893 105.553 114.394 106.399C113.908 107.245 113.228 107.911 112.355 108.397C111.495 108.882 110.517 109.125 109.421 109.125ZM109.421 107.377C110.128 107.377 110.76 107.218 111.314 106.899C111.883 106.58 112.327 106.129 112.646 105.546C112.965 104.95 113.124 104.263 113.124 103.487C113.124 102.696 112.965 102.016 112.646 101.448C112.327 100.865 111.883 100.414 111.314 100.095C110.76 99.7764 110.128 99.6169 109.421 99.6169C108.714 99.6169 108.083 99.7764 107.528 100.095C106.973 100.414 106.529 100.865 106.196 101.448C105.863 102.016 105.697 102.696 105.697 103.487C105.697 104.263 105.863 104.95 106.196 105.546C106.529 106.129 106.973 106.58 107.528 106.899C108.083 107.218 108.714 107.377 109.421 107.377ZM120.908 109L116.081 97.9733H118.162L122.448 107.96H121.449L125.818 97.9733H127.774L122.947 109H120.908ZM130.054 109V97.9733H132.051V109H130.054ZM131.052 95.8512C130.664 95.8512 130.338 95.7263 130.075 95.4767C129.825 95.227 129.7 94.9219 129.7 94.5613C129.7 94.1868 129.825 93.8747 130.075 93.625C130.338 93.3754 130.664 93.2505 131.052 93.2505C131.441 93.2505 131.76 93.3754 132.009 93.625C132.273 93.8608 132.405 94.159 132.405 94.5196C132.405 94.8941 132.28 95.2131 132.03 95.4767C131.781 95.7263 131.455 95.8512 131.052 95.8512ZM142.169 97.8693C143.07 97.8693 143.861 98.0426 144.54 98.3894C145.234 98.7361 145.775 99.2632 146.163 99.9706C146.551 100.678 146.746 101.573 146.746 102.654V109H144.748V102.883C144.748 101.815 144.485 101.011 143.958 100.47C143.445 99.929 142.716 99.6585 141.773 99.6585C141.066 99.6585 140.449 99.7972 139.922 100.075C139.394 100.352 138.985 100.761 138.694 101.302C138.417 101.843 138.278 102.516 138.278 103.32V109H136.281V97.9733H138.195V100.948L137.883 100.158C138.243 99.4366 138.798 98.8748 139.547 98.4726C140.296 98.0704 141.17 97.8693 142.169 97.8693ZM155.685 113.161C154.672 113.161 153.688 113.015 152.731 112.724C151.787 112.447 151.018 112.044 150.421 111.517L151.378 109.978C151.891 110.422 152.522 110.768 153.271 111.018C154.02 111.282 154.804 111.413 155.622 111.413C156.926 111.413 157.883 111.108 158.494 110.498C159.104 109.888 159.409 108.958 159.409 107.71V105.38L159.617 103.195L159.513 100.99V97.9733H161.406V107.502C161.406 109.444 160.921 110.872 159.95 111.788C158.979 112.703 157.557 113.161 155.685 113.161ZM155.435 108.542C154.367 108.542 153.41 108.32 152.564 107.877C151.732 107.419 151.066 106.788 150.567 105.983C150.081 105.179 149.839 104.249 149.839 103.195C149.839 102.127 150.081 101.198 150.567 100.407C151.066 99.603 151.732 98.9789 152.564 98.535C153.41 98.0912 154.367 97.8693 155.435 97.8693C156.378 97.8693 157.238 98.0634 158.015 98.4518C158.792 98.8263 159.409 99.4088 159.867 100.199C160.338 100.99 160.574 101.989 160.574 103.195C160.574 104.388 160.338 105.38 159.867 106.171C159.409 106.961 158.792 107.558 158.015 107.96C157.238 108.348 156.378 108.542 155.435 108.542ZM155.664 106.795C156.399 106.795 157.051 106.642 157.62 106.337C158.188 106.032 158.632 105.609 158.951 105.068C159.284 104.527 159.451 103.903 159.451 103.195C159.451 102.488 159.284 101.864 158.951 101.323C158.632 100.782 158.188 100.366 157.62 100.075C157.051 99.7695 156.399 99.6169 155.664 99.6169C154.929 99.6169 154.27 99.7695 153.688 100.075C153.119 100.366 152.668 100.782 152.335 101.323C152.016 101.864 151.857 102.488 151.857 103.195C151.857 103.903 152.016 104.527 152.335 105.068C152.668 105.609 153.119 106.032 153.688 106.337C154.27 106.642 154.929 106.795 155.664 106.795Z" fill="#48CFAD"/>
<path d="M40.8564 115.884L162.343 114.77V115.884L40.8564 116.999V115.884Z" fill="url(#paint0_linear_735_1880)"/>
<defs>
<linearGradient id="paint0_linear_735_1880" x1="40.2992" y1="116.07" x2="162.343" y2="115.885" gradientUnits="userSpaceOnUse">
<stop stop-color="#48CFAD"/>
<stop offset="1" stop-color="#48CFAD" stop-opacity="0"/>
</linearGradient>
</defs>
</svg>
