<svg width="189" height="106" viewBox="0 0 189 106" fill="none" xmlns="http://www.w3.org/2000/svg">
<path d="M111 14V34C111 42 109 44 101 44H89C81 44 79 42 79 34V14C79 6 81 4 89 4H101C109 4 111 6 111 14Z" stroke="white" stroke-width="1.5" stroke-linecap="round" stroke-linejoin="round"/>
<path d="M99.001 11H91.001" stroke="white" stroke-width="1.5" stroke-linecap="round" stroke-linejoin="round"/>
<path d="M95.0004 38.2C96.7125 38.2 98.1004 36.8121 98.1004 35.1C98.1004 33.3879 96.7125 32 95.0004 32C93.2883 32 91.9004 33.3879 91.9004 35.1C91.9004 36.8121 93.2883 38.2 95.0004 38.2Z" stroke="white" stroke-width="1.5" stroke-linecap="round" stroke-linejoin="round"/>
<path d="M12.8301 84H14.9301V98H13.0901V87.06L8.51008 94.68H8.27008L3.69008 87.08V98H1.83008V84H3.93008L8.39008 91.4L12.8301 84ZM26.1838 96.74C25.1705 97.7533 23.9238 98.26 22.4438 98.26C20.9638 98.26 19.7172 97.7533 18.7038 96.74C17.6905 95.7267 17.1838 94.48 17.1838 93C17.1838 91.52 17.6905 90.2733 18.7038 89.26C19.7172 88.2467 20.9638 87.74 22.4438 87.74C23.9238 87.74 25.1705 88.2467 26.1838 89.26C27.2105 90.2867 27.7238 91.5333 27.7238 93C27.7238 94.4667 27.2105 95.7133 26.1838 96.74ZM22.4438 96.56C23.4438 96.56 24.2838 96.22 24.9638 95.54C25.6438 94.86 25.9838 94.0133 25.9838 93C25.9838 91.9867 25.6438 91.14 24.9638 90.46C24.2838 89.78 23.4438 89.44 22.4438 89.44C21.4572 89.44 20.6238 89.78 19.9438 90.46C19.2638 91.14 18.9238 91.9867 18.9238 93C18.9238 94.0133 19.2638 94.86 19.9438 95.54C20.6238 96.22 21.4572 96.56 22.4438 96.56ZM35.2951 87.74C36.6951 87.74 37.8884 88.2533 38.8751 89.28C39.8617 90.3067 40.3551 91.5467 40.3551 93C40.3551 94.4667 39.8617 95.7133 38.8751 96.74C37.9017 97.7533 36.7084 98.26 35.2951 98.26C33.6417 98.26 32.3817 97.6 31.5151 96.28V98H29.7751V84H31.5151V89.72C32.3817 88.4 33.6417 87.74 35.2951 87.74ZM35.0751 96.58C36.0751 96.58 36.9151 96.24 37.5951 95.56C38.2751 94.8533 38.6151 94 38.6151 93C38.6151 91.9867 38.2751 91.14 37.5951 90.46C36.9151 89.7667 36.0751 89.42 35.0751 89.42C34.0617 89.42 33.2151 89.7667 32.5351 90.46C31.8551 91.14 31.5151 91.9867 31.5151 93C31.5151 94 31.8551 94.8533 32.5351 95.56C33.2151 96.24 34.0617 96.58 35.0751 96.58ZM43.3113 86.18C42.978 86.18 42.698 86.0667 42.4713 85.84C42.2447 85.6133 42.1313 85.34 42.1313 85.02C42.1313 84.7 42.2447 84.4267 42.4713 84.2C42.698 83.96 42.978 83.84 43.3113 83.84C43.6313 83.84 43.9047 83.96 44.1313 84.2C44.358 84.4267 44.4713 84.7 44.4713 85.02C44.4713 85.34 44.358 85.6133 44.1313 85.84C43.9047 86.0667 43.6313 86.18 43.3113 86.18ZM44.1713 98H42.4313V88H44.1713V98ZM48.5659 98H46.8259V83.4H48.5659V98ZM60.8204 93.8H52.4404C52.6137 94.68 53.0204 95.3733 53.6604 95.88C54.3004 96.3733 55.1004 96.62 56.0604 96.62C57.3804 96.62 58.3404 96.1333 58.9404 95.16L60.4204 96C59.4337 97.5067 57.9671 98.26 56.0204 98.26C54.4471 98.26 53.1537 97.7667 52.1404 96.78C51.1537 95.7667 50.6604 94.5067 50.6604 93C50.6604 91.48 51.1471 90.2267 52.1204 89.24C53.0937 88.24 54.3537 87.74 55.9004 87.74C57.3671 87.74 58.5604 88.26 59.4804 89.3C60.4137 90.3133 60.8804 91.5533 60.8804 93.02C60.8804 93.2733 60.8604 93.5333 60.8204 93.8ZM55.9004 89.38C54.9804 89.38 54.2071 89.64 53.5804 90.16C52.9671 90.68 52.5871 91.3867 52.4404 92.28H59.1204C58.9737 91.36 58.6071 90.6467 58.0204 90.14C57.4337 89.6333 56.7271 89.38 55.9004 89.38ZM76.1605 89.72V84H77.9005V98H76.1605V96.28C75.3072 97.6 74.0472 98.26 72.3805 98.26C70.9672 98.26 69.7739 97.7533 68.8005 96.74C67.8139 95.7133 67.3205 94.4667 67.3205 93C67.3205 91.5467 67.8139 90.3067 68.8005 89.28C69.7872 88.2533 70.9805 87.74 72.3805 87.74C74.0472 87.74 75.3072 88.4 76.1605 89.72ZM72.6005 96.58C73.6139 96.58 74.4605 96.24 75.1405 95.56C75.8205 94.8533 76.1605 94 76.1605 93C76.1605 91.9867 75.8205 91.14 75.1405 90.46C74.4605 89.7667 73.6139 89.42 72.6005 89.42C71.6005 89.42 70.7605 89.7667 70.0805 90.46C69.4005 91.14 69.0605 91.9867 69.0605 93C69.0605 94 69.4005 94.8533 70.0805 95.56C70.7605 96.24 71.6005 96.58 72.6005 96.58ZM90.1368 93.8H81.7568C81.9301 94.68 82.3368 95.3733 82.9768 95.88C83.6168 96.3733 84.4168 96.62 85.3768 96.62C86.6968 96.62 87.6568 96.1333 88.2568 95.16L89.7368 96C88.7501 97.5067 87.2835 98.26 85.3368 98.26C83.7635 98.26 82.4701 97.7667 81.4568 96.78C80.4701 95.7667 79.9768 94.5067 79.9768 93C79.9768 91.48 80.4635 90.2267 81.4368 89.24C82.4101 88.24 83.6701 87.74 85.2168 87.74C86.6835 87.74 87.8768 88.26 88.7968 89.3C89.7301 90.3133 90.1968 91.5533 90.1968 93.02C90.1968 93.2733 90.1768 93.5333 90.1368 93.8ZM85.2168 89.38C84.2968 89.38 83.5235 89.64 82.8968 90.16C82.2835 90.68 81.9035 91.3867 81.7568 92.28H88.4368C88.2901 91.36 87.9235 90.6467 87.3368 90.14C86.7501 89.6333 86.0435 89.38 85.2168 89.38ZM95.6663 96.14L98.8063 88H100.686L96.6863 98H94.6463L90.6463 88H92.5263L95.6663 96.14ZM111.367 93.8H102.987C103.161 94.68 103.567 95.3733 104.207 95.88C104.847 96.3733 105.647 96.62 106.607 96.62C107.927 96.62 108.887 96.1333 109.487 95.16L110.967 96C109.981 97.5067 108.514 98.26 106.567 98.26C104.994 98.26 103.701 97.7667 102.687 96.78C101.701 95.7667 101.207 94.5067 101.207 93C101.207 91.48 101.694 90.2267 102.667 89.24C103.641 88.24 104.901 87.74 106.447 87.74C107.914 87.74 109.107 88.26 110.027 89.3C110.961 90.3133 111.427 91.5533 111.427 93.02C111.427 93.2733 111.407 93.5333 111.367 93.8ZM106.447 89.38C105.527 89.38 104.754 89.64 104.127 90.16C103.514 90.68 103.134 91.3867 102.987 92.28H109.667C109.521 91.36 109.154 90.6467 108.567 90.14C107.981 89.6333 107.274 89.38 106.447 89.38ZM115.167 98H113.427V83.4H115.167V98ZM126.262 96.74C125.249 97.7533 124.002 98.26 122.522 98.26C121.042 98.26 119.795 97.7533 118.782 96.74C117.769 95.7267 117.262 94.48 117.262 93C117.262 91.52 117.769 90.2733 118.782 89.26C119.795 88.2467 121.042 87.74 122.522 87.74C124.002 87.74 125.249 88.2467 126.262 89.26C127.289 90.2867 127.802 91.5333 127.802 93C127.802 94.4667 127.289 95.7133 126.262 96.74ZM122.522 96.56C123.522 96.56 124.362 96.22 125.042 95.54C125.722 94.86 126.062 94.0133 126.062 93C126.062 91.9867 125.722 91.14 125.042 90.46C124.362 89.78 123.522 89.44 122.522 89.44C121.535 89.44 120.702 89.78 120.022 90.46C119.342 91.14 119.002 91.9867 119.002 93C119.002 94.0133 119.342 94.86 120.022 95.54C120.702 96.22 121.535 96.56 122.522 96.56ZM135.373 87.74C136.773 87.74 137.967 88.2533 138.953 89.28C139.94 90.3067 140.433 91.5467 140.433 93C140.433 94.4667 139.94 95.7133 138.953 96.74C137.98 97.7533 136.787 98.26 135.373 98.26C133.72 98.26 132.46 97.6 131.593 96.28V102H129.853V88H131.593V89.72C132.46 88.4 133.72 87.74 135.373 87.74ZM135.153 96.58C136.153 96.58 136.993 96.24 137.673 95.56C138.353 94.8533 138.693 94 138.693 93C138.693 91.9867 138.353 91.14 137.673 90.46C136.993 89.7667 136.153 89.42 135.153 89.42C134.14 89.42 133.293 89.7667 132.613 90.46C131.933 91.14 131.593 91.9867 131.593 93C131.593 94 131.933 94.8533 132.613 95.56C133.293 96.24 134.14 96.58 135.153 96.58ZM153.309 87.74C154.443 87.74 155.349 88.1067 156.029 88.84C156.723 89.5733 157.069 90.5533 157.069 91.78V98H155.329V91.84C155.329 91.08 155.129 90.4867 154.729 90.06C154.343 89.62 153.809 89.4 153.129 89.4C152.356 89.4 151.749 89.66 151.309 90.18C150.883 90.6867 150.669 91.44 150.669 92.44V98H148.929V91.84C148.929 91.08 148.736 90.4867 148.349 90.06C147.976 89.62 147.463 89.4 146.809 89.4C146.049 89.4 145.429 89.6667 144.949 90.2C144.483 90.72 144.249 91.4667 144.249 92.44V98H142.509V88H144.249V89.34C144.929 88.2733 145.923 87.74 147.229 87.74C148.576 87.74 149.556 88.3067 150.169 89.44C150.863 88.3067 151.909 87.74 153.309 87.74ZM169.082 93.8H160.702C160.875 94.68 161.282 95.3733 161.922 95.88C162.562 96.3733 163.362 96.62 164.322 96.62C165.642 96.62 166.602 96.1333 167.202 95.16L168.682 96C167.695 97.5067 166.229 98.26 164.282 98.26C162.709 98.26 161.415 97.7667 160.402 96.78C159.415 95.7667 158.922 94.5067 158.922 93C158.922 91.48 159.409 90.2267 160.382 89.24C161.355 88.24 162.615 87.74 164.162 87.74C165.629 87.74 166.822 88.26 167.742 89.3C168.675 90.3133 169.142 91.5533 169.142 93.02C169.142 93.2733 169.122 93.5333 169.082 93.8ZM164.162 89.38C163.242 89.38 162.469 89.64 161.842 90.16C161.229 90.68 160.849 91.3867 160.702 92.28H167.382C167.235 91.36 166.869 90.6467 166.282 90.14C165.695 89.6333 164.989 89.38 164.162 89.38ZM176.122 87.74C177.296 87.74 178.236 88.1133 178.942 88.86C179.649 89.5933 180.002 90.5933 180.002 91.86V98H178.262V91.96C178.262 91.16 178.042 90.5333 177.602 90.08C177.162 89.6267 176.556 89.4 175.782 89.4C174.889 89.4 174.182 89.68 173.662 90.24C173.142 90.7867 172.882 91.6067 172.882 92.7V98H171.142V88H172.882V89.44C173.576 88.3067 174.656 87.74 176.122 87.74ZM187.871 88V89.68H185.211V95.1C185.211 95.5933 185.305 95.9467 185.491 96.16C185.691 96.36 185.991 96.4667 186.391 96.48C186.791 96.48 187.285 96.4667 187.871 96.44V98C186.338 98.2 185.218 98.0733 184.511 97.62C183.818 97.1667 183.471 96.3267 183.471 95.1V89.68H181.491V88H183.471V85.72L185.211 85.2V88H187.871Z" fill="white"/>
</svg>
