<svg width="48" height="48" viewBox="0 0 48 48" fill="none" xmlns="http://www.w3.org/2000/svg">
<path d="M41 19C44 19 44 20 44 22V26C44 28 44 29 41 29" stroke="white" stroke-width="1.5" stroke-linecap="round" stroke-linejoin="round"/>
<path d="M20 16L16.22 21C15.44 22.34 16.4 24 17.94 24H22.54C24.08 24 25.04 25.66 24.28 27L20 32" stroke="white" stroke-width="1.5" stroke-linecap="round" stroke-linejoin="round"/>
<path d="M14 38C6 38 4 36 4 28V20C4 12 6 10 14 10" stroke="white" stroke-width="1.5" stroke-linecap="round" stroke-linejoin="round"/>
<path d="M26 10C34 10 36 12 36 20V28C36 36 34 38 26 38" stroke="white" stroke-width="1.5" stroke-linecap="round" stroke-linejoin="round"/>
</svg>
