<svg width="48" height="48" viewBox="0 0 48 48" fill="none" xmlns="http://www.w3.org/2000/svg">
<path d="M41 19C44 19 44 20 44 22V26C44 28 44 29 41 29" stroke="#7DE2B7" stroke-width="1.5" stroke-linecap="round" stroke-linejoin="round"/>
<path d="M19.9999 16L16.2199 21C15.4399 22.34 16.3999 24 17.9399 24H22.5399C24.0799 24 25.0399 25.66 24.2799 27L19.9999 32" stroke="#7DE2B7" stroke-width="1.5" stroke-linecap="round" stroke-linejoin="round"/>
<path d="M14 38C6 38 4 36 4 28V20C4 12 6 10 14 10" stroke="#0360B2" stroke-width="1.5" stroke-linecap="round" stroke-linejoin="round"/>
<path d="M26 10C34 10 36 12 36 20V28C36 36 34 38 26 38" stroke="#0360B2" stroke-width="1.5" stroke-linecap="round" stroke-linejoin="round"/>
</svg>
