<svg width="140" height="106" viewBox="0 0 140 106" fill="none" xmlns="http://www.w3.org/2000/svg">
<path d="M87 19C90 19 90 20 90 22V26C90 28 90 29 87 29" stroke="#7DE2B7" stroke-width="1.5" stroke-linecap="round" stroke-linejoin="round"/>
<path d="M65.9999 16L62.2199 21C61.4399 22.34 62.3999 24 63.9399 24H68.5399C70.0799 24 71.0399 25.66 70.2799 27L65.9999 32" stroke="#7DE2B7" stroke-width="1.5" stroke-linecap="round" stroke-linejoin="round"/>
<path d="M60 38C52 38 50 36 50 28V20C50 12 52 10 60 10" stroke="#0360B2" stroke-width="1.5" stroke-linecap="round" stroke-linejoin="round"/>
<path d="M72 10C80 10 82 12 82 20V28C82 36 80 38 72 38" stroke="#0360B2" stroke-width="1.5" stroke-linecap="round" stroke-linejoin="round"/>
<path d="M12.832 84H14.932V98H13.092V87.06L8.51203 94.68H8.27203L3.69203 87.08V98H1.83203V84H3.93203L8.39203 91.4L12.832 84ZM26.1858 96.74C25.1724 97.7533 23.9258 98.26 22.4458 98.26C20.9658 98.26 19.7191 97.7533 18.7058 96.74C17.6924 95.7267 17.1858 94.48 17.1858 93C17.1858 91.52 17.6924 90.2733 18.7058 89.26C19.7191 88.2467 20.9658 87.74 22.4458 87.74C23.9258 87.74 25.1724 88.2467 26.1858 89.26C27.2124 90.2867 27.7258 91.5333 27.7258 93C27.7258 94.4667 27.2124 95.7133 26.1858 96.74ZM22.4458 96.56C23.4458 96.56 24.2858 96.22 24.9658 95.54C25.6458 94.86 25.9858 94.0133 25.9858 93C25.9858 91.9867 25.6458 91.14 24.9658 90.46C24.2858 89.78 23.4458 89.44 22.4458 89.44C21.4591 89.44 20.6258 89.78 19.9458 90.46C19.2658 91.14 18.9258 91.9867 18.9258 93C18.9258 94.0133 19.2658 94.86 19.9458 95.54C20.6258 96.22 21.4591 96.56 22.4458 96.56ZM31.517 88V89.68C32.0904 88.44 33.1304 87.82 34.637 87.82V89.64C33.7837 89.6 33.0504 89.8267 32.437 90.32C31.8237 90.8133 31.517 91.6067 31.517 92.7V98H29.777V88H31.517ZM45.3927 93.8H37.0127C37.186 94.68 37.5927 95.3733 38.2327 95.88C38.8727 96.3733 39.6727 96.62 40.6327 96.62C41.9527 96.62 42.9127 96.1333 43.5127 95.16L44.9927 96C44.006 97.5067 42.5393 98.26 40.5927 98.26C39.0193 98.26 37.726 97.7667 36.7127 96.78C35.726 95.7667 35.2327 94.5067 35.2327 93C35.2327 91.48 35.7193 90.2267 36.6927 89.24C37.666 88.24 38.926 87.74 40.4727 87.74C41.9393 87.74 43.1327 88.26 44.0527 89.3C44.986 90.3133 45.4527 91.5533 45.4527 93.02C45.4527 93.2733 45.4327 93.5333 45.3927 93.8ZM40.4727 89.38C39.5527 89.38 38.7793 89.64 38.1527 90.16C37.5393 90.68 37.1593 91.3867 37.0127 92.28H43.6927C43.546 91.36 43.1793 90.6467 42.5927 90.14C42.006 89.6333 41.2993 89.38 40.4727 89.38ZM57.8928 88V89.68H55.2328V95.1C55.2328 95.5933 55.3261 95.9467 55.5128 96.16C55.7128 96.36 56.0128 96.4667 56.4128 96.48C56.8128 96.48 57.3061 96.4667 57.8928 96.44V98C56.3595 98.2 55.2395 98.0733 54.5328 97.62C53.8395 97.1667 53.4928 96.3267 53.4928 95.1V89.68H51.5128V88H53.4928V85.72L55.2328 85.2V88H57.8928ZM64.9328 87.74C66.1061 87.74 67.0461 88.1133 67.7528 88.86C68.4595 89.5933 68.8128 90.5933 68.8128 91.86V98H67.0728V91.96C67.0728 91.16 66.8528 90.5333 66.4128 90.08C65.9728 89.6267 65.3661 89.4 64.5928 89.4C63.6995 89.4 62.9928 89.68 62.4728 90.24C61.9528 90.7867 61.6928 91.6067 61.6928 92.7V98H59.9528V84H61.6928V89.44C62.3861 88.3067 63.4661 87.74 64.9328 87.74ZM79.5219 89.72V88H81.2619V98H79.5219V96.28C78.6685 97.6 77.4085 98.26 75.7419 98.26C74.3285 98.26 73.1352 97.7533 72.1619 96.74C71.1752 95.7133 70.6819 94.4667 70.6819 93C70.6819 91.5467 71.1752 90.3067 72.1619 89.28C73.1485 88.2533 74.3419 87.74 75.7419 87.74C77.4085 87.74 78.6685 88.4 79.5219 89.72ZM75.9619 96.58C76.9752 96.58 77.8219 96.24 78.5019 95.56C79.1819 94.8533 79.5219 94 79.5219 93C79.5219 91.9867 79.1819 91.14 78.5019 90.46C77.8219 89.7667 76.9752 89.42 75.9619 89.42C74.9619 89.42 74.1219 89.7667 73.4419 90.46C72.7619 91.14 72.4219 91.9867 72.4219 93C72.4219 94 72.7619 94.8533 73.4419 95.56C74.1219 96.24 74.9619 96.58 75.9619 96.58ZM88.8781 87.74C90.0515 87.74 90.9915 88.1133 91.6981 88.86C92.4048 89.5933 92.7581 90.5933 92.7581 91.86V98H91.0181V91.96C91.0181 91.16 90.7981 90.5333 90.3581 90.08C89.9181 89.6267 89.3115 89.4 88.5381 89.4C87.6448 89.4 86.9381 89.68 86.4181 90.24C85.8981 90.7867 85.6381 91.6067 85.6381 92.7V98H83.8981V88H85.6381V89.44C86.3315 88.3067 87.4115 87.74 88.8781 87.74ZM109.167 94.26C109.167 95.3667 108.807 96.2667 108.087 96.96C107.367 97.6533 106.434 98.0733 105.287 98.22V100H104.027V98.24C102.947 98.16 102.021 97.86 101.247 97.34C100.474 96.82 99.9139 96.12 99.5672 95.24L101.167 94.32C101.634 95.56 102.587 96.26 104.027 96.42V91.58C102.934 91.1933 102.067 90.7533 101.427 90.26C100.641 89.6467 100.247 88.7533 100.247 87.58C100.247 86.5 100.607 85.62 101.327 84.94C102.061 84.2467 102.961 83.8533 104.027 83.76V82H105.287V83.78C106.981 84.0067 108.181 84.9 108.887 86.46L107.327 87.34C106.941 86.3667 106.261 85.7867 105.287 85.6V90.2C105.887 90.4133 106.374 90.6133 106.747 90.8C107.147 91 107.541 91.2467 107.927 91.54C108.754 92.14 109.167 93.0467 109.167 94.26ZM102.087 87.58C102.087 88.0733 102.234 88.4867 102.527 88.82C102.834 89.14 103.334 89.44 104.027 89.72V85.58C103.427 85.66 102.954 85.88 102.607 86.24C102.261 86.5867 102.087 87.0333 102.087 87.58ZM105.287 92.04V96.38C105.914 96.2867 106.407 96.0533 106.767 95.68C107.127 95.3067 107.307 94.84 107.307 94.28C107.307 93.7467 107.147 93.32 106.827 93C106.521 92.6667 106.007 92.3467 105.287 92.04ZM110.143 85.28L113.823 84H115.423V98H113.583V86L110.603 86.88L110.143 85.28ZM127.272 96.28C126.339 97.6 125.012 98.26 123.292 98.26C121.572 98.26 120.246 97.6 119.312 96.28C118.366 94.9467 117.892 93.1867 117.892 91C117.892 88.8133 118.366 87.0533 119.312 85.72C120.246 84.4 121.572 83.74 123.292 83.74C125.012 83.74 126.339 84.4 127.272 85.72C128.219 87.0533 128.692 88.8133 128.692 91C128.692 93.1867 128.219 94.9467 127.272 96.28ZM119.752 91C119.752 92.7333 120.059 94.0733 120.672 95.02C121.286 95.9667 122.159 96.44 123.292 96.44C124.426 96.44 125.299 95.9667 125.912 95.02C126.539 94.0733 126.852 92.7333 126.852 91C126.852 89.2667 126.539 87.9267 125.912 86.98C125.299 86.02 124.426 85.54 123.292 85.54C122.159 85.54 121.286 86.0133 120.672 86.96C120.059 87.9067 119.752 89.2533 119.752 91ZM134.43 92.84L139.37 98H137.21L132.65 93.26V98H130.91V84H132.65V92.42L136.97 88H139.21L134.43 92.84Z" fill="#111714"/>
</svg>
