<svg width="183" height="106" viewBox="0 0 183 106" fill="none" xmlns="http://www.w3.org/2000/svg">
<path d="M84 4V10" stroke="#0360B2" stroke-width="1.5" stroke-miterlimit="10" stroke-linecap="round" stroke-linejoin="round"/>
<path d="M100 4V10" stroke="#0360B2" stroke-width="1.5" stroke-miterlimit="10" stroke-linecap="round" stroke-linejoin="round"/>
<path d="M75 18.1797H109" stroke="#7DE2B7" stroke-width="1.5" stroke-miterlimit="10" stroke-linecap="round" stroke-linejoin="round"/>
<path d="M112 38C112 39.5 111.58 40.92 110.84 42.12C109.46 44.44 106.92 46 104 46C101.98 46 100.14 45.26 98.74 44C98.12 43.48 97.58 42.84 97.16 42.12C96.42 40.92 96 39.5 96 38C96 33.58 99.58 30 104 30C106.4 30 108.54 31.06 110 32.72C111.24 34.14 112 35.98 112 38Z" stroke="#0360B2" stroke-width="1.5" stroke-miterlimit="10" stroke-linecap="round" stroke-linejoin="round"/>
<path d="M100.88 37.9991L102.86 39.9791L107.12 36.0391" stroke="#0360B2" stroke-width="1.5" stroke-linecap="round" stroke-linejoin="round"/>
<path d="M110 17V32.72C108.54 31.06 106.4 30 104 30C99.58 30 96 33.58 96 38C96 39.5 96.42 40.92 97.16 42.12C97.58 42.84 98.12 43.48 98.74 44H84C77 44 74 40 74 34V17C74 11 77 7 84 7H100C107 7 110 11 110 17Z" stroke="#0360B2" stroke-width="1.5" stroke-miterlimit="10" stroke-linecap="round" stroke-linejoin="round"/>
<path d="M92.1414 27.25H92.1593" stroke="#7DE2B7" stroke-width="2" stroke-linecap="round" stroke-linejoin="round"/>
<path d="M98.989 27.25H99.007" stroke="#7DE2B7" stroke-width="2" stroke-linecap="round" stroke-linejoin="round"/>
<path d="M92.1414 34H92.1593" stroke="#7DE2B7" stroke-width="2" stroke-linecap="round" stroke-linejoin="round"/>
<path d="M84.739 27.25H84.757" stroke="#7DE2B7" stroke-width="2" stroke-linecap="round" stroke-linejoin="round"/>
<path d="M84.739 34H84.757" stroke="#7DE2B7" stroke-width="2" stroke-linecap="round" stroke-linejoin="round"/>
<path d="M12.7305 84H14.8305V98H12.9905V87.06L8.41047 94.68H8.17047L3.59047 87.08V98H1.73047V84H3.83047L8.29047 91.4L12.7305 84ZM26.0842 96.74C25.0709 97.7533 23.8242 98.26 22.3442 98.26C20.8642 98.26 19.6176 97.7533 18.6042 96.74C17.5909 95.7267 17.0842 94.48 17.0842 93C17.0842 91.52 17.5909 90.2733 18.6042 89.26C19.6176 88.2467 20.8642 87.74 22.3442 87.74C23.8242 87.74 25.0709 88.2467 26.0842 89.26C27.1109 90.2867 27.6242 91.5333 27.6242 93C27.6242 94.4667 27.1109 95.7133 26.0842 96.74ZM22.3442 96.56C23.3442 96.56 24.1842 96.22 24.8642 95.54C25.5442 94.86 25.8842 94.0133 25.8842 93C25.8842 91.9867 25.5442 91.14 24.8642 90.46C24.1842 89.78 23.3442 89.44 22.3442 89.44C21.3576 89.44 20.5242 89.78 19.8442 90.46C19.1642 91.14 18.8242 91.9867 18.8242 93C18.8242 94.0133 19.1642 94.86 19.8442 95.54C20.5242 96.22 21.3576 96.56 22.3442 96.56ZM31.4155 88V89.68C31.9888 88.44 33.0288 87.82 34.5355 87.82V89.64C33.6821 89.6 32.9488 89.8267 32.3355 90.32C31.7221 90.8133 31.4155 91.6067 31.4155 92.7V98H29.6755V88H31.4155ZM45.2911 93.8H36.9111C37.0844 94.68 37.4911 95.3733 38.1311 95.88C38.7711 96.3733 39.5711 96.62 40.5311 96.62C41.8511 96.62 42.8111 96.1333 43.4111 95.16L44.8911 96C43.9044 97.5067 42.4378 98.26 40.4911 98.26C38.9178 98.26 37.6244 97.7667 36.6111 96.78C35.6244 95.7667 35.1311 94.5067 35.1311 93C35.1311 91.48 35.6178 90.2267 36.5911 89.24C37.5644 88.24 38.8244 87.74 40.3711 87.74C41.8378 87.74 43.0311 88.26 43.9511 89.3C44.8844 90.3133 45.3511 91.5533 45.3511 93.02C45.3511 93.2733 45.3311 93.5333 45.2911 93.8ZM40.3711 89.38C39.4511 89.38 38.6778 89.64 38.0511 90.16C37.4378 90.68 37.0578 91.3867 36.9111 92.28H43.5911C43.4444 91.36 43.0778 90.6467 42.4911 90.14C41.9044 89.6333 41.1978 89.38 40.3711 89.38ZM57.7913 88V89.68H55.1313V95.1C55.1313 95.5933 55.2246 95.9467 55.4113 96.16C55.6113 96.36 55.9113 96.4667 56.3112 96.48C56.7112 96.48 57.2046 96.4667 57.7913 96.44V98C56.2579 98.2 55.1379 98.0733 54.4313 97.62C53.7379 97.1667 53.3913 96.3267 53.3913 95.1V89.68H51.4113V88H53.3913V85.72L55.1313 85.2V88H57.7913ZM64.8313 87.74C66.0046 87.74 66.9446 88.1133 67.6513 88.86C68.3579 89.5933 68.7113 90.5933 68.7113 91.86V98H66.9713V91.96C66.9713 91.16 66.7513 90.5333 66.3113 90.08C65.8713 89.6267 65.2646 89.4 64.4913 89.4C63.5979 89.4 62.8913 89.68 62.3713 90.24C61.8513 90.7867 61.5913 91.6067 61.5913 92.7V98H59.8512V84H61.5913V89.44C62.2846 88.3067 63.3646 87.74 64.8313 87.74ZM79.4203 89.72V88H81.1603V98H79.4203V96.28C78.567 97.6 77.307 98.26 75.6403 98.26C74.227 98.26 73.0336 97.7533 72.0603 96.74C71.0736 95.7133 70.5803 94.4667 70.5803 93C70.5803 91.5467 71.0736 90.3067 72.0603 89.28C73.047 88.2533 74.2403 87.74 75.6403 87.74C77.307 87.74 78.567 88.4 79.4203 89.72ZM75.8603 96.58C76.8736 96.58 77.7203 96.24 78.4003 95.56C79.0803 94.8533 79.4203 94 79.4203 93C79.4203 91.9867 79.0803 91.14 78.4003 90.46C77.7203 89.7667 76.8736 89.42 75.8603 89.42C74.8603 89.42 74.0203 89.7667 73.3403 90.46C72.6603 91.14 72.3203 91.9867 72.3203 93C72.3203 94 72.6603 94.8533 73.3403 95.56C74.0203 96.24 74.8603 96.58 75.8603 96.58ZM88.7766 87.74C89.9499 87.74 90.8899 88.1133 91.5966 88.86C92.3032 89.5933 92.6566 90.5933 92.6566 91.86V98H90.9166V91.96C90.9166 91.16 90.6966 90.5333 90.2566 90.08C89.8166 89.6267 89.2099 89.4 88.4366 89.4C87.5432 89.4 86.8366 89.68 86.3166 90.24C85.7966 90.7867 85.5366 91.6067 85.5366 92.7V98H83.7966V88H85.5366V89.44C86.2299 88.3067 87.3099 87.74 88.7766 87.74ZM104.146 88.84C105.546 88.84 106.699 89.28 107.606 90.16C108.512 91.0267 108.966 92.1533 108.966 93.54C108.966 94.9267 108.512 96.06 107.606 96.94C106.699 97.82 105.546 98.26 104.146 98.26C102.719 98.26 101.559 97.82 100.666 96.94C99.7723 96.06 99.3256 94.9267 99.3256 93.54C99.3256 92.4467 99.6056 91.5133 100.166 90.74L104.666 84H106.786L103.486 88.88C103.886 88.8533 104.106 88.84 104.146 88.84ZM104.146 90.62C103.252 90.62 102.532 90.8867 101.986 91.42C101.439 91.9533 101.166 92.66 101.166 93.54C101.166 94.42 101.439 95.1333 101.986 95.68C102.546 96.2133 103.266 96.48 104.146 96.48C105.026 96.48 105.739 96.2133 106.286 95.68C106.846 95.1333 107.126 94.42 107.126 93.54C107.126 92.66 106.846 91.9533 106.286 91.42C105.739 90.8867 105.026 90.62 104.146 90.62ZM126.647 87.74C127.781 87.74 128.687 88.1067 129.367 88.84C130.061 89.5733 130.407 90.5533 130.407 91.78V98H128.667V91.84C128.667 91.08 128.467 90.4867 128.067 90.06C127.681 89.62 127.147 89.4 126.467 89.4C125.694 89.4 125.087 89.66 124.647 90.18C124.221 90.6867 124.007 91.44 124.007 92.44V98H122.267V91.84C122.267 91.08 122.074 90.4867 121.687 90.06C121.314 89.62 120.801 89.4 120.147 89.4C119.387 89.4 118.767 89.6667 118.287 90.2C117.821 90.72 117.587 91.4667 117.587 92.44V98H115.847V88H117.587V89.34C118.267 88.2733 119.261 87.74 120.567 87.74C121.914 87.74 122.894 88.3067 123.507 89.44C124.201 88.3067 125.247 87.74 126.647 87.74ZM141.26 96.74C140.247 97.7533 139 98.26 137.52 98.26C136.04 98.26 134.793 97.7533 133.78 96.74C132.767 95.7267 132.26 94.48 132.26 93C132.26 91.52 132.767 90.2733 133.78 89.26C134.793 88.2467 136.04 87.74 137.52 87.74C139 87.74 140.247 88.2467 141.26 89.26C142.287 90.2867 142.8 91.5333 142.8 93C142.8 94.4667 142.287 95.7133 141.26 96.74ZM137.52 96.56C138.52 96.56 139.36 96.22 140.04 95.54C140.72 94.86 141.06 94.0133 141.06 93C141.06 91.9867 140.72 91.14 140.04 90.46C139.36 89.78 138.52 89.44 137.52 89.44C136.533 89.44 135.7 89.78 135.02 90.46C134.34 91.14 134 91.9867 134 93C134 94.0133 134.34 94.86 135.02 95.54C135.7 96.22 136.533 96.56 137.52 96.56ZM149.831 87.74C151.005 87.74 151.945 88.1133 152.651 88.86C153.358 89.5933 153.711 90.5933 153.711 91.86V98H151.971V91.96C151.971 91.16 151.751 90.5333 151.311 90.08C150.871 89.6267 150.265 89.4 149.491 89.4C148.598 89.4 147.891 89.68 147.371 90.24C146.851 90.7867 146.591 91.6067 146.591 92.7V98H144.851V88H146.591V89.44C147.285 88.3067 148.365 87.74 149.831 87.74ZM161.58 88V89.68H158.92V95.1C158.92 95.5933 159.014 95.9467 159.2 96.16C159.4 96.36 159.7 96.4667 160.1 96.48C160.5 96.48 160.994 96.4667 161.58 96.44V98C160.047 98.2 158.927 98.0733 158.22 97.62C157.527 97.1667 157.18 96.3267 157.18 95.1V89.68H155.2V88H157.18V85.72L158.92 85.2V88H161.58ZM168.62 87.74C169.794 87.74 170.734 88.1133 171.44 88.86C172.147 89.5933 172.5 90.5933 172.5 91.86V98H170.76V91.96C170.76 91.16 170.54 90.5333 170.1 90.08C169.66 89.6267 169.054 89.4 168.28 89.4C167.387 89.4 166.68 89.68 166.16 90.24C165.64 90.7867 165.38 91.6067 165.38 92.7V98H163.64V84H165.38V89.44C166.074 88.3067 167.154 87.74 168.62 87.74ZM176.429 90.7C176.429 91.34 177.089 91.84 178.409 92.2C178.903 92.3067 179.316 92.42 179.649 92.54C179.996 92.6467 180.369 92.8133 180.769 93.04C181.183 93.2667 181.496 93.5667 181.709 93.94C181.923 94.3133 182.029 94.7533 182.029 95.26C182.029 96.1667 181.676 96.8933 180.969 97.44C180.263 97.9867 179.369 98.26 178.289 98.26C177.329 98.26 176.496 98.0533 175.789 97.64C175.096 97.2133 174.603 96.64 174.309 95.92L175.809 95.06C175.969 95.54 176.269 95.92 176.709 96.2C177.149 96.48 177.676 96.62 178.289 96.62C178.889 96.62 179.369 96.5067 179.729 96.28C180.089 96.0533 180.269 95.7133 180.269 95.26C180.269 94.58 179.609 94.0867 178.289 93.78C177.849 93.66 177.516 93.5667 177.289 93.5C177.063 93.4333 176.749 93.3133 176.349 93.14C175.963 92.9667 175.669 92.7867 175.469 92.6C175.269 92.4 175.083 92.14 174.909 91.82C174.749 91.4867 174.669 91.12 174.669 90.72C174.669 89.8533 175.003 89.14 175.669 88.58C176.349 88.02 177.196 87.74 178.209 87.74C179.023 87.74 179.743 87.9267 180.369 88.3C181.009 88.66 181.489 89.1667 181.809 89.82L180.349 90.64C179.989 89.7867 179.276 89.36 178.209 89.36C177.703 89.36 177.276 89.48 176.929 89.72C176.596 89.96 176.429 90.2867 176.429 90.7Z" fill="#111714"/>
</svg>
