<svg width="320" height="227" viewBox="0 0 320 227" fill="none" xmlns="http://www.w3.org/2000/svg">
<path opacity="0.4" d="M306.277 6.83008H269.894V226.616H306.277C313.856 226.616 320 220.472 320 212.893V20.5529C320 12.974 313.856 6.83008 306.277 6.83008Z" fill="#0021C6"/>
<path d="M299.235 0H13.7228C6.1439 0 0 6.14389 0 13.7228V205.858C0 213.436 6.14391 219.58 13.7228 219.58H299.235C306.814 219.58 312.957 213.436 312.957 205.858V13.7228C312.957 6.1439 306.814 0 299.235 0Z" fill="white"/>
<path d="M153.711 56.4263H98.3049C97.4789 56.4263 96.6867 56.0982 96.1026 55.5141C95.5186 54.93 95.1904 54.1378 95.1904 53.3118C95.1904 52.4858 95.5186 51.6936 96.1026 51.1095C96.6867 50.5254 97.4789 50.1973 98.3049 50.1973H153.711C154.537 50.1973 155.329 50.5254 155.913 51.1095C156.497 51.6936 156.825 52.4858 156.825 53.3118C156.825 54.1378 156.497 54.93 155.913 55.5141C155.329 56.0982 154.537 56.4263 153.711 56.4263Z" fill="#95FC57"/>
<path d="M153.711 128.659H98.3049C97.4789 128.659 96.6867 128.331 96.1026 127.747C95.5186 127.162 95.1904 126.37 95.1904 125.544C95.1904 124.718 95.5186 123.926 96.1026 123.342C96.6867 122.758 97.4789 122.43 98.3049 122.43H153.711C154.537 122.43 155.329 122.758 155.913 123.342C156.497 123.926 156.825 124.718 156.825 125.544C156.825 126.37 156.497 127.162 155.913 127.747C155.329 128.331 154.537 128.659 153.711 128.659Z" fill="#95FC57"/>
<path d="M153.711 141.745H98.3049C97.4789 141.745 96.6867 141.417 96.1026 140.832C95.5186 140.248 95.1904 139.456 95.1904 138.63C95.1904 137.804 95.5186 137.012 96.1026 136.428C96.6867 135.844 97.4789 135.516 98.3049 135.516H153.711C154.537 135.516 155.329 135.844 155.913 136.428C156.497 137.012 156.825 137.804 156.825 138.63C156.825 139.456 156.497 140.248 155.913 140.832C155.329 141.417 154.537 141.745 153.711 141.745Z" fill="#95FC57"/>
<path d="M222.559 56.4263H167.153C166.327 56.4263 165.534 56.0982 164.95 55.5141C164.366 54.93 164.038 54.1378 164.038 53.3118C164.038 52.4858 164.366 51.6936 164.95 51.1095C165.534 50.5254 166.327 50.1973 167.153 50.1973H222.559C223.385 50.1973 224.177 50.5254 224.761 51.1095C225.345 51.6936 225.673 52.4858 225.673 53.3118C225.673 54.1378 225.345 54.93 224.761 55.5141C224.177 56.0982 223.385 56.4263 222.559 56.4263Z" fill="#3593FF"/>
<path d="M222.559 128.659H167.153C166.327 128.659 165.534 128.331 164.95 127.747C164.366 127.162 164.038 126.37 164.038 125.544C164.038 124.718 164.366 123.926 164.95 123.342C165.534 122.758 166.327 122.43 167.153 122.43H222.559C223.385 122.43 224.177 122.758 224.761 123.342C225.345 123.926 225.673 124.718 225.673 125.544C225.673 126.37 225.345 127.162 224.761 127.747C224.177 128.331 223.385 128.659 222.559 128.659Z" fill="#3593FF"/>
<path d="M222.559 141.745H167.153C166.327 141.745 165.534 141.417 164.95 140.832C164.366 140.248 164.038 139.456 164.038 138.63C164.038 137.804 164.366 137.012 164.95 136.428C165.534 135.844 166.327 135.516 167.153 135.516H222.559C223.385 135.516 224.177 135.844 224.761 136.428C225.345 137.012 225.673 137.804 225.673 138.63C225.673 139.456 225.345 140.248 224.761 140.832C224.177 141.417 223.385 141.745 222.559 141.745Z" fill="#3593FF"/>
<path d="M222.559 68.2252H126.172C125.346 68.2252 124.554 67.897 123.97 67.3129C123.386 66.7288 123.058 65.9367 123.058 65.1106C123.058 64.2846 123.386 63.4924 123.97 62.9083C124.554 62.3242 125.346 61.9961 126.172 61.9961H222.559C223.385 61.9961 224.177 62.3242 224.761 62.9083C225.345 63.4924 225.673 64.2846 225.673 65.1106C225.673 65.9367 225.345 66.7288 224.761 67.3129C224.177 67.897 223.385 68.2252 222.559 68.2252Z" fill="#3593FF"/>
<path d="M153.711 44.4576H98.305C97.4797 44.4566 96.6885 44.128 96.1052 43.544C95.522 42.96 95.1943 42.1684 95.1943 41.3431C95.1943 40.5177 95.522 39.7261 96.1052 39.1421C96.6885 38.5581 97.4797 38.2295 98.305 38.2285H153.711C154.12 38.228 154.526 38.3082 154.904 38.4645C155.282 38.6208 155.626 38.8501 155.916 39.1394C156.205 39.4286 156.435 39.7722 156.592 40.1503C156.749 40.5284 156.829 40.9337 156.829 41.3431C156.829 41.7524 156.749 42.1577 156.592 42.5358C156.435 42.9139 156.205 43.2575 155.916 43.5467C155.626 43.836 155.282 44.0653 154.904 44.2216C154.526 44.3779 154.12 44.4581 153.711 44.4576Z" fill="#CCCCCC"/>
<path d="M153.711 116.692H98.305C97.4797 116.691 96.6885 116.362 96.1052 115.778C95.522 115.194 95.1943 114.403 95.1943 113.577C95.1943 112.752 95.522 111.96 96.1052 111.376C96.6885 110.792 97.4797 110.464 98.305 110.463H153.711C154.12 110.462 154.526 110.543 154.904 110.699C155.282 110.855 155.626 111.084 155.916 111.374C156.205 111.663 156.435 112.007 156.592 112.385C156.749 112.763 156.829 113.168 156.829 113.577C156.829 113.987 156.749 114.392 156.592 114.77C156.435 115.148 156.205 115.492 155.916 115.781C155.626 116.07 155.282 116.3 154.904 116.456C154.526 116.612 154.12 116.692 153.711 116.692Z" fill="#95FC57"/>
<path d="M184.201 44.6216H168.464C167.638 44.6216 166.846 44.2935 166.262 43.7094C165.678 43.1253 165.35 42.3331 165.35 41.5071C165.35 40.6811 165.678 39.8889 166.262 39.3048C166.846 38.7207 167.638 38.3926 168.464 38.3926H184.201C185.027 38.3926 185.819 38.7207 186.403 39.3048C186.987 39.8889 187.315 40.6811 187.315 41.5071C187.315 42.3331 186.987 43.1253 186.403 43.7094C185.819 44.2935 185.027 44.6216 184.201 44.6216Z" fill="#95FC57"/>
<path d="M184.201 116.856H168.464C167.638 116.856 166.846 116.528 166.262 115.944C165.678 115.36 165.35 114.568 165.35 113.741C165.35 112.915 165.678 112.123 166.262 111.539C166.846 110.955 167.638 110.627 168.464 110.627H184.201C185.027 110.627 185.819 110.955 186.403 111.539C186.987 112.123 187.315 112.915 187.315 113.741C187.315 114.568 186.987 115.36 186.403 115.944C185.819 116.528 185.027 116.856 184.201 116.856Z" fill="#CCCCCC"/>
<path d="M114.042 68.2252H98.305C97.4797 68.2241 96.6885 67.8956 96.1052 67.3116C95.522 66.7276 95.1943 65.936 95.1943 65.1106C95.1943 64.2853 95.522 63.4937 96.1052 62.9097C96.6885 62.3257 97.4797 61.9971 98.305 61.9961H114.042C114.451 61.9956 114.856 62.0758 115.235 62.2321C115.613 62.3884 115.957 62.6177 116.246 62.907C116.536 63.1962 116.766 63.5397 116.923 63.9179C117.079 64.296 117.16 64.7013 117.16 65.1106C117.16 65.52 117.079 65.9253 116.923 66.3034C116.766 66.6815 116.536 67.025 116.246 67.3143C115.957 67.6036 115.613 67.8329 115.235 67.9892C114.856 68.1455 114.451 68.2257 114.042 68.2252Z" fill="#CCCCCC"/>
<path d="M153.711 166.942H98.3049C97.4789 166.942 96.6867 166.614 96.1026 166.03C95.5186 165.446 95.1904 164.653 95.1904 163.827C95.1904 163.001 95.5186 162.209 96.1026 161.625C96.6867 161.041 97.4789 160.713 98.3049 160.713H153.711C154.12 160.713 154.525 160.793 154.903 160.95C155.281 161.106 155.624 161.336 155.913 161.625C156.202 161.914 156.432 162.258 156.588 162.636C156.745 163.013 156.825 163.418 156.825 163.827C156.825 164.236 156.745 164.641 156.588 165.019C156.432 165.397 156.202 165.741 155.913 166.03C155.624 166.319 155.281 166.548 154.903 166.705C154.525 166.861 154.12 166.942 153.711 166.942Z" fill="#CCCCCC"/>
<path d="M154.179 85.8237H98.7727C97.9467 85.8237 97.1545 86.1518 96.5704 86.7359C95.9863 87.32 95.6582 88.1122 95.6582 88.9382C95.6582 89.7642 95.9863 90.5564 96.5704 91.1405C97.1545 91.7246 97.9467 92.0527 98.7727 92.0527H154.179C154.588 92.0527 154.993 91.9722 155.371 91.8157C155.748 91.6591 156.092 91.4297 156.381 91.1405C156.67 90.8513 156.9 90.508 157.056 90.1301C157.213 89.7522 157.293 89.3472 157.293 88.9382C157.293 88.5292 157.213 88.1242 157.056 87.7463C156.9 87.3684 156.67 87.0251 156.381 86.7359C156.092 86.4467 155.748 86.2173 155.371 86.0607C154.993 85.9042 154.588 85.8237 154.179 85.8237Z" fill="#3593FF"/>
<path d="M222.559 166.942H167.153C166.327 166.942 165.534 166.614 164.95 166.03C164.366 165.446 164.038 164.653 164.038 163.827C164.038 163.001 164.366 162.209 164.95 161.625C165.534 161.041 166.327 160.713 167.153 160.713H222.559C222.968 160.713 223.373 160.793 223.75 160.95C224.128 161.106 224.472 161.336 224.761 161.625C225.05 161.914 225.28 162.258 225.436 162.636C225.593 163.013 225.673 163.418 225.673 163.827C225.673 164.236 225.593 164.641 225.436 165.019C225.28 165.397 225.05 165.741 224.761 166.03C224.472 166.319 224.128 166.548 223.75 166.705C223.373 166.861 222.968 166.942 222.559 166.942Z" fill="#95FC57"/>
<path d="M222.559 178.745H126.172C125.346 178.745 124.554 178.417 123.97 177.832C123.386 177.248 123.058 176.456 123.058 175.63C123.058 174.804 123.386 174.012 123.97 173.428C124.554 172.844 125.346 172.516 126.172 172.516H222.559C222.968 172.515 223.374 172.595 223.752 172.752C224.13 172.908 224.474 173.137 224.764 173.426C225.053 173.716 225.283 174.059 225.44 174.437C225.597 174.816 225.677 175.221 225.677 175.63C225.677 176.039 225.597 176.445 225.44 176.823C225.283 177.201 225.053 177.545 224.764 177.834C224.474 178.123 224.13 178.352 223.752 178.509C223.374 178.665 222.968 178.745 222.559 178.745Z" fill="#3593FF"/>
<path d="M223.025 74.0229H126.638C125.812 74.0229 125.02 74.351 124.436 74.9351C123.852 75.5192 123.523 76.3114 123.523 77.1374C123.523 77.9635 123.852 78.7556 124.436 79.3397C125.02 79.9238 125.812 80.252 126.638 80.252H223.025C223.434 80.2525 223.839 80.1723 224.218 80.016C224.596 79.8597 224.94 79.6304 225.229 79.3411C225.519 79.0518 225.749 78.7083 225.906 78.3302C226.062 77.9521 226.143 77.5468 226.143 77.1374C226.143 76.7281 226.062 76.3228 225.906 75.9447C225.749 75.5665 225.519 75.223 225.229 74.9337C224.94 74.6445 224.596 74.4152 224.218 74.2589C223.839 74.1026 223.434 74.0224 223.025 74.0229Z" fill="#95FC57"/>
<path d="M153.711 154.977H98.3049C97.4789 154.977 96.6867 154.649 96.1026 154.065C95.5186 153.481 95.1904 152.689 95.1904 151.863C95.1904 151.037 95.5186 150.244 96.1026 149.66C96.6867 149.076 97.4789 148.748 98.3049 148.748H153.711C154.537 148.748 155.329 149.076 155.913 149.66C156.497 150.244 156.825 151.037 156.825 151.863C156.825 152.689 156.497 153.481 155.913 154.065C155.329 154.649 154.537 154.977 153.711 154.977Z" fill="#3593FF"/>
<path d="M154.179 97.7905H98.7727C97.9467 97.7905 97.1545 98.1186 96.5704 98.7027C95.9863 99.2868 95.6582 100.079 95.6582 100.905C95.6582 101.731 95.9863 102.523 96.5704 103.107C97.1545 103.691 97.9467 104.02 98.7727 104.02H154.179C155.005 104.02 155.797 103.691 156.381 103.107C156.965 102.523 157.293 101.731 157.293 100.905C157.293 100.079 156.965 99.2868 156.381 98.7027C155.797 98.1186 155.005 97.7905 154.179 97.7905Z" fill="#CCCCCC"/>
<path d="M184.201 155.139H168.464C167.638 155.139 166.846 154.811 166.262 154.227C165.678 153.643 165.35 152.851 165.35 152.025C165.35 151.199 165.678 150.406 166.262 149.822C166.846 149.238 167.638 148.91 168.464 148.91H184.201C185.027 148.91 185.819 149.238 186.403 149.822C186.987 150.406 187.315 151.199 187.315 152.025C187.315 152.851 186.987 153.643 186.403 154.227C185.819 154.811 185.027 155.139 184.201 155.139Z" fill="#CCCCCC"/>
<path d="M184.667 97.6264H168.93C168.104 97.6264 167.312 97.9545 166.728 98.5386C166.144 99.1227 165.815 99.9149 165.815 100.741C165.815 101.567 166.144 102.359 166.728 102.943C167.312 103.527 168.104 103.855 168.93 103.855H184.667C185.493 103.855 186.285 103.527 186.869 102.943C187.453 102.359 187.781 101.567 187.781 100.741C187.781 99.9149 187.453 99.1227 186.869 98.5386C186.285 97.9545 185.493 97.6264 184.667 97.6264Z" fill="#3593FF"/>
<path d="M114.042 178.745H98.3049C97.4789 178.745 96.6867 178.417 96.1026 177.832C95.5186 177.248 95.1904 176.456 95.1904 175.63C95.1904 174.804 95.5186 174.012 96.1026 173.428C96.6867 172.844 97.4789 172.516 98.3049 172.516H114.042C114.451 172.515 114.856 172.595 115.235 172.752C115.613 172.908 115.957 173.137 116.246 173.426C116.536 173.716 116.766 174.059 116.922 174.437C117.079 174.816 117.16 175.221 117.16 175.63C117.16 176.039 117.079 176.445 116.922 176.823C116.766 177.201 116.536 177.545 116.246 177.834C115.957 178.123 115.613 178.352 115.235 178.509C114.856 178.665 114.451 178.745 114.042 178.745Z" fill="#95FC57"/>
<path d="M114.509 74.0229H98.7727C97.9467 74.0229 97.1545 74.351 96.5704 74.9351C95.9863 75.5192 95.6582 76.3114 95.6582 77.1374C95.6582 77.9635 95.9863 78.7556 96.5704 79.3397C97.1545 79.9238 97.9467 80.252 98.7727 80.252H114.509C114.919 80.2525 115.324 80.1723 115.702 80.016C116.081 79.8597 116.424 79.6304 116.714 79.3411C117.004 79.0518 117.233 78.7083 117.39 78.3302C117.547 77.9521 117.628 77.5468 117.628 77.1374C117.628 76.7281 117.547 76.3228 117.39 75.9447C117.233 75.5665 117.004 75.223 116.714 74.9337C116.424 74.6445 116.081 74.4152 115.702 74.2589C115.324 74.1026 114.919 74.0224 114.509 74.0229Z" fill="#3593FF"/>
<path d="M299.235 0H13.7228C6.1439 0 0 6.14391 0 13.7228V16.6908H312.957V13.7228C312.957 6.14391 306.814 0 299.235 0Z" fill="#00112E"/>
<path d="M18.8081 79.0684L18.082 80.864L20.3072 84.2361L22.9673 82.4796L20.7422 79.1075L18.8081 79.0684ZM19.4716 80.0745C19.4232 80.1063 19.3665 80.1231 19.3086 80.1226C19.2508 80.1222 19.1943 80.1046 19.1464 80.0721C19.0986 80.0396 19.0614 79.9936 19.0396 79.94C19.0179 79.8864 19.0125 79.8275 19.0242 79.7708C19.0359 79.7142 19.0642 79.6622 19.1054 79.6216C19.1466 79.581 19.199 79.5535 19.2558 79.5426C19.3127 79.5317 19.3714 79.538 19.4248 79.5605C19.4781 79.583 19.5235 79.6209 19.5553 79.6692C19.5765 79.7013 19.5912 79.7373 19.5984 79.775C19.6057 79.8128 19.6055 79.8516 19.5977 79.8893C19.5899 79.927 19.5748 79.9627 19.5531 79.9945C19.5315 80.0263 19.5038 80.0535 19.4716 80.0745Z" fill="#454A61"/>
<path d="M19.6193 99.6172H18.7109V102.59H19.6193V99.6172Z" fill="#454A61"/>
<path d="M20.9806 97.4668H20.0723V102.591H20.9806V97.4668Z" fill="#454A61"/>
<path d="M22.34 98.4395H21.4316V102.591H22.34V98.4395Z" fill="#454A61"/>
<path d="M23.6607 121.629V120.439H22.6585C22.6131 120.273 22.5477 120.114 22.4637 119.965L23.1717 119.261C22.9461 118.93 22.6603 118.644 22.3291 118.418L21.6249 119.127C21.4772 119.043 21.3195 118.977 21.1555 118.932V117.929C20.7619 117.854 20.3576 117.854 19.9639 117.929V118.932C19.7999 118.977 19.6422 119.043 19.4945 119.127L18.7903 118.418L17.9469 119.261L18.6557 119.965C18.5717 120.114 18.5063 120.273 18.4609 120.439H17.447C17.3718 120.832 17.3718 121.236 17.447 121.629H18.4484C18.494 121.793 18.5595 121.951 18.6432 122.099L17.9344 122.803L18.777 123.653L19.4812 122.944C19.6289 123.028 19.7866 123.094 19.9506 123.139V124.142C20.3443 124.217 20.7486 124.217 21.1422 124.142V123.142C21.3062 123.096 21.4639 123.03 21.6116 122.946L22.3158 123.655L23.1584 122.812L22.4504 122.108C22.5341 121.96 22.5995 121.803 22.6452 121.639L23.6607 121.629ZM20.5531 122.227C20.3171 122.227 20.0864 122.157 19.8902 122.026C19.694 121.895 19.541 121.709 19.4507 121.491C19.3604 121.273 19.3368 121.033 19.3828 120.801C19.4289 120.57 19.5425 120.357 19.7094 120.19C19.8762 120.023 20.0888 119.91 20.3203 119.864C20.5517 119.818 20.7916 119.841 21.0097 119.932C21.2277 120.022 21.414 120.175 21.5451 120.371C21.6762 120.567 21.7462 120.798 21.7462 121.034C21.7463 121.191 21.7155 121.346 21.6556 121.491C21.5957 121.635 21.5078 121.767 21.397 121.878C21.2862 121.989 21.1546 122.077 21.0098 122.136C20.865 122.196 20.7098 122.227 20.5531 122.227Z" fill="#454A61"/>
<path d="M20.3984 137.318H17.4613C17.3229 137.318 17.1902 137.373 17.0923 137.471C16.9944 137.569 16.9395 137.702 16.9395 137.84V139.421C16.9394 139.49 16.9528 139.558 16.979 139.621C17.0052 139.685 17.0436 139.742 17.0921 139.791C17.1406 139.839 17.1981 139.878 17.2615 139.904C17.3248 139.93 17.3928 139.943 17.4613 139.943H19.3258L20.1277 141.064L20.0823 139.943H20.3953C20.5337 139.943 20.6664 139.888 20.7643 139.79C20.8622 139.693 20.9171 139.56 20.9171 139.421V137.84C20.9171 137.702 20.8626 137.57 20.7654 137.472C20.6682 137.375 20.5363 137.319 20.3984 137.318Z" fill="#454A61"/>
<path d="M23.5931 136.01H20.6576C20.5891 136.01 20.5213 136.023 20.458 136.049C20.3946 136.075 20.3371 136.114 20.2886 136.162C20.2402 136.211 20.2017 136.268 20.1755 136.331C20.1492 136.395 20.1357 136.462 20.1357 136.531V137.042H20.4018C20.6144 137.042 20.8182 137.127 20.9686 137.277C21.1189 137.427 21.2035 137.631 21.2037 137.844V138.639H22.1887L22.1457 139.705L22.9078 138.639H23.5947C23.7331 138.639 23.8658 138.584 23.9637 138.486C24.0616 138.388 24.1166 138.255 24.1166 138.117V136.535C24.117 136.466 24.1037 136.398 24.0776 136.334C24.0515 136.27 24.0129 136.212 23.9643 136.163C23.9156 136.114 23.8578 136.076 23.7941 136.049C23.7303 136.023 23.6621 136.01 23.5931 136.01Z" fill="#454A61"/>
<path d="M33.5787 18.7877C35.0311 12.5943 31.1878 6.39613 24.9944 4.94371C18.801 3.49128 12.6028 7.33461 11.1504 13.528C9.69793 19.7214 13.5413 25.9196 19.7347 27.372C25.9281 28.8245 32.1263 24.9811 33.5787 18.7877Z" fill="#0021C6"/>
<path d="M22.3646 18.7597C21.4101 18.7597 20.4947 18.3806 19.8197 17.7056C19.1448 17.0307 18.7656 16.1153 18.7656 15.1607V12.4857C18.7656 11.5312 19.1448 10.6158 19.8197 9.94085C20.4947 9.2659 21.4101 8.88672 22.3646 8.88672C23.3192 8.88672 24.2346 9.2659 24.9095 9.94085C25.5845 10.6158 25.9636 11.5312 25.9636 12.4857V15.1607C25.9636 16.1153 25.5845 17.0307 24.9095 17.7056C24.2346 18.3806 23.3192 18.7597 22.3646 18.7597Z" fill="white"/>
<path d="M26.4476 15.0329C26.8706 15.0329 27.2136 14.5376 27.2136 13.9266C27.2136 13.3156 26.8706 12.8203 26.4476 12.8203C26.0246 12.8203 25.6816 13.3156 25.6816 13.9266C25.6816 14.5376 26.0246 15.0329 26.4476 15.0329Z" fill="white"/>
<path d="M18.4076 15.0329C18.8306 15.0329 19.1735 14.5376 19.1735 13.9266C19.1735 13.3156 18.8306 12.8203 18.4076 12.8203C17.9845 12.8203 17.6416 13.3156 17.6416 13.9266C17.6416 14.5376 17.9845 15.0329 18.4076 15.0329Z" fill="white"/>
<path d="M24.4011 16.457H20.3271V21.2875H24.4011V16.457Z" fill="white"/>
<path d="M27.8061 24.7315H16.9395C16.9395 23.4864 17.434 22.2924 18.3144 21.4121C19.1948 20.5317 20.3888 20.0371 21.6338 20.0371H23.1102C24.3552 20.0371 25.5492 20.5317 26.4296 21.4121C27.31 22.2924 27.8046 23.4864 27.8046 24.7315H27.8061Z" fill="#454A61"/>
<path d="M26.1693 12.6628V14.5296H26.0434C25.8806 14.5296 25.7245 14.465 25.6093 14.35C25.4942 14.235 25.4294 14.079 25.4292 13.9162V13.0063C25.4284 12.4569 25.2094 11.9303 24.8205 11.5422C24.4316 11.1542 23.9045 10.9364 23.3551 10.9369H21.3693C20.8205 10.9369 20.2941 11.1549 19.906 11.543C19.5179 11.9311 19.2999 12.4574 19.2999 13.0063V13.9162C19.2999 14.0789 19.2353 14.2349 19.1202 14.35C19.0052 14.465 18.8492 14.5296 18.6865 14.5296H18.5605V12.5345C18.56 11.9925 18.6753 11.4566 18.8987 10.9627C19.1221 10.4689 19.4485 10.0284 19.8559 9.67099C20.2634 9.31353 20.7425 9.04727 21.2613 8.89007C21.78 8.73286 22.3264 8.68833 22.8637 8.75946C23.7932 8.90126 24.6399 9.37463 25.2475 10.0921C25.8551 10.8096 26.1825 11.7227 26.1693 12.6628Z" fill="#454A61"/>
</svg>
