<svg width="54" height="106" viewBox="0 0 54 106" fill="none" xmlns="http://www.w3.org/2000/svg">
<path d="M34.18 24.52C39.8464 24.52 44.44 19.9265 44.44 14.26C44.44 8.59357 39.8464 4 34.18 4C28.5136 4 23.92 8.59357 23.92 14.26C23.92 19.9265 28.5136 24.52 34.18 24.52Z" stroke="white" stroke-width="1.5" stroke-miterlimit="10"/>
<path d="M15.72 38.8806C19.122 38.8806 21.88 36.1226 21.88 32.7206C21.88 29.3185 19.122 26.5605 15.72 26.5605C12.3179 26.5605 9.56 29.3185 9.56 32.7206C9.56 36.1226 12.3179 38.8806 15.72 38.8806Z" stroke="white" stroke-width="1.5" stroke-miterlimit="10"/>
<path d="M36.24 43.9998C39.0677 43.9998 41.36 41.7075 41.36 38.8798C41.36 36.0521 39.0677 33.7598 36.24 33.7598C33.4123 33.7598 31.12 36.0521 31.12 38.8798C31.12 41.7075 33.4123 43.9998 36.24 43.9998Z" stroke="white" stroke-width="1.5" stroke-miterlimit="10"/>
<path d="M1.25609 91C1.25609 88.9733 1.95609 87.26 3.35609 85.86C4.75609 84.4467 6.46943 83.74 8.49609 83.74C10.5228 83.74 12.2361 84.4467 13.6361 85.86C15.0494 87.26 15.7561 88.9733 15.7561 91C15.7561 93.0133 15.0494 94.7267 13.6361 96.14C12.2361 97.5533 10.5228 98.26 8.49609 98.26C6.46943 98.26 4.75609 97.5533 3.35609 96.14C1.95609 94.7133 1.25609 93 1.25609 91ZM13.8961 91C13.8961 89.4533 13.3761 88.16 12.3361 87.12C11.3228 86.0667 10.0428 85.54 8.49609 85.54C6.96276 85.54 5.67609 86.0667 4.63609 87.12C3.60943 88.1733 3.09609 89.4667 3.09609 91C3.09609 92.52 3.60943 93.8133 4.63609 94.88C5.67609 95.92 6.96276 96.44 8.49609 96.44C10.0428 96.44 11.3228 95.92 12.3361 94.88C13.3761 93.8133 13.8961 92.52 13.8961 91ZM23.2522 88V89.68H20.5922V95.1C20.5922 95.5933 20.6855 95.9467 20.8722 96.16C21.0722 96.36 21.3722 96.4667 21.7722 96.48C22.1722 96.48 22.6655 96.4667 23.2522 96.44V98C21.7189 98.2 20.5989 98.0733 19.8922 97.62C19.1989 97.1667 18.8522 96.3267 18.8522 95.1V89.68H16.8722V88H18.8522V85.72L20.5922 85.2V88H23.2522ZM30.2922 87.74C31.4655 87.74 32.4055 88.1133 33.1122 88.86C33.8189 89.5933 34.1722 90.5933 34.1722 91.86V98H32.4322V91.96C32.4322 91.16 32.2122 90.5333 31.7722 90.08C31.3322 89.6267 30.7255 89.4 29.9522 89.4C29.0589 89.4 28.3522 89.68 27.8322 90.24C27.3122 90.7867 27.0522 91.6067 27.0522 92.7V98H25.3122V84H27.0522V89.44C27.7455 88.3067 28.8255 87.74 30.2922 87.74ZM46.2013 93.8H37.8213C37.9946 94.68 38.4013 95.3733 39.0413 95.88C39.6813 96.3733 40.4813 96.62 41.4413 96.62C42.7613 96.62 43.7213 96.1333 44.3213 95.16L45.8013 96C44.8146 97.5067 43.3479 98.26 41.4013 98.26C39.8279 98.26 38.5346 97.7667 37.5213 96.78C36.5346 95.7667 36.0413 94.5067 36.0413 93C36.0413 91.48 36.5279 90.2267 37.5013 89.24C38.4746 88.24 39.7346 87.74 41.2813 87.74C42.7479 87.74 43.9413 88.26 44.8613 89.3C45.7946 90.3133 46.2613 91.5533 46.2613 93.02C46.2613 93.2733 46.2413 93.5333 46.2013 93.8ZM41.2813 89.38C40.3613 89.38 39.5879 89.64 38.9613 90.16C38.3479 90.68 37.9679 91.3867 37.8213 92.28H44.5013C44.3546 91.36 43.9879 90.6467 43.4013 90.14C42.8146 89.6333 42.1079 89.38 41.2813 89.38ZM50.0014 88V89.68C50.5747 88.44 51.6147 87.82 53.1214 87.82V89.64C52.2681 89.6 51.5347 89.8267 50.9214 90.32C50.3081 90.8133 50.0014 91.6067 50.0014 92.7V98H48.2614V88H50.0014Z" fill="white"/>
</svg>
