<svg width="48" height="48" viewBox="0 0 48 48" fill="none" xmlns="http://www.w3.org/2000/svg">
<path d="M31.18 24.52C36.8464 24.52 41.44 19.9265 41.44 14.26C41.44 8.59357 36.8464 4 31.18 4C25.5136 4 20.92 8.59357 20.92 14.26C20.92 19.9265 25.5136 24.52 31.18 24.52Z" stroke="#0360B2" stroke-width="1.5" stroke-miterlimit="10"/>
<path d="M12.72 38.8806C16.122 38.8806 18.88 36.1226 18.88 32.7206C18.88 29.3185 16.122 26.5605 12.72 26.5605C9.3179 26.5605 6.56 29.3185 6.56 32.7206C6.56 36.1226 9.3179 38.8806 12.72 38.8806Z" stroke="#7DE2B7" stroke-width="1.5" stroke-miterlimit="10"/>
<path d="M33.24 43.9998C36.0677 43.9998 38.36 41.7075 38.36 38.8798C38.36 36.0521 36.0677 33.7598 33.24 33.7598C30.4123 33.7598 28.12 36.0521 28.12 38.8798C28.12 41.7075 30.4123 43.9998 33.24 43.9998Z" stroke="#7DE2B7" stroke-width="1.5" stroke-miterlimit="10"/>
</svg>
