
<svg width="48" height="48" viewBox="0 0 48 48" fill="none" xmlns="http://www.w3.org/2000/svg">
<path d="M28.4795 28.9405C28.4795 23.7205 24.2395 19.4805 19.0195 19.4805" stroke="#0360B2" stroke-width="1.5" stroke-linecap="round" stroke-linejoin="round"/>
<path d="M43.6191 7.87976C40.5391 15.5598 32.8191 25.9998 26.3591 31.1798L22.4191 34.3398C21.9191 34.6998 21.4191 35.0198 20.8591 35.2398C20.8591 34.8798 20.8391 34.4798 20.7791 34.0998C20.5591 32.4198 19.7991 30.8598 18.4591 29.5198C17.0991 28.1598 15.4391 27.3598 13.7391 27.1398C13.3391 27.1198 12.9391 27.0798 12.5391 27.1198C12.7591 26.4998 13.0991 25.9198 13.5191 25.4398L16.6391 21.4998C21.7991 15.0398 32.2791 7.27975 39.9391 4.21975C41.1191 3.77975 42.2591 4.09975 42.9791 4.83975C43.7391 5.57975 44.0991 6.71976 43.6191 7.87976Z" stroke="#0360B2" stroke-width="1.5" stroke-linecap="round" stroke-linejoin="round"/>
<path d="M22.4996 7.69922L15.0996 15.0992" stroke="#7DE2B7" stroke-width="1.5" stroke-linecap="round"/>
<path d="M40.2403 25.4609L34.3203 31.3609" stroke="#7DE2B7" stroke-width="1.5" stroke-linecap="round"/>
<path d="M20.8605 35.2416C20.8605 37.4416 20.0205 39.5416 18.4405 41.1416C17.2205 42.3616 15.5605 43.2016 13.5805 43.4616L8.66055 44.0016C5.98055 44.3016 3.68055 42.0216 4.00055 39.3016L4.54055 34.3816C5.02055 30.0016 8.68055 27.2016 12.5605 27.1216C12.9605 27.1016 13.3805 27.1216 13.7605 27.1416C15.4605 27.3616 17.1205 28.1416 18.4805 29.5216C19.8205 30.8616 20.5805 32.4216 20.8005 34.1016C20.8205 34.4816 20.8605 34.8616 20.8605 35.2416Z" stroke="#0360B2" stroke-width="1.5" stroke-linecap="round" stroke-linejoin="round"/>
<path d="M40.2395 25.4609L41.7195 26.9209C44.6995 29.9009 44.6995 32.8409 41.7195 35.8209L35.7995 41.7409C32.8595 44.6809 29.8795 44.6809 26.9395 41.7409" stroke="#7DE2B7" stroke-width="1.5" stroke-linecap="round"/>
<path d="M6.22062 21.0211C3.28062 18.0411 3.28062 15.1011 6.22062 12.1211L12.1406 6.20109C15.0806 3.26109 18.0606 3.26109 21.0006 6.20109L22.4806 7.68109" stroke="#7DE2B7" stroke-width="1.5" stroke-linecap="round"/>
</svg>
