<svg width="48" height="48" viewBox="0 0 48 48" fill="none" xmlns="http://www.w3.org/2000/svg">
<path d="M43.94 30.1198V37.6798C43.94 41.9998 41.94 43.9998 37.62 43.9998H25V20.8398L25.94 21.0398L34.94 23.0598L39 23.9598C41.64 24.5398 43.8 25.8998 43.92 29.7398C43.94 29.8598 43.94 29.9798 43.94 30.1198Z" stroke="#7DE2B7" stroke-width="1.5" stroke-linecap="round" stroke-linejoin="round"/>
<path d="M34.9394 23.0591V29.4991C34.9394 31.9791 32.9195 33.9991 30.4395 33.9991C27.9595 33.9991 25.9395 31.9791 25.9395 29.4991V21.0391L34.9394 23.0591Z" stroke="#7DE2B7" stroke-width="1.5" stroke-linecap="round" stroke-linejoin="round"/>
<path d="M43.9195 29.7425C43.7995 32.1025 41.8395 34.0025 39.4395 34.0025C36.9595 34.0025 34.9395 31.9825 34.9395 29.5025V23.0625L38.9995 23.9625C41.6395 24.5425 43.7995 25.9025 43.9195 29.7425Z" stroke="#7DE2B7" stroke-width="1.5" stroke-linecap="round" stroke-linejoin="round"/>
<path d="M24.9995 44.0007H8.15945C5.83945 44.0007 3.93945 42.1407 3.93945 39.8607V10.1807C3.93945 4.9407 7.83945 2.5607 12.6195 4.9007L21.4995 9.2607C23.4195 10.2007 24.9995 12.7007 24.9995 14.8207V44.0007Z" stroke="#0360B2" stroke-width="1.5" stroke-linecap="round" stroke-linejoin="round"/>
<path d="M11 18H17.94" stroke="#0360B2" stroke-width="1.5" stroke-linecap="round" stroke-linejoin="round"/>
<path d="M11 26H17.94" stroke="#0360B2" stroke-width="1.5" stroke-linecap="round" stroke-linejoin="round"/>
</svg>
