<svg width="48" height="48" viewBox="0 0 48 48" fill="none" xmlns="http://www.w3.org/2000/svg">
<path d="M21.4997 44.9993H26.5397C28.4597 44.9993 29.6997 43.6392 29.3397 41.9792L28.5197 38.3594H19.5197L18.6997 41.9792C18.3397 43.5392 19.6997 44.9993 21.4997 44.9993Z" stroke="#0360B2" stroke-width="1.5" stroke-linecap="round" stroke-linejoin="round"/>
<path d="M28.5201 38.3404L31.9801 35.2603C33.9201 33.5403 34.0001 32.3402 32.4601 30.4002L26.3601 22.6603C25.0801 21.0403 22.9801 21.0403 21.7001 22.6603L15.6001 30.4002C14.0601 32.3402 14.0601 33.6003 16.0801 35.2603L19.5401 38.3404" stroke="#0360B2" stroke-width="1.5" stroke-linecap="round" stroke-linejoin="round"/>
<path d="M24.0195 22.2422V27.3022" stroke="#0360B2" stroke-width="1.5" stroke-linecap="round" stroke-linejoin="round"/>
<path d="M25.04 10H23.04C21.94 10 21.04 9.1 21.04 8V6C21.04 4.9 21.94 4 23.04 4H25.04C26.14 4 27.04 4.9 27.04 6V8C27.04 9.1 26.14 10 25.04 10Z" stroke="#7DE2B8" stroke-width="1.5" stroke-linecap="round" stroke-linejoin="round"/>
<path d="M6.54004 28.34H8.54004C9.64004 28.34 10.54 27.44 10.54 26.34V24.34C10.54 23.24 9.64004 22.3398 8.54004 22.3398H6.54004C5.44004 22.3398 4.54004 23.24 4.54004 24.34V26.34C4.54004 27.44 5.44004 28.34 6.54004 28.34Z" stroke="#7DE2B8" stroke-width="1.5" stroke-linecap="round" stroke-linejoin="round"/>
<path d="M41.46 28.34H39.46C38.36 28.34 37.46 27.44 37.46 26.34V24.34C37.46 23.24 38.36 22.3398 39.46 22.3398H41.46C42.56 22.3398 43.46 23.24 43.46 24.34V26.34C43.46 27.44 42.56 28.34 41.46 28.34Z" stroke="#7DE2B8" stroke-width="1.5" stroke-linecap="round" stroke-linejoin="round"/>
<path d="M21.04 7.12109C13.42 8.02109 7.5 14.4811 7.5 22.3411" stroke="#7DE2B8" stroke-width="1.5" stroke-linecap="round" stroke-linejoin="round"/>
<path d="M40.5 22.3411C40.5 14.5011 34.62 8.06109 27.04 7.12109" stroke="#7DE2B8" stroke-width="1.5" stroke-linecap="round" stroke-linejoin="round"/>
</svg>
