<svg width="48" height="48" viewBox="0 0 48 48" fill="none" xmlns="http://www.w3.org/2000/svg">
<path d="M40 14V34C40 42 38 44 30 44H18C10 44 8 42 8 34V14C8 6 10 4 18 4H30C38 4 40 6 40 14Z" stroke="#0360B2" stroke-width="1.5" stroke-linecap="round" stroke-linejoin="round"/>
<path d="M28.001 11H20.001" stroke="#7DE2B7" stroke-width="1.5" stroke-linecap="round" stroke-linejoin="round"/>
<path d="M24.0004 38.2C25.7125 38.2 27.1004 36.8121 27.1004 35.1C27.1004 33.3879 25.7125 32 24.0004 32C22.2883 32 20.9004 33.3879 20.9004 35.1C20.9004 36.8121 22.2883 38.2 24.0004 38.2Z" stroke="#7DE2B7" stroke-width="1.5" stroke-linecap="round" stroke-linejoin="round"/>
</svg>
