<svg width="152" height="110" viewBox="0 0 152 110" fill="none" xmlns="http://www.w3.org/2000/svg">
<g clip-path="url(#clip0_450_1362)">
<path d="M55.3334 0.799805H96.6668C102.933 0.799805 108 5.86643 108 12.1332V51.8666C108 58.1332 102.933 63.1999 96.6666 63.1999H55.3334C49.0666 63.1998 44 58.1332 44 51.8664V12.1332C44 5.86643 49.0666 0.799805 55.3334 0.799805Z" fill="#001834"/>
<path d="M58.4 44.5594V17.1194C58.4 16.9328 58.48 16.826 58.6666 16.826C59.12 16.826 59.5466 16.826 60.16 16.7994C60.8 16.7728 61.4666 16.7728 62.1866 16.746C62.9066 16.7193 63.68 16.7194 64.5066 16.6926C65.3333 16.666 66.1333 16.666 66.9333 16.666C69.1199 16.666 70.9333 16.9326 72.4266 17.4926C73.76 17.946 74.9867 18.6926 76 19.6793C76.8534 20.5326 77.52 21.5726 77.9466 22.7193C78.3466 23.8393 78.56 24.9859 78.56 26.1859C78.56 28.4793 78.0266 30.3725 76.96 31.8659C75.8934 33.3593 74.4 34.4793 72.6666 35.1193C70.8533 35.7859 68.8533 36.0259 66.6666 36.0259C66.0266 36.0259 65.6 36.0259 65.3333 35.9993C65.0666 35.9726 64.6933 35.9726 64.1866 35.9726V44.5326C64.2133 44.7193 64.08 44.8793 63.8933 44.906C63.8666 44.906 63.8399 44.906 63.7866 44.906H58.72C58.5067 44.906 58.4 44.7994 58.4 44.5594ZM64.2134 21.9728V30.9328C64.5868 30.9594 64.9334 30.9861 65.2534 30.9861H66.6668C68.5082 30.9861 70.6348 30.5534 71.92 29.0929C73.0261 27.8359 73.0293 25.3431 72.1334 23.9729C71.0699 22.3463 68.9432 21.875 67.12 21.9195C66.4267 21.9195 65.8134 21.9195 65.3067 21.9461C64.7734 21.9194 64.4 21.946 64.2134 21.9728Z" fill="#00A9FF"/>
<path d="M95.2 29.3059C94.4 28.8793 93.5467 28.5859 92.64 28.3993C91.6534 28.1859 90.6667 28.0527 89.6534 28.0527C89.12 28.026 88.56 28.106 88.0534 28.2393C87.7068 28.3193 87.4134 28.5059 87.2268 28.7727C87.0934 28.986 87.0134 29.2527 87.0134 29.4927C87.0134 29.7327 87.12 29.9727 87.28 30.186C87.52 30.4794 87.84 30.7194 88.1867 30.906C88.8 31.226 89.44 31.5194 90.08 31.786C91.52 32.266 92.9067 32.9327 94.1867 33.7327C95.0667 34.2927 95.7867 35.0393 96.2933 35.946C96.7199 36.7994 96.9333 37.7327 96.9067 38.6927C96.9333 39.946 96.56 41.1993 95.8667 42.2393C95.12 43.3059 94.08 44.1327 92.88 44.6127C91.5734 45.1727 89.9734 45.466 88.0534 45.466C86.8268 45.466 85.6268 45.3594 84.4268 45.1194C83.4934 44.9594 82.5602 44.666 81.7068 44.266C81.5202 44.1594 81.3868 43.9727 81.4134 43.7594V39.1194C81.4134 39.0394 81.44 38.9328 81.52 38.8794C81.6 38.826 81.68 38.8528 81.76 38.906C82.8 39.5194 83.8934 39.946 85.0667 40.2127C86.08 40.4793 87.1467 40.6127 88.2133 40.6127C89.2267 40.6127 89.9467 40.4793 90.4267 40.2393C90.8533 40.0527 91.1467 39.5993 91.1467 39.1193C91.1467 38.7459 90.9333 38.3993 90.5067 38.0527C90.08 37.706 89.2 37.306 87.8933 36.7993C86.5333 36.3193 85.2799 35.6793 84.1067 34.8793C83.28 34.2927 82.5867 33.5193 82.08 32.6127C81.6534 31.7593 81.44 30.826 81.4667 29.8927C81.4667 28.746 81.7867 27.6527 82.3733 26.666C83.0399 25.5994 84.0267 24.746 85.1733 24.2127C86.4267 23.5727 87.9999 23.2793 89.8933 23.2793C90.9867 23.2793 92.1067 23.3593 93.1999 23.5193C93.9999 23.6259 94.7733 23.8393 95.4933 24.1327C95.5999 24.1593 95.7067 24.266 95.7599 24.3727C95.7865 24.4793 95.8133 24.586 95.8133 24.6927V29.0393C95.8133 29.1459 95.7599 29.2527 95.6799 29.3059C95.44 29.3593 95.3067 29.3593 95.2 29.3059Z" fill="#00A9FF"/>
</g>
<path d="M27.7923 105V92.4H32.7063C33.8103 92.4 34.7523 92.574 35.5323 92.922C36.3123 93.27 36.9123 93.774 37.3323 94.434C37.7523 95.094 37.9623 95.88 37.9623 96.792C37.9623 97.704 37.7523 98.49 37.3323 99.15C36.9123 99.798 36.3123 100.302 35.5323 100.662C34.7523 101.01 33.8103 101.184 32.7063 101.184H28.7823L29.5923 100.338V105H27.7923ZM29.5923 100.518L28.7823 99.618H32.6523C33.8043 99.618 34.6743 99.372 35.2623 98.88C35.8623 98.388 36.1623 97.692 36.1623 96.792C36.1623 95.892 35.8623 95.196 35.2623 94.704C34.6743 94.212 33.8043 93.966 32.6523 93.966H28.7823L29.5923 93.066V100.518ZM45.6246 95.37C46.4046 95.37 47.0886 95.52 47.6766 95.82C48.2766 96.12 48.7446 96.576 49.0806 97.188C49.4166 97.8 49.5846 98.574 49.5846 99.51V105H47.8566V99.708C47.8566 98.784 47.6286 98.088 47.1726 97.62C46.7286 97.152 46.0986 96.918 45.2826 96.918C44.6706 96.918 44.1366 97.038 43.6806 97.278C43.2246 97.518 42.8706 97.872 42.6186 98.34C42.3786 98.808 42.2586 99.39 42.2586 100.086V105H40.5306V91.644H42.2586V98.034L41.9166 97.35C42.2286 96.726 42.7086 96.24 43.3566 95.892C44.0046 95.544 44.7606 95.37 45.6246 95.37ZM56.8685 105.108C55.9085 105.108 55.0565 104.898 54.3125 104.478C53.5685 104.058 52.9805 103.482 52.5485 102.75C52.1165 102.006 51.9005 101.166 51.9005 100.23C51.9005 99.282 52.1165 98.442 52.5485 97.71C52.9805 96.978 53.5685 96.408 54.3125 96C55.0565 95.58 55.9085 95.37 56.8685 95.37C57.8165 95.37 58.6625 95.58 59.4065 96C60.1625 96.408 60.7505 96.978 61.1705 97.71C61.6025 98.43 61.8185 99.27 61.8185 100.23C61.8185 101.178 61.6025 102.018 61.1705 102.75C60.7505 103.482 60.1625 104.058 59.4065 104.478C58.6625 104.898 57.8165 105.108 56.8685 105.108ZM56.8685 103.596C57.4805 103.596 58.0265 103.458 58.5065 103.182C58.9985 102.906 59.3825 102.516 59.6585 102.012C59.9345 101.496 60.0725 100.902 60.0725 100.23C60.0725 99.546 59.9345 98.958 59.6585 98.466C59.3825 97.962 58.9985 97.572 58.5065 97.296C58.0265 97.02 57.4805 96.882 56.8685 96.882C56.2565 96.882 55.7105 97.02 55.2305 97.296C54.7505 97.572 54.3665 97.962 54.0785 98.466C53.7905 98.958 53.6465 99.546 53.6465 100.23C53.6465 100.902 53.7905 101.496 54.0785 102.012C54.3665 102.516 54.7505 102.906 55.2305 103.182C55.7105 103.458 56.2565 103.596 56.8685 103.596ZM67.4843 105.108C66.5243 105.108 65.7803 104.85 65.2523 104.334C64.7243 103.818 64.4603 103.08 64.4603 102.12V93.372H66.1883V102.048C66.1883 102.564 66.3143 102.96 66.5663 103.236C66.8303 103.512 67.2023 103.65 67.6823 103.65C68.2223 103.65 68.6723 103.5 69.0323 103.2L69.5723 104.442C69.3083 104.67 68.9903 104.838 68.6183 104.946C68.2583 105.054 67.8803 105.108 67.4843 105.108ZM62.8403 96.882V95.46H68.9243V96.882H62.8403ZM75.431 105.108C74.471 105.108 73.619 104.898 72.875 104.478C72.131 104.058 71.543 103.482 71.111 102.75C70.679 102.006 70.463 101.166 70.463 100.23C70.463 99.282 70.679 98.442 71.111 97.71C71.543 96.978 72.131 96.408 72.875 96C73.619 95.58 74.471 95.37 75.431 95.37C76.379 95.37 77.225 95.58 77.969 96C78.725 96.408 79.313 96.978 79.733 97.71C80.165 98.43 80.381 99.27 80.381 100.23C80.381 101.178 80.165 102.018 79.733 102.75C79.313 103.482 78.725 104.058 77.969 104.478C77.225 104.898 76.379 105.108 75.431 105.108ZM75.431 103.596C76.043 103.596 76.589 103.458 77.069 103.182C77.561 102.906 77.945 102.516 78.221 102.012C78.497 101.496 78.635 100.902 78.635 100.23C78.635 99.546 78.497 98.958 78.221 98.466C77.945 97.962 77.561 97.572 77.069 97.296C76.589 97.02 76.043 96.882 75.431 96.882C74.819 96.882 74.273 97.02 73.793 97.296C73.313 97.572 72.929 97.962 72.641 98.466C72.353 98.958 72.209 99.546 72.209 100.23C72.209 100.902 72.353 101.496 72.641 102.012C72.929 102.516 73.313 102.906 73.793 103.182C74.273 103.458 74.819 103.596 75.431 103.596ZM85.5068 105.108C84.7148 105.108 83.9588 105 83.2388 104.784C82.5308 104.568 81.9728 104.304 81.5648 103.992L82.2848 102.624C82.6928 102.9 83.1968 103.134 83.7968 103.326C84.3968 103.518 85.0088 103.614 85.6328 103.614C86.4368 103.614 87.0128 103.5 87.3608 103.272C87.7208 103.044 87.9008 102.726 87.9008 102.318C87.9008 102.018 87.7928 101.784 87.5768 101.616C87.3608 101.448 87.0728 101.322 86.7128 101.238C86.3648 101.154 85.9748 101.082 85.5428 101.022C85.1108 100.95 84.6788 100.866 84.2468 100.77C83.8148 100.662 83.4188 100.518 83.0588 100.338C82.6988 100.146 82.4108 99.888 82.1948 99.564C81.9788 99.228 81.8708 98.784 81.8708 98.232C81.8708 97.656 82.0328 97.152 82.3568 96.72C82.6808 96.288 83.1368 95.958 83.7248 95.73C84.3248 95.49 85.0328 95.37 85.8488 95.37C86.4728 95.37 87.1028 95.448 87.7388 95.604C88.3868 95.748 88.9148 95.958 89.3228 96.234L88.5848 97.602C88.1528 97.314 87.7028 97.116 87.2348 97.008C86.7668 96.9 86.2988 96.846 85.8308 96.846C85.0748 96.846 84.5108 96.972 84.1388 97.224C83.7668 97.464 83.5808 97.776 83.5808 98.16C83.5808 98.484 83.6888 98.736 83.9048 98.916C84.1328 99.084 84.4208 99.216 84.7688 99.312C85.1288 99.408 85.5248 99.492 85.9568 99.564C86.3888 99.624 86.8208 99.708 87.2528 99.816C87.6848 99.912 88.0748 100.05 88.4228 100.23C88.7828 100.41 89.0708 100.662 89.2868 100.986C89.5148 101.31 89.6288 101.742 89.6288 102.282C89.6288 102.858 89.4608 103.356 89.1248 103.776C88.7888 104.196 88.3148 104.526 87.7028 104.766C87.0908 104.994 86.3588 105.108 85.5068 105.108ZM96.8824 95.37C97.6624 95.37 98.3464 95.52 98.9344 95.82C99.5344 96.12 100.002 96.576 100.338 97.188C100.674 97.8 100.842 98.574 100.842 99.51V105H99.1144V99.708C99.1144 98.784 98.8864 98.088 98.4304 97.62C97.9864 97.152 97.3564 96.918 96.5404 96.918C95.9284 96.918 95.3944 97.038 94.9384 97.278C94.4824 97.518 94.1284 97.872 93.8764 98.34C93.6364 98.808 93.5164 99.39 93.5164 100.086V105H91.7884V91.644H93.5164V98.034L93.1744 97.35C93.4864 96.726 93.9664 96.24 94.6144 95.892C95.2624 95.544 96.0184 95.37 96.8824 95.37ZM108.126 105.108C107.166 105.108 106.314 104.898 105.57 104.478C104.826 104.058 104.238 103.482 103.806 102.75C103.374 102.006 103.158 101.166 103.158 100.23C103.158 99.282 103.374 98.442 103.806 97.71C104.238 96.978 104.826 96.408 105.57 96C106.314 95.58 107.166 95.37 108.126 95.37C109.074 95.37 109.92 95.58 110.664 96C111.42 96.408 112.008 96.978 112.428 97.71C112.86 98.43 113.076 99.27 113.076 100.23C113.076 101.178 112.86 102.018 112.428 102.75C112.008 103.482 111.42 104.058 110.664 104.478C109.92 104.898 109.074 105.108 108.126 105.108ZM108.126 103.596C108.738 103.596 109.284 103.458 109.764 103.182C110.256 102.906 110.64 102.516 110.916 102.012C111.192 101.496 111.33 100.902 111.33 100.23C111.33 99.546 111.192 98.958 110.916 98.466C110.64 97.962 110.256 97.572 109.764 97.296C109.284 97.02 108.738 96.882 108.126 96.882C107.514 96.882 106.968 97.02 106.488 97.296C106.008 97.572 105.624 97.962 105.336 98.466C105.048 98.958 104.904 99.546 104.904 100.23C104.904 100.902 105.048 101.496 105.336 102.012C105.624 102.516 106.008 102.906 106.488 103.182C106.968 103.458 107.514 103.596 108.126 103.596ZM120.524 105.108C119.732 105.108 119.006 104.928 118.346 104.568C117.698 104.196 117.176 103.65 116.78 102.93C116.396 102.21 116.204 101.31 116.204 100.23C116.204 99.15 116.39 98.25 116.762 97.53C117.146 96.81 117.662 96.27 118.31 95.91C118.97 95.55 119.708 95.37 120.524 95.37C121.46 95.37 122.288 95.574 123.008 95.982C123.728 96.39 124.298 96.96 124.718 97.692C125.138 98.412 125.348 99.258 125.348 100.23C125.348 101.202 125.138 102.054 124.718 102.786C124.298 103.518 123.728 104.088 123.008 104.496C122.288 104.904 121.46 105.108 120.524 105.108ZM115.466 108.492V95.46H117.122V98.034L117.014 100.248L117.194 102.462V108.492H115.466ZM120.38 103.596C120.992 103.596 121.538 103.458 122.018 103.182C122.51 102.906 122.894 102.516 123.17 102.012C123.458 101.496 123.602 100.902 123.602 100.23C123.602 99.546 123.458 98.958 123.17 98.466C122.894 97.962 122.51 97.572 122.018 97.296C121.538 97.02 120.992 96.882 120.38 96.882C119.78 96.882 119.234 97.02 118.742 97.296C118.262 97.572 117.878 97.962 117.59 98.466C117.314 98.958 117.176 99.546 117.176 100.23C117.176 100.902 117.314 101.496 117.59 102.012C117.878 102.516 118.262 102.906 118.742 103.182C119.234 103.458 119.78 103.596 120.38 103.596Z" fill="white"/>
<defs>
<clipPath id="clip0_450_1362">
<rect width="64" height="64" fill="white" transform="translate(44)"/>
</clipPath>
</defs>
</svg>
