<svg width="84" height="82" viewBox="0 0 84 82" fill="none" xmlns="http://www.w3.org/2000/svg">
<path d="M14.8751 0.0498047H69.1251C77.3501 0.0498047 84 6.69975 84 14.9249V67.0749C84 75.2999 77.3501 81.95 69.1249 81.95H14.8751C6.64995 81.9498 0 75.2999 0 67.0748V14.9249C0 6.69975 6.64995 0.0498047 14.8751 0.0498047Z" fill="#001834"/>
<path d="M18.9 57.4851V21.4701C18.9 21.2251 19.005 21.085 19.25 21.085C19.845 21.085 20.405 21.085 21.21 21.0501C22.05 21.0151 22.925 21.0151 23.87 20.98C24.815 20.9449 25.83 20.9451 26.915 20.9099C27.9999 20.875 29.0499 20.875 30.0999 20.875C32.9699 20.875 35.3499 21.2249 37.31 21.9599C39.06 22.555 40.67 23.5349 42 24.8299C43.1201 25.9499 43.995 27.3149 44.555 28.8199C45.08 30.2899 45.36 31.7948 45.36 33.3698C45.36 36.3799 44.66 38.8648 43.26 40.8248C41.8601 42.7849 39.9 44.2549 37.625 45.0949C35.2449 45.9698 32.6199 46.2848 29.75 46.2848C28.91 46.2848 28.35 46.2848 27.9999 46.2499C27.65 46.2149 27.1599 46.2149 26.495 46.2149V57.4499C26.5299 57.6949 26.355 57.9049 26.1099 57.94C26.075 57.94 26.0399 57.94 25.97 57.94H19.32C19.04 57.94 18.9 57.8001 18.9 57.4851ZM26.5301 27.8401V39.6001C27.0201 39.6351 27.4751 39.6702 27.8951 39.6702H29.7501C32.1669 39.6702 34.9581 39.1022 36.645 37.1853C38.0968 35.5355 38.1009 32.2637 36.9251 30.4653C35.5292 28.3303 32.7379 27.7118 30.345 27.7702C29.435 27.7702 28.6301 27.7702 27.965 27.8052C27.2651 27.7701 26.775 27.805 26.5301 27.8401Z" fill="#00A9FF"/>
<path d="M67.2 37.4646C66.15 36.9047 65.0299 36.5196 63.84 36.2747C62.545 35.9946 61.2499 35.8197 59.92 35.8197C59.22 35.7848 58.485 35.8898 57.82 36.0647C57.3651 36.1697 56.98 36.4146 56.7351 36.7647C56.56 37.0448 56.455 37.3947 56.455 37.7097C56.455 38.0247 56.595 38.3397 56.805 38.6198C57.12 39.0049 57.54 39.3198 57.9949 39.5648C58.8 39.9848 59.64 40.3699 60.48 40.7198C62.37 41.3498 64.1899 42.2247 65.8699 43.2747C67.0249 44.0097 67.9699 44.9897 68.6349 46.1798C69.1948 47.2999 69.4749 48.5247 69.4399 49.7847C69.4749 51.4298 68.985 53.0747 68.0749 54.4397C67.095 55.8396 65.73 56.9247 64.155 57.5547C62.44 58.2897 60.34 58.6748 57.82 58.6748C56.2101 58.6748 54.6351 58.5349 53.0601 58.2199C51.835 58.0098 50.6101 57.6248 49.4901 57.0998C49.2451 56.9599 49.0701 56.7147 49.105 56.4348V50.3449C49.105 50.2399 49.14 50.0999 49.245 50.0298C49.35 49.9598 49.455 49.9949 49.56 50.0648C50.925 50.8699 52.36 51.4298 53.8999 51.7797C55.23 52.1297 56.6299 52.3047 58.0299 52.3047C59.3599 52.3047 60.3049 52.1297 60.9349 51.8147C61.4949 51.5697 61.8799 50.9747 61.8799 50.3447C61.8799 49.8546 61.5999 49.3997 61.0399 48.9447C60.48 48.4898 59.325 47.9648 57.6099 47.2997C55.8249 46.6697 54.1798 45.8297 52.6399 44.7797C51.555 44.0097 50.6449 42.9947 49.98 41.8047C49.42 40.6847 49.14 39.4598 49.1749 38.2347C49.1749 36.7298 49.5949 35.2947 50.3649 33.9998C51.2398 32.5999 52.5349 31.4798 54.0399 30.7797C55.6849 29.9397 57.7498 29.5547 60.2349 29.5547C61.6699 29.5547 63.1399 29.6597 64.5748 29.8697C65.6248 30.0096 66.6399 30.2897 67.5849 30.6747C67.7248 30.7097 67.8649 30.8498 67.9348 30.9897C67.9698 31.1297 68.0049 31.2698 68.0049 31.4097V37.1147C68.0049 37.2546 67.9348 37.3947 67.8298 37.4646C67.515 37.5347 67.3399 37.5347 67.2 37.4646Z" fill="#00A9FF"/>
</svg>
