<svg width="64" height="64" viewBox="0 0 64 64" fill="none" xmlns="http://www.w3.org/2000/svg">
<path d="M11.3334 0.799805H52.6668C58.9334 0.799805 64 5.86643 64 12.1332V51.8666C64 58.1332 58.9334 63.1999 52.6666 63.1999H11.3334C5.06663 63.1998 0 58.1332 0 51.8664V12.1332C0 5.86643 5.06663 0.799805 11.3334 0.799805V0.799805Z" fill="#001834"/>
<path d="M14.4 44.5594V17.1194C14.4 16.9328 14.48 16.826 14.6666 16.826C15.12 16.826 15.5466 16.826 16.16 16.7994C16.8 16.7728 17.4666 16.7728 18.1866 16.746C18.9066 16.7193 19.68 16.7194 20.5066 16.6926C21.3333 16.666 22.1333 16.666 22.9333 16.666C25.1199 16.666 26.9333 16.9326 28.4266 17.4926C29.76 17.946 30.9867 18.6926 32 19.6793C32.8534 20.5326 33.52 21.5726 33.9466 22.7193C34.3466 23.8393 34.56 24.9859 34.56 26.1859C34.56 28.4793 34.0266 30.3725 32.96 31.8659C31.8934 33.3593 30.4 34.4793 28.6666 35.1193C26.8533 35.7859 24.8533 36.0259 22.6666 36.0259C22.0266 36.0259 21.6 36.0259 21.3333 35.9993C21.0666 35.9726 20.6933 35.9726 20.1866 35.9726V44.5326C20.2133 44.7193 20.08 44.8793 19.8933 44.906C19.8666 44.906 19.8399 44.906 19.7866 44.906H14.72C14.5067 44.906 14.4 44.7994 14.4 44.5594ZM20.2134 21.9728V30.9328C20.5868 30.9594 20.9334 30.9861 21.2534 30.9861H22.6668C24.5082 30.9861 26.6348 30.5534 27.92 29.0929C29.0261 27.8359 29.0293 25.3431 28.1334 23.9729C27.0699 22.3463 24.9432 21.875 23.12 21.9195C22.4267 21.9195 21.8134 21.9195 21.3067 21.9461C20.7734 21.9194 20.4 21.946 20.2134 21.9728Z" fill="#00A9FF"/>
<path d="M51.2 29.3059C50.4 28.8793 49.5467 28.5859 48.64 28.3993C47.6534 28.1859 46.6667 28.0527 45.6534 28.0527C45.12 28.026 44.56 28.106 44.0534 28.2393C43.7068 28.3193 43.4134 28.5059 43.2268 28.7727C43.0934 28.986 43.0134 29.2527 43.0134 29.4927C43.0134 29.7327 43.12 29.9727 43.28 30.186C43.52 30.4794 43.84 30.7194 44.1867 30.906C44.8 31.226 45.44 31.5194 46.08 31.786C47.52 32.266 48.9067 32.9327 50.1867 33.7327C51.0667 34.2927 51.7867 35.0393 52.2933 35.946C52.7199 36.7994 52.9333 37.7327 52.9067 38.6927C52.9333 39.946 52.56 41.1993 51.8667 42.2393C51.12 43.3059 50.08 44.1327 48.88 44.6127C47.5734 45.1727 45.9734 45.466 44.0534 45.466C42.8268 45.466 41.6268 45.3594 40.4268 45.1194C39.4934 44.9594 38.5602 44.666 37.7068 44.266C37.5202 44.1594 37.3868 43.9727 37.4134 43.7594V39.1194C37.4134 39.0394 37.44 38.9328 37.52 38.8794C37.6 38.826 37.68 38.8528 37.76 38.906C38.8 39.5194 39.8934 39.946 41.0667 40.2127C42.08 40.4793 43.1467 40.6127 44.2133 40.6127C45.2267 40.6127 45.9467 40.4793 46.4267 40.2393C46.8533 40.0527 47.1467 39.5993 47.1467 39.1193C47.1467 38.7459 46.9333 38.3993 46.5067 38.0527C46.08 37.706 45.2 37.306 43.8933 36.7993C42.5333 36.3193 41.2799 35.6793 40.1067 34.8793C39.28 34.2927 38.5867 33.5193 38.08 32.6127C37.6534 31.7593 37.44 30.826 37.4667 29.8927C37.4667 28.746 37.7867 27.6527 38.3733 26.666C39.0399 25.5994 40.0267 24.746 41.1733 24.2127C42.4267 23.5727 43.9999 23.2793 45.8933 23.2793C46.9867 23.2793 48.1067 23.3593 49.1999 23.5193C49.9999 23.6259 50.7733 23.8393 51.4933 24.1327C51.5999 24.1593 51.7067 24.266 51.7599 24.3727C51.7865 24.4793 51.8133 24.586 51.8133 24.6927V29.0393C51.8133 29.1459 51.7599 29.2527 51.6799 29.3059C51.44 29.3593 51.3067 29.3593 51.2 29.3059Z" fill="#00A9FF"/>
</svg>
