<svg width="54" height="60" viewBox="0 0 54 60" fill="none" xmlns="http://www.w3.org/2000/svg">
<path d="M47.8328 29.9991C50.641 26.9297 52.6002 23.8603 53.3185 21.1828C53.9063 18.9623 53.7104 16.9379 52.7961 15.3052C50.4451 11.2562 44.4369 10.6685 37.4491 12.1705C35.2287 5.37868 31.7675 0.611328 27.0002 0.611328C22.6247 0.611328 18.9022 5.05214 16.5512 12.2358C15.7022 12.0399 14.9185 11.9093 14.0696 11.7787C7.66955 10.8644 3.03282 12.1052 1.20424 15.3705C0.289959 17.0032 0.0940405 19.0277 0.681796 21.2481C1.40016 23.9909 3.35935 26.995 6.16751 30.0644C3.35935 33.1338 1.40016 36.2032 0.681796 38.8807C0.0940405 41.1011 0.289959 43.1256 1.20424 44.7583C2.70629 47.3052 5.84098 48.6113 10.2165 48.6113C11.392 48.6113 12.6981 48.4807 14.0696 48.2848C14.8532 48.1542 15.7022 48.0236 16.5512 47.8277C18.8369 55.0113 22.6247 59.4521 27.0002 59.4521C31.7675 59.4521 35.2287 54.6195 37.3838 47.8277C39.6696 48.3501 41.8247 48.6113 43.8492 48.6113C47.9634 48.6113 51.1634 47.4358 52.7961 44.693C53.7104 43.1256 53.9063 41.1011 53.3185 38.8807C52.6002 36.0726 50.641 33.1338 47.8328 29.9991ZM4.60016 42.7338C4.20833 42.0154 4.14302 41.0358 4.46955 39.8603C4.992 37.9664 6.49404 35.4848 8.91037 32.7419C10.543 34.244 12.4369 35.746 14.3961 37.1828C14.6573 39.5991 14.9838 41.8848 15.5063 44.0399C9.88996 45.2154 5.77567 44.7583 4.60016 42.7338ZM11.6532 29.9991C12.3716 29.346 13.2206 28.6277 14.0696 27.9746C14.0696 28.6277 14.0696 29.346 14.0696 29.9991C14.0696 30.7175 14.0696 31.3705 14.0696 32.0236C13.2206 31.3052 12.4369 30.6521 11.6532 29.9991ZM14.3961 22.8154C12.3716 24.2521 10.543 25.7542 8.91037 27.2562C6.42874 24.5787 4.992 22.097 4.46955 20.1379C4.14302 18.9624 4.20833 17.9828 4.60016 17.2644C5.31853 15.9583 7.34302 15.3052 10.0859 15.3052C11.6532 15.3052 13.4818 15.5011 15.5063 15.9583C15.0491 18.1134 14.6573 20.3991 14.3961 22.8154ZM35.2287 19.8766C34.641 19.5501 34.0532 19.1583 33.4655 18.8317C32.8777 18.5705 32.29 18.244 31.7022 17.9175C32.6818 17.5256 33.7267 17.1991 34.641 16.8726C34.8369 17.9175 35.0328 18.897 35.2287 19.8766ZM21.0573 11.3868C22.7553 7.07663 24.9757 4.5297 27.0002 4.5297C29.0247 4.5297 31.2451 7.07663 32.943 11.3215C33.2042 11.9093 33.4002 12.5623 33.6614 13.2154C31.5063 13.8685 29.2859 14.7175 27.0655 15.697C24.8451 14.7175 22.5594 13.8685 20.4042 13.2154C20.6002 12.497 20.7961 11.9093 21.0573 11.3868ZM19.3594 16.9379C20.3389 17.1991 21.2532 17.5909 22.2981 17.9175C21.7104 18.244 21.1226 18.5705 20.5349 18.897C19.9471 19.2236 19.3594 19.6154 18.7716 19.9419C18.9675 18.897 19.1634 17.9175 19.3594 16.9379ZM18.7716 40.1215C19.3594 40.4481 19.9471 40.8399 20.5349 41.1664C21.1226 41.493 21.7104 41.8195 22.2981 42.146C21.3185 42.5379 20.3389 42.8644 19.3594 43.1256C19.1634 42.0807 18.9675 41.1011 18.7716 40.1215ZM32.943 48.8073C31.2451 53.0522 29.0247 55.5991 27.0002 55.5991C24.9757 55.5991 22.7553 53.0521 21.0573 48.7419C20.7961 48.1542 20.6002 47.5011 20.4042 46.8481C22.5594 46.195 24.7798 45.346 27.0655 44.3664C29.2859 45.346 31.5063 46.195 33.6614 46.8481C33.4002 47.5011 33.2042 48.1542 32.943 48.8073ZM34.641 43.0603C33.6614 42.7338 32.6818 42.4072 31.7022 42.0154C32.29 41.6889 32.8777 41.3624 33.4655 41.0358C34.0532 40.7746 34.641 40.3828 35.2287 40.0562C35.0328 41.1011 34.8369 42.0807 34.641 43.0603ZM35.8165 35.093C34.5104 36.0072 33.0736 36.9215 31.5063 37.7705C30.0042 38.6195 28.4369 39.4032 27.0002 40.1215C25.4981 39.4032 23.9961 38.6195 22.494 37.7705C20.9267 36.9215 19.5553 36.0072 18.1838 35.093C18.0532 33.4603 17.9879 31.7624 17.9879 30.0644C17.9879 28.3664 18.0532 26.6685 18.1838 25.0358C19.5553 24.1215 20.9267 23.2726 22.494 22.3583C23.9961 21.5093 25.4981 20.7256 27.0002 20.0072C28.5022 20.7256 30.0042 21.5093 31.5063 22.3583C33.0736 23.2072 34.4451 24.1215 35.8165 25.0358C35.9471 26.6685 36.0124 28.3664 36.0124 30.0644C36.0124 31.7624 35.9471 33.395 35.8165 35.093ZM43.8492 15.3052C46.6573 15.3052 48.6818 16.0236 49.4655 17.3297C49.8573 18.0481 49.9226 19.0277 49.5961 20.2032C49.0736 22.097 47.5716 24.5787 45.1553 27.3215C43.5226 25.8195 41.6287 24.3175 39.6043 22.8807C39.343 20.5297 38.9512 18.1787 38.494 16.0236C40.4532 15.5011 42.2818 15.3052 43.8492 15.3052ZM39.8655 28.0399C40.7145 28.693 41.4981 29.346 42.2818 29.9991C41.5634 30.6521 40.7145 31.3705 39.8655 32.0236C39.8655 31.3052 39.9308 30.6521 39.9308 29.9991C39.9308 29.346 39.9308 28.693 39.8655 28.0399ZM49.4002 42.7338C48.2247 44.7583 44.1104 45.2807 38.4287 44.1052C38.9512 41.8848 39.2777 39.5991 39.5389 37.2481C41.5634 35.8113 43.392 34.3093 45.09 32.8072C47.5716 35.4848 49.0083 37.9664 49.5308 39.9256C49.8573 41.1011 49.792 42.0807 49.4002 42.7338Z" fill="#61DAFB"/>
<path d="M47.8328 29.9991C50.641 26.9297 52.6002 23.8603 53.3185 21.1828C53.9063 18.9623 53.7104 16.9379 52.7961 15.3052C50.4451 11.2562 44.4369 10.6685 37.4491 12.1705C35.2287 5.37868 31.7675 0.611328 27.0002 0.611328C22.6247 0.611328 18.9022 5.05214 16.5512 12.2358C15.7022 12.0399 14.9185 11.9093 14.0696 11.7787C7.66955 10.8644 3.03282 12.1052 1.20424 15.3705C0.289959 17.0032 0.0940405 19.0277 0.681796 21.2481C1.40016 23.9909 3.35935 26.995 6.16751 30.0644C3.35935 33.1338 1.40016 36.2032 0.681796 38.8807C0.0940405 41.1011 0.289959 43.1256 1.20424 44.7583C2.70629 47.3052 5.84098 48.6113 10.2165 48.6113C11.392 48.6113 12.6981 48.4807 14.0696 48.2848C14.8532 48.1542 15.7022 48.0236 16.5512 47.8277C18.8369 55.0113 22.6247 59.4521 27.0002 59.4521C31.7675 59.4521 35.2287 54.6195 37.3838 47.8277C39.6696 48.3501 41.8247 48.6113 43.8492 48.6113C47.9634 48.6113 51.1634 47.4358 52.7961 44.693C53.7104 43.1256 53.9063 41.1011 53.3185 38.8807C52.6002 36.0726 50.641 33.1338 47.8328 29.9991ZM4.60016 42.7338C4.20833 42.0154 4.14302 41.0358 4.46955 39.8603C4.992 37.9664 6.49404 35.4848 8.91037 32.7419C10.543 34.244 12.4369 35.746 14.3961 37.1828C14.6573 39.5991 14.9838 41.8848 15.5063 44.0399C9.88996 45.2154 5.77567 44.7583 4.60016 42.7338ZM11.6532 29.9991C12.3716 29.346 13.2206 28.6277 14.0696 27.9746C14.0696 28.6277 14.0696 29.346 14.0696 29.9991C14.0696 30.7175 14.0696 31.3705 14.0696 32.0236C13.2206 31.3052 12.4369 30.6521 11.6532 29.9991ZM14.3961 22.8154C12.3716 24.2521 10.543 25.7542 8.91037 27.2562C6.42874 24.5787 4.992 22.097 4.46955 20.1379C4.14302 18.9624 4.20833 17.9828 4.60016 17.2644C5.31853 15.9583 7.34302 15.3052 10.0859 15.3052C11.6532 15.3052 13.4818 15.5011 15.5063 15.9583C15.0491 18.1134 14.6573 20.3991 14.3961 22.8154ZM35.2287 19.8766C34.641 19.5501 34.0532 19.1583 33.4655 18.8317C32.8777 18.5705 32.29 18.244 31.7022 17.9175C32.6818 17.5256 33.7267 17.1991 34.641 16.8726C34.8369 17.9175 35.0328 18.897 35.2287 19.8766ZM21.0573 11.3868C22.7553 7.07663 24.9757 4.5297 27.0002 4.5297C29.0247 4.5297 31.2451 7.07663 32.943 11.3215C33.2042 11.9093 33.4002 12.5623 33.6614 13.2154C31.5063 13.8685 29.2859 14.7175 27.0655 15.697C24.8451 14.7175 22.5594 13.8685 20.4042 13.2154C20.6002 12.497 20.7961 11.9093 21.0573 11.3868ZM19.3594 16.9379C20.3389 17.1991 21.2532 17.5909 22.2981 17.9175C21.7104 18.244 21.1226 18.5705 20.5349 18.897C19.9471 19.2236 19.3594 19.6154 18.7716 19.9419C18.9675 18.897 19.1634 17.9175 19.3594 16.9379ZM18.7716 40.1215C19.3594 40.4481 19.9471 40.8399 20.5349 41.1664C21.1226 41.493 21.7104 41.8195 22.2981 42.146C21.3185 42.5379 20.3389 42.8644 19.3594 43.1256C19.1634 42.0807 18.9675 41.1011 18.7716 40.1215ZM32.943 48.8073C31.2451 53.0522 29.0247 55.5991 27.0002 55.5991C24.9757 55.5991 22.7553 53.0521 21.0573 48.7419C20.7961 48.1542 20.6002 47.5011 20.4042 46.8481C22.5594 46.195 24.7798 45.346 27.0655 44.3664C29.2859 45.346 31.5063 46.195 33.6614 46.8481C33.4002 47.5011 33.2042 48.1542 32.943 48.8073ZM34.641 43.0603C33.6614 42.7338 32.6818 42.4072 31.7022 42.0154C32.29 41.6889 32.8777 41.3624 33.4655 41.0358C34.0532 40.7746 34.641 40.3828 35.2287 40.0562C35.0328 41.1011 34.8369 42.0807 34.641 43.0603ZM35.8165 35.093C34.5104 36.0072 33.0736 36.9215 31.5063 37.7705C30.0042 38.6195 28.4369 39.4032 27.0002 40.1215C25.4981 39.4032 23.9961 38.6195 22.494 37.7705C20.9267 36.9215 19.5553 36.0072 18.1838 35.093C18.0532 33.4603 17.9879 31.7624 17.9879 30.0644C17.9879 28.3664 18.0532 26.6685 18.1838 25.0358C19.5553 24.1215 20.9267 23.2726 22.494 22.3583C23.9961 21.5093 25.4981 20.7256 27.0002 20.0072C28.5022 20.7256 30.0042 21.5093 31.5063 22.3583C33.0736 23.2072 34.4451 24.1215 35.8165 25.0358C35.9471 26.6685 36.0124 28.3664 36.0124 30.0644C36.0124 31.7624 35.9471 33.395 35.8165 35.093ZM43.8492 15.3052C46.6573 15.3052 48.6818 16.0236 49.4655 17.3297C49.8573 18.0481 49.9226 19.0277 49.5961 20.2032C49.0736 22.097 47.5716 24.5787 45.1553 27.3215C43.5226 25.8195 41.6287 24.3175 39.6043 22.8807C39.343 20.5297 38.9512 18.1787 38.494 16.0236C40.4532 15.5011 42.2818 15.3052 43.8492 15.3052ZM39.8655 28.0399C40.7145 28.693 41.4981 29.346 42.2818 29.9991C41.5634 30.6521 40.7145 31.3705 39.8655 32.0236C39.8655 31.3052 39.9308 30.6521 39.9308 29.9991C39.9308 29.346 39.9308 28.693 39.8655 28.0399ZM49.4002 42.7338C48.2247 44.7583 44.1104 45.2807 38.4287 44.1052C38.9512 41.8848 39.2777 39.5991 39.5389 37.2481C41.5634 35.8113 43.392 34.3093 45.09 32.8072C47.5716 35.4848 49.0083 37.9664 49.5308 39.9256C49.8573 41.1011 49.792 42.0807 49.4002 42.7338Z" fill="#61DAFB"/>
</svg>
