<svg width="152" height="110" viewBox="0 0 152 110" fill="none" xmlns="http://www.w3.org/2000/svg">
<path d="M96.8328 31.9991C99.641 28.9297 101.6 25.8603 102.319 23.1828C102.906 20.9623 102.71 18.9379 101.796 17.3052C99.4451 13.2562 93.4369 12.6685 86.4491 14.1705C84.2287 7.37868 80.7675 2.61133 76.0002 2.61133C71.6247 2.61133 67.9022 7.05214 65.5512 14.2358C64.7022 14.0399 63.9185 13.9093 63.0696 13.7787C56.6696 12.8644 52.0328 14.1052 50.2042 17.3705C49.29 19.0032 49.094 21.0277 49.6818 23.2481C50.4002 25.9909 52.3593 28.995 55.1675 32.0644C52.3593 35.1338 50.4002 38.2032 49.6818 40.8807C49.094 43.1011 49.29 45.1256 50.2042 46.7583C51.7063 49.3052 54.841 50.6113 59.2165 50.6113C60.392 50.6113 61.6981 50.4807 63.0696 50.2848C63.8532 50.1542 64.7022 50.0236 65.5512 49.8277C67.8369 57.0113 71.6247 61.4521 76.0002 61.4521C80.7675 61.4521 84.2287 56.6195 86.3838 49.8277C88.6696 50.3501 90.8247 50.6113 92.8492 50.6113C96.9634 50.6113 100.163 49.4358 101.796 46.693C102.71 45.1256 102.906 43.1011 102.319 40.8807C101.6 38.0726 99.641 35.1338 96.8328 31.9991ZM53.6002 44.7338C53.2083 44.0154 53.143 43.0358 53.4696 41.8603C53.992 39.9664 55.494 37.4848 57.9104 34.7419C59.543 36.244 61.4369 37.746 63.3961 39.1828C63.6573 41.5991 63.9838 43.8848 64.5063 46.0399C58.89 47.2154 54.7757 46.7583 53.6002 44.7338ZM60.6532 31.9991C61.3716 31.346 62.2206 30.6277 63.0696 29.9746C63.0696 30.6277 63.0696 31.346 63.0696 31.9991C63.0696 32.7175 63.0696 33.3705 63.0696 34.0236C62.2206 33.3052 61.4369 32.6521 60.6532 31.9991ZM63.3961 24.8154C61.3716 26.2521 59.543 27.7542 57.9104 29.2562C55.4287 26.5787 53.992 24.097 53.4696 22.1379C53.143 20.9624 53.2083 19.9828 53.6002 19.2644C54.3185 17.9583 56.343 17.3052 59.0859 17.3052C60.6532 17.3052 62.4818 17.5011 64.5063 17.9583C64.0491 20.1134 63.6573 22.3991 63.3961 24.8154ZM84.2287 21.8766C83.641 21.5501 83.0532 21.1583 82.4655 20.8317C81.8777 20.5705 81.29 20.244 80.7022 19.9175C81.6818 19.5256 82.7267 19.1991 83.641 18.8726C83.8369 19.9175 84.0328 20.897 84.2287 21.8766ZM70.0573 13.3868C71.7553 9.07663 73.9757 6.5297 76.0002 6.5297C78.0247 6.5297 80.2451 9.07663 81.943 13.3215C82.2042 13.9093 82.4002 14.5623 82.6614 15.2154C80.5063 15.8685 78.2859 16.7175 76.0655 17.697C73.8451 16.7175 71.5594 15.8685 69.4042 15.2154C69.6002 14.497 69.7961 13.9093 70.0573 13.3868ZM68.3594 18.9379C69.3389 19.1991 70.2532 19.5909 71.2981 19.9175C70.7104 20.244 70.1226 20.5705 69.5349 20.897C68.9471 21.2236 68.3594 21.6154 67.7716 21.9419C67.9675 20.897 68.1634 19.9175 68.3594 18.9379ZM67.7716 42.1215C68.3594 42.4481 68.9471 42.8399 69.5349 43.1664C70.1226 43.493 70.7104 43.8195 71.2981 44.146C70.3185 44.5379 69.3389 44.8644 68.3594 45.1256C68.1634 44.0807 67.9675 43.1011 67.7716 42.1215ZM81.943 50.8073C80.2451 55.0522 78.0247 57.5991 76.0002 57.5991C73.9757 57.5991 71.7553 55.0521 70.0573 50.7419C69.7961 50.1542 69.6002 49.5011 69.4042 48.8481C71.5594 48.195 73.7798 47.346 76.0655 46.3664C78.2859 47.346 80.5063 48.195 82.6614 48.8481C82.4002 49.5011 82.2042 50.1542 81.943 50.8073ZM83.641 45.0603C82.6614 44.7338 81.6818 44.4072 80.7022 44.0154C81.29 43.6889 81.8777 43.3624 82.4655 43.0358C83.0532 42.7746 83.641 42.3828 84.2287 42.0562C84.0328 43.1011 83.8369 44.0807 83.641 45.0603ZM84.8165 37.093C83.5104 38.0072 82.0736 38.9215 80.5063 39.7705C79.0042 40.6195 77.4369 41.4032 76.0002 42.1215C74.4981 41.4032 72.9961 40.6195 71.494 39.7705C69.9267 38.9215 68.5553 38.0072 67.1838 37.093C67.0532 35.4603 66.9879 33.7624 66.9879 32.0644C66.9879 30.3664 67.0532 28.6685 67.1838 27.0358C68.5553 26.1215 69.9267 25.2726 71.494 24.3583C72.9961 23.5093 74.4981 22.7256 76.0002 22.0072C77.5022 22.7256 79.0042 23.5093 80.5063 24.3583C82.0736 25.2072 83.4451 26.1215 84.8165 27.0358C84.9471 28.6685 85.0124 30.3664 85.0124 32.0644C85.0124 33.7624 84.9471 35.395 84.8165 37.093ZM92.8492 17.3052C95.6573 17.3052 97.6818 18.0236 98.4655 19.3297C98.8573 20.0481 98.9226 21.0277 98.5961 22.2032C98.0736 24.097 96.5716 26.5787 94.1553 29.3215C92.5226 27.8195 90.6287 26.3175 88.6043 24.8807C88.343 22.5297 87.9512 20.1787 87.494 18.0236C89.4532 17.5011 91.2818 17.3052 92.8492 17.3052ZM88.8655 30.0399C89.7145 30.693 90.4981 31.346 91.2818 31.9991C90.5634 32.6521 89.7145 33.3705 88.8655 34.0236C88.8655 33.3052 88.9308 32.6521 88.9308 31.9991C88.9308 31.346 88.9308 30.693 88.8655 30.0399ZM98.4002 44.7338C97.2247 46.7583 93.1104 47.2807 87.4287 46.1052C87.9512 43.8848 88.2777 41.5991 88.5389 39.2481C90.5634 37.8113 92.392 36.3093 94.09 34.8072C96.5716 37.4848 98.0083 39.9664 98.5308 41.9256C98.8573 43.1011 98.792 44.0807 98.4002 44.7338Z" fill="#61DAFB"/>
<path d="M96.8328 31.9991C99.641 28.9297 101.6 25.8603 102.319 23.1828C102.906 20.9623 102.71 18.9379 101.796 17.3052C99.4451 13.2562 93.4369 12.6685 86.4491 14.1705C84.2287 7.37868 80.7675 2.61133 76.0002 2.61133C71.6247 2.61133 67.9022 7.05214 65.5512 14.2358C64.7022 14.0399 63.9185 13.9093 63.0696 13.7787C56.6696 12.8644 52.0328 14.1052 50.2042 17.3705C49.29 19.0032 49.094 21.0277 49.6818 23.2481C50.4002 25.9909 52.3593 28.995 55.1675 32.0644C52.3593 35.1338 50.4002 38.2032 49.6818 40.8807C49.094 43.1011 49.29 45.1256 50.2042 46.7583C51.7063 49.3052 54.841 50.6113 59.2165 50.6113C60.392 50.6113 61.6981 50.4807 63.0696 50.2848C63.8532 50.1542 64.7022 50.0236 65.5512 49.8277C67.8369 57.0113 71.6247 61.4521 76.0002 61.4521C80.7675 61.4521 84.2287 56.6195 86.3838 49.8277C88.6696 50.3501 90.8247 50.6113 92.8492 50.6113C96.9634 50.6113 100.163 49.4358 101.796 46.693C102.71 45.1256 102.906 43.1011 102.319 40.8807C101.6 38.0726 99.641 35.1338 96.8328 31.9991ZM53.6002 44.7338C53.2083 44.0154 53.143 43.0358 53.4696 41.8603C53.992 39.9664 55.494 37.4848 57.9104 34.7419C59.543 36.244 61.4369 37.746 63.3961 39.1828C63.6573 41.5991 63.9838 43.8848 64.5063 46.0399C58.89 47.2154 54.7757 46.7583 53.6002 44.7338ZM60.6532 31.9991C61.3716 31.346 62.2206 30.6277 63.0696 29.9746C63.0696 30.6277 63.0696 31.346 63.0696 31.9991C63.0696 32.7175 63.0696 33.3705 63.0696 34.0236C62.2206 33.3052 61.4369 32.6521 60.6532 31.9991ZM63.3961 24.8154C61.3716 26.2521 59.543 27.7542 57.9104 29.2562C55.4287 26.5787 53.992 24.097 53.4696 22.1379C53.143 20.9624 53.2083 19.9828 53.6002 19.2644C54.3185 17.9583 56.343 17.3052 59.0859 17.3052C60.6532 17.3052 62.4818 17.5011 64.5063 17.9583C64.0491 20.1134 63.6573 22.3991 63.3961 24.8154ZM84.2287 21.8766C83.641 21.5501 83.0532 21.1583 82.4655 20.8317C81.8777 20.5705 81.29 20.244 80.7022 19.9175C81.6818 19.5256 82.7267 19.1991 83.641 18.8726C83.8369 19.9175 84.0328 20.897 84.2287 21.8766ZM70.0573 13.3868C71.7553 9.07663 73.9757 6.5297 76.0002 6.5297C78.0247 6.5297 80.2451 9.07663 81.943 13.3215C82.2042 13.9093 82.4002 14.5623 82.6614 15.2154C80.5063 15.8685 78.2859 16.7175 76.0655 17.697C73.8451 16.7175 71.5594 15.8685 69.4042 15.2154C69.6002 14.497 69.7961 13.9093 70.0573 13.3868ZM68.3594 18.9379C69.3389 19.1991 70.2532 19.5909 71.2981 19.9175C70.7104 20.244 70.1226 20.5705 69.5349 20.897C68.9471 21.2236 68.3594 21.6154 67.7716 21.9419C67.9675 20.897 68.1634 19.9175 68.3594 18.9379ZM67.7716 42.1215C68.3594 42.4481 68.9471 42.8399 69.5349 43.1664C70.1226 43.493 70.7104 43.8195 71.2981 44.146C70.3185 44.5379 69.3389 44.8644 68.3594 45.1256C68.1634 44.0807 67.9675 43.1011 67.7716 42.1215ZM81.943 50.8073C80.2451 55.0522 78.0247 57.5991 76.0002 57.5991C73.9757 57.5991 71.7553 55.0521 70.0573 50.7419C69.7961 50.1542 69.6002 49.5011 69.4042 48.8481C71.5594 48.195 73.7798 47.346 76.0655 46.3664C78.2859 47.346 80.5063 48.195 82.6614 48.8481C82.4002 49.5011 82.2042 50.1542 81.943 50.8073ZM83.641 45.0603C82.6614 44.7338 81.6818 44.4072 80.7022 44.0154C81.29 43.6889 81.8777 43.3624 82.4655 43.0358C83.0532 42.7746 83.641 42.3828 84.2287 42.0562C84.0328 43.1011 83.8369 44.0807 83.641 45.0603ZM84.8165 37.093C83.5104 38.0072 82.0736 38.9215 80.5063 39.7705C79.0042 40.6195 77.4369 41.4032 76.0002 42.1215C74.4981 41.4032 72.9961 40.6195 71.494 39.7705C69.9267 38.9215 68.5553 38.0072 67.1838 37.093C67.0532 35.4603 66.9879 33.7624 66.9879 32.0644C66.9879 30.3664 67.0532 28.6685 67.1838 27.0358C68.5553 26.1215 69.9267 25.2726 71.494 24.3583C72.9961 23.5093 74.4981 22.7256 76.0002 22.0072C77.5022 22.7256 79.0042 23.5093 80.5063 24.3583C82.0736 25.2072 83.4451 26.1215 84.8165 27.0358C84.9471 28.6685 85.0124 30.3664 85.0124 32.0644C85.0124 33.7624 84.9471 35.395 84.8165 37.093ZM92.8492 17.3052C95.6573 17.3052 97.6818 18.0236 98.4655 19.3297C98.8573 20.0481 98.9226 21.0277 98.5961 22.2032C98.0736 24.097 96.5716 26.5787 94.1553 29.3215C92.5226 27.8195 90.6287 26.3175 88.6043 24.8807C88.343 22.5297 87.9512 20.1787 87.494 18.0236C89.4532 17.5011 91.2818 17.3052 92.8492 17.3052ZM88.8655 30.0399C89.7145 30.693 90.4981 31.346 91.2818 31.9991C90.5634 32.6521 89.7145 33.3705 88.8655 34.0236C88.8655 33.3052 88.9308 32.6521 88.9308 31.9991C88.9308 31.346 88.9308 30.693 88.8655 30.0399ZM98.4002 44.7338C97.2247 46.7583 93.1104 47.2807 87.4287 46.1052C87.9512 43.8848 88.2777 41.5991 88.5389 39.2481C90.5634 37.8113 92.392 36.3093 94.09 34.8072C96.5716 37.4848 98.0083 39.9664 98.5308 41.9256C98.8573 43.1011 98.792 44.0807 98.4002 44.7338Z" fill="#61DAFB"/>
<path d="M76.0006 26.1211C72.7353 26.1211 70.123 28.7333 70.123 31.9986C70.123 35.264 72.7353 37.8762 76.0006 37.8762C79.2659 37.8762 81.8781 35.264 81.8781 31.9986C81.8781 28.7333 79.2659 26.1211 76.0006 26.1211ZM76.0006 33.9578C74.8904 33.9578 74.0414 33.1089 74.0414 31.9986C74.0414 30.8884 74.8904 30.0395 76.0006 30.0395C77.1108 30.0395 77.9598 30.8884 77.9598 31.9986C77.9598 33.1089 77.1108 33.9578 76.0006 33.9578Z" fill="#61DAFB"/>
<path d="M76.0006 26.1211C72.7353 26.1211 70.123 28.7333 70.123 31.9986C70.123 35.264 72.7353 37.8762 76.0006 37.8762C79.2659 37.8762 81.8781 35.264 81.8781 31.9986C81.8781 28.7333 79.2659 26.1211 76.0006 26.1211ZM76.0006 33.9578C74.8904 33.9578 74.0414 33.1089 74.0414 31.9986C74.0414 30.8884 74.8904 30.0395 76.0006 30.0395C77.1108 30.0395 77.9598 30.8884 77.9598 31.9986C77.9598 33.1089 77.1108 33.9578 76.0006 33.9578Z" fill="#61DAFB"/>
<path d="M60.0611 105L57.3431 101.13C57.0071 101.154 56.7431 101.166 56.5511 101.166H53.4371V105H51.6371V92.4H56.5511C58.1831 92.4 59.4671 92.79 60.4031 93.57C61.3391 94.35 61.8071 95.424 61.8071 96.792C61.8071 97.764 61.5671 98.592 61.0871 99.276C60.6071 99.96 59.9231 100.458 59.0351 100.77L62.0231 105H60.0611ZM56.4971 99.636C57.6371 99.636 58.5071 99.39 59.1071 98.898C59.7071 98.406 60.0071 97.704 60.0071 96.792C60.0071 95.88 59.7071 95.184 59.1071 94.704C58.5071 94.212 57.6371 93.966 56.4971 93.966H53.4371V99.636H56.4971ZM73.0852 100.284C73.0852 100.416 73.0732 100.59 73.0492 100.806H65.3092C65.4172 101.646 65.7832 102.324 66.4072 102.84C67.0432 103.344 67.8292 103.596 68.7652 103.596C69.9052 103.596 70.8232 103.212 71.5192 102.444L72.4732 103.56C72.0412 104.064 71.5012 104.448 70.8532 104.712C70.2172 104.976 69.5032 105.108 68.7112 105.108C67.7032 105.108 66.8092 104.904 66.0292 104.496C65.2492 104.076 64.6432 103.494 64.2112 102.75C63.7912 102.006 63.5812 101.166 63.5812 100.23C63.5812 99.306 63.7852 98.472 64.1932 97.728C64.6132 96.984 65.1832 96.408 65.9032 96C66.6352 95.58 67.4572 95.37 68.3692 95.37C69.2812 95.37 70.0912 95.58 70.7992 96C71.5192 96.408 72.0772 96.984 72.4732 97.728C72.8812 98.472 73.0852 99.324 73.0852 100.284ZM68.3692 96.828C67.5412 96.828 66.8452 97.08 66.2812 97.584C65.7292 98.088 65.4052 98.748 65.3092 99.564H71.4292C71.3332 98.76 71.0032 98.106 70.4392 97.602C69.8872 97.086 69.1972 96.828 68.3692 96.828ZM78.695 95.37C80.015 95.37 81.023 95.694 81.719 96.342C82.427 96.99 82.781 97.956 82.781 99.24V105H81.143V103.74C80.855 104.184 80.441 104.526 79.901 104.766C79.373 104.994 78.743 105.108 78.011 105.108C76.943 105.108 76.085 104.85 75.437 104.334C74.801 103.818 74.483 103.14 74.483 102.3C74.483 101.46 74.789 100.788 75.401 100.284C76.013 99.768 76.985 99.51 78.317 99.51H81.053V99.168C81.053 98.424 80.837 97.854 80.405 97.458C79.973 97.062 79.337 96.864 78.497 96.864C77.933 96.864 77.381 96.96 76.841 97.152C76.301 97.332 75.845 97.578 75.473 97.89L74.753 96.594C75.245 96.198 75.833 95.898 76.517 95.694C77.201 95.478 77.927 95.37 78.695 95.37ZM78.299 103.776C78.959 103.776 79.529 103.632 80.009 103.344C80.489 103.044 80.837 102.624 81.053 102.084V100.752H78.389C76.925 100.752 76.193 101.244 76.193 102.228C76.193 102.708 76.379 103.086 76.751 103.362C77.123 103.638 77.639 103.776 78.299 103.776ZM90.1896 105.108C89.2176 105.108 88.3476 104.898 87.5796 104.478C86.8236 104.058 86.2296 103.482 85.7976 102.75C85.3656 102.006 85.1496 101.166 85.1496 100.23C85.1496 99.294 85.3656 98.46 85.7976 97.728C86.2296 96.984 86.8236 96.408 87.5796 96C88.3476 95.58 89.2176 95.37 90.1896 95.37C91.0536 95.37 91.8216 95.544 92.4936 95.892C93.1776 96.24 93.7056 96.744 94.0776 97.404L92.7636 98.25C92.4636 97.794 92.0916 97.452 91.6476 97.224C91.2036 96.996 90.7116 96.882 90.1716 96.882C89.5476 96.882 88.9836 97.02 88.4796 97.296C87.9876 97.572 87.5976 97.968 87.3096 98.484C87.0336 98.988 86.8956 99.57 86.8956 100.23C86.8956 100.902 87.0336 101.496 87.3096 102.012C87.5976 102.516 87.9876 102.906 88.4796 103.182C88.9836 103.458 89.5476 103.596 90.1716 103.596C90.7116 103.596 91.2036 103.482 91.6476 103.254C92.0916 103.026 92.4636 102.684 92.7636 102.228L94.0776 103.056C93.7056 103.716 93.1776 104.226 92.4936 104.586C91.8216 104.934 91.0536 105.108 90.1896 105.108ZM101.802 104.442C101.55 104.658 101.238 104.826 100.866 104.946C100.494 105.054 100.11 105.108 99.7138 105.108C98.7538 105.108 98.0098 104.85 97.4818 104.334C96.9538 103.818 96.6898 103.08 96.6898 102.12V96.882H95.0698V95.46H96.6898V93.372H98.4178V95.46H101.154V96.882H98.4178V102.048C98.4178 102.564 98.5438 102.96 98.7958 103.236C99.0598 103.512 99.4318 103.65 99.9118 103.65C100.44 103.65 100.89 103.5 101.262 103.2L101.802 104.442Z" fill="white"/>
</svg>
