<svg width="152" height="110" viewBox="0 0 152 110" fill="none" xmlns="http://www.w3.org/2000/svg">
<path d="M96.8328 31.9991C99.641 28.9297 101.6 25.8603 102.319 23.1828C102.906 20.9623 102.71 18.9379 101.796 17.3052C99.4451 13.2562 93.4369 12.6685 86.4491 14.1705C84.2287 7.37868 80.7675 2.61133 76.0002 2.61133C71.6247 2.61133 67.9022 7.05214 65.5512 14.2358C64.7022 14.0399 63.9185 13.9093 63.0696 13.7787C56.6696 12.8644 52.0328 14.1052 50.2042 17.3705C49.29 19.0032 49.094 21.0277 49.6818 23.2481C50.4002 25.9909 52.3593 28.995 55.1675 32.0644C52.3593 35.1338 50.4002 38.2032 49.6818 40.8807C49.094 43.1011 49.29 45.1256 50.2042 46.7583C51.7063 49.3052 54.841 50.6113 59.2165 50.6113C60.392 50.6113 61.6981 50.4807 63.0696 50.2848C63.8532 50.1542 64.7022 50.0236 65.5512 49.8277C67.8369 57.0113 71.6247 61.4521 76.0002 61.4521C80.7675 61.4521 84.2287 56.6195 86.3838 49.8277C88.6696 50.3501 90.8247 50.6113 92.8492 50.6113C96.9634 50.6113 100.163 49.4358 101.796 46.693C102.71 45.1256 102.906 43.1011 102.319 40.8807C101.6 38.0726 99.641 35.1338 96.8328 31.9991ZM53.6002 44.7338C53.2083 44.0154 53.143 43.0358 53.4696 41.8603C53.992 39.9664 55.494 37.4848 57.9104 34.7419C59.543 36.244 61.4369 37.746 63.3961 39.1828C63.6573 41.5991 63.9838 43.8848 64.5063 46.0399C58.89 47.2154 54.7757 46.7583 53.6002 44.7338ZM60.6532 31.9991C61.3716 31.346 62.2206 30.6277 63.0696 29.9746C63.0696 30.6277 63.0696 31.346 63.0696 31.9991C63.0696 32.7175 63.0696 33.3705 63.0696 34.0236C62.2206 33.3052 61.4369 32.6521 60.6532 31.9991ZM63.3961 24.8154C61.3716 26.2521 59.543 27.7542 57.9104 29.2562C55.4287 26.5787 53.992 24.097 53.4696 22.1379C53.143 20.9624 53.2083 19.9828 53.6002 19.2644C54.3185 17.9583 56.343 17.3052 59.0859 17.3052C60.6532 17.3052 62.4818 17.5011 64.5063 17.9583C64.0491 20.1134 63.6573 22.3991 63.3961 24.8154ZM84.2287 21.8766C83.641 21.5501 83.0532 21.1583 82.4655 20.8317C81.8777 20.5705 81.29 20.244 80.7022 19.9175C81.6818 19.5256 82.7267 19.1991 83.641 18.8726C83.8369 19.9175 84.0328 20.897 84.2287 21.8766ZM70.0573 13.3868C71.7553 9.07663 73.9757 6.5297 76.0002 6.5297C78.0247 6.5297 80.2451 9.07663 81.943 13.3215C82.2042 13.9093 82.4002 14.5623 82.6614 15.2154C80.5063 15.8685 78.2859 16.7175 76.0655 17.697C73.8451 16.7175 71.5594 15.8685 69.4042 15.2154C69.6002 14.497 69.7961 13.9093 70.0573 13.3868ZM68.3594 18.9379C69.3389 19.1991 70.2532 19.5909 71.2981 19.9175C70.7104 20.244 70.1226 20.5705 69.5349 20.897C68.9471 21.2236 68.3594 21.6154 67.7716 21.9419C67.9675 20.897 68.1634 19.9175 68.3594 18.9379ZM67.7716 42.1215C68.3594 42.4481 68.9471 42.8399 69.5349 43.1664C70.1226 43.493 70.7104 43.8195 71.2981 44.146C70.3185 44.5379 69.3389 44.8644 68.3594 45.1256C68.1634 44.0807 67.9675 43.1011 67.7716 42.1215ZM81.943 50.8073C80.2451 55.0522 78.0247 57.5991 76.0002 57.5991C73.9757 57.5991 71.7553 55.0521 70.0573 50.7419C69.7961 50.1542 69.6002 49.5011 69.4042 48.8481C71.5594 48.195 73.7798 47.346 76.0655 46.3664C78.2859 47.346 80.5063 48.195 82.6614 48.8481C82.4002 49.5011 82.2042 50.1542 81.943 50.8073ZM83.641 45.0603C82.6614 44.7338 81.6818 44.4072 80.7022 44.0154C81.29 43.6889 81.8777 43.3624 82.4655 43.0358C83.0532 42.7746 83.641 42.3828 84.2287 42.0562C84.0328 43.1011 83.8369 44.0807 83.641 45.0603ZM84.8165 37.093C83.5104 38.0072 82.0736 38.9215 80.5063 39.7705C79.0042 40.6195 77.4369 41.4032 76.0002 42.1215C74.4981 41.4032 72.9961 40.6195 71.494 39.7705C69.9267 38.9215 68.5553 38.0072 67.1838 37.093C67.0532 35.4603 66.9879 33.7624 66.9879 32.0644C66.9879 30.3664 67.0532 28.6685 67.1838 27.0358C68.5553 26.1215 69.9267 25.2726 71.494 24.3583C72.9961 23.5093 74.4981 22.7256 76.0002 22.0072C77.5022 22.7256 79.0042 23.5093 80.5063 24.3583C82.0736 25.2072 83.4451 26.1215 84.8165 27.0358C84.9471 28.6685 85.0124 30.3664 85.0124 32.0644C85.0124 33.7624 84.9471 35.395 84.8165 37.093ZM92.8492 17.3052C95.6573 17.3052 97.6818 18.0236 98.4655 19.3297C98.8573 20.0481 98.9226 21.0277 98.5961 22.2032C98.0736 24.097 96.5716 26.5787 94.1553 29.3215C92.5226 27.8195 90.6287 26.3175 88.6043 24.8807C88.343 22.5297 87.9512 20.1787 87.494 18.0236C89.4532 17.5011 91.2818 17.3052 92.8492 17.3052ZM88.8655 30.0399C89.7145 30.693 90.4981 31.346 91.2818 31.9991C90.5634 32.6521 89.7145 33.3705 88.8655 34.0236C88.8655 33.3052 88.9308 32.6521 88.9308 31.9991C88.9308 31.346 88.9308 30.693 88.8655 30.0399ZM98.4002 44.7338C97.2247 46.7583 93.1104 47.2807 87.4287 46.1052C87.9512 43.8848 88.2777 41.5991 88.5389 39.2481C90.5634 37.8113 92.392 36.3093 94.09 34.8072C96.5716 37.4848 98.0083 39.9664 98.5308 41.9256C98.8573 43.1011 98.792 44.0807 98.4002 44.7338Z" fill="#61DAFB"/>
<path d="M96.8328 31.9991C99.641 28.9297 101.6 25.8603 102.319 23.1828C102.906 20.9623 102.71 18.9379 101.796 17.3052C99.4451 13.2562 93.4369 12.6685 86.4491 14.1705C84.2287 7.37868 80.7675 2.61133 76.0002 2.61133C71.6247 2.61133 67.9022 7.05214 65.5512 14.2358C64.7022 14.0399 63.9185 13.9093 63.0696 13.7787C56.6696 12.8644 52.0328 14.1052 50.2042 17.3705C49.29 19.0032 49.094 21.0277 49.6818 23.2481C50.4002 25.9909 52.3593 28.995 55.1675 32.0644C52.3593 35.1338 50.4002 38.2032 49.6818 40.8807C49.094 43.1011 49.29 45.1256 50.2042 46.7583C51.7063 49.3052 54.841 50.6113 59.2165 50.6113C60.392 50.6113 61.6981 50.4807 63.0696 50.2848C63.8532 50.1542 64.7022 50.0236 65.5512 49.8277C67.8369 57.0113 71.6247 61.4521 76.0002 61.4521C80.7675 61.4521 84.2287 56.6195 86.3838 49.8277C88.6696 50.3501 90.8247 50.6113 92.8492 50.6113C96.9634 50.6113 100.163 49.4358 101.796 46.693C102.71 45.1256 102.906 43.1011 102.319 40.8807C101.6 38.0726 99.641 35.1338 96.8328 31.9991ZM53.6002 44.7338C53.2083 44.0154 53.143 43.0358 53.4696 41.8603C53.992 39.9664 55.494 37.4848 57.9104 34.7419C59.543 36.244 61.4369 37.746 63.3961 39.1828C63.6573 41.5991 63.9838 43.8848 64.5063 46.0399C58.89 47.2154 54.7757 46.7583 53.6002 44.7338ZM60.6532 31.9991C61.3716 31.346 62.2206 30.6277 63.0696 29.9746C63.0696 30.6277 63.0696 31.346 63.0696 31.9991C63.0696 32.7175 63.0696 33.3705 63.0696 34.0236C62.2206 33.3052 61.4369 32.6521 60.6532 31.9991ZM63.3961 24.8154C61.3716 26.2521 59.543 27.7542 57.9104 29.2562C55.4287 26.5787 53.992 24.097 53.4696 22.1379C53.143 20.9624 53.2083 19.9828 53.6002 19.2644C54.3185 17.9583 56.343 17.3052 59.0859 17.3052C60.6532 17.3052 62.4818 17.5011 64.5063 17.9583C64.0491 20.1134 63.6573 22.3991 63.3961 24.8154ZM84.2287 21.8766C83.641 21.5501 83.0532 21.1583 82.4655 20.8317C81.8777 20.5705 81.29 20.244 80.7022 19.9175C81.6818 19.5256 82.7267 19.1991 83.641 18.8726C83.8369 19.9175 84.0328 20.897 84.2287 21.8766ZM70.0573 13.3868C71.7553 9.07663 73.9757 6.5297 76.0002 6.5297C78.0247 6.5297 80.2451 9.07663 81.943 13.3215C82.2042 13.9093 82.4002 14.5623 82.6614 15.2154C80.5063 15.8685 78.2859 16.7175 76.0655 17.697C73.8451 16.7175 71.5594 15.8685 69.4042 15.2154C69.6002 14.497 69.7961 13.9093 70.0573 13.3868ZM68.3594 18.9379C69.3389 19.1991 70.2532 19.5909 71.2981 19.9175C70.7104 20.244 70.1226 20.5705 69.5349 20.897C68.9471 21.2236 68.3594 21.6154 67.7716 21.9419C67.9675 20.897 68.1634 19.9175 68.3594 18.9379ZM67.7716 42.1215C68.3594 42.4481 68.9471 42.8399 69.5349 43.1664C70.1226 43.493 70.7104 43.8195 71.2981 44.146C70.3185 44.5379 69.3389 44.8644 68.3594 45.1256C68.1634 44.0807 67.9675 43.1011 67.7716 42.1215ZM81.943 50.8073C80.2451 55.0522 78.0247 57.5991 76.0002 57.5991C73.9757 57.5991 71.7553 55.0521 70.0573 50.7419C69.7961 50.1542 69.6002 49.5011 69.4042 48.8481C71.5594 48.195 73.7798 47.346 76.0655 46.3664C78.2859 47.346 80.5063 48.195 82.6614 48.8481C82.4002 49.5011 82.2042 50.1542 81.943 50.8073ZM83.641 45.0603C82.6614 44.7338 81.6818 44.4072 80.7022 44.0154C81.29 43.6889 81.8777 43.3624 82.4655 43.0358C83.0532 42.7746 83.641 42.3828 84.2287 42.0562C84.0328 43.1011 83.8369 44.0807 83.641 45.0603ZM84.8165 37.093C83.5104 38.0072 82.0736 38.9215 80.5063 39.7705C79.0042 40.6195 77.4369 41.4032 76.0002 42.1215C74.4981 41.4032 72.9961 40.6195 71.494 39.7705C69.9267 38.9215 68.5553 38.0072 67.1838 37.093C67.0532 35.4603 66.9879 33.7624 66.9879 32.0644C66.9879 30.3664 67.0532 28.6685 67.1838 27.0358C68.5553 26.1215 69.9267 25.2726 71.494 24.3583C72.9961 23.5093 74.4981 22.7256 76.0002 22.0072C77.5022 22.7256 79.0042 23.5093 80.5063 24.3583C82.0736 25.2072 83.4451 26.1215 84.8165 27.0358C84.9471 28.6685 85.0124 30.3664 85.0124 32.0644C85.0124 33.7624 84.9471 35.395 84.8165 37.093ZM92.8492 17.3052C95.6573 17.3052 97.6818 18.0236 98.4655 19.3297C98.8573 20.0481 98.9226 21.0277 98.5961 22.2032C98.0736 24.097 96.5716 26.5787 94.1553 29.3215C92.5226 27.8195 90.6287 26.3175 88.6043 24.8807C88.343 22.5297 87.9512 20.1787 87.494 18.0236C89.4532 17.5011 91.2818 17.3052 92.8492 17.3052ZM88.8655 30.0399C89.7145 30.693 90.4981 31.346 91.2818 31.9991C90.5634 32.6521 89.7145 33.3705 88.8655 34.0236C88.8655 33.3052 88.9308 32.6521 88.9308 31.9991C88.9308 31.346 88.9308 30.693 88.8655 30.0399ZM98.4002 44.7338C97.2247 46.7583 93.1104 47.2807 87.4287 46.1052C87.9512 43.8848 88.2777 41.5991 88.5389 39.2481C90.5634 37.8113 92.392 36.3093 94.09 34.8072C96.5716 37.4848 98.0083 39.9664 98.5308 41.9256C98.8573 43.1011 98.792 44.0807 98.4002 44.7338Z" fill="#61DAFB"/>
<path d="M76.0006 26.1211C72.7353 26.1211 70.123 28.7333 70.123 31.9986C70.123 35.264 72.7353 37.8762 76.0006 37.8762C79.2659 37.8762 81.8781 35.264 81.8781 31.9986C81.8781 28.7333 79.2659 26.1211 76.0006 26.1211ZM76.0006 33.9578C74.8904 33.9578 74.0414 33.1089 74.0414 31.9986C74.0414 30.8884 74.8904 30.0395 76.0006 30.0395C77.1108 30.0395 77.9598 30.8884 77.9598 31.9986C77.9598 33.1089 77.1108 33.9578 76.0006 33.9578Z" fill="#61DAFB"/>
<path d="M76.0006 26.1211C72.7353 26.1211 70.123 28.7333 70.123 31.9986C70.123 35.264 72.7353 37.8762 76.0006 37.8762C79.2659 37.8762 81.8781 35.264 81.8781 31.9986C81.8781 28.7333 79.2659 26.1211 76.0006 26.1211ZM76.0006 33.9578C74.8904 33.9578 74.0414 33.1089 74.0414 31.9986C74.0414 30.8884 74.8904 30.0395 76.0006 30.0395C77.1108 30.0395 77.9598 30.8884 77.9598 31.9986C77.9598 33.1089 77.1108 33.9578 76.0006 33.9578Z" fill="#61DAFB"/>
<path d="M19.9173 105V92.4H24.8313C25.9353 92.4 26.8773 92.574 27.6573 92.922C28.4373 93.27 29.0373 93.774 29.4573 94.434C29.8773 95.094 30.0873 95.88 30.0873 96.792C30.0873 97.704 29.8773 98.49 29.4573 99.15C29.0373 99.798 28.4373 100.296 27.6573 100.644C26.8773 100.992 25.9353 101.166 24.8313 101.166H20.9073L21.7173 100.338V105H19.9173ZM28.3413 105L25.1373 100.428H27.0633L30.3033 105H28.3413ZM21.7173 100.518L20.9073 99.636H24.7773C25.9293 99.636 26.7993 99.39 27.3873 98.898C27.9873 98.394 28.2873 97.692 28.2873 96.792C28.2873 95.892 27.9873 95.196 27.3873 94.704C26.7993 94.212 25.9293 93.966 24.7773 93.966H20.9073L21.7173 93.066V100.518ZM36.9915 105.108C35.9715 105.108 35.0715 104.898 34.2915 104.478C33.5235 104.058 32.9235 103.482 32.4915 102.75C32.0715 102.018 31.8615 101.178 31.8615 100.23C31.8615 99.282 32.0655 98.442 32.4735 97.71C32.8935 96.978 33.4635 96.408 34.1835 96C34.9155 95.58 35.7375 95.37 36.6495 95.37C37.5735 95.37 38.3895 95.574 39.0975 95.982C39.8055 96.39 40.3575 96.966 40.7535 97.71C41.1615 98.442 41.3655 99.3 41.3655 100.284C41.3655 100.356 41.3595 100.44 41.3475 100.536C41.3475 100.632 41.3415 100.722 41.3295 100.806H33.2115V99.564H40.4295L39.7275 99.996C39.7395 99.384 39.6135 98.838 39.3495 98.358C39.0855 97.878 38.7195 97.506 38.2515 97.242C37.7955 96.966 37.2615 96.828 36.6495 96.828C36.0495 96.828 35.5155 96.966 35.0475 97.242C34.5795 97.506 34.2135 97.884 33.9495 98.376C33.6855 98.856 33.5535 99.408 33.5535 100.032V100.32C33.5535 100.956 33.6975 101.526 33.9855 102.03C34.2855 102.522 34.6995 102.906 35.2275 103.182C35.7555 103.458 36.3615 103.596 37.0455 103.596C37.6095 103.596 38.1195 103.5 38.5755 103.308C39.0435 103.116 39.4515 102.828 39.7995 102.444L40.7535 103.56C40.3215 104.064 39.7815 104.448 39.1335 104.712C38.4975 104.976 37.7835 105.108 36.9915 105.108ZM49.4233 105V102.984L49.3333 102.606V99.168C49.3333 98.436 49.1173 97.872 48.6853 97.476C48.2653 97.068 47.6293 96.864 46.7773 96.864C46.2133 96.864 45.6613 96.96 45.1213 97.152C44.5813 97.332 44.1253 97.578 43.7533 97.89L43.0333 96.594C43.5253 96.198 44.1133 95.898 44.7973 95.694C45.4933 95.478 46.2193 95.37 46.9753 95.37C48.2833 95.37 49.2913 95.688 49.9993 96.324C50.7073 96.96 51.0613 97.932 51.0613 99.24V105H49.4233ZM46.2913 105.108C45.5833 105.108 44.9593 104.988 44.4193 104.748C43.8913 104.508 43.4833 104.178 43.1953 103.758C42.9073 103.326 42.7633 102.84 42.7633 102.3C42.7633 101.784 42.8833 101.316 43.1233 100.896C43.3753 100.476 43.7773 100.14 44.3293 99.888C44.8933 99.636 45.6493 99.51 46.5973 99.51H49.6213V100.752H46.6693C45.8053 100.752 45.2233 100.896 44.9233 101.184C44.6233 101.472 44.4733 101.82 44.4733 102.228C44.4733 102.696 44.6593 103.074 45.0313 103.362C45.4033 103.638 45.9193 103.776 46.5793 103.776C47.2273 103.776 47.7913 103.632 48.2713 103.344C48.7633 103.056 49.1173 102.636 49.3333 102.084L49.6753 103.272C49.4473 103.836 49.0453 104.286 48.4693 104.622C47.8933 104.946 47.1673 105.108 46.2913 105.108ZM58.4171 105.108C57.4451 105.108 56.5751 104.898 55.8071 104.478C55.0511 104.058 54.4571 103.482 54.0251 102.75C53.5931 102.018 53.3771 101.178 53.3771 100.23C53.3771 99.282 53.5931 98.442 54.0251 97.71C54.4571 96.978 55.0511 96.408 55.8071 96C56.5751 95.58 57.4451 95.37 58.4171 95.37C59.2811 95.37 60.0491 95.544 60.7211 95.892C61.4051 96.228 61.9331 96.732 62.3051 97.404L60.9911 98.25C60.6791 97.782 60.2951 97.44 59.8391 97.224C59.3951 96.996 58.9151 96.882 58.3991 96.882C57.7751 96.882 57.2171 97.02 56.7251 97.296C56.2331 97.572 55.8431 97.962 55.5551 98.466C55.2671 98.958 55.1231 99.546 55.1231 100.23C55.1231 100.914 55.2671 101.508 55.5551 102.012C55.8431 102.516 56.2331 102.906 56.7251 103.182C57.2171 103.458 57.7751 103.596 58.3991 103.596C58.9151 103.596 59.3951 103.488 59.8391 103.272C60.2951 103.044 60.6791 102.696 60.9911 102.228L62.3051 103.056C61.9331 103.716 61.4051 104.226 60.7211 104.586C60.0491 104.934 59.2811 105.108 58.4171 105.108ZM67.9413 105.108C66.9813 105.108 66.2373 104.85 65.7093 104.334C65.1813 103.818 64.9173 103.08 64.9173 102.12V93.372H66.6453V102.048C66.6453 102.564 66.7713 102.96 67.0233 103.236C67.2873 103.512 67.6593 103.65 68.1393 103.65C68.6793 103.65 69.1293 103.5 69.4893 103.2L70.0293 104.442C69.7653 104.67 69.4473 104.838 69.0753 104.946C68.7153 105.054 68.3373 105.108 67.9413 105.108ZM63.2973 96.882V95.46H69.3813V96.882H63.2973ZM77.2045 105V92.4H78.6805L87.0145 102.75H86.2405V92.4H88.0405V105H86.5645L78.2305 94.65H79.0045V105H77.2045ZM97.4819 105V102.984L97.3919 102.606V99.168C97.3919 98.436 97.1759 97.872 96.7439 97.476C96.3239 97.068 95.6879 96.864 94.8359 96.864C94.2719 96.864 93.7199 96.96 93.1799 97.152C92.6399 97.332 92.1839 97.578 91.8119 97.89L91.0919 96.594C91.5839 96.198 92.1719 95.898 92.8559 95.694C93.5519 95.478 94.2779 95.37 95.0339 95.37C96.3419 95.37 97.3499 95.688 98.0579 96.324C98.7659 96.96 99.1199 97.932 99.1199 99.24V105H97.4819ZM94.3499 105.108C93.6419 105.108 93.0179 104.988 92.4779 104.748C91.9499 104.508 91.5419 104.178 91.2539 103.758C90.9659 103.326 90.8219 102.84 90.8219 102.3C90.8219 101.784 90.9419 101.316 91.1819 100.896C91.4339 100.476 91.8359 100.14 92.3879 99.888C92.9519 99.636 93.7079 99.51 94.6559 99.51H97.6799V100.752H94.7279C93.8639 100.752 93.2819 100.896 92.9819 101.184C92.6819 101.472 92.5319 101.82 92.5319 102.228C92.5319 102.696 92.7179 103.074 93.0899 103.362C93.4619 103.638 93.9779 103.776 94.6379 103.776C95.2859 103.776 95.8499 103.632 96.3299 103.344C96.8219 103.056 97.1759 102.636 97.3919 102.084L97.7339 103.272C97.5059 103.836 97.1039 104.286 96.5279 104.622C95.9519 104.946 95.2259 105.108 94.3499 105.108ZM105.594 105.108C104.634 105.108 103.89 104.85 103.362 104.334C102.834 103.818 102.57 103.08 102.57 102.12V93.372H104.298V102.048C104.298 102.564 104.424 102.96 104.676 103.236C104.94 103.512 105.312 103.65 105.792 103.65C106.332 103.65 106.782 103.5 107.142 103.2L107.682 104.442C107.418 104.67 107.1 104.838 106.728 104.946C106.368 105.054 105.99 105.108 105.594 105.108ZM100.95 96.882V95.46H107.034V96.882H100.95ZM109.771 105V95.46H111.499V105H109.771ZM110.635 93.624C110.299 93.624 110.017 93.516 109.789 93.3C109.573 93.084 109.465 92.82 109.465 92.508C109.465 92.184 109.573 91.914 109.789 91.698C110.017 91.482 110.299 91.374 110.635 91.374C110.971 91.374 111.247 91.482 111.463 91.698C111.691 91.902 111.805 92.16 111.805 92.472C111.805 92.796 111.697 93.072 111.481 93.3C111.265 93.516 110.983 93.624 110.635 93.624ZM117.3 105L113.124 95.46H114.924L118.632 104.1H117.768L121.548 95.46H123.24L119.064 105H117.3ZM128.837 105.108C127.817 105.108 126.917 104.898 126.137 104.478C125.369 104.058 124.769 103.482 124.337 102.75C123.917 102.018 123.707 101.178 123.707 100.23C123.707 99.282 123.911 98.442 124.319 97.71C124.739 96.978 125.309 96.408 126.029 96C126.761 95.58 127.583 95.37 128.495 95.37C129.419 95.37 130.235 95.574 130.943 95.982C131.651 96.39 132.203 96.966 132.599 97.71C133.007 98.442 133.211 99.3 133.211 100.284C133.211 100.356 133.205 100.44 133.193 100.536C133.193 100.632 133.187 100.722 133.175 100.806H125.057V99.564H132.275L131.573 99.996C131.585 99.384 131.459 98.838 131.195 98.358C130.931 97.878 130.565 97.506 130.097 97.242C129.641 96.966 129.107 96.828 128.495 96.828C127.895 96.828 127.361 96.966 126.893 97.242C126.425 97.506 126.059 97.884 125.795 98.376C125.531 98.856 125.399 99.408 125.399 100.032V100.32C125.399 100.956 125.543 101.526 125.831 102.03C126.131 102.522 126.545 102.906 127.073 103.182C127.601 103.458 128.207 103.596 128.891 103.596C129.455 103.596 129.965 103.5 130.421 103.308C130.889 103.116 131.297 102.828 131.645 102.444L132.599 103.56C132.167 104.064 131.627 104.448 130.979 104.712C130.343 104.976 129.629 105.108 128.837 105.108Z" fill="white"/>
</svg>
