<svg width="70" height="78" viewBox="0 0 70 78" fill="none" xmlns="http://www.w3.org/2000/svg">
<path d="M62.3431 38.9992C66.0288 34.9706 68.6002 30.942 69.5431 27.4277C70.3145 24.5135 70.0574 21.8563 68.8574 19.7134C65.7717 14.3992 57.8859 13.6277 48.7145 15.5992C45.8002 6.68488 41.2574 0.427734 35.0002 0.427734C29.2574 0.427734 24.3716 6.25631 21.2859 15.6849C20.1716 15.4277 19.1431 15.2563 18.0288 15.0849C9.62879 13.8849 3.54307 15.5135 1.14307 19.7992C-0.0569288 21.942 -0.314072 24.5992 0.457357 27.5134C1.40021 31.1134 3.97164 35.0563 7.65736 39.0849C3.97164 43.1134 1.40021 47.142 0.457357 50.6563C-0.314072 53.5706 -0.0569288 56.2277 1.14307 58.3706C3.1145 61.7135 7.22879 63.4277 12.9716 63.4277C14.5145 63.4277 16.2288 63.2563 18.0288 62.9992C19.0574 62.8277 20.1716 62.6563 21.2859 62.3992C24.2859 71.8277 29.2574 77.6563 35.0002 77.6563C41.2574 77.6563 45.8002 71.3135 48.6288 62.3992C51.6288 63.0849 54.4574 63.4277 57.1145 63.4277C62.5145 63.4277 66.7145 61.8849 68.8574 58.2849C70.0574 56.2277 70.3145 53.5706 69.5431 50.6563C68.6002 46.9706 66.0288 43.1135 62.3431 38.9992ZM5.60021 55.7135C5.08593 54.7706 5.00022 53.4849 5.42879 51.942C6.1145 49.4563 8.08593 46.1992 11.2574 42.5992C13.4002 44.5706 15.8859 46.542 18.4574 48.4277C18.8002 51.5992 19.2288 54.5992 19.9145 57.4277C12.5431 58.9706 7.14307 58.3706 5.60021 55.7135ZM14.8574 38.9992C15.8002 38.142 16.9145 37.1992 18.0288 36.342C18.0288 37.1992 18.0288 38.142 18.0288 38.9992C18.0288 39.942 18.0288 40.7992 18.0288 41.6563C16.9145 40.7135 15.8859 39.8563 14.8574 38.9992ZM18.4574 29.5706C15.8002 31.4563 13.4002 33.4277 11.2574 35.3992C8.00021 31.8849 6.1145 28.6277 5.42879 26.0563C5.00022 24.5135 5.08593 23.2277 5.60021 22.2849C6.54307 20.5706 9.20022 19.7134 12.8002 19.7134C14.8574 19.7134 17.2574 19.9706 19.9145 20.5706C19.3145 23.3992 18.8002 26.3992 18.4574 29.5706ZM45.8002 25.7135C45.0288 25.2849 44.2574 24.7706 43.4859 24.342C42.7145 23.9992 41.9431 23.5706 41.1716 23.142C42.4574 22.6277 43.8288 22.1992 45.0288 21.7706C45.2859 23.142 45.5431 24.4277 45.8002 25.7135ZM27.2002 14.5706C29.4288 8.91345 32.3431 5.57059 35.0002 5.57059C37.6574 5.57059 40.5716 8.91345 42.8002 14.4849C43.1431 15.2563 43.4002 16.1134 43.7431 16.9706C40.9145 17.8277 38.0002 18.942 35.0859 20.2277C32.1716 18.942 29.1716 17.8277 26.3431 16.9706C26.6002 16.0277 26.8574 15.2563 27.2002 14.5706ZM24.9716 21.8563C26.2574 22.1992 27.4574 22.7135 28.8288 23.142C28.0574 23.5706 27.2859 23.9992 26.5145 24.4277C25.7431 24.8563 24.9716 25.3706 24.2002 25.7992C24.4574 24.4277 24.7145 23.142 24.9716 21.8563ZM24.2002 52.2849C24.9716 52.7135 25.7431 53.2277 26.5145 53.6563C27.2859 54.0849 28.0574 54.5135 28.8288 54.942C27.5431 55.4563 26.2574 55.8849 24.9716 56.2277C24.7145 54.8563 24.4574 53.5706 24.2002 52.2849ZM42.8002 63.6849C40.5716 69.2563 37.6574 72.5992 35.0002 72.5992C32.3431 72.5992 29.4288 69.2563 27.2002 63.5992C26.8574 62.8277 26.6002 61.9706 26.3431 61.1135C29.1716 60.2563 32.0859 59.142 35.0859 57.8563C38.0002 59.142 40.9145 60.2563 43.7431 61.1135C43.4002 61.9706 43.1431 62.8277 42.8002 63.6849ZM45.0288 56.142C43.7431 55.7135 42.4574 55.2849 41.1716 54.7706C41.9431 54.342 42.7145 53.9135 43.4859 53.4849C44.2574 53.142 45.0288 52.6277 45.8002 52.1992C45.5431 53.5706 45.2859 54.8563 45.0288 56.142ZM46.5716 45.6849C44.8574 46.8849 42.9716 48.0849 40.9145 49.1992C38.9431 50.3135 36.8859 51.342 35.0002 52.2849C33.0288 51.342 31.0574 50.3135 29.0859 49.1992C27.0288 48.0849 25.2288 46.8849 23.4288 45.6849C23.2574 43.542 23.1716 41.3134 23.1716 39.0849C23.1716 36.8563 23.2574 34.6277 23.4288 32.4849C25.2288 31.2849 27.0288 30.1706 29.0859 28.9706C31.0574 27.8563 33.0288 26.8277 35.0002 25.8849C36.9716 26.8277 38.9431 27.8563 40.9145 28.9706C42.9716 30.0849 44.7716 31.2849 46.5716 32.4849C46.7431 34.6277 46.8288 36.8563 46.8288 39.0849C46.8288 41.3134 46.7431 43.4563 46.5716 45.6849ZM57.1145 19.7134C60.8002 19.7134 63.4574 20.6563 64.4859 22.3706C65.0002 23.3135 65.0859 24.5992 64.6574 26.142C63.9717 28.6277 62.0002 31.8849 58.8288 35.4849C56.6859 33.5135 54.2002 31.542 51.5431 29.6563C51.2002 26.5706 50.6859 23.4849 50.0859 20.6563C52.6574 19.9706 55.0574 19.7134 57.1145 19.7134ZM51.8859 36.4277C53.0002 37.2849 54.0288 38.142 55.0574 38.9992C54.1145 39.8563 53.0002 40.7992 51.8859 41.6563C51.8859 40.7135 51.9717 39.8563 51.9717 38.9992C51.9717 38.142 51.9716 37.2849 51.8859 36.4277ZM64.4002 55.7135C62.8574 58.3706 57.4574 59.0563 50.0002 57.5135C50.6859 54.5992 51.1145 51.5992 51.4574 48.5135C54.1145 46.6277 56.5145 44.6563 58.7431 42.6849C62.0002 46.1992 63.8859 49.4563 64.5717 52.0277C65.0002 53.5706 64.9145 54.8563 64.4002 55.7135Z" fill="#61DAFB"/>
<path d="M62.3431 38.9992C66.0288 34.9706 68.6002 30.942 69.5431 27.4277C70.3145 24.5135 70.0574 21.8563 68.8574 19.7134C65.7717 14.3992 57.8859 13.6277 48.7145 15.5992C45.8002 6.68488 41.2574 0.427734 35.0002 0.427734C29.2574 0.427734 24.3716 6.25631 21.2859 15.6849C20.1716 15.4277 19.1431 15.2563 18.0288 15.0849C9.62879 13.8849 3.54307 15.5135 1.14307 19.7992C-0.0569288 21.942 -0.314072 24.5992 0.457357 27.5134C1.40021 31.1134 3.97164 35.0563 7.65736 39.0849C3.97164 43.1134 1.40021 47.142 0.457357 50.6563C-0.314072 53.5706 -0.0569288 56.2277 1.14307 58.3706C3.1145 61.7135 7.22879 63.4277 12.9716 63.4277C14.5145 63.4277 16.2288 63.2563 18.0288 62.9992C19.0574 62.8277 20.1716 62.6563 21.2859 62.3992C24.2859 71.8277 29.2574 77.6563 35.0002 77.6563C41.2574 77.6563 45.8002 71.3135 48.6288 62.3992C51.6288 63.0849 54.4574 63.4277 57.1145 63.4277C62.5145 63.4277 66.7145 61.8849 68.8574 58.2849C70.0574 56.2277 70.3145 53.5706 69.5431 50.6563C68.6002 46.9706 66.0288 43.1135 62.3431 38.9992ZM5.60021 55.7135C5.08593 54.7706 5.00022 53.4849 5.42879 51.942C6.1145 49.4563 8.08593 46.1992 11.2574 42.5992C13.4002 44.5706 15.8859 46.542 18.4574 48.4277C18.8002 51.5992 19.2288 54.5992 19.9145 57.4277C12.5431 58.9706 7.14307 58.3706 5.60021 55.7135ZM14.8574 38.9992C15.8002 38.142 16.9145 37.1992 18.0288 36.342C18.0288 37.1992 18.0288 38.142 18.0288 38.9992C18.0288 39.942 18.0288 40.7992 18.0288 41.6563C16.9145 40.7135 15.8859 39.8563 14.8574 38.9992ZM18.4574 29.5706C15.8002 31.4563 13.4002 33.4277 11.2574 35.3992C8.00021 31.8849 6.1145 28.6277 5.42879 26.0563C5.00022 24.5135 5.08593 23.2277 5.60021 22.2849C6.54307 20.5706 9.20022 19.7134 12.8002 19.7134C14.8574 19.7134 17.2574 19.9706 19.9145 20.5706C19.3145 23.3992 18.8002 26.3992 18.4574 29.5706ZM45.8002 25.7135C45.0288 25.2849 44.2574 24.7706 43.4859 24.342C42.7145 23.9992 41.9431 23.5706 41.1716 23.142C42.4574 22.6277 43.8288 22.1992 45.0288 21.7706C45.2859 23.142 45.5431 24.4277 45.8002 25.7135ZM27.2002 14.5706C29.4288 8.91345 32.3431 5.57059 35.0002 5.57059C37.6574 5.57059 40.5716 8.91345 42.8002 14.4849C43.1431 15.2563 43.4002 16.1134 43.7431 16.9706C40.9145 17.8277 38.0002 18.942 35.0859 20.2277C32.1716 18.942 29.1716 17.8277 26.3431 16.9706C26.6002 16.0277 26.8574 15.2563 27.2002 14.5706ZM24.9716 21.8563C26.2574 22.1992 27.4574 22.7135 28.8288 23.142C28.0574 23.5706 27.2859 23.9992 26.5145 24.4277C25.7431 24.8563 24.9716 25.3706 24.2002 25.7992C24.4574 24.4277 24.7145 23.142 24.9716 21.8563ZM24.2002 52.2849C24.9716 52.7135 25.7431 53.2277 26.5145 53.6563C27.2859 54.0849 28.0574 54.5135 28.8288 54.942C27.5431 55.4563 26.2574 55.8849 24.9716 56.2277C24.7145 54.8563 24.4574 53.5706 24.2002 52.2849ZM42.8002 63.6849C40.5716 69.2563 37.6574 72.5992 35.0002 72.5992C32.3431 72.5992 29.4288 69.2563 27.2002 63.5992C26.8574 62.8277 26.6002 61.9706 26.3431 61.1135C29.1716 60.2563 32.0859 59.142 35.0859 57.8563C38.0002 59.142 40.9145 60.2563 43.7431 61.1135C43.4002 61.9706 43.1431 62.8277 42.8002 63.6849ZM45.0288 56.142C43.7431 55.7135 42.4574 55.2849 41.1716 54.7706C41.9431 54.342 42.7145 53.9135 43.4859 53.4849C44.2574 53.142 45.0288 52.6277 45.8002 52.1992C45.5431 53.5706 45.2859 54.8563 45.0288 56.142ZM46.5716 45.6849C44.8574 46.8849 42.9716 48.0849 40.9145 49.1992C38.9431 50.3135 36.8859 51.342 35.0002 52.2849C33.0288 51.342 31.0574 50.3135 29.0859 49.1992C27.0288 48.0849 25.2288 46.8849 23.4288 45.6849C23.2574 43.542 23.1716 41.3134 23.1716 39.0849C23.1716 36.8563 23.2574 34.6277 23.4288 32.4849C25.2288 31.2849 27.0288 30.1706 29.0859 28.9706C31.0574 27.8563 33.0288 26.8277 35.0002 25.8849C36.9716 26.8277 38.9431 27.8563 40.9145 28.9706C42.9716 30.0849 44.7716 31.2849 46.5716 32.4849C46.7431 34.6277 46.8288 36.8563 46.8288 39.0849C46.8288 41.3134 46.7431 43.4563 46.5716 45.6849ZM57.1145 19.7134C60.8002 19.7134 63.4574 20.6563 64.4859 22.3706C65.0002 23.3135 65.0859 24.5992 64.6574 26.142C63.9717 28.6277 62.0002 31.8849 58.8288 35.4849C56.6859 33.5135 54.2002 31.542 51.5431 29.6563C51.2002 26.5706 50.6859 23.4849 50.0859 20.6563C52.6574 19.9706 55.0574 19.7134 57.1145 19.7134ZM51.8859 36.4277C53.0002 37.2849 54.0288 38.142 55.0574 38.9992C54.1145 39.8563 53.0002 40.7992 51.8859 41.6563C51.8859 40.7135 51.9717 39.8563 51.9717 38.9992C51.9717 38.142 51.9716 37.2849 51.8859 36.4277ZM64.4002 55.7135C62.8574 58.3706 57.4574 59.0563 50.0002 57.5135C50.6859 54.5992 51.1145 51.5992 51.4574 48.5135C54.1145 46.6277 56.5145 44.6563 58.7431 42.6849C62.0002 46.1992 63.8859 49.4563 64.5717 52.0277C65.0002 53.5706 64.9145 54.8563 64.4002 55.7135Z" fill="#61DAFB"/>
<path d="M35.0009 31.2842C30.7152 31.2842 27.2866 34.7128 27.2866 38.9985C27.2866 43.2842 30.7152 46.7128 35.0009 46.7128C39.2866 46.7128 42.7152 43.2842 42.7152 38.9985C42.7152 34.7128 39.2866 31.2842 35.0009 31.2842ZM35.0009 41.5699C33.5438 41.5699 32.4295 40.4556 32.4295 38.9985C32.4295 37.5413 33.5438 36.427 35.0009 36.427C36.458 36.427 37.5723 37.5413 37.5723 38.9985C37.5723 40.4556 36.458 41.5699 35.0009 41.5699Z" fill="#61DAFB"/>
<path d="M35.0009 31.2842C30.7152 31.2842 27.2866 34.7128 27.2866 38.9985C27.2866 43.2842 30.7152 46.7128 35.0009 46.7128C39.2866 46.7128 42.7152 43.2842 42.7152 38.9985C42.7152 34.7128 39.2866 31.2842 35.0009 31.2842ZM35.0009 41.5699C33.5438 41.5699 32.4295 40.4556 32.4295 38.9985C32.4295 37.5413 33.5438 36.427 35.0009 36.427C36.458 36.427 37.5723 37.5413 37.5723 38.9985C37.5723 40.4556 36.458 41.5699 35.0009 41.5699Z" fill="#61DAFB"/>
</svg>
