<svg width="48" height="106" viewBox="0 0 48 106" fill="none" xmlns="http://www.w3.org/2000/svg">
<path d="M26 34H22C20.34 34 19 35.34 19 37V44H29V37C29 35.34 27.66 34 26 34Z" stroke="#7DE2B7" stroke-width="1.5" stroke-miterlimit="10" stroke-linejoin="round"/>
<path d="M4 44H44" stroke="#0360B2" stroke-width="1.5" stroke-miterlimit="10" stroke-linecap="round" stroke-linejoin="round"/>
<path d="M5.90002 44.0005L6.00002 19.9405C6.00002 18.7205 6.58002 17.5606 7.54002 16.8006L21.54 5.90055C22.98 4.78055 25 4.78055 26.46 5.90055L40.46 16.7806C41.44 17.5406 42 18.7005 42 19.9405V44.0005" stroke="#0360B2" stroke-width="1.5" stroke-miterlimit="10" stroke-linejoin="round"/>
<path d="M19 27.5H15C13.9 27.5 13 26.6 13 25.5V22.5C13 21.4 13.9 20.5 15 20.5H19C20.1 20.5 21 21.4 21 22.5V25.5C21 26.6 20.1 27.5 19 27.5Z" stroke="#7DE2B7" stroke-width="1.5" stroke-miterlimit="10" stroke-linejoin="round"/>
<path d="M33 27.5H29C27.9 27.5 27 26.6 27 25.5V22.5C27 21.4 27.9 20.5 29 20.5H33C34.1 20.5 35 21.4 35 22.5V25.5C35 26.6 34.1 27.5 33 27.5Z" stroke="#7DE2B7" stroke-width="1.5" stroke-miterlimit="10" stroke-linejoin="round"/>
<path d="M38 14L37.94 8H29.14" stroke="#0360B2" stroke-width="1.5" stroke-miterlimit="10" stroke-linecap="round" stroke-linejoin="round"/>
<path d="M23.2388 98.26C21.9321 98.26 20.8121 97.96 19.8788 97.36C18.9588 96.7467 18.3121 95.9 17.9388 94.82L19.5388 93.9C20.0721 95.5933 21.3188 96.44 23.2788 96.44C24.2254 96.44 24.9521 96.2467 25.4588 95.86C25.9788 95.4733 26.2388 94.9467 26.2388 94.28C26.2388 93.6267 25.9854 93.1267 25.4788 92.78C25.0254 92.4733 24.1788 92.12 22.9388 91.72L21.5988 91.28C21.3054 91.16 20.9188 90.9867 20.4388 90.76C19.9721 90.52 19.6321 90.28 19.4188 90.04C18.8321 89.4 18.5387 88.62 18.5387 87.7C18.5387 86.4733 18.9654 85.5133 19.8188 84.82C20.6721 84.1 21.7121 83.74 22.9388 83.74C24.0321 83.74 24.9921 84.0133 25.8188 84.56C26.6454 85.1067 27.2654 85.8533 27.6788 86.8L26.1188 87.7C25.5188 86.26 24.4588 85.54 22.9388 85.54C22.1788 85.54 21.5654 85.7267 21.0988 86.1C20.6321 86.4733 20.3988 86.98 20.3988 87.62C20.3988 88.2333 20.6188 88.7 21.0588 89.02C21.5121 89.3533 22.2721 89.6867 23.3388 90.02L24.1588 90.28C24.6121 90.4533 24.8588 90.5467 24.8988 90.56C25.3254 90.72 25.7921 90.94 26.2988 91.22C26.6588 91.42 27.0188 91.7267 27.3788 92.14C27.8454 92.6067 28.0788 93.3067 28.0788 94.24C28.0788 95.4667 27.6321 96.4467 26.7388 97.18C25.8321 97.9 24.6654 98.26 23.2388 98.26Z" fill="#111714"/>
</svg>
