<svg width="48" height="106" viewBox="0 0 48 106" fill="none" xmlns="http://www.w3.org/2000/svg">
<path d="M25.9999 34H21.9999C20.3399 34 18.9999 35.34 18.9999 37V44H28.9999V37C28.9999 35.34 27.6599 34 25.9999 34Z" stroke="white" stroke-width="1.5" stroke-miterlimit="10" stroke-linejoin="round"/>
<path d="M4 44H44" stroke="white" stroke-width="1.5" stroke-miterlimit="10" stroke-linecap="round" stroke-linejoin="round"/>
<path d="M5.90002 44.0005L6.00002 19.9405C6.00002 18.7205 6.58002 17.5606 7.54002 16.8006L21.54 5.90055C22.98 4.78055 25 4.78055 26.46 5.90055L40.46 16.7806C41.44 17.5406 42 18.7005 42 19.9405V44.0005" stroke="white" stroke-width="1.5" stroke-miterlimit="10" stroke-linejoin="round"/>
<path d="M19 27.5H15C13.9 27.5 13 26.6 13 25.5V22.5C13 21.4 13.9 20.5 15 20.5H19C20.1 20.5 21 21.4 21 22.5V25.5C21 26.6 20.1 27.5 19 27.5Z" stroke="white" stroke-width="1.5" stroke-miterlimit="10" stroke-linejoin="round"/>
<path d="M33 27.5H29C27.9 27.5 27 26.6 27 25.5V22.5C27 21.4 27.9 20.5 29 20.5H33C34.1 20.5 35 21.4 35 22.5V25.5C35 26.6 34.1 27.5 33 27.5Z" stroke="white" stroke-width="1.5" stroke-miterlimit="10" stroke-linejoin="round"/>
<path d="M38 14L37.94 8H29.14" stroke="white" stroke-width="1.5" stroke-miterlimit="10" stroke-linecap="round" stroke-linejoin="round"/>
<path d="M24.2388 98.26C22.9321 98.26 21.8121 97.96 20.8788 97.36C19.9588 96.7467 19.3121 95.9 18.9388 94.82L20.5388 93.9C21.0721 95.5933 22.3188 96.44 24.2788 96.44C25.2254 96.44 25.9521 96.2467 26.4588 95.86C26.9788 95.4733 27.2388 94.9467 27.2388 94.28C27.2388 93.6267 26.9854 93.1267 26.4788 92.78C26.0254 92.4733 25.1788 92.12 23.9388 91.72L22.5988 91.28C22.3054 91.16 21.9188 90.9867 21.4388 90.76C20.9721 90.52 20.6321 90.28 20.4188 90.04C19.8321 89.4 19.5387 88.62 19.5387 87.7C19.5387 86.4733 19.9654 85.5133 20.8188 84.82C21.6721 84.1 22.7121 83.74 23.9388 83.74C25.0321 83.74 25.9921 84.0133 26.8188 84.56C27.6454 85.1067 28.2654 85.8533 28.6788 86.8L27.1188 87.7C26.5188 86.26 25.4588 85.54 23.9388 85.54C23.1788 85.54 22.5654 85.7267 22.0988 86.1C21.6321 86.4733 21.3988 86.98 21.3988 87.62C21.3988 88.2333 21.6188 88.7 22.0588 89.02C22.5121 89.3533 23.2721 89.6867 24.3388 90.02L25.1588 90.28C25.6121 90.4533 25.8588 90.5467 25.8988 90.56C26.3254 90.72 26.7921 90.94 27.2988 91.22C27.6588 91.42 28.0188 91.7267 28.3788 92.14C28.8454 92.6067 29.0788 93.3067 29.0788 94.24C29.0788 95.4667 28.6321 96.4467 27.7388 97.18C26.8321 97.9 25.6654 98.26 24.2388 98.26Z" fill="white"/>
</svg>
