<svg width="204" height="204" viewBox="0 0 204 204" fill="none" xmlns="http://www.w3.org/2000/svg">
<rect opacity="0.5" x="0.5" y="0.5" width="203" height="203" stroke="#B9D7FF"/>
<path d="M33.7 137H31.72L30.58 133.86H24.28L23.14 137H21.16L26.38 123H28.48L33.7 137ZM27.42 125.22L24.92 132.12H29.94L27.42 125.22ZM43.2172 128.72V123H44.9572V137H43.2172V135.28C42.3639 136.6 41.1039 137.26 39.4372 137.26C38.0239 137.26 36.8305 136.753 35.8572 135.74C34.8705 134.713 34.3772 133.467 34.3772 132C34.3772 130.547 34.8705 129.307 35.8572 128.28C36.8439 127.253 38.0372 126.74 39.4372 126.74C41.1039 126.74 42.3639 127.4 43.2172 128.72ZM39.6572 135.58C40.6705 135.58 41.5172 135.24 42.1972 134.56C42.8772 133.853 43.2172 133 43.2172 132C43.2172 130.987 42.8772 130.14 42.1972 129.46C41.5172 128.767 40.6705 128.42 39.6572 128.42C38.6572 128.42 37.8172 128.767 37.1372 129.46C36.4572 130.14 36.1172 130.987 36.1172 132C36.1172 133 36.4572 133.853 37.1372 134.56C37.8172 135.24 38.6572 135.58 39.6572 135.58ZM55.8734 128.72V123H57.6134V137H55.8734V135.28C55.0201 136.6 53.7601 137.26 52.0934 137.26C50.6801 137.26 49.4868 136.753 48.5134 135.74C47.5268 134.713 47.0334 133.467 47.0334 132C47.0334 130.547 47.5268 129.307 48.5134 128.28C49.5001 127.253 50.6934 126.74 52.0934 126.74C53.7601 126.74 55.0201 127.4 55.8734 128.72ZM52.3134 135.58C53.3268 135.58 54.1734 135.24 54.8534 134.56C55.5334 133.853 55.8734 133 55.8734 132C55.8734 130.987 55.5334 130.14 54.8534 129.46C54.1734 128.767 53.3268 128.42 52.3134 128.42C51.3134 128.42 50.4734 128.767 49.7934 129.46C49.1134 130.14 48.7734 130.987 48.7734 132C48.7734 133 49.1134 133.853 49.7934 134.56C50.4734 135.24 51.3134 135.58 52.3134 135.58ZM76.0497 126.74C77.183 126.74 78.0897 127.107 78.7697 127.84C79.463 128.573 79.8097 129.553 79.8097 130.78V137H78.0697V130.84C78.0697 130.08 77.8697 129.487 77.4697 129.06C77.083 128.62 76.5497 128.4 75.8697 128.4C75.0964 128.4 74.4897 128.66 74.0497 129.18C73.623 129.687 73.4097 130.44 73.4097 131.44V137H71.6697V130.84C71.6697 130.08 71.4764 129.487 71.0897 129.06C70.7164 128.62 70.203 128.4 69.5497 128.4C68.7897 128.4 68.1697 128.667 67.6897 129.2C67.223 129.72 66.9897 130.467 66.9897 131.44V137H65.2497V127H66.9897V128.34C67.6697 127.273 68.663 126.74 69.9697 126.74C71.3164 126.74 72.2964 127.307 72.9097 128.44C73.603 127.307 74.6497 126.74 76.0497 126.74ZM86.1075 134.84L88.9875 127H90.8475L86.7675 137.62C86.3275 138.753 85.7208 139.613 84.9475 140.2C84.1875 140.8 83.3142 141.067 82.3275 141V139.38C83.5542 139.473 84.4542 138.793 85.0275 137.34L85.2075 136.96L80.8475 127H82.7075L86.1075 134.84ZM102 137.26C100.494 137.26 99.2405 136.76 98.2405 135.76C97.2405 134.747 96.7405 133.493 96.7405 132C96.7405 130.507 97.2405 129.26 98.2405 128.26C99.2405 127.247 100.494 126.74 102 126.74C102.987 126.74 103.874 126.98 104.66 127.46C105.447 127.927 106.034 128.56 106.42 129.36L104.96 130.2C104.707 129.667 104.314 129.24 103.78 128.92C103.26 128.6 102.667 128.44 102 128.44C101 128.44 100.16 128.78 99.4805 129.46C98.8138 130.153 98.4805 131 98.4805 132C98.4805 132.987 98.8138 133.827 99.4805 134.52C100.16 135.2 101 135.54 102 135.54C102.667 135.54 103.267 135.387 103.8 135.08C104.334 134.76 104.74 134.333 105.02 133.8L106.5 134.66C106.06 135.46 105.44 136.093 104.64 136.56C103.84 137.027 102.96 137.26 102 137.26ZM116.522 135.74C115.508 136.753 114.262 137.26 112.782 137.26C111.302 137.26 110.055 136.753 109.042 135.74C108.028 134.727 107.522 133.48 107.522 132C107.522 130.52 108.028 129.273 109.042 128.26C110.055 127.247 111.302 126.74 112.782 126.74C114.262 126.74 115.508 127.247 116.522 128.26C117.548 129.287 118.062 130.533 118.062 132C118.062 133.467 117.548 134.713 116.522 135.74ZM112.782 135.56C113.782 135.56 114.622 135.22 115.302 134.54C115.982 133.86 116.322 133.013 116.322 132C116.322 130.987 115.982 130.14 115.302 129.46C114.622 128.78 113.782 128.44 112.782 128.44C111.795 128.44 110.962 128.78 110.282 129.46C109.602 130.14 109.262 130.987 109.262 132C109.262 133.013 109.602 133.86 110.282 134.54C110.962 135.22 111.795 135.56 112.782 135.56ZM130.913 126.74C132.046 126.74 132.953 127.107 133.633 127.84C134.326 128.573 134.673 129.553 134.673 130.78V137H132.933V130.84C132.933 130.08 132.733 129.487 132.333 129.06C131.946 128.62 131.413 128.4 130.733 128.4C129.96 128.4 129.353 128.66 128.913 129.18C128.486 129.687 128.273 130.44 128.273 131.44V137H126.533V130.84C126.533 130.08 126.34 129.487 125.953 129.06C125.58 128.62 125.066 128.4 124.413 128.4C123.653 128.4 123.033 128.667 122.553 129.2C122.086 129.72 121.853 130.467 121.853 131.44V137H120.113V127H121.853V128.34C122.533 127.273 123.526 126.74 124.833 126.74C126.18 126.74 127.16 127.307 127.773 128.44C128.466 127.307 129.513 126.74 130.913 126.74ZM142.606 126.74C144.006 126.74 145.199 127.253 146.186 128.28C147.172 129.307 147.666 130.547 147.666 132C147.666 133.467 147.172 134.713 146.186 135.74C145.212 136.753 144.019 137.26 142.606 137.26C140.952 137.26 139.692 136.6 138.826 135.28V141H137.086V127H138.826V128.72C139.692 127.4 140.952 126.74 142.606 126.74ZM142.386 135.58C143.386 135.58 144.226 135.24 144.906 134.56C145.586 133.853 145.926 133 145.926 132C145.926 130.987 145.586 130.14 144.906 129.46C144.226 128.767 143.386 128.42 142.386 128.42C141.372 128.42 140.526 128.767 139.846 129.46C139.166 130.14 138.826 130.987 138.826 132C138.826 133 139.166 133.853 139.846 134.56C140.526 135.24 141.372 135.58 142.386 135.58ZM158.022 128.72V127H159.762V137H158.022V135.28C157.169 136.6 155.909 137.26 154.242 137.26C152.829 137.26 151.635 136.753 150.662 135.74C149.675 134.713 149.182 133.467 149.182 132C149.182 130.547 149.675 129.307 150.662 128.28C151.649 127.253 152.842 126.74 154.242 126.74C155.909 126.74 157.169 127.4 158.022 128.72ZM154.462 135.58C155.475 135.58 156.322 135.24 157.002 134.56C157.682 133.853 158.022 133 158.022 132C158.022 130.987 157.682 130.14 157.002 129.46C156.322 128.767 155.475 128.42 154.462 128.42C153.462 128.42 152.622 128.767 151.942 129.46C151.262 130.14 150.922 130.987 150.922 132C150.922 133 151.262 133.853 151.942 134.56C152.622 135.24 153.462 135.58 154.462 135.58ZM167.378 126.74C168.551 126.74 169.491 127.113 170.198 127.86C170.905 128.593 171.258 129.593 171.258 130.86V137H169.518V130.96C169.518 130.16 169.298 129.533 168.858 129.08C168.418 128.627 167.811 128.4 167.038 128.4C166.145 128.4 165.438 128.68 164.918 129.24C164.398 129.787 164.138 130.607 164.138 131.7V137H162.398V127H164.138V128.44C164.831 127.307 165.911 126.74 167.378 126.74ZM177.572 134.84L180.452 127H182.312L178.232 137.62C177.792 138.753 177.186 139.613 176.412 140.2C175.652 140.8 174.779 141.067 173.792 141V139.38C175.019 139.473 175.919 138.793 176.492 137.34L176.672 136.96L172.312 127H174.172L177.572 134.84Z" fill="#0360B2"/>
<path d="M108.78 69.42L111.6 75.06C111.98 75.84 113 76.58 113.86 76.74L118.96 77.58C122.22 78.12 122.98 80.48 120.64 82.84L116.66 86.82C116 87.48 115.62 88.78 115.84 89.72L116.98 94.64C117.88 98.52 115.8 100.04 112.38 98L107.6 95.16C106.74 94.64 105.3 94.64 104.44 95.16L99.6599 98C96.2399 100.02 94.1599 98.52 95.0599 94.64L96.1999 89.72C96.4199 88.8 96.0399 87.5 95.3799 86.82L91.3999 82.84C89.0599 80.5 89.8199 78.14 93.0799 77.58L98.1799 76.74C99.0399 76.6 100.06 75.84 100.44 75.06L103.26 69.42C104.76 66.36 107.24 66.36 108.78 69.42Z" stroke="#0360B2" stroke-width="1.5" stroke-linecap="round" stroke-linejoin="round"/>
<path d="M94 69H82" stroke="#7DE2B7" stroke-width="1.5" stroke-linecap="round" stroke-linejoin="round"/>
<path d="M88 97H82" stroke="#7DE2B7" stroke-width="1.5" stroke-linecap="round" stroke-linejoin="round"/>
<path d="M84 83H82" stroke="#7DE2B7" stroke-width="1.5" stroke-linecap="round" stroke-linejoin="round"/>
</svg>
