<svg width="254" height="254" viewBox="0 0 254 254" fill="none" xmlns="http://www.w3.org/2000/svg">
<g filter="url(#filter0_d_704_4470)">
<rect x="25" y="15" width="204" height="204" fill="#0360B2"/>
</g>
<path d="M58.7 152H56.72L55.58 148.86H49.28L48.14 152H46.16L51.38 138H53.48L58.7 152ZM52.42 140.22L49.92 147.12H54.94L52.42 140.22ZM68.2172 143.72V138H69.9572V152H68.2172V150.28C67.3639 151.6 66.1039 152.26 64.4372 152.26C63.0239 152.26 61.8305 151.753 60.8572 150.74C59.8705 149.713 59.3772 148.467 59.3772 147C59.3772 145.547 59.8705 144.307 60.8572 143.28C61.8439 142.253 63.0372 141.74 64.4372 141.74C66.1039 141.74 67.3639 142.4 68.2172 143.72ZM64.6572 150.58C65.6705 150.58 66.5172 150.24 67.1972 149.56C67.8772 148.853 68.2172 148 68.2172 147C68.2172 145.987 67.8772 145.14 67.1972 144.46C66.5172 143.767 65.6705 143.42 64.6572 143.42C63.6572 143.42 62.8172 143.767 62.1372 144.46C61.4572 145.14 61.1172 145.987 61.1172 147C61.1172 148 61.4572 148.853 62.1372 149.56C62.8172 150.24 63.6572 150.58 64.6572 150.58ZM80.8734 143.72V138H82.6134V152H80.8734V150.28C80.0201 151.6 78.7601 152.26 77.0934 152.26C75.6801 152.26 74.4868 151.753 73.5134 150.74C72.5268 149.713 72.0334 148.467 72.0334 147C72.0334 145.547 72.5268 144.307 73.5134 143.28C74.5001 142.253 75.6934 141.74 77.0934 141.74C78.7601 141.74 80.0201 142.4 80.8734 143.72ZM77.3134 150.58C78.3268 150.58 79.1734 150.24 79.8534 149.56C80.5334 148.853 80.8734 148 80.8734 147C80.8734 145.987 80.5334 145.14 79.8534 144.46C79.1734 143.767 78.3268 143.42 77.3134 143.42C76.3134 143.42 75.4734 143.767 74.7934 144.46C74.1134 145.14 73.7734 145.987 73.7734 147C73.7734 148 74.1134 148.853 74.7934 149.56C75.4734 150.24 76.3134 150.58 77.3134 150.58ZM101.05 141.74C102.183 141.74 103.09 142.107 103.77 142.84C104.463 143.573 104.81 144.553 104.81 145.78V152H103.07V145.84C103.07 145.08 102.87 144.487 102.47 144.06C102.083 143.62 101.55 143.4 100.87 143.4C100.096 143.4 99.4897 143.66 99.0497 144.18C98.623 144.687 98.4097 145.44 98.4097 146.44V152H96.6697V145.84C96.6697 145.08 96.4764 144.487 96.0897 144.06C95.7164 143.62 95.203 143.4 94.5497 143.4C93.7897 143.4 93.1697 143.667 92.6897 144.2C92.223 144.72 91.9897 145.467 91.9897 146.44V152H90.2497V142H91.9897V143.34C92.6697 142.273 93.663 141.74 94.9697 141.74C96.3164 141.74 97.2964 142.307 97.9097 143.44C98.603 142.307 99.6497 141.74 101.05 141.74ZM111.108 149.84L113.988 142H115.848L111.768 152.62C111.328 153.753 110.721 154.613 109.948 155.2C109.188 155.8 108.314 156.067 107.328 156V154.38C108.554 154.473 109.454 153.793 110.028 152.34L110.208 151.96L105.848 142H107.708L111.108 149.84ZM127 152.26C125.494 152.26 124.24 151.76 123.24 150.76C122.24 149.747 121.74 148.493 121.74 147C121.74 145.507 122.24 144.26 123.24 143.26C124.24 142.247 125.494 141.74 127 141.74C127.987 141.74 128.874 141.98 129.66 142.46C130.447 142.927 131.034 143.56 131.42 144.36L129.96 145.2C129.707 144.667 129.314 144.24 128.78 143.92C128.26 143.6 127.667 143.44 127 143.44C126 143.44 125.16 143.78 124.48 144.46C123.814 145.153 123.48 146 123.48 147C123.48 147.987 123.814 148.827 124.48 149.52C125.16 150.2 126 150.54 127 150.54C127.667 150.54 128.267 150.387 128.8 150.08C129.334 149.76 129.74 149.333 130.02 148.8L131.5 149.66C131.06 150.46 130.44 151.093 129.64 151.56C128.84 152.027 127.96 152.26 127 152.26ZM141.522 150.74C140.508 151.753 139.262 152.26 137.782 152.26C136.302 152.26 135.055 151.753 134.042 150.74C133.028 149.727 132.522 148.48 132.522 147C132.522 145.52 133.028 144.273 134.042 143.26C135.055 142.247 136.302 141.74 137.782 141.74C139.262 141.74 140.508 142.247 141.522 143.26C142.548 144.287 143.062 145.533 143.062 147C143.062 148.467 142.548 149.713 141.522 150.74ZM137.782 150.56C138.782 150.56 139.622 150.22 140.302 149.54C140.982 148.86 141.322 148.013 141.322 147C141.322 145.987 140.982 145.14 140.302 144.46C139.622 143.78 138.782 143.44 137.782 143.44C136.795 143.44 135.962 143.78 135.282 144.46C134.602 145.14 134.262 145.987 134.262 147C134.262 148.013 134.602 148.86 135.282 149.54C135.962 150.22 136.795 150.56 137.782 150.56ZM155.913 141.74C157.046 141.74 157.953 142.107 158.633 142.84C159.326 143.573 159.673 144.553 159.673 145.78V152H157.933V145.84C157.933 145.08 157.733 144.487 157.333 144.06C156.946 143.62 156.413 143.4 155.733 143.4C154.96 143.4 154.353 143.66 153.913 144.18C153.486 144.687 153.273 145.44 153.273 146.44V152H151.533V145.84C151.533 145.08 151.34 144.487 150.953 144.06C150.58 143.62 150.066 143.4 149.413 143.4C148.653 143.4 148.033 143.667 147.553 144.2C147.086 144.72 146.853 145.467 146.853 146.44V152H145.113V142H146.853V143.34C147.533 142.273 148.526 141.74 149.833 141.74C151.18 141.74 152.16 142.307 152.773 143.44C153.466 142.307 154.513 141.74 155.913 141.74ZM167.606 141.74C169.006 141.74 170.199 142.253 171.186 143.28C172.172 144.307 172.666 145.547 172.666 147C172.666 148.467 172.172 149.713 171.186 150.74C170.212 151.753 169.019 152.26 167.606 152.26C165.952 152.26 164.692 151.6 163.826 150.28V156H162.086V142H163.826V143.72C164.692 142.4 165.952 141.74 167.606 141.74ZM167.386 150.58C168.386 150.58 169.226 150.24 169.906 149.56C170.586 148.853 170.926 148 170.926 147C170.926 145.987 170.586 145.14 169.906 144.46C169.226 143.767 168.386 143.42 167.386 143.42C166.372 143.42 165.526 143.767 164.846 144.46C164.166 145.14 163.826 145.987 163.826 147C163.826 148 164.166 148.853 164.846 149.56C165.526 150.24 166.372 150.58 167.386 150.58ZM183.022 143.72V142H184.762V152H183.022V150.28C182.169 151.6 180.909 152.26 179.242 152.26C177.829 152.26 176.635 151.753 175.662 150.74C174.675 149.713 174.182 148.467 174.182 147C174.182 145.547 174.675 144.307 175.662 143.28C176.649 142.253 177.842 141.74 179.242 141.74C180.909 141.74 182.169 142.4 183.022 143.72ZM179.462 150.58C180.475 150.58 181.322 150.24 182.002 149.56C182.682 148.853 183.022 148 183.022 147C183.022 145.987 182.682 145.14 182.002 144.46C181.322 143.767 180.475 143.42 179.462 143.42C178.462 143.42 177.622 143.767 176.942 144.46C176.262 145.14 175.922 145.987 175.922 147C175.922 148 176.262 148.853 176.942 149.56C177.622 150.24 178.462 150.58 179.462 150.58ZM192.378 141.74C193.551 141.74 194.491 142.113 195.198 142.86C195.905 143.593 196.258 144.593 196.258 145.86V152H194.518V145.96C194.518 145.16 194.298 144.533 193.858 144.08C193.418 143.627 192.811 143.4 192.038 143.4C191.145 143.4 190.438 143.68 189.918 144.24C189.398 144.787 189.138 145.607 189.138 146.7V152H187.398V142H189.138V143.44C189.831 142.307 190.911 141.74 192.378 141.74ZM202.572 149.84L205.452 142H207.312L203.232 152.62C202.792 153.753 202.186 154.613 201.412 155.2C200.652 155.8 199.779 156.067 198.792 156V154.38C200.019 154.473 200.919 153.793 201.492 152.34L201.672 151.96L197.312 142H199.172L202.572 149.84Z" fill="white"/>
<path d="M133.78 84.42L136.6 90.06C136.98 90.84 138 91.58 138.86 91.74L143.96 92.58C147.22 93.12 147.98 95.48 145.64 97.84L141.66 101.82C141 102.48 140.62 103.78 140.84 104.72L141.98 109.64C142.88 113.52 140.8 115.04 137.38 113L132.6 110.16C131.74 109.64 130.3 109.64 129.44 110.16L124.66 113C121.24 115.02 119.16 113.52 120.06 109.64L121.2 104.72C121.42 103.8 121.04 102.5 120.38 101.82L116.4 97.84C114.06 95.5 114.82 93.14 118.08 92.58L123.18 91.74C124.04 91.6 125.06 90.84 125.44 90.06L128.26 84.42C129.76 81.36 132.24 81.36 133.78 84.42Z" stroke="white" stroke-width="1.5" stroke-linecap="round" stroke-linejoin="round"/>
<path d="M119 84H107" stroke="white" stroke-width="1.5" stroke-linecap="round" stroke-linejoin="round"/>
<path d="M113 112H107" stroke="white" stroke-width="1.5" stroke-linecap="round" stroke-linejoin="round"/>
<path d="M109 98H107" stroke="white" stroke-width="1.5" stroke-linecap="round" stroke-linejoin="round"/>
<defs>
<filter id="filter0_d_704_4470" x="0" y="0" width="254" height="254" filterUnits="userSpaceOnUse" color-interpolation-filters="sRGB">
<feFlood flood-opacity="0" result="BackgroundImageFix"/>
<feColorMatrix in="SourceAlpha" type="matrix" values="0 0 0 0 0 0 0 0 0 0 0 0 0 0 0 0 0 0 127 0" result="hardAlpha"/>
<feOffset dy="10"/>
<feGaussianBlur stdDeviation="12.5"/>
<feComposite in2="hardAlpha" operator="out"/>
<feColorMatrix type="matrix" values="0 0 0 0 0.0117647 0 0 0 0 0.37647 0 0 0 0 0.698039 0 0 0 0.47 0"/>
<feBlend mode="normal" in2="BackgroundImageFix" result="effect1_dropShadow_704_4470"/>
<feBlend mode="normal" in="SourceGraphic" in2="effect1_dropShadow_704_4470" result="shape"/>
</filter>
</defs>
</svg>
