<svg width="171" height="106" viewBox="0 0 171 106" fill="none" xmlns="http://www.w3.org/2000/svg">
<path d="M86 34.4414V44.0014" stroke="#7DE2B7" stroke-width="1.5" stroke-linecap="round" stroke-linejoin="round"/>
<path d="M66 26H106" stroke="#7DE2B7" stroke-width="1.5" stroke-linecap="round" stroke-linejoin="round"/>
<path d="M74.88 4H97.1C104.22 4 106 5.78 106 12.88V25.54C106 32.66 104.22 34.42 97.12 34.42H74.88C67.78 34.44 66 32.66 66 25.56V12.88C66 5.78 67.78 4 74.88 4Z" stroke="#0360B2" stroke-width="1.5" stroke-linecap="round" stroke-linejoin="round"/>
<path d="M77 44H95" stroke="#0360B2" stroke-width="1.5" stroke-linecap="round" stroke-linejoin="round"/>
<path d="M7.06281 98H4.90281L0.882813 84H2.84281L6.04281 95.52L9.44281 84H11.3228L14.7228 95.52L17.9228 84H19.8828L15.8628 98H13.7028L10.3828 86.82L7.06281 98ZM30.1114 93.8H21.7314C21.9047 94.68 22.3114 95.3733 22.9514 95.88C23.5914 96.3733 24.3914 96.62 25.3514 96.62C26.6714 96.62 27.6314 96.1333 28.2314 95.16L29.7114 96C28.7247 97.5067 27.2581 98.26 25.3114 98.26C23.7381 98.26 22.4447 97.7667 21.4314 96.78C20.4447 95.7667 19.9514 94.5067 19.9514 93C19.9514 91.48 20.4381 90.2267 21.4114 89.24C22.3847 88.24 23.6447 87.74 25.1914 87.74C26.6581 87.74 27.8514 88.26 28.7714 89.3C29.7047 90.3133 30.1714 91.5533 30.1714 93.02C30.1714 93.2733 30.1514 93.5333 30.1114 93.8ZM25.1914 89.38C24.2714 89.38 23.4981 89.64 22.8714 90.16C22.2581 90.68 21.8781 91.3867 21.7314 92.28H28.4114C28.2647 91.36 27.8981 90.6467 27.3114 90.14C26.7247 89.6333 26.0181 89.38 25.1914 89.38ZM37.6916 87.74C39.0916 87.74 40.2849 88.2533 41.2716 89.28C42.2582 90.3067 42.7516 91.5467 42.7516 93C42.7516 94.4667 42.2582 95.7133 41.2716 96.74C40.2982 97.7533 39.1049 98.26 37.6916 98.26C36.0382 98.26 34.7782 97.6 33.9116 96.28V98H32.1716V84H33.9116V89.72C34.7782 88.4 36.0382 87.74 37.6916 87.74ZM37.4716 96.58C38.4716 96.58 39.3116 96.24 39.9916 95.56C40.6716 94.8533 41.0116 94 41.0116 93C41.0116 91.9867 40.6716 91.14 39.9916 90.46C39.3116 89.7667 38.4716 89.42 37.4716 89.42C36.4582 89.42 35.6116 89.7667 34.9316 90.46C34.2516 91.14 33.9116 91.9867 33.9116 93C33.9116 94 34.2516 94.8533 34.9316 95.56C35.6116 96.24 36.4582 96.58 37.4716 96.58ZM58.1078 89.72V84H59.8478V98H58.1078V96.28C57.2545 97.6 55.9945 98.26 54.3278 98.26C52.9145 98.26 51.7211 97.7533 50.7478 96.74C49.7611 95.7133 49.2678 94.4667 49.2678 93C49.2678 91.5467 49.7611 90.3067 50.7478 89.28C51.7345 88.2533 52.9278 87.74 54.3278 87.74C55.9945 87.74 57.2545 88.4 58.1078 89.72ZM54.5478 96.58C55.5611 96.58 56.4078 96.24 57.0878 95.56C57.7678 94.8533 58.1078 94 58.1078 93C58.1078 91.9867 57.7678 91.14 57.0878 90.46C56.4078 89.7667 55.5611 89.42 54.5478 89.42C53.5478 89.42 52.7078 89.7667 52.0278 90.46C51.3478 91.14 51.0078 91.9867 51.0078 93C51.0078 94 51.3478 94.8533 52.0278 95.56C52.7078 96.24 53.5478 96.58 54.5478 96.58ZM72.0841 93.8H63.7041C63.8774 94.68 64.2841 95.3733 64.9241 95.88C65.5641 96.3733 66.3641 96.62 67.3241 96.62C68.6441 96.62 69.6041 96.1333 70.2041 95.16L71.6841 96C70.6974 97.5067 69.2307 98.26 67.2841 98.26C65.7107 98.26 64.4174 97.7667 63.4041 96.78C62.4174 95.7667 61.9241 94.5067 61.9241 93C61.9241 91.48 62.4107 90.2267 63.3841 89.24C64.3574 88.24 65.6174 87.74 67.1641 87.74C68.6307 87.74 69.8241 88.26 70.7441 89.3C71.6774 90.3133 72.1441 91.5533 72.1441 93.02C72.1441 93.2733 72.1241 93.5333 72.0841 93.8ZM67.1641 89.38C66.2441 89.38 65.4707 89.64 64.8441 90.16C64.2307 90.68 63.8507 91.3867 63.7041 92.28H70.3841C70.2374 91.36 69.8707 90.6467 69.2841 90.14C68.6974 89.6333 67.9907 89.38 67.1641 89.38ZM77.6136 96.14L80.7536 88H82.6336L78.6336 98H76.5936L72.5936 88H74.4736L77.6136 96.14ZM93.3145 93.8H84.9345C85.1079 94.68 85.5145 95.3733 86.1545 95.88C86.7945 96.3733 87.5945 96.62 88.5545 96.62C89.8745 96.62 90.8345 96.1333 91.4345 95.16L92.9145 96C91.9279 97.5067 90.4612 98.26 88.5145 98.26C86.9412 98.26 85.6479 97.7667 84.6345 96.78C83.6479 95.7667 83.1545 94.5067 83.1545 93C83.1545 91.48 83.6412 90.2267 84.6145 89.24C85.5879 88.24 86.8479 87.74 88.3945 87.74C89.8612 87.74 91.0545 88.26 91.9745 89.3C92.9079 90.3133 93.3745 91.5533 93.3745 93.02C93.3745 93.2733 93.3545 93.5333 93.3145 93.8ZM88.3945 89.38C87.4745 89.38 86.7012 89.64 86.0745 90.16C85.4612 90.68 85.0812 91.3867 84.9345 92.28H91.6145C91.4679 91.36 91.1012 90.6467 90.5145 90.14C89.9279 89.6333 89.2212 89.38 88.3945 89.38ZM97.1147 98H95.3747V83.4H97.1147V98ZM108.209 96.74C107.196 97.7533 105.949 98.26 104.469 98.26C102.989 98.26 101.743 97.7533 100.729 96.74C99.7159 95.7267 99.2092 94.48 99.2092 93C99.2092 91.52 99.7159 90.2733 100.729 89.26C101.743 88.2467 102.989 87.74 104.469 87.74C105.949 87.74 107.196 88.2467 108.209 89.26C109.236 90.2867 109.749 91.5333 109.749 93C109.749 94.4667 109.236 95.7133 108.209 96.74ZM104.469 96.56C105.469 96.56 106.309 96.22 106.989 95.54C107.669 94.86 108.009 94.0133 108.009 93C108.009 91.9867 107.669 91.14 106.989 90.46C106.309 89.78 105.469 89.44 104.469 89.44C103.483 89.44 102.649 89.78 101.969 90.46C101.289 91.14 100.949 91.9867 100.949 93C100.949 94.0133 101.289 94.86 101.969 95.54C102.649 96.22 103.483 96.56 104.469 96.56ZM117.32 87.74C118.72 87.74 119.914 88.2533 120.9 89.28C121.887 90.3067 122.38 91.5467 122.38 93C122.38 94.4667 121.887 95.7133 120.9 96.74C119.927 97.7533 118.734 98.26 117.32 98.26C115.667 98.26 114.407 97.6 113.54 96.28V102H111.8V88H113.54V89.72C114.407 88.4 115.667 87.74 117.32 87.74ZM117.1 96.58C118.1 96.58 118.94 96.24 119.62 95.56C120.3 94.8533 120.64 94 120.64 93C120.64 91.9867 120.3 91.14 119.62 90.46C118.94 89.7667 118.1 89.42 117.1 89.42C116.087 89.42 115.24 89.7667 114.56 90.46C113.88 91.14 113.54 91.9867 113.54 93C113.54 94 113.88 94.8533 114.56 95.56C115.24 96.24 116.087 96.58 117.1 96.58ZM135.257 87.74C136.39 87.74 137.297 88.1067 137.977 88.84C138.67 89.5733 139.017 90.5533 139.017 91.78V98H137.277V91.84C137.277 91.08 137.077 90.4867 136.677 90.06C136.29 89.62 135.757 89.4 135.077 89.4C134.303 89.4 133.697 89.66 133.257 90.18C132.83 90.6867 132.617 91.44 132.617 92.44V98H130.877V91.84C130.877 91.08 130.683 90.4867 130.297 90.06C129.923 89.62 129.41 89.4 128.757 89.4C127.997 89.4 127.377 89.6667 126.897 90.2C126.43 90.72 126.197 91.4667 126.197 92.44V98H124.457V88H126.197V89.34C126.877 88.2733 127.87 87.74 129.177 87.74C130.523 87.74 131.503 88.3067 132.117 89.44C132.81 88.3067 133.857 87.74 135.257 87.74ZM151.029 93.8H142.649C142.823 94.68 143.229 95.3733 143.869 95.88C144.509 96.3733 145.309 96.62 146.269 96.62C147.589 96.62 148.549 96.1333 149.149 95.16L150.629 96C149.643 97.5067 148.176 98.26 146.229 98.26C144.656 98.26 143.363 97.7667 142.349 96.78C141.363 95.7667 140.869 94.5067 140.869 93C140.869 91.48 141.356 90.2267 142.329 89.24C143.303 88.24 144.563 87.74 146.109 87.74C147.576 87.74 148.769 88.26 149.689 89.3C150.623 90.3133 151.089 91.5533 151.089 93.02C151.089 93.2733 151.069 93.5333 151.029 93.8ZM146.109 89.38C145.189 89.38 144.416 89.64 143.789 90.16C143.176 90.68 142.796 91.3867 142.649 92.28H149.329C149.183 91.36 148.816 90.6467 148.229 90.14C147.643 89.6333 146.936 89.38 146.109 89.38ZM158.07 87.74C159.243 87.74 160.183 88.1133 160.89 88.86C161.596 89.5933 161.95 90.5933 161.95 91.86V98H160.21V91.96C160.21 91.16 159.99 90.5333 159.55 90.08C159.11 89.6267 158.503 89.4 157.73 89.4C156.836 89.4 156.13 89.68 155.61 90.24C155.09 90.7867 154.83 91.6067 154.83 92.7V98H153.09V88H154.83V89.44C155.523 88.3067 156.603 87.74 158.07 87.74ZM169.819 88V89.68H167.159V95.1C167.159 95.5933 167.252 95.9467 167.439 96.16C167.639 96.36 167.939 96.4667 168.339 96.48C168.739 96.48 169.232 96.4667 169.819 96.44V98C168.285 98.2 167.165 98.0733 166.459 97.62C165.765 97.1667 165.419 96.3267 165.419 95.1V89.68H163.439V88H165.419V85.72L167.159 85.2V88H169.819Z" fill="#111714"/>
</svg>
