<svg width="64" height="64" viewBox="0 0 64 64" fill="none" xmlns="http://www.w3.org/2000/svg">
<path d="M19.1976 19.7512H15.6633L25.2988 46.9884L30.693 31.5736L26.5108 19.7512H22.7818V17.1559H39.295V19.7512H35.428L45.0633 46.9884L48.5269 37.0906C53.0703 24.4096 44.803 20.4594 44.803 17.6294C44.803 14.7993 47.0972 12.5052 49.9272 12.5052C50.0803 12.5052 50.2289 12.5135 50.3746 12.5271C45.5796 8.00049 39.1138 5.22461 31.9992 5.22461C22.7029 5.22461 14.5142 9.96321 9.71381 17.1559H19.1973V19.7512H19.1976Z" fill="#00769D"/>
<path d="M5.22455 31.9982C5.22455 42.2491 10.9862 51.153 19.4468 55.6523L7.36368 21.4961C5.98725 24.7207 5.22455 28.2703 5.22455 31.9982Z" fill="#00769D"/>
<path d="M55.301 18.8066C55.684 21.0617 55.5681 23.5963 54.9804 26.1407H55.0869L54.682 27.2976C54.4421 28.1329 54.14 28.9874 53.7969 29.827L44.5839 55.6374C53.0268 51.1327 58.7737 42.2383 58.7737 32.0004C58.7737 27.2031 57.5108 22.7011 55.301 18.8066Z" fill="#00769D"/>
<path d="M23.7421 57.4733C26.3433 58.3159 29.1179 58.773 31.9999 58.773C34.7487 58.773 37.4005 58.3581 39.8969 57.5885L32.0649 35.4492L23.7421 57.4733Z" fill="#00769D"/>
<path d="M54.6274 9.37255C48.5834 3.32857 40.5474 0 31.9999 0C23.4523 0 15.4165 3.32857 9.37249 9.37255C3.32851 15.4165 -6.10352e-05 23.4524 -6.10352e-05 32.0001C-6.10352e-05 40.5476 3.32851 48.5835 9.37249 54.6274C15.4165 60.6714 23.4525 64 32 64C40.5475 64 48.5834 60.6714 54.6275 54.6274C60.6715 48.5835 64.0001 40.5475 64.0001 32.0001C63.9999 23.4524 60.6714 15.4165 54.6274 9.37255ZM31.9999 61.7426C15.5998 61.7426 2.2573 48.4002 2.2573 32.0001C2.2573 15.6 15.5998 2.25736 31.9999 2.25736C48.4 2.25736 61.7424 15.6 61.7424 32.0001C61.7424 48.4002 48.4001 61.7426 31.9999 61.7426Z" fill="#00769D"/>
</svg>
