<svg width="152" height="110" viewBox="0 0 152 110" fill="none" xmlns="http://www.w3.org/2000/svg">
<path d="M63.1976 19.7512H59.6633L69.2987 46.9884L74.693 31.5736L70.5108 19.7512H66.7818V17.1559H83.295V19.7512H79.428L89.0633 46.9884L92.5268 37.0906C97.0703 24.4096 88.803 20.4594 88.803 17.6294C88.803 14.7993 91.0972 12.5052 93.9272 12.5052C94.0803 12.5052 94.2289 12.5135 94.3746 12.5271C89.5795 8.00049 83.1138 5.22461 75.9992 5.22461C66.7029 5.22461 58.5142 9.96321 53.7138 17.1559H63.1973V19.7512H63.1976Z" fill="#00769D"/>
<path d="M49.2245 31.9982C49.2245 42.2491 54.9862 51.153 63.4468 55.6523L51.3637 21.4961C49.9872 24.7207 49.2245 28.2703 49.2245 31.9982Z" fill="#00769D"/>
<path d="M99.301 18.8066C99.684 21.0617 99.5681 23.5963 98.9804 26.1407H99.0869L98.682 27.2976C98.4421 28.1329 98.14 28.9874 97.7969 29.827L88.5839 55.6374C97.0268 51.1327 102.774 42.2383 102.774 32.0004C102.774 27.2031 101.511 22.7011 99.301 18.8066Z" fill="#00769D"/>
<path d="M67.7421 57.4733C70.3433 58.3159 73.1179 58.773 75.9999 58.773C78.7487 58.773 81.4005 58.3581 83.8969 57.5885L76.0649 35.4492L67.7421 57.4733Z" fill="#00769D"/>
<path d="M98.6274 9.37255C92.5834 3.32857 84.5474 0 75.9999 0C67.4523 0 59.4165 3.32857 53.3725 9.37255C47.3285 15.4165 43.9999 23.4524 43.9999 32.0001C43.9999 40.5476 47.3285 48.5835 53.3725 54.6274C59.4165 60.6714 67.4525 64 76 64C84.5475 64 92.5834 60.6714 98.6275 54.6274C104.671 48.5835 108 40.5475 108 32.0001C108 23.4524 104.671 15.4165 98.6274 9.37255ZM75.9999 61.7426C59.5997 61.7426 46.2573 48.4002 46.2573 32.0001C46.2573 15.6 59.5997 2.25736 75.9999 2.25736C92.4 2.25736 105.742 15.6 105.742 32.0001C105.742 48.4002 92.4001 61.7426 75.9999 61.7426Z" fill="#00769D"/>
<path d="M46.1744 92.4L41.9624 105H40.0724L36.6344 94.938L33.1964 105H31.2704L27.0584 92.4H28.9124L32.3144 102.642L35.8604 92.4H37.5164L40.9904 102.696L44.4644 92.4H46.1744ZM51.4896 105.108C50.5416 105.108 49.6896 104.898 48.9336 104.478C48.1776 104.058 47.5836 103.482 47.1516 102.75C46.7316 102.006 46.5216 101.166 46.5216 100.23C46.5216 99.294 46.7316 98.46 47.1516 97.728C47.5836 96.984 48.1776 96.408 48.9336 96C49.6896 95.58 50.5416 95.37 51.4896 95.37C52.4376 95.37 53.2836 95.58 54.0276 96C54.7836 96.408 55.3716 96.984 55.7916 97.728C56.2236 98.46 56.4396 99.294 56.4396 100.23C56.4396 101.166 56.2236 102.006 55.7916 102.75C55.3716 103.482 54.7836 104.058 54.0276 104.478C53.2836 104.898 52.4376 105.108 51.4896 105.108ZM51.4896 103.596C52.1016 103.596 52.6476 103.458 53.1276 103.182C53.6196 102.894 54.0036 102.498 54.2796 101.994C54.5556 101.478 54.6936 100.89 54.6936 100.23C54.6936 99.57 54.5556 98.988 54.2796 98.484C54.0036 97.968 53.6196 97.572 53.1276 97.296C52.6476 97.02 52.1016 96.882 51.4896 96.882C50.8776 96.882 50.3256 97.02 49.8336 97.296C49.3536 97.572 48.9696 97.968 48.6816 98.484C48.4056 98.988 48.2676 99.57 48.2676 100.23C48.2676 100.89 48.4056 101.478 48.6816 101.994C48.9696 102.498 49.3536 102.894 49.8336 103.182C50.3256 103.458 50.8776 103.596 51.4896 103.596ZM60.4854 97.062C60.7854 96.51 61.2294 96.09 61.8174 95.802C62.4054 95.514 63.1194 95.37 63.9594 95.37V97.044C63.8634 97.032 63.7314 97.026 63.5634 97.026C62.6274 97.026 61.8894 97.308 61.3494 97.872C60.8214 98.424 60.5574 99.216 60.5574 100.248V105H58.8294V95.46H60.4854V97.062ZM75.0013 91.644V105H73.3453V103.488C72.9613 104.016 72.4753 104.418 71.8873 104.694C71.2993 104.97 70.6513 105.108 69.9433 105.108C69.0193 105.108 68.1913 104.904 67.4593 104.496C66.7273 104.088 66.1513 103.518 65.7313 102.786C65.3233 102.042 65.1193 101.19 65.1193 100.23C65.1193 99.27 65.3233 98.424 65.7313 97.692C66.1513 96.96 66.7273 96.39 67.4593 95.982C68.1913 95.574 69.0193 95.37 69.9433 95.37C70.6273 95.37 71.2573 95.502 71.8333 95.766C72.4093 96.018 72.8893 96.396 73.2733 96.9V91.644H75.0013ZM70.0873 103.596C70.6873 103.596 71.2333 103.458 71.7253 103.182C72.2173 102.894 72.6013 102.498 72.8773 101.994C73.1533 101.478 73.2913 100.89 73.2913 100.23C73.2913 99.57 73.1533 98.988 72.8773 98.484C72.6013 97.968 72.2173 97.572 71.7253 97.296C71.2333 97.02 70.6873 96.882 70.0873 96.882C69.4753 96.882 68.9233 97.02 68.4313 97.296C67.9513 97.572 67.5673 97.968 67.2793 98.484C67.0033 98.988 66.8653 99.57 66.8653 100.23C66.8653 100.89 67.0033 101.478 67.2793 101.994C67.5673 102.498 67.9513 102.894 68.4313 103.182C68.9233 103.458 69.4753 103.596 70.0873 103.596ZM83.4368 92.4C85.0688 92.4 86.3528 92.79 87.2888 93.57C88.2248 94.35 88.6928 95.424 88.6928 96.792C88.6928 98.16 88.2248 99.234 87.2888 100.014C86.3528 100.794 85.0688 101.184 83.4368 101.184H80.3228V105H78.5228V92.4H83.4368ZM83.3828 99.618C84.5228 99.618 85.3928 99.378 85.9928 98.898C86.5928 98.406 86.8928 97.704 86.8928 96.792C86.8928 95.88 86.5928 95.184 85.9928 94.704C85.3928 94.212 84.5228 93.966 83.3828 93.966H80.3228V99.618H83.3828ZM92.5831 97.062C92.8831 96.51 93.3271 96.09 93.9151 95.802C94.5031 95.514 95.2171 95.37 96.0571 95.37V97.044C95.9611 97.032 95.8291 97.026 95.6611 97.026C94.7251 97.026 93.9871 97.308 93.4471 97.872C92.9191 98.424 92.6551 99.216 92.6551 100.248V105H90.9271V95.46H92.5831V97.062ZM106.721 100.284C106.721 100.416 106.709 100.59 106.685 100.806H98.9449C99.0529 101.646 99.4189 102.324 100.043 102.84C100.679 103.344 101.465 103.596 102.401 103.596C103.541 103.596 104.459 103.212 105.155 102.444L106.109 103.56C105.677 104.064 105.137 104.448 104.489 104.712C103.853 104.976 103.139 105.108 102.347 105.108C101.339 105.108 100.445 104.904 99.6649 104.496C98.8849 104.076 98.2789 103.494 97.8469 102.75C97.4269 102.006 97.2169 101.166 97.2169 100.23C97.2169 99.306 97.4209 98.472 97.8289 97.728C98.2489 96.984 98.8189 96.408 99.5389 96C100.271 95.58 101.093 95.37 102.005 95.37C102.917 95.37 103.727 95.58 104.435 96C105.155 96.408 105.713 96.984 106.109 97.728C106.517 98.472 106.721 99.324 106.721 100.284ZM102.005 96.828C101.177 96.828 100.481 97.08 99.9169 97.584C99.3649 98.088 99.0409 98.748 98.9449 99.564H105.065C104.969 98.76 104.639 98.106 104.075 97.602C103.523 97.086 102.833 96.828 102.005 96.828ZM111.856 105.108C111.076 105.108 110.326 105.006 109.606 104.802C108.886 104.586 108.322 104.316 107.914 103.992L108.634 102.624C109.054 102.924 109.564 103.164 110.164 103.344C110.764 103.524 111.37 103.614 111.982 103.614C113.494 103.614 114.25 103.182 114.25 102.318C114.25 102.03 114.148 101.802 113.944 101.634C113.74 101.466 113.482 101.346 113.17 101.274C112.87 101.19 112.438 101.1 111.874 101.004C111.106 100.884 110.476 100.746 109.984 100.59C109.504 100.434 109.09 100.17 108.742 99.798C108.394 99.426 108.22 98.904 108.22 98.232C108.22 97.368 108.58 96.678 109.3 96.162C110.02 95.634 110.986 95.37 112.198 95.37C112.834 95.37 113.47 95.448 114.106 95.604C114.742 95.76 115.264 95.97 115.672 96.234L114.934 97.602C114.154 97.098 113.236 96.846 112.18 96.846C111.448 96.846 110.89 96.966 110.506 97.206C110.122 97.446 109.93 97.764 109.93 98.16C109.93 98.472 110.038 98.718 110.254 98.898C110.47 99.078 110.734 99.21 111.046 99.294C111.37 99.378 111.82 99.474 112.396 99.582C113.164 99.714 113.782 99.858 114.25 100.014C114.73 100.158 115.138 100.41 115.474 100.77C115.81 101.13 115.978 101.634 115.978 102.282C115.978 103.146 115.606 103.836 114.862 104.352C114.13 104.856 113.128 105.108 111.856 105.108ZM120.874 105.108C120.094 105.108 119.344 105.006 118.624 104.802C117.904 104.586 117.34 104.316 116.932 103.992L117.652 102.624C118.072 102.924 118.582 103.164 119.182 103.344C119.782 103.524 120.388 103.614 121 103.614C122.512 103.614 123.268 103.182 123.268 102.318C123.268 102.03 123.166 101.802 122.962 101.634C122.758 101.466 122.5 101.346 122.188 101.274C121.888 101.19 121.456 101.1 120.892 101.004C120.124 100.884 119.494 100.746 119.002 100.59C118.522 100.434 118.108 100.17 117.76 99.798C117.412 99.426 117.238 98.904 117.238 98.232C117.238 97.368 117.598 96.678 118.318 96.162C119.038 95.634 120.004 95.37 121.216 95.37C121.852 95.37 122.488 95.448 123.124 95.604C123.76 95.76 124.282 95.97 124.69 96.234L123.952 97.602C123.172 97.098 122.254 96.846 121.198 96.846C120.466 96.846 119.908 96.966 119.524 97.206C119.14 97.446 118.948 97.764 118.948 98.16C118.948 98.472 119.056 98.718 119.272 98.898C119.488 99.078 119.752 99.21 120.064 99.294C120.388 99.378 120.838 99.474 121.414 99.582C122.182 99.714 122.8 99.858 123.268 100.014C123.748 100.158 124.156 100.41 124.492 100.77C124.828 101.13 124.996 101.634 124.996 102.282C124.996 103.146 124.624 103.836 123.88 104.352C123.148 104.856 122.146 105.108 120.874 105.108Z" fill="white"/>
</svg>
