<svg width="48" height="106" viewBox="0 0 48 106" fill="none" xmlns="http://www.w3.org/2000/svg">
<path d="M4 44H44" stroke="white" stroke-width="1.5" stroke-miterlimit="10" stroke-linecap="round" stroke-linejoin="round"/>
<path d="M34 4H14C8 4 6 7.58 6 12V44H42V12C42 7.58 40 4 34 4Z" stroke="white" stroke-width="1.5" stroke-miterlimit="10" stroke-linecap="round" stroke-linejoin="round"/>
<path d="M14 33H20" stroke="white" stroke-width="1.5" stroke-miterlimit="10" stroke-linecap="round" stroke-linejoin="round"/>
<path d="M28 33H34" stroke="white" stroke-width="1.5" stroke-miterlimit="10" stroke-linecap="round" stroke-linejoin="round"/>
<path d="M14 24H20" stroke="white" stroke-width="1.5" stroke-miterlimit="10" stroke-linecap="round" stroke-linejoin="round"/>
<path d="M28 24H34" stroke="white" stroke-width="1.5" stroke-miterlimit="10" stroke-linecap="round" stroke-linejoin="round"/>
<path d="M14 15H20" stroke="white" stroke-width="1.5" stroke-miterlimit="10" stroke-linecap="round" stroke-linejoin="round"/>
<path d="M28 15H34" stroke="white" stroke-width="1.5" stroke-miterlimit="10" stroke-linecap="round" stroke-linejoin="round"/>
<path d="M20.1788 90.78L24.6788 98H22.5588L19.1188 92.48L15.6788 98H13.5788L18.0788 90.8L13.8388 84H15.9388L19.1188 89.1L22.2988 84H24.3988L20.1788 90.78ZM28.3756 84V96.24H34.4156V98H26.5156V84H28.3756Z" fill="white"/>
</svg>
