<svg width="48" height="106" viewBox="0 0 48 106" fill="none" xmlns="http://www.w3.org/2000/svg">
<path d="M31.0001 22H17.0001C15.3401 22 14.0001 23.34 14.0001 25V44H34.0001V25C34.0001 23.34 32.6601 22 31.0001 22Z" stroke="white" stroke-width="1.5" stroke-miterlimit="10" stroke-linecap="round" stroke-linejoin="round"/>
<path d="M4 44H44" stroke="white" stroke-width="1.5" stroke-miterlimit="10" stroke-linecap="round" stroke-linejoin="round"/>
<path d="M5.90002 44.0005L6.00003 19.9405C6.00003 18.7205 6.58002 17.5606 7.54002 16.8006L21.54 5.90055C22.98 4.78055 25 4.78055 26.46 5.90055L40.46 16.7806C41.44 17.5406 42 18.7005 42 19.9405V44.0005" stroke="white" stroke-width="1.5" stroke-miterlimit="10" stroke-linejoin="round"/>
<path d="M20 32.5V35.5" stroke="white" stroke-width="1.5" stroke-miterlimit="10" stroke-linecap="round" stroke-linejoin="round"/>
<path d="M21 15H27" stroke="white" stroke-width="1.5" stroke-miterlimit="10" stroke-linecap="round" stroke-linejoin="round"/>
<path d="M19.0928 90.78L23.5928 98H21.4728L18.0328 92.48L14.5928 98H12.4928L16.9928 90.8L12.7528 84H14.8528L18.0328 89.1L21.2128 84H23.3128L19.0928 90.78ZM29.3247 98.26C28.018 98.26 26.898 97.96 25.9647 97.36C25.0447 96.7467 24.398 95.9 24.0247 94.82L25.6247 93.9C26.158 95.5933 27.4047 96.44 29.3647 96.44C30.3114 96.44 31.038 96.2467 31.5447 95.86C32.0647 95.4733 32.3247 94.9467 32.3247 94.28C32.3247 93.6267 32.0714 93.1267 31.5647 92.78C31.1114 92.4733 30.2647 92.12 29.0247 91.72L27.6847 91.28C27.3914 91.16 27.0047 90.9867 26.5247 90.76C26.058 90.52 25.718 90.28 25.5047 90.04C24.918 89.4 24.6247 88.62 24.6247 87.7C24.6247 86.4733 25.0514 85.5133 25.9047 84.82C26.758 84.1 27.798 83.74 29.0247 83.74C30.118 83.74 31.078 84.0133 31.9047 84.56C32.7314 85.1067 33.3514 85.8533 33.7647 86.8L32.2047 87.7C31.6047 86.26 30.5447 85.54 29.0247 85.54C28.2647 85.54 27.6514 85.7267 27.1847 86.1C26.718 86.4733 26.4847 86.98 26.4847 87.62C26.4847 88.2333 26.7047 88.7 27.1447 89.02C27.598 89.3533 28.358 89.6867 29.4247 90.02L30.2447 90.28C30.698 90.4533 30.9447 90.5467 30.9847 90.56C31.4114 90.72 31.878 90.94 32.3847 91.22C32.7447 91.42 33.1047 91.7267 33.4647 92.14C33.9314 92.6067 34.1647 93.3067 34.1647 94.24C34.1647 95.4667 33.718 96.4467 32.8247 97.18C31.918 97.9 30.7514 98.26 29.3247 98.26Z" fill="white"/>
</svg>
